# Blender 3.5.0
# www.blender.org
mtllib prv1f-3.mtl
o Cube.002
v 48.039898 14.772343 100.096756
v 65.769516 14.772343 100.061935
v 65.800575 49.732288 117.191956
v 48.070957 49.732288 117.226776
v 48.070957 14.772343 117.226776
v 65.800575 14.772343 117.191956
v 65.769516 49.732288 100.061935
v 48.039898 49.732288 100.096756
v 65.800575 67.134239 117.191956
v 48.070957 67.134239 117.226776
v 65.769516 67.134239 100.061935
v 48.039898 67.134239 100.096756
v 65.833076 49.732288 133.740860
v 48.103458 49.732288 133.775681
v 65.833076 67.134239 133.740860
v 48.103458 67.134239 133.775681
v 84.567383 49.732288 117.191956
v 144.962357 49.732288 117.073341
v 84.567383 67.134239 117.191956
v 84.599884 49.732288 133.740860
v 84.599884 67.134239 133.740860
v 144.962357 67.134239 117.073341
v 144.994858 49.732288 133.622253
v 144.994858 67.134239 133.622253
v 84.567383 40.519493 117.191956
v 144.962357 40.519493 117.073341
v 84.599884 40.519493 133.740860
v 144.994858 40.519493 133.622253
v 176.354080 49.732288 117.038162
v 176.354080 67.134239 117.038162
v 176.386581 49.732288 133.587067
v 176.386581 67.134239 133.587067
v 220.711975 49.732288 116.951042
v 220.711975 67.134239 116.951042
v 220.744476 49.732288 133.499954
v 220.744476 67.134239 133.499954
v 176.354080 11.175030 117.038162
v 176.386581 11.175030 133.587067
v 220.711975 11.175030 116.951042
v 220.744476 11.175030 133.499954
v 252.274323 49.732288 116.911842
v 252.274323 67.134239 116.911842
v 252.306824 49.732288 133.460754
v 252.306824 67.134239 133.460754
v 299.703125 49.732288 116.818695
v 299.703125 67.134239 116.818695
v 299.735626 49.732288 133.367599
v 299.735626 67.134239 133.367599
v 252.274323 11.175030 116.911842
v 252.306824 11.175030 133.460754
v 299.703125 11.175030 116.818695
v 299.735626 11.175030 133.367599
v 320.005402 49.732288 116.778824
v 320.005402 67.134239 116.778824
v 320.037903 49.732288 133.327728
v 320.037903 67.134239 133.327728
vn 1.0000 -0.0000 -0.0018
vn -1.0000 -0.0000 0.0018
vn 0.0020 -0.0000 1.0000
vn -0.0020 -0.0000 -1.0000
vn -0.0000 -1.0000 -0.0000
vn -0.0000 1.0000 -0.0000
vn 1.0000 -0.0000 -0.0020
vn -0.0000 -0.0000 -1.0000
vn -0.0000 -0.0000 1.0000
vn -1.0000 -0.0000 0.0020
vn 0.0011 -0.0000 1.0000
vn -0.0011 -0.0000 -1.0000
vn 0.0012 -0.0000 1.0000
vn -0.0012 -0.0000 -1.0000
vt 62.911057 -116.282707
vt 33.987461 -19.446646
vt 48.199738 -71.314148
vt 49.213749 -19.446646
vt 33.987461 55.545631
vt 62.911083 -41.290432
vt -9.896391 102.029503
vt 77.123367 -101.056442
vt 49.213749 55.545650
vt 77.138733 -116.282707
vt 48.199715 -86.259003
vt 48.199715 -116.282707
vt 49.213749 25.521925
vt 62.911083 -71.314148
vt 33.987461 25.521925
vt 49.213737 10.577064
vt 48.199738 -41.290443
vt 62.911057 -86.259003
vt 33.987461 10.577064
vt 62.911083 -26.345591
vt 19.759804 102.043800
vt 5.048459 102.029503
vt 48.199715 -71.314148
vt 19.775177 117.270081
vt 49.213737 25.521925
vt 48.199738 -26.345591
vt 5.048466 102.056442
vt 62.911057 -71.314148
vt 33.987461 25.521925
vt 5.063842 117.282707
vt -76.122589 102.029533
vt 91.335648 -101.042084
vt -76.122589 117.255798
vt 91.351021 -116.268356
vt 33.987446 -86.259003
vt 33.972076 102.029457
vt -91.067436 102.029533
vt -91.067436 117.255798
vt 33.987446 -71.314163
vt 33.987461 117.255737
vt 77.638329 21.736923
vt 77.138733 -84.939461
vt -9.896391 85.912537
vt 77.638329 -19.446646
vt 77.123383 -44.198021
vt -9.896391 34.045036
vt 5.048459 85.912537
vt 19.775177 85.926819
vt 77.638329 7.524658
vt 91.351021 -84.925102
vt -76.122589 85.912552
vt 33.987461 85.912460
vt -91.067436 85.912552
vt 5.048466 34.045036
vt 19.722805 34.059353
vt 91.850594 -19.434673
vt 77.123383 -29.985731
vt -76.122589 34.045055
vt -91.067436 34.045055
vt 33.935089 34.044987
vt 85.550301 21.736923
vt 33.987461 -71.314148
vt -17.808369 85.912537
vt 33.987461 -19.446646
vt 85.035370 -44.198021
vt -17.808369 34.045036
vt 85.550301 7.524658
vt 48.199738 -71.314148
vt -68.210609 85.912552
vt 48.199738 -19.446646
vt -68.210609 34.045055
vt 85.035370 -29.985731
vt 77.638329 7.512685
vt 63.426022 54.398540
vt -9.896391 7.085710
vt 5.048466 7.085710
vt 19.718307 7.100007
vt 91.850594 7.524658
vt -76.122581 7.085723
vt 49.213749 54.398540
vt -91.067436 7.085723
vt 33.930592 7.085668
vt 62.911102 -38.201054
vt -9.896383 -31.009050
vt 77.123383 -71.314148
vt 19.679836 -30.994745
vt 5.048466 -31.009050
vt 77.123383 -38.201054
vt 91.335678 -71.303886
vt -76.122581 -31.009043
vt 33.892113 -31.009092
vt -91.067436 -31.009043
vt 62.911072 -116.282707
vt 63.426033 21.285431
vt -43.009483 7.085710
vt -43.009483 7.085723
vt 77.123352 -116.282707
vt 49.213749 21.285431
vt 62.911072 -78.187927
vt -43.009483 -31.009050
vt 62.911102 -71.314148
vt -43.009483 -31.009043
vt 77.123352 -78.187927
vt 77.123383 -71.314148
vt 77.123383 -44.208279
vt -9.896383 -58.114925
vt 77.638329 46.779530
vt 19.672031 -58.100605
vt 5.048466 -58.114925
vt 91.335678 -44.198021
vt -76.122581 -58.114914
vt 63.426056 46.779530
vt 33.884315 -58.114956
vt -91.067436 -58.114914
vt -9.896383 -98.847031
vt 63.426044 13.666443
vt 77.123383 -20.765362
vt 5.048473 -98.847031
vt 19.630894 -98.832672
vt 77.638329 13.666443
vt 62.911102 -20.765362
vt -76.122581 -98.847000
vt -91.067436 -98.847000
vt 33.843166 -98.847031
vt -43.009483 -58.114925
vt 63.426044 21.285431
vt 77.638336 13.666443
vt 49.213749 21.285431
vt -43.009483 -58.114914
vt 63.426056 13.666443
vt -43.009480 -98.847031
vt 63.426044 -19.446651
vt 49.213749 -19.446646
vt 77.638329 -19.446646
vt -43.009483 -98.847000
vt -9.896383 -116.282707
vt 77.123383 -38.201046
vt 5.048473 -116.282707
vt 19.613293 -116.268356
vt 62.911102 -38.201046
vt -76.122581 -116.282707
vt -91.067436 -116.282707
vt 33.825569 -116.282707
s 0
usemtl Material.001
f 1/1/1 8/18/1 4/11/1 5/12/1
f 2/3/2 6/14/2 3/6/2 7/17/2
f 1/2/3 2/4/3 7/16/3 8/19/3
f 5/13/4 4/9/4 3/5/4 6/15/4
f 4/11/1 8/18/1 12/28/1 10/23/1
f 8/19/3 7/16/3 11/25/3 12/29/3
f 15/36/5 9/21/5 19/48/5 21/52/5
f 7/17/2 3/6/2 9/20/2 11/26/2
f 9/21/5 10/24/5 12/30/5 11/27/5
f 13/31/4 14/33/4 16/38/4 15/37/4
f 3/8/6 4/10/6 14/34/6 13/32/6
f 4/11/7 10/23/7 16/39/7 14/35/7
f 10/24/5 9/21/5 15/36/5 16/40/5
f 17/41/7 20/49/7 27/67/7 25/61/7
f 18/44/6 23/56/6 31/78/6 29/73/6
f 13/31/8 15/37/8 21/53/8 20/51/8
f 9/22/9 3/7/9 17/43/9 19/47/9
f 3/8/6 13/32/6 20/50/6 17/42/6
f 19/47/3 17/43/3 18/46/3 22/54/3
f 21/52/5 19/48/5 22/55/5 24/60/5
f 20/51/4 21/53/4 24/59/4 23/58/4
f 25/62/6 27/68/6 28/70/6 26/64/6
f 20/51/4 23/58/4 28/71/4 27/69/4
f 23/57/10 18/45/10 26/65/10 28/72/10
f 18/46/3 17/43/3 25/63/3 26/66/3
f 30/76/3 29/75/3 33/84/3 34/87/3
f 22/54/11 18/46/11 29/75/11 30/76/11
f 23/58/12 24/59/12 32/81/12 31/79/12
f 24/60/5 22/55/5 30/77/5 32/82/5
f 36/91/5 34/86/5 42/108/5 44/113/5
f 31/79/4 35/90/4 40/102/4 38/96/4
f 31/79/4 32/81/4 36/92/4 35/90/4
f 32/82/5 30/77/5 34/86/5 36/91/5
f 37/93/6 38/97/6 40/103/6 39/99/6
f 29/74/7 31/80/7 38/98/7 37/94/7
f 33/84/3 29/75/3 37/95/3 39/100/3
f 35/88/10 33/83/10 39/101/10 40/104/10
f 44/113/5 42/108/5 46/119/5 48/124/5
f 34/87/13 33/84/13 41/106/13 42/109/13
f 33/85/6 35/89/6 43/110/6 41/105/6
f 35/90/14 36/92/14 44/114/14 43/111/14
f 46/118/3 45/115/3 53/136/3 54/138/3
f 42/109/3 41/106/3 45/115/3 46/118/3
f 45/115/3 41/106/3 49/125/3 51/131/3
f 43/111/4 44/114/4 48/123/4 47/122/4
f 49/126/6 50/128/6 52/133/6 51/132/6
f 47/120/10 45/116/10 51/132/10 52/134/10
f 43/111/4 47/122/4 52/135/4 50/129/4
f 41/107/7 43/112/7 50/130/7 49/127/7
f 45/117/6 47/121/6 55/140/6 53/137/6
f 47/122/4 48/123/4 56/142/4 55/141/4
f 48/124/5 46/119/5 54/139/5 56/143/5
