# Blender 3.5.0
# www.blender.org
mtllib prv1d-1.mtl
o Cube
v -2.600587 -0.022985 2.600587
v -2.600587 4.814509 2.600587
v -2.600587 -0.022985 -2.600587
v -2.600587 4.814509 -2.600587
v 2.600587 -0.022985 2.600587
v 2.600587 4.814509 2.600587
v 2.600587 -0.022985 -2.600587
v 2.600587 4.814509 -2.600587
v 0.500000 -0.022985 -2.600587
v 0.500000 4.814509 -2.600587
v 0.500000 -0.022985 2.600587
v 0.500000 4.814509 2.600587
v -0.450294 -0.022985 -2.600587
v -0.450294 4.814509 2.600587
v -0.450294 4.814509 -2.600587
v -0.450294 -0.022985 2.600587
v -2.600587 1.886492 2.600587
v -2.600587 1.886492 -2.600587
v 2.600587 1.886492 -2.600587
v 0.500000 1.886492 2.600587
v 0.500000 1.886492 -2.600587
v -0.450294 1.886492 -2.600587
v -0.450294 1.886492 2.600587
v 2.799413 -0.022985 2.964299
v 2.799413 4.814509 2.964299
v 8.000587 -0.022985 2.964299
v 8.000587 4.814509 2.964299
v 2.799413 1.886492 2.964299
v 8.000587 1.886492 2.964299
v -8.000587 4.814509 2.964299
v -2.799413 4.814509 2.964299
v -4.900000 -0.022985 2.964299
v -4.900000 4.814509 2.964299
v -5.850294 4.814509 2.964299
v -2.799413 1.886492 2.964299
v -4.900000 1.886492 2.964299
v -5.850294 1.886492 2.964299
v -8.199413 4.814509 2.964299
v -8.199413 1.886492 2.964299
v -18.800587 4.814509 2.964299
v -13.599413 4.814509 2.964299
v -18.800587 1.886492 2.964299
v -13.599413 1.886492 2.964299
v 24.402536 -0.022985 2.964299
v 24.402536 4.814509 2.964299
v 27.503124 -0.022985 2.964299
v 27.503124 4.814509 2.964299
v 26.552830 4.814509 2.964299
v 26.552830 -0.022985 2.964299
v 24.402536 1.886492 2.964299
v 27.503124 1.886492 2.964299
v 26.552830 1.886492 2.964299
v 29.802538 -0.022985 2.964299
v 29.802538 4.814509 2.964299
v 35.003712 -0.022985 2.964299
v 35.003712 4.814509 2.964299
v 32.903126 -0.022985 2.964299
v 32.903126 4.814509 2.964299
v 31.952831 4.814509 2.964299
v 31.952831 -0.022985 2.964299
v 29.802538 1.886492 2.964299
v 35.003712 1.886492 2.964299
v 32.903126 1.886492 2.964299
v 31.952831 1.886492 2.964299
v 19.002537 -0.022985 2.964299
v 19.002537 4.814509 2.964299
v 19.002537 1.886492 2.964299
v 24.203712 1.886492 2.964299
v 13.602537 -0.022985 2.964299
v 13.602537 4.814509 2.964299
v 13.602537 1.886492 2.964299
v 8.202538 -0.022985 2.600587
v 8.202538 4.814509 2.600587
v 8.202538 -0.022985 -2.600587
v 8.202538 4.814509 -2.600587
v 13.403711 -0.022985 2.600587
v 13.403711 4.814509 2.600587
v 13.403711 -0.022985 -2.600587
v 13.403711 4.814509 -2.600587
v 11.303123 -0.022985 -2.600587
v 11.303123 4.814509 -2.600587
v 11.303123 -0.022985 2.600587
v 11.303123 4.814509 2.600587
v 10.352831 -0.022985 -2.600587
v 10.352831 4.814509 -2.600587
v 10.352831 -0.022985 2.600587
v 8.202538 1.886492 2.600587
v 8.202538 1.886492 -2.600587
v 13.403711 1.886492 -2.600587
v 13.403711 1.886492 2.600587
v 11.303123 1.886492 -2.600587
v 10.352831 1.886492 -2.600587
v 10.352831 1.886492 2.600587
v 18.828560 4.814509 11.754696
v 18.828560 1.886492 11.754696
v 13.428559 4.814509 11.754695
v 10.377676 -0.022985 11.754696
v 10.327972 4.814509 11.754695
v 13.428559 1.886492 11.754695
v 10.327972 1.886492 11.754695
v 11.278266 1.886492 11.754695
v 19.027386 4.814509 11.754696
v 24.228561 1.886492 11.754696
v 29.628557 -0.022985 12.140451
v 29.628557 4.814509 12.140451
v 29.628557 -0.022985 17.341625
v 29.628557 4.814509 17.341625
v 24.427387 4.814509 12.140450
v 24.427387 -0.022985 17.341625
v 24.427387 4.814509 17.341625
v 26.527973 -0.022985 17.341625
v 26.527973 4.814509 17.341625
v 27.478268 -0.022985 17.341625
v 27.478268 4.814509 12.140450
v 27.478268 4.814509 17.341625
v 29.628557 1.886492 12.140451
v 29.628557 1.886492 17.341625
v 24.427387 1.886492 17.341625
v 24.427387 1.886492 12.140450
v 26.527973 1.886492 12.140450
v 26.527973 1.886492 17.341625
v 27.478268 1.886492 17.341625
v 35.028561 -0.022985 12.140451
v 35.028561 4.814509 12.140451
v 35.028561 -0.022985 17.341625
v 35.028561 4.814509 17.341625
v 29.827383 -0.022985 12.140451
v 29.827383 4.814509 12.140451
v 29.827383 -0.022985 17.341625
v 29.827383 4.814509 17.341625
v 31.927975 -0.022985 17.341625
v 31.927975 4.814509 17.341625
v 31.927975 4.814509 12.140451
v 32.878265 -0.022985 17.341625
v 32.878265 4.814509 17.341625
v 35.028561 1.886492 17.341625
v 29.827383 1.886492 17.341625
v 31.927975 1.886492 17.341625
v 32.878265 1.886492 17.341625
v 32.878265 1.886492 12.140451
v -8.174566 -0.022985 11.754694
v -8.174566 4.814509 11.754694
v -13.375742 -0.022985 11.754694
v -13.375742 4.814509 11.754694
v -8.174566 1.886492 11.754694
v -13.375742 1.886492 11.754694
v -18.775738 -0.022985 11.754693
v -18.775738 1.886492 11.754693
v -2.774565 -0.022985 12.140449
v -2.774565 4.814509 12.140449
v -2.774565 -0.022985 17.341623
v -2.774565 4.814509 17.341623
v -7.975739 -0.022985 12.140448
v -7.975739 4.814509 12.140448
v -7.975739 -0.022985 17.341621
v -7.975739 4.814509 17.341621
v -5.875153 -0.022985 17.341621
v -5.875153 4.814509 17.341621
v -5.875153 -0.022985 12.140448
v 2.600587 1.886492 2.600587
v -4.924858 -0.022985 17.341621
v -4.924858 4.814509 17.341621
v -4.924858 -0.022985 12.140448
v -2.774565 1.886492 17.341623
v -7.975739 1.886492 17.341621
v -5.875153 1.886492 12.140448
v -5.875153 1.886492 17.341621
v -4.924858 1.886492 17.341621
v -4.924858 1.886492 12.140448
v -2.575739 -0.022985 11.754694
v -0.475153 -0.022985 11.754694
v -0.475153 4.814509 11.754694
v 0.524849 4.814509 11.754696
v 0.475142 -0.022985 11.754694
v 2.625435 1.886492 11.754694
v -2.575739 1.886492 11.754694
v -0.475153 1.886492 11.754694
v 0.475142 1.886492 11.754694
v 8.025434 1.886492 11.754695
v 2.824261 1.886492 11.754694
v 24.427382 -0.022985 12.140451
v 27.478268 -0.022985 12.140450
v 26.527973 -0.022985 12.140450
v 32.878265 -0.022985 12.140451
v 31.927975 -0.022985 12.140451
v 8.025434 -0.022985 11.754695
v 24.203712 -0.022985 2.964300
v 29.628557 -0.022985 11.754696
v 29.628557 4.814509 11.754696
v 26.527973 4.814509 11.754695
v 29.628557 1.886492 11.754696
v 26.527973 1.886492 11.754695
v 27.478268 1.886492 11.754695
v 35.028561 -0.022985 11.754696
v 35.028561 4.814509 11.754696
v 35.028561 1.886492 11.754696
v 29.827383 1.886492 11.754696
v 31.927975 1.886492 11.754696
v 32.878265 1.886492 11.754696
v -2.774565 -0.022985 11.754693
v -2.774565 4.814509 11.754693
v -5.875153 -0.022985 11.754692
v -5.875153 4.814509 11.754692
v -4.924858 4.814509 11.754692
v -4.924858 -0.022985 11.754692
v -2.774565 1.886492 11.754693
v -5.875153 1.886492 11.754692
v -4.924858 1.886492 11.754692
v 26.527973 -0.022985 11.754695
v 32.878265 -0.022985 11.754696
v -2.600587 4.814509 2.964299
v 2.600587 4.814509 2.964299
v 0.500000 4.814509 2.964299
v -0.450294 4.814509 2.964299
v -0.450294 -0.022985 2.964299
v 2.600587 1.886492 2.964299
v 0.500000 1.886492 2.964299
v -0.450294 1.886492 2.964299
v 8.202538 -0.022985 2.964299
v 8.202538 4.814509 2.964299
v 13.403711 -0.022985 2.964299
v 11.303123 -0.022985 2.964299
v 11.303123 4.814509 2.964299
v 10.352831 4.814509 2.964299
v 10.352831 -0.022985 2.964299
v 8.202538 1.886492 2.964299
v 13.403711 1.886492 2.964299
v 11.303123 1.886492 2.964299
v 10.352831 1.886492 2.964299
v -13.574568 -0.022985 11.754694
v -13.574568 1.886492 11.754694
v -7.975739 -0.022985 11.754692
v -7.975739 1.886492 11.754692
v 19.027386 1.886492 11.754696
v 13.627385 1.886492 11.754695
v 8.227385 1.886492 11.754695
v 24.427387 4.814509 11.754696
v 24.427387 1.886492 11.754696
v 29.827383 -0.022985 11.754696
v 29.827383 4.814509 11.754696
v 29.603712 -0.022985 2.964299
v 29.603712 4.814509 2.964299
v 29.603712 1.886492 2.964299
v 24.203711 4.814509 2.964299
v 18.803711 -0.022985 2.964299
v 18.803711 4.814509 2.964299
v 18.803711 1.886492 2.964299
v 13.403711 4.814509 2.964299
v -2.600587 1.886492 2.964299
v -8.000587 1.886492 2.964299
v -13.400587 4.814509 2.964299
v -13.400587 1.886492 2.964299
v -8.199415 -0.022985 2.964300
v -13.400591 -0.022985 2.964300
v -18.800587 -0.022985 2.964299
v -13.599417 -0.022985 2.964300
v 2.824260 -0.022985 11.754695
v 2.625434 -0.022985 11.754695
v 24.427382 -0.022985 11.754696
v 19.027382 -0.022985 11.754696
v 13.627382 -0.022985 11.754696
v 24.228558 -0.022985 11.754696
v 18.828556 -0.022985 11.754696
v 27.478268 -0.022985 11.754695
v 31.927975 -0.022985 11.754696
v 8.227383 -0.022985 11.754696
v 13.428556 -0.022985 11.754696
v 11.278266 -0.022985 11.754695
v -2.600588 -0.022985 2.964301
v 0.500000 -0.022985 2.964299
v -2.799414 -0.022985 2.964300
v -5.850294 -0.022985 2.964299
v -8.000587 -0.022985 2.964299
v 2.600585 -0.022985 2.964302
v 2.824262 4.814509 11.754696
v 8.025436 4.814509 11.754696
v -7.975739 4.814509 11.754696
v -18.775738 4.814509 11.754696
v -13.574564 4.814509 11.754696
v 27.478268 4.814509 11.754695
v 32.878265 4.814509 11.754696
v 31.927975 4.814509 11.754696
v 13.627386 4.814509 11.754696
v -2.575738 4.814509 11.754696
v 2.625436 4.814509 11.754696
v 8.227386 4.814509 11.754696
v 11.278266 4.814509 11.754695
v 24.228559 4.814509 11.754696
v -4.924858 4.814509 12.140448
v -2.774565 1.886492 12.140449
v -5.875153 4.814509 12.140448
v -7.975739 1.886492 12.140448
v 10.352831 4.814509 2.600587
v 11.303123 1.886492 2.600587
v 32.878265 4.814509 12.140451
v 31.927975 1.886492 12.140451
v 29.827383 1.886492 12.140451
v 35.028561 1.886492 12.140451
v 27.478268 1.886492 12.140450
v 26.527973 4.814509 12.140450
vn 1.0000 -0.0000 -0.0000
vn -0.0000 -0.0000 1.0000
vn -1.0000 -0.0000 -0.0000
vn -0.0000 1.0000 -0.0000
vn -0.0000 -1.0000 -0.0000
vn -0.0000 -0.0000 -1.0000
vn 1.0000 -0.0000 -0.0028
vt -27.156216 -17.020702
vt 32.317650 -17.996067
vt 36.302258 24.529293
vt 28.154423 -17.996067
vt 19.649343 -17.996067
vt 32.139034 24.529293
vt -35.661285 -17.020702
vt 36.480873 -43.511292
vt 32.317650 -9.490993
vt 28.154423 -9.490993
vt 19.649343 -26.501137
vt 32.317650 -43.511292
vt -27.156216 -8.515630
vt 32.317650 -0.985921
vt 36.302258 16.024225
vt 28.154423 -0.985921
vt 28.154423 -17.996067
vt 32.139034 16.024225
vt -35.661285 -8.515630
vt 32.317650 -9.490993
vt 36.480873 -35.006218
vt 32.317650 -35.006218
vt 28.154423 -9.490993
vt 28.154423 -26.501137
vt -35.661285 -11.950555
vt 36.480873 -38.441143
vt 32.317650 -38.441143
vt 24.719494 -26.501137
vt -27.156216 -11.950555
vt 33.544842 24.529305
vt 36.302258 19.459152
vt 24.719488 -17.996067
vt 32.139034 19.459152
vt -35.661285 -13.504496
vt 36.480873 -39.995087
vt 23.165548 -17.996067
vt 32.139034 21.013088
vt 32.317650 -39.995087
vt 23.165554 -26.501137
vt -27.156216 -13.504496
vt 32.355331 24.529305
vt 36.302258 21.013088
vt 29.195225 -17.996067
vt 33.179832 24.529293
vt 33.358448 -43.511292
vt 29.195225 -9.490993
vt 29.195225 -9.490993
vt 33.358448 -35.006218
vt 35.365139 27.637190
vt 33.544842 27.651722
vt 33.179832 19.459152
vt 33.358448 -38.441143
vt 33.358448 -39.995087
vt 35.365139 26.083252
vt 32.355331 27.651722
vt 33.179832 21.013088
vt 19.649345 -8.190507
vt -26.561470 -8.190507
vt 15.486122 -8.190507
vt -3.051355 9.190509
vt 19.649345 0.314568
vt -26.561470 0.314568
vt 15.486122 0.314568
vt -3.051355 0.685435
vt 16.526928 -8.190507
vt 16.526928 0.314568
vt 15.486122 -25.850899
vt -3.051355 26.850899
vt 15.486122 -17.345827
vt -3.051355 18.345827
vt 19.649345 -20.780752
vt -26.561464 -20.780752
vt 15.486122 -20.780752
vt -3.051355 21.780756
vt 15.486122 -22.334692
vt -3.051355 23.334696
vt 16.526928 -17.345827
vt 16.526928 -20.780752
vt 16.526928 -22.334692
vt 15.486122 -26.176020
vt -3.051355 27.176020
vt 16.526928 -26.176020
vt 15.486122 -43.511292
vt -3.051355 44.511292
vt 19.649343 13.388335
vt 15.486122 -35.006218
vt -3.051355 36.006222
vt 16.526928 -43.511292
vt 20.690155 13.388335
vt 16.526928 -35.006218
vt 19.649345 27.135391
vt -26.561470 27.135391
vt 15.486122 27.135391
vt -3.051352 -26.135386
vt 19.649345 32.205536
vt -26.561470 32.205536
vt 15.486122 32.205536
vt -3.051352 -31.205532
vt 15.486122 30.651592
vt -3.051352 -29.651596
vt 19.649345 30.651592
vt -26.561470 30.651592
vt 16.526928 27.135391
vt 16.526928 32.205536
vt 16.526928 30.651592
vt 19.649345 35.965588
vt -26.561470 35.965588
vt 15.486122 35.965588
vt -3.051352 -34.965588
vt 19.649345 44.470661
vt -26.561470 44.470661
vt 15.486122 44.470661
vt -3.051352 -43.470657
vt 19.649345 41.035732
vt -26.561470 41.035732
vt 15.486122 41.035732
vt -3.051352 -40.035736
vt 15.486122 39.481789
vt -3.051352 -38.481789
vt 19.649345 39.481789
vt -26.561470 39.481789
vt 16.526928 35.965588
vt 16.526928 44.470661
vt 16.526928 41.035732
vt 16.526928 39.481789
vt 19.649345 18.305193
vt -26.561470 18.305193
vt 15.486122 18.305193
vt -3.051352 -17.305191
vt 16.526928 18.305193
vt 16.526928 26.810265
vt 19.649345 9.474998
vt -26.561470 9.474998
vt 15.486122 9.474998
vt -3.051352 -8.474995
vt 16.526928 9.474998
vt -27.156219 0.644800
vt 32.317650 -26.501141
vt 36.480873 -9.490999
vt 28.154423 -26.501141
vt 19.649343 -9.490993
vt 32.317650 -9.490999
vt -35.661285 0.644800
vt 36.480873 -26.501137
vt 32.317650 -17.996069
vt 28.154423 -17.996069
vt 19.649343 -17.996067
vt 32.317650 -26.501137
vt -27.156219 9.149875
vt 32.139019 24.529310
vt 36.480873 -17.996069
vt 27.975800 24.529310
vt 28.154423 -9.490991
vt 32.317650 -17.996069
vt -35.661285 9.149875
vt 32.139019 16.024239
vt 36.480873 -17.996069
vt 32.317650 -17.996069
vt 27.975800 16.024239
vt 28.154423 -17.996063
vt -35.661285 5.714944
vt 36.480873 -21.430994
vt 32.317650 -21.430994
vt 24.719488 -17.996067
vt 32.950089 24.529305
vt -27.156219 5.714944
vt 36.480873 -14.561142
vt 24.719488 -9.490991
vt 32.317650 -14.561142
vt -35.661285 4.161009
vt 36.480873 -22.984932
vt 32.317650 -22.984932
vt 23.165554 -17.996067
vt 32.950092 24.529305
vt -27.156219 4.161009
vt 36.480873 -13.007206
vt 29.195229 -26.501141
vt 33.358448 -9.490999
vt 33.358448 -26.501137
vt 29.195229 -17.996069
vt 29.016602 16.024239
vt 33.358448 -17.996069
vt 29.016598 24.529310
vt 33.358448 -17.996069
vt 33.358448 -21.430994
vt 33.358448 -22.984932
vt 32.950092 27.651722
vt 35.959888 26.083252
vt 33.358448 -13.007206
vt 11.322893 -17.020699
vt 12.363703 -17.020704
vt 11.322893 -8.190500
vt 15.486122 -3.201633
vt -12.187222 4.201633
vt 11.322893 -3.120353
vt 12.363703 -8.190504
vt 12.363703 -3.120356
vt 12.363703 -4.674299
vt 11.322893 -17.345827
vt 12.363703 -25.850903
vt -11.556427 35.681091
vt 36.480873 -9.490995
vt 27.975792 21.893410
vt 32.317650 -9.490995
vt 28.154411 -9.490989
vt 23.812567 21.893410
vt -3.051355 35.681091
vt 27.975800 21.893410
vt 36.480873 -0.985924
vt 32.317650 -0.985924
vt 28.154411 -0.985918
vt 23.812572 21.893410
vt 28.154423 -35.006218
vt 19.649343 -9.490993
vt 23.812567 13.388348
vt -3.051355 27.176020
vt 32.317650 -43.511292
vt 27.975800 30.398483
vt 23.812572 30.398483
vt 28.154423 -43.511292
vt 19.649343 -0.985918
vt -3.051355 30.610945
vt 27.975800 26.963554
vt 23.812572 26.963554
vt 23.084270 -0.985918
vt -3.051355 32.164894
vt 27.975800 25.409615
vt 24.638206 -9.490991
vt 23.812567 18.377209
vt 23.812572 25.409615
vt 24.638206 -0.985918
vt 33.358448 -9.490995
vt 24.853373 21.893410
vt 24.853378 21.893410
vt 33.358448 -0.985924
vt 29.195229 -43.511292
vt 24.853378 30.398483
vt 29.195229 -35.006218
vt 24.853373 13.388348
vt 29.237394 27.651722
vt 34.139584 24.529305
vt 24.853373 16.823271
vt 24.853378 26.963554
vt 24.853378 25.409615
vt -11.556427 44.511292
vt 23.812567 21.893419
vt 28.154423 -35.006214
vt 19.649343 21.893419
vt -3.051355 44.511292
vt 32.139034 -0.985916
vt 23.812567 30.398491
vt 19.649343 30.398491
vt 19.649343 -35.006214
vt 27.975800 -0.985916
vt -11.556427 36.006218
vt 32.139034 16.024231
vt 23.812567 13.388335
vt 27.975800 16.024231
vt 28.154423 -43.511292
vt 19.649343 13.388335
vt -3.051355 36.006218
vt 32.139034 7.519156
vt 27.975800 7.519156
vt 19.649343 -43.511292
vt -3.051355 39.441147
vt 32.139034 4.084227
vt 27.975800 4.084227
vt 19.649343 -40.076359
vt 28.154423 -40.076359
vt 19.649343 16.823271
vt -3.051355 40.995079
vt 32.139034 2.530290
vt 27.975800 2.530290
vt 19.649343 -38.522423
vt 29.016602 -0.985916
vt 20.690149 30.398491
vt 29.016602 7.519156
vt 29.016602 4.084227
vt 29.016602 2.530290
vt 30.498985 27.651722
vt 34.139584 27.637184
vt 20.690149 18.377209
vt 15.486122 27.135395
vt -12.187223 -26.135395
vt 11.322889 27.135395
vt 15.486122 35.640469
vt -12.187223 -34.640465
vt 11.322889 35.640469
vt 12.363703 27.135395
vt 12.363703 35.640469
vt 15.486122 44.470657
vt -12.187223 -43.470657
vt 23.812572 -0.985914
vt 12.363703 44.470657
vt 20.690155 -0.985914
vt -11.556429 -17.305193
vt 32.317650 -35.006214
vt 36.302258 16.024225
vt 28.154423 -35.006210
vt 32.139034 16.024225
vt -3.051355 -17.305193
vt 36.302258 -0.985916
vt 32.317650 -26.501137
vt 28.154411 -26.501137
vt 32.139034 -0.985916
vt -11.556429 -25.810265
vt 36.480873 -26.501141
vt 36.302258 7.519156
vt 32.317650 -26.501141
vt 19.649343 -35.006214
vt 32.139034 7.519156
vt -3.051360 -25.810265
vt 36.480873 -35.006214
vt 36.302258 7.519156
vt 32.139034 7.519156
vt 32.317650 -35.006214
vt 19.649343 -26.501137
vt -3.051360 -22.375341
vt 36.302258 4.084231
vt 32.139034 4.084231
vt 23.084270 -26.501137
vt -11.556429 -22.375341
vt 27.975800 24.529310
vt 36.302258 10.954080
vt 29.195225 -0.985921
vt 33.179832 16.024225
vt -3.051360 -20.821400
vt 36.302258 2.530290
vt 32.139034 2.530290
vt 24.638206 -26.501137
vt 31.129784 24.529305
vt -11.556429 -20.821402
vt 36.302258 12.508021
vt 33.179832 -0.985916
vt 29.195225 -26.501137
vt 33.358452 -35.006214
vt 33.179832 7.519156
vt 34.770390 24.529305
vt 27.975800 27.651730
vt 33.179832 10.954080
vt 33.179832 4.084231
vt 33.179832 2.530290
vt 34.770390 26.083252
vt 31.129784 27.651722
vt 33.179832 12.508021
vt 15.486122 17.980074
vt -12.187223 -16.980072
vt 15.486122 14.545145
vt -12.187223 -13.545145
vt 11.322889 14.545145
vt 11.322893 12.909923
vt 15.486122 12.991200
vt -12.187223 -11.991201
vt 12.363703 9.474998
vt 12.363703 17.980074
vt 12.363703 14.545145
vt 12.363703 12.991200
vt 12.363703 0.644800
vt 12.363703 9.149875
vt -11.556427 27.176018
vt 32.317650 -35.006218
vt 27.975792 13.388335
vt -11.556427 32.164894
vt 31.760582 24.529305
vt 27.975792 18.377209
vt 29.237394 24.529305
vt -11.556427 30.610945
vt 27.975792 16.823271
vt -11.556427 40.995079
vt 30.498985 24.529305
vt 23.812567 18.377209
vt -11.556427 39.441147
vt 28.606590 24.529310
vt 23.812567 16.823271
vt 15.486122 0.644800
vt -12.187223 0.355200
vt 19.649345 26.810265
vt -26.561470 26.810265
vt 15.486122 -34.681091
vt -12.187223 35.681091
vt 11.322893 -34.681084
vt 11.322893 -29.610947
vt 12.363703 -34.681091
vt 29.868185 27.651722
vt 34.770382 24.529305
vt 12.363703 -29.610947
vt 34.770382 26.083252
vt 12.363703 -31.164894
vt 31.129784 27.651722
vt 15.486122 -43.511292
vt -12.187223 44.511292
vt 11.322893 -43.511292
vt 12.363703 -43.511292
vt 12.363703 -35.006218
vt 12.363703 -38.441147
vt 29.237394 27.651730
vt 34.770382 26.083252
vt 12.363703 -39.995079
vt 29.868191 27.651722
vt 34.770382 27.637184
vt 15.486122 18.305197
vt -12.187225 -17.305193
vt 11.322889 18.305197
vt 15.486122 23.375341
vt 28.606590 24.529310
vt -12.187225 -22.375341
vt 11.322889 23.375345
vt 11.322889 21.821402
vt 15.486122 21.821402
vt 30.498991 24.529305
vt -12.187225 -20.821402
vt 12.363703 18.305197
vt 35.401188 24.529305
vt 12.363703 23.375341
vt 28.606590 27.651730
vt 35.401188 26.083252
vt 12.363703 21.821402
vt 30.498991 27.651722
vt 29.868185 24.529305
vt 15.486122 -29.610947
vt -12.187223 30.610945
vt 15.486122 -39.995079
vt 29.868191 24.529305
vt -12.187223 40.995079
vt 15.486122 -17.020702
vt -3.051355 18.020702
vt 15.486122 -8.515630
vt -3.051355 9.515633
vt 15.486122 -11.950555
vt -3.051355 12.950558
vt 15.486122 -13.504496
vt -3.051355 14.504498
vt 19.649345 -13.504496
vt 31.760582 24.529305
vt -26.561464 -13.504496
vt 16.526928 -8.515630
vt 34.770390 27.637190
vt 16.526928 -11.950555
vt 34.139587 27.651722
vt 34.770390 26.083252
vt 16.526928 -13.504496
vt 31.760582 27.651722
vt 19.649345 0.644800
vt -26.561470 0.644800
vt 15.486122 0.644800
vt -3.051352 0.355200
vt 19.649345 9.149875
vt -26.561470 9.149875
vt 19.649345 5.714944
vt 33.544838 24.529305
vt -26.561470 5.714944
vt 15.486122 5.714944
vt -3.051352 -4.714944
vt 15.486122 4.161009
vt -3.051352 -3.161004
vt 19.649345 4.161009
vt 32.355343 24.529305
vt -26.561470 4.161009
vt 16.526928 0.644800
vt 16.526928 9.149875
vt 16.526928 5.714944
vt 33.544838 27.651722
vt 35.365139 27.637190
vt 16.526928 4.161009
vt 32.355343 27.651722
vt 35.365139 26.083252
vt 15.486122 35.965591
vt -12.187223 -34.965591
vt 12.363703 35.965591
vt 15.486122 26.810265
vt -12.187225 -25.810265
vt 12.363703 26.810265
vt 12.363703 -17.345831
vt 12.363703 -8.515627
vt 12.363703 0.314568
vt 11.322893 -26.176020
vt 12.363703 -26.176025
vt 15.486122 -35.006218
vt -12.187223 36.006218
vt 11.322893 -35.006214
vt 19.649345 35.640461
vt -26.561470 35.640461
vt 15.486122 35.640461
vt -3.051352 -34.640461
vt 16.526928 35.640461
vt 15.486122 26.810265
vt -3.051352 -25.810265
vt 19.649345 17.980068
vt -26.561470 17.980068
vt 15.486122 17.980068
vt -3.051352 -16.980068
vt 16.526928 17.980068
vt 15.486122 9.149875
vt -3.051352 -8.149872
vt 16.526928 -17.020702
vt 16.526928 -25.850899
vt 15.486122 -34.681095
vt -3.051355 35.681099
vt 16.526928 -34.681095
vt 19.649345 -26.176025
vt -26.561464 -26.176025
vt 19.649345 -34.681099
vt -26.561464 -34.681099
vt 19.649345 -43.511292
vt -26.561464 -43.511292
vt 23.812567 13.388335
vt 19.649345 -35.006229
vt -26.561464 -35.006229
vt 15.486122 9.149875
vt -12.187223 -8.149875
vt 15.486122 9.474998
vt -12.187223 -8.474998
vt 15.486122 -26.176018
vt -12.187223 27.176018
vt 15.486122 -17.345819
vt -12.187223 18.345819
vt 15.486122 -8.515625
vt -12.187223 9.515628
vt 15.486122 -25.850895
vt -12.187223 26.850895
vt 15.486122 -17.020695
vt -12.187223 18.020695
vt 15.486122 -31.164894
vt 31.129784 24.529305
vt -12.187223 32.164894
vt 15.486122 -38.441147
vt 29.237394 24.529310
vt -12.187223 39.441147
vt 15.486122 0.314571
vt -12.187222 0.685429
vt 15.486122 -8.190498
vt -12.187223 9.190504
vt 15.486122 -4.674299
vt -12.187223 5.674299
vt 19.649345 -17.020704
vt -26.561462 -17.020702
vt 19.649345 -11.950555
vt 34.139587 24.529305
vt -26.561464 -11.950555
vt 19.649345 -17.345831
vt -26.561464 -17.345831
vt 19.649345 -22.334692
vt -26.561464 -22.334690
vt 19.649345 -25.850899
vt -26.561464 -25.850899
vt 19.649345 -8.515633
vt -26.561459 -8.515633
vt 11.322893 9.149875
vt 11.322893 0.644800
vt 11.322893 26.810272
vt 11.322893 44.470661
vt 19.649345 -0.985918
vt 11.322893 35.965588
vt 11.322893 -31.164888
vt 11.322893 -39.995079
vt 11.322893 -38.441147
vt 11.322893 -8.515627
vt 11.322893 17.980074
vt 11.322893 9.474998
vt 11.322893 0.314568
vt 11.322893 -4.674294
vt 11.322893 -25.850895
vt 24.638206 -35.006210
vt 32.139034 12.508021
vt 29.195225 -35.006214
vt 33.179832 16.024225
vt 23.084270 -35.006214
vt 32.139034 10.954080
vt 33.358452 -26.501141
vt 33.179832 7.519156
vt 23.165554 -9.490991
vt 32.317650 -13.007206
vt 32.950089 27.651722
vt 35.959888 27.637190
vt 33.358448 -14.561142
vt 28.154423 -38.522423
vt 19.649343 18.377209
vt 28.606590 27.651730
vt 34.139584 26.083252
vt 20.690149 16.823271
vt 29.016602 16.024231
vt 20.690149 13.388335
vt 20.690149 21.893419
vt 34.139584 26.083252
vt 31.760582 27.651722
vt 24.853373 18.377209
vt 23.084270 -9.490993
vt 23.812567 16.823271
s 0
usemtl Material.001
f 17/43/1 18/46/1 4/10/1 2/4/1
f 21/52/2 19/48/2 8/22/2 10/27/2
f 19/47/3 160/325/3 6/16/3 8/23/3
f 9/25/4 11/29/4 5/13/4 7/19/4
f 15/39/5 14/36/5 2/5/5 4/11/5
f 8/24/5 6/17/5 12/32/5 10/28/5
f 13/34/4 16/40/4 11/29/4 9/25/4
f 22/53/2 21/52/2 10/27/2 15/38/2
f 18/45/2 22/53/2 15/38/2 4/12/2
f 3/7/4 1/1/4 16/40/4 13/34/4
f 10/28/5 12/32/5 14/36/5 15/39/5
f 3/8/2 13/35/2 22/53/2 18/45/2
f 13/35/2 9/26/2 21/52/2 22/53/2
f 7/20/3 5/14/3 160/325/3 19/47/3
f 9/26/2 7/21/2 19/48/2 21/52/2
f 1/2/1 3/9/1 18/46/1 17/43/1
f 27/63/2 25/59/2 28/65/2 29/66/2
f 26/61/2 29/66/2 28/65/2 24/57/2
f 37/79/2 34/75/2 30/67/2 250/496/2
f 35/77/2 31/69/2 33/73/2 36/78/2
f 36/78/2 33/73/2 34/75/2 37/79/2
f 271/540/2 35/77/2 36/78/2 32/71/2
f 272/542/2 37/79/2 250/496/2 273/544/2
f 38/80/2 251/497/2 252/499/2 39/82/2
f 253/500/2 39/82/2 252/499/2 254/502/2
f 41/86/2 40/83/2 42/88/2 43/90/2
f 256/507/2 43/90/2 42/88/2 255/504/2
f 52/105/2 48/99/2 45/93/2 50/103/2
f 243/485/2 242/483/2 47/97/2 51/104/2
f 51/104/2 47/97/2 48/99/2 52/105/2
f 241/481/2 243/485/2 51/104/2 46/95/2
f 49/101/2 52/105/2 50/103/2 44/91/2
f 64/125/2 59/118/2 54/108/2 61/122/2
f 62/123/2 56/112/2 58/116/2 63/124/2
f 63/124/2 58/116/2 59/118/2 64/125/2
f 55/110/2 62/123/2 63/124/2 57/114/2
f 60/120/2 64/125/2 61/122/2 53/106/2
f 244/486/2 66/128/2 67/130/2 68/131/2
f 187/377/2 68/131/2 67/130/2 65/126/2
f 246/490/2 70/134/2 71/136/2 247/492/2
f 245/488/2 247/492/2 71/136/2 69/132/2
f 87/177/1 88/180/1 75/146/1 73/140/1
f 91/185/2 89/182/2 79/158/2 81/163/2
f 89/181/3 90/183/3 77/152/3 79/159/3
f 16/40/4 215/435/4 270/539/4 11/29/4
f 80/161/4 82/166/4 76/149/4 78/155/4
f 85/173/5 293/571/5 73/141/5 75/147/5
f 79/160/5 77/153/5 83/168/5 81/164/5
f 84/170/4 86/175/4 82/166/4 80/161/4
f 92/186/2 91/185/2 81/163/2 85/172/2
f 88/179/2 92/186/2 85/172/2 75/148/2
f 74/143/4 72/137/4 86/175/4 84/170/4
f 81/164/5 83/168/5 293/571/5 85/173/5
f 23/54/5 20/49/5 217/437/5 218/440/5
f 74/144/2 84/171/2 92/186/2 88/179/2
f 84/171/2 80/162/2 91/185/2 92/186/2
f 78/156/3 76/150/3 90/183/3 89/181/3
f 80/162/2 78/157/2 89/182/2 91/185/2
f 72/138/1 74/145/1 88/180/1 87/177/1
f 283/557/6 94/190/6 95/191/6 235/474/6
f 261/517/6 235/474/6 95/191/6 263/521/6
f 101/198/6 287/561/6 96/192/6 99/196/6
f 236/475/6 286/560/6 98/195/6 100/197/6
f 100/197/6 98/195/6 287/561/6 101/198/6
f 266/529/6 236/475/6 100/197/6 97/193/6
f 268/533/6 101/198/6 99/196/6 267/531/6
f 102/199/6 288/562/6 103/200/6 234/473/6
f 260/515/6 234/473/6 103/200/6 262/519/6
f 116/232/3 117/235/3 107/210/3 105/204/3
f 121/243/6 118/237/6 110/219/6 112/224/6
f 118/236/1 119/238/1 108/213/1 110/220/1
f 120/240/1 183/366/1 209/419/1 192/384/1
f 111/222/4 183/367/4 181/360/4 109/216/4
f 115/231/5 114/228/5 105/205/5 107/211/5
f 110/221/5 108/214/5 300/587/5 112/225/5
f 113/226/4 182/363/4 183/367/4 111/222/4
f 122/244/6 121/243/6 112/224/6 115/230/6
f 117/234/6 122/244/6 115/230/6 107/212/6
f 106/207/4 104/201/4 182/363/4 113/226/4
f 112/225/5 300/587/5 114/228/5 115/231/5
f 106/208/6 113/227/6 122/244/6 117/234/6
f 113/227/6 111/223/6 121/243/6 122/244/6
f 182/363/4 264/525/4 209/421/4 183/367/4
f 109/217/1 181/361/1 119/238/1 118/236/1
f 111/223/6 109/218/6 118/237/6 121/243/6
f 104/202/3 106/209/3 117/235/3 116/232/3
f 298/583/3 136/276/3 126/252/3 124/248/3
f 138/278/6 137/277/6 130/263/6 132/267/6
f 137/277/1 297/581/1 128/258/1 130/263/1
f 131/265/4 185/372/4 127/255/4 129/261/4
f 135/274/5 295/576/5 124/247/5 126/253/5
f 130/264/5 128/259/5 133/269/5 132/268/5
f 134/271/4 184/369/4 185/372/4 131/265/4
f 139/279/6 138/278/6 132/267/6 135/273/6
f 136/275/6 139/279/6 135/273/6 126/254/6
f 125/249/4 123/245/4 184/369/4 134/271/4
f 132/268/5 133/269/5 295/576/5 135/274/5
f 125/250/6 134/272/6 139/279/6 136/275/6
f 134/272/6 131/266/6 138/278/6 139/279/6
f 129/262/1 127/256/1 297/581/1 137/277/1
f 131/266/6 129/262/6 137/277/6 138/278/6
f 123/246/3 125/251/3 136/276/3 298/583/3
f 144/288/6 142/285/6 145/289/6 146/290/6
f 143/286/6 146/290/6 145/289/6 141/283/6
f 278/551/6 279/553/6 231/469/6 148/294/6
f 147/291/6 148/294/6 231/469/6 230/467/6
f 290/565/3 164/335/3 152/304/3 150/299/3
f 167/341/6 165/337/6 156/315/6 158/320/6
f 165/336/1 292/569/1 154/309/1 156/316/1
f 169/343/5 166/338/5 207/413/5 208/416/5
f 157/318/4 159/322/4 153/306/4 155/312/4
f 162/330/5 289/563/5 150/299/5 152/304/5
f 156/317/5 154/310/5 291/567/5 158/321/5
f 161/327/4 163/332/4 159/322/4 157/318/4
f 168/342/6 167/341/6 158/320/6 162/329/6
f 164/334/6 168/342/6 162/329/6 152/305/6
f 151/301/4 149/296/4 163/332/4 161/327/4
f 158/321/5 291/567/5 289/563/5 162/330/5
f 151/302/6 161/328/6 168/342/6 164/334/6
f 161/328/6 157/319/6 167/341/6 168/342/6
f 299/584/5 120/241/5 192/385/5 193/387/5
f 155/313/1 153/307/1 292/569/1 165/336/1
f 157/319/6 155/314/6 165/337/6 167/341/6
f 149/297/3 151/303/3 164/335/3 290/565/3
f 178/357/6 173/351/6 285/559/6 175/354/6
f 176/355/6 284/558/6 172/350/6 177/356/6
f 177/356/6 172/350/6 173/351/6 178/357/6
f 170/346/6 176/355/6 177/356/6 171/348/6
f 174/352/6 178/357/6 175/354/6 258/511/6
f 275/548/6 276/549/6 179/358/6 180/359/6
f 257/509/6 180/359/6 179/358/6 186/375/6
f 268/533/6 97/193/6 100/197/6 101/198/6
f 174/352/6 171/348/6 177/356/6 178/357/6
f 272/542/2 32/71/2 36/78/2 37/79/2
f 49/101/2 46/95/2 51/104/2 52/105/2
f 60/120/2 57/114/2 63/124/2 64/125/2
f 193/388/6 280/554/6 189/381/6 191/383/6
f 238/477/6 237/476/6 190/382/6 192/386/6
f 192/386/6 190/382/6 280/554/6 193/388/6
f 259/513/6 238/477/6 192/386/6 209/420/6
f 264/523/6 193/388/6 191/383/6 188/379/6
f 199/398/6 281/555/6 195/392/6 196/393/6
f 197/394/6 240/480/6 282/556/6 198/395/6
f 198/395/6 282/556/6 281/555/6 199/398/6
f 239/478/6 197/394/6 198/395/6 265/526/6
f 210/422/6 199/398/6 196/393/6 194/390/6
f 208/417/6 204/408/6 201/403/6 206/412/6
f 233/472/6 277/550/6 203/407/6 207/414/6
f 207/414/6 203/407/6 204/408/6 208/417/6
f 232/470/6 233/472/6 207/414/6 202/404/6
f 205/409/6 208/417/6 206/412/6 200/401/6
f 184/369/4 210/424/4 265/528/4 185/372/4
f 163/331/3 169/344/3 208/418/3 205/410/3
f 182/364/3 299/585/3 193/389/3 264/524/3
f 163/332/4 205/411/4 202/406/4 159/322/4
f 296/578/1 185/373/1 265/527/1 198/396/1
f 184/370/3 140/280/3 199/399/3 210/423/3
f 166/339/1 159/323/1 202/405/1 207/415/1
f 140/281/5 296/579/5 198/397/5 199/400/5
f 218/441/2 214/431/2 211/425/2 249/495/2
f 216/436/2 212/427/2 213/429/2 217/438/2
f 217/438/2 213/429/2 214/431/2 218/441/2
f 274/546/2 216/436/2 217/438/2 270/537/2
f 215/433/2 218/441/2 249/495/2 269/535/2
f 229/464/2 224/454/2 220/445/2 226/459/2
f 227/460/2 248/493/2 223/452/2 228/461/2
f 228/461/2 223/452/2 224/454/2 229/464/2
f 221/447/2 227/460/2 228/461/2 222/449/2
f 225/456/2 229/464/2 226/459/2 219/443/2
f 294/573/3 82/165/3 222/450/3 228/462/3
f 86/174/1 93/187/1 229/465/1 225/457/1
f 20/50/3 11/30/3 270/538/3 217/439/3
f 93/188/5 294/574/5 228/463/5 229/466/5
f 86/175/4 225/458/4 222/451/4 82/166/4
f 16/41/1 23/55/1 218/442/1 215/434/1
f 144/288/6 146/290/6 231/469/6 279/553/6
f 146/290/6 143/286/6 230/467/6 231/469/6
f 141/283/6 145/289/6 233/472/6 232/470/6
f 145/289/6 142/285/6 277/550/6 233/472/6
f 206/412/6 176/355/6 170/346/6 200/401/6
f 201/403/6 284/558/6 176/355/6 206/412/6
f 258/511/6 175/354/6 180/359/6 257/509/6
f 175/354/6 285/559/6 275/548/6 180/359/6
f 186/375/6 179/358/6 236/475/6 266/529/6
f 263/521/6 95/191/6 234/473/6 260/515/6
f 95/191/6 94/190/6 102/199/6 234/473/6
f 99/196/6 96/192/6 283/557/6 235/474/6
f 179/358/6 276/549/6 286/560/6 236/475/6
f 267/531/6 99/196/6 235/474/6 261/517/6
f 103/200/6 288/562/6 237/476/6 238/477/6
f 191/383/6 197/394/6 239/478/6 188/379/6
f 189/381/6 240/480/6 197/394/6 191/383/6
f 262/519/6 103/200/6 238/477/6 259/513/6
f 53/106/2 61/122/2 243/485/2 241/481/2
f 61/122/2 54/108/2 242/483/2 243/485/2
f 50/103/2 45/93/2 244/486/2 68/131/2
f 65/126/2 67/130/2 247/492/2 245/488/2
f 67/130/2 66/128/2 246/490/2 247/492/2
f 44/91/2 50/103/2 68/131/2 187/377/2
f 69/132/2 71/136/2 227/460/2 221/447/2
f 71/136/2 70/134/2 248/493/2 227/460/2
f 38/80/2 39/82/2 250/496/2 30/67/2
f 39/82/2 253/500/2 273/544/2 250/496/2
f 41/86/2 43/90/2 252/499/2 251/497/2
f 43/90/2 256/507/2 254/502/2 252/499/2
f 35/77/2 271/540/2 269/535/2 249/495/2
f 31/69/2 35/77/2 249/495/2 211/425/2
f 27/63/2 29/66/2 226/459/2 220/445/2
f 29/66/2 26/61/2 219/443/2 226/459/2
f 216/436/2 28/65/2 25/59/2 212/427/2
f 274/546/2 24/57/2 28/65/2 216/436/2
f 230/468/4 143/287/4 254/503/4 256/508/4
f 147/292/4 230/468/4 256/508/4 255/505/4
f 143/287/4 141/284/4 253/501/4 254/503/4
f 141/284/4 232/471/4 273/545/4 253/501/4
f 274/547/4 258/512/4 257/510/4 24/58/4
f 219/444/4 26/62/4 186/376/4 266/530/4
f 26/62/4 24/58/4 257/510/4 186/376/4
f 69/133/4 221/448/4 267/532/4 261/518/4
f 44/92/4 187/378/4 262/520/4 259/514/4
f 187/378/4 65/127/4 260/516/4 262/520/4
f 65/127/4 245/489/4 263/522/4 260/516/4
f 245/489/4 69/133/4 261/518/4 263/522/4
f 46/96/4 49/102/4 209/421/4 264/525/4
f 60/121/4 53/107/4 239/479/4 265/528/4
f 49/102/4 44/92/4 259/514/4 209/421/4
f 57/115/4 60/121/4 265/528/4 210/424/4
f 55/111/4 57/115/4 210/424/4 194/391/4
f 53/107/4 241/482/4 188/380/4 239/479/4
f 241/482/4 46/96/4 264/525/4 188/380/4
f 225/458/4 219/444/4 266/530/4 97/194/4
f 225/458/4 97/194/4 268/534/4 222/451/4
f 221/448/4 222/451/4 268/534/4 267/532/4
f 232/471/4 202/406/4 272/543/4 273/545/4
f 205/411/4 200/402/4 271/541/4 32/72/4
f 205/411/4 32/72/4 272/543/4 202/406/4
f 171/349/4 174/353/4 270/539/4 215/435/4
f 170/347/4 171/349/4 215/435/4 269/536/4
f 170/347/4 269/536/4 271/541/4 200/402/4
f 174/353/4 258/512/4 274/547/4 270/539/4
f 41/87/5 251/498/5 144/288/5 279/553/5
f 214/432/5 213/430/5 173/351/5 172/350/5
f 38/81/5 30/68/5 277/550/5 142/285/5
f 25/60/5 27/64/5 276/549/5 275/548/5
f 31/70/5 211/426/5 284/558/5 201/403/5
f 242/484/5 54/109/5 240/480/5 189/381/5
f 251/498/5 38/81/5 142/285/5 144/288/5
f 40/84/5 41/87/5 279/553/5 278/551/5
f 27/64/5 220/446/5 286/560/5 276/549/5
f 244/487/5 45/94/5 237/476/5 288/562/5
f 30/68/5 34/76/5 203/407/5 277/550/5
f 47/98/5 242/484/5 189/381/5 280/554/5
f 33/74/5 31/70/5 201/403/5 204/408/5
f 45/94/5 48/100/5 190/382/5 237/476/5
f 25/60/5 275/548/5 285/559/5 212/428/5
f 246/491/5 66/129/5 102/199/5 94/190/5
f 54/109/5 59/119/5 282/556/5 240/480/5
f 66/129/5 244/487/5 288/562/5 102/199/5
f 248/494/5 70/135/5 283/557/5 96/192/5
f 34/76/5 33/74/5 204/408/5 203/407/5
f 224/455/5 98/195/5 286/560/5 220/446/5
f 58/117/5 56/113/5 195/392/5 281/555/5
f 70/135/5 246/491/5 94/190/5 283/557/5
f 48/100/5 47/98/5 280/554/5 190/382/5
f 214/432/5 172/350/5 284/558/5 211/426/5
f 248/494/5 96/192/5 287/561/5 223/453/5
f 213/430/5 212/428/5 285/559/5 173/351/5
f 59/119/5 58/117/5 281/555/5 282/556/5
f 223/453/5 287/561/5 98/195/5 224/455/5
f 42/89/7 40/85/7 278/552/7 148/295/7 147/293/7 255/506/7
f 153/308/2 159/324/2 166/340/2 292/570/2
f 166/340/2 291/568/2 154/311/2 292/570/2
f 169/345/2 289/564/2 291/568/2 166/340/2
f 149/298/2 290/566/2 169/345/2 163/333/2
f 289/564/2 169/345/2 290/566/2 150/300/2
f 296/580/2 297/582/2 127/257/2 185/374/2
f 128/260/2 297/582/2 296/580/2 133/270/2
f 133/270/2 296/580/2 140/282/2 295/577/2
f 295/577/2 140/282/2 298/583/2 124/248/2
f 123/246/2 298/583/2 140/282/2 184/371/2
f 104/203/2 116/233/2 299/586/2 182/365/2
f 105/206/2 114/229/2 299/586/2 116/233/2
f 300/588/2 120/242/2 299/586/2 114/229/2
f 108/215/2 119/239/2 120/242/2 300/588/2
f 181/362/2 183/368/2 120/242/2 119/239/2
f 2/6/6 14/37/6 23/56/6 17/44/6
f 1/3/6 17/44/6 23/56/6 16/42/6
f 14/37/6 12/33/6 20/51/6 23/56/6
f 6/18/6 160/326/6 20/51/6 12/33/6
f 5/15/6 11/31/6 20/51/6 160/326/6
f 73/142/6 293/572/6 93/189/6 87/178/6
f 72/139/6 87/178/6 93/189/6 86/176/6
f 83/169/6 294/575/6 93/189/6 293/572/6
f 77/154/6 90/184/6 294/575/6 83/169/6
f 90/184/6 76/151/6 82/167/6 294/575/6
