# Blender 3.5.0
# www.blender.org
mtllib prv1e-2.mtl
o Cube.001
v 35.003712 -0.022985 2.964299
v 35.003712 4.814509 2.964299
v 35.003712 1.886492 2.964299
v 35.028561 -0.022985 11.754696
v 35.028561 4.814509 11.754696
v 35.028561 1.886492 11.754696
v 65.682434 4.814509 55.720921
v 65.682434 14.772343 55.720921
v 65.712799 14.772343 71.188721
v 65.712799 9.243538 71.188721
v 47.983192 4.814509 71.223541
v 47.983192 9.243538 71.223541
v 65.712799 4.814509 71.188721
v 47.983192 14.772343 71.223541
v 48.003647 14.772343 81.638519
v 65.733261 4.814509 81.603699
v 48.003647 9.243538 81.638519
v 48.003647 4.814509 81.638519
v 65.733261 9.243538 81.603699
v 65.733261 14.772343 81.603699
v 65.682426 9.243538 55.720921
v 47.952816 4.814509 55.755741
v 47.952816 9.243538 55.755741
v 47.952816 14.772343 55.755741
v 47.932362 14.772343 45.340759
v 65.661972 4.814509 45.305939
v 47.932362 9.243538 45.340759
v 47.932362 4.814509 45.340759
v 65.661972 9.243538 45.305939
v 65.661972 14.772343 45.305939
v 65.631599 14.772343 29.838144
v 65.631599 9.243538 29.838144
v 47.901985 4.814509 29.872961
v 47.901985 9.243538 29.872961
v 65.631599 4.814509 29.838144
v 47.901985 14.772343 29.872961
v 47.892467 14.772343 25.026386
v 65.622086 4.814509 24.991570
v 47.892467 9.243538 25.026386
v 47.892467 4.814509 25.026386
v 65.622086 9.243538 24.991570
v 65.622086 14.772343 24.991570
v 41.443634 14.772343 11.754696
v 44.626324 4.814509 2.964299
v 65.588326 14.772343 11.719879
v 44.626324 9.243538 2.964299
v 44.651173 9.243538 11.754696
v 65.588326 9.243538 11.719879
v 44.626324 1.886492 2.964299
v 65.563477 14.772343 2.929482
v 44.651173 1.886492 11.754696
v 65.563477 4.814509 2.929482
v 41.418785 14.772343 2.964299
v 65.563477 9.243538 2.929482
v 41.443634 1.886492 11.754696
v 47.858711 4.814509 11.754696
v 41.443634 4.814509 11.754696
v 44.651173 4.814509 11.754696
v 41.418785 4.814509 2.964299
v 41.418785 -0.022985 2.964299
v 41.418785 1.886492 2.964299
v 41.443634 -0.022985 11.754696
v 41.418785 9.243538 2.964299
v 41.443634 9.243538 11.754696
v 47.833862 9.243538 2.964299
v 47.858711 9.243538 11.754696
v 35.028561 9.243538 11.754696
v 35.003712 9.243538 2.964299
v 44.651173 14.772343 11.754696
v 44.626324 14.772343 2.964299
v 65.588326 4.814509 11.719879
v 47.858711 14.772343 11.754696
v 47.833862 4.814509 2.964299
v 47.833862 14.772343 2.964299
v 47.901985 -8.252684 29.872961
v 65.631599 -8.252684 29.838144
v 65.622086 -8.252684 24.991570
v 47.892467 -8.252684 25.026386
v 65.682434 -8.252685 55.720921
v 65.661972 -8.252685 45.305939
v 47.952816 -8.252685 55.755741
v 65.712799 -8.252685 71.188721
v 47.983192 -8.252685 71.223541
v 65.733261 -8.252685 81.603699
v 48.003647 -8.252685 81.638519
v 47.932362 -8.252685 45.340759
v 48.039898 4.814509 100.096756
v 48.039898 9.243538 100.096756
v 48.039898 14.772343 100.096756
v 65.769516 14.772343 100.061935
v 65.769516 9.243538 100.061935
v 65.769516 4.814509 100.061935
v 48.070957 4.814509 117.226776
v 48.070957 9.243538 117.226776
v 48.070957 14.772343 117.226776
v 65.800575 14.772343 117.191956
v 65.800575 9.243538 117.191956
v 65.800575 4.814509 117.191956
vn 1.0000 -0.0000 -0.0020
vn -1.0000 -0.0000 0.0020
vn -0.0000 -1.0000 -0.0000
vn -0.0000 1.0000 -0.0000
vn -0.0020 -0.0000 -1.0000
vn -1.0000 -0.0000 0.0025
vn 0.0020 -0.0000 1.0000
vn -0.0000 -0.0000 -1.0000
vn -0.0000 -0.0000 1.0000
vn -1.0000 -0.0000 0.0028
vn 1.0000 -0.0000 -0.0025
vn 1.0000 -0.0000 -0.0028
vn 1.0000 -0.0000 -0.0018
vn -1.0000 -0.0000 0.0018
vt 13.311863 53.255356
vt 19.768129 41.479912
vt 26.142685 41.479912
vt 19.148170 64.838867
vt 22.284323 41.479912
vt 13.311863 64.838867
vt 4.858497 53.255356
vt 4.858497 59.629917
vt 19.148170 53.255371
vt 4.858497 55.771553
vt 59.647118 1.210069
vt 19.768129 41.479919
vt -59.608467 -5.218709
vt -72.730309 -5.218709
vt -12.008408 -16.354263
vt -11.990803 -36.736824
vt -72.730309 15.163860
vt -65.444778 15.163860
vt 39.264523 24.573141
vt -29.267462 -14.163860
vt 56.483681 47.936211
vt -35.103775 -14.163860
vt 39.264530 1.210087
vt -59.608467 15.163860
vt 56.483681 71.299255
vt -42.389305 -14.163860
vt 11.372241 -36.716667
vt 11.384089 -50.440922
vt -42.389305 -27.888126
vt -59.608467 28.888130
vt 47.361153 -27.886429
vt 19.769896 -74.784279
vt -35.103775 -27.888126
vt 47.361153 -4.523381
vt -29.267462 -27.888126
vt 43.132961 -74.782570
vt -65.444778 28.888130
vt -11.978970 -50.461086
vt -72.730309 28.888130
vt -65.444778 -5.218709
vt 59.647102 24.573151
vt 19.768129 64.842964
vt -29.267462 6.218713
vt -35.103775 6.218713
vt 11.354660 -16.334101
vt -42.389305 6.218713
vt 11.342815 -2.609842
vt -42.389305 19.942980
vt 59.647102 47.936218
vt 39.264519 71.299263
vt -59.608467 -18.942972
vt -35.103775 19.942980
vt 59.647118 24.573158
vt 39.264519 47.936211
vt -29.267462 19.942980
vt -65.444778 -18.942972
vt -12.020241 -2.629998
vt -72.730309 -18.942972
vt -72.730301 -39.325550
vt -12.037834 17.752563
vt -65.444771 -39.325546
vt 39.264523 24.573151
vt -29.267462 40.325558
vt 43.132969 -28.058174
vt -35.103775 40.325558
vt 39.264523 47.936218
vt -59.608467 -39.325546
vt 43.132969 -51.421223
vt -42.389305 40.325558
vt 11.325225 17.772728
vt 11.319714 24.159267
vt -42.389305 46.712101
vt 47.361160 -27.886425
vt -59.608467 -45.712082
vt 43.132969 -51.421223
vt -35.103775 46.712101
vt 23.998091 -27.872873
vt -29.267462 46.712101
vt 43.132969 -74.784279
vt -65.444771 -45.712082
vt -72.730301 -45.712086
vt -12.043354 24.139103
vt -3.594898 72.751762
vt 19.768129 41.671856
vt 64.580322 -16.279024
vt 66.738663 -39.825775
vt 19.768129 1.210078
vt 26.142685 28.799809
vt -12.048298 41.627792
vt -72.730301 -63.200771
vt 31.978992 28.799809
vt -7.821601 65.466225
vt -65.444771 -63.200771
vt 66.738663 -51.409271
vt 22.284323 28.799809
vt 70.597023 -39.825775
vt 39.264523 1.210069
vt -12.048298 53.211304
vt -72.730301 -74.784279
vt 66.738663 -39.825775
vt 70.597023 -28.242271
vt -7.821601 55.771553
vt 26.142685 1.210069
vt -59.608459 -74.784279
vt 47.357887 1.185775
vt 39.264519 33.026520
vt 19.768129 53.255356
vt 64.580322 -4.695526
vt 31.978992 1.210069
vt -65.444771 -74.784279
vt 70.965355 -39.837723
vt -3.594898 55.771553
vt 70.597023 -28.242271
vt -12.048298 59.629917
vt -29.267462 64.200790
vt 23.998091 -10.384179
vt -3.594898 59.629917
vt 66.738663 -28.242271
vt -7.821601 59.629917
vt 19.771402 -10.373428
vt 26.142685 33.026520
vt 4.858497 53.279259
vt 19.768129 33.026520
vt 73.113228 -39.825775
vt 70.965355 -51.421223
vt 22.284323 33.026520
vt 70.597023 -39.825775
vt 4.858497 64.862755
vt -3.594898 53.255356
vt 73.113228 -28.242271
vt 73.033684 -27.862528
vt 31.978992 33.026520
vt 71.865845 -4.695522
vt 73.033684 -16.279024
vt -3.594898 65.466225
vt 71.865845 -16.279024
vt 31.978992 24.573112
vt -12.048298 65.466225
vt -35.103775 64.200790
vt 64.580315 -16.302923
vt 4.858497 65.466232
vt 13.311863 53.255371
vt 64.580315 -27.886425
vt 31.978992 41.479912
vt 13.311863 64.838867
vt -7.821601 72.751762
vt 15.541441 41.659908
vt 15.541441 53.243412
vt 39.264519 28.799809
vt -59.608467 -63.200771
vt 47.361160 -10.397731
vt -12.048298 72.751762
vt -42.389305 64.200790
vt 11.314759 41.647961
vt 23.994814 1.199326
vt 26.142685 24.573112
vt 11.314759 53.231461
vt 39.264519 24.573112
vt -12.048298 40.325558
vt 60.352139 -28.058174
vt -42.389305 -39.325546
vt 60.352139 -51.421223
vt 66.738663 -51.421223
vt -42.389305 -45.712082
vt 60.352135 -51.421223
vt -12.048298 46.712101
vt 66.738678 -28.058151
vt 60.352135 -74.784279
vt 36.987289 41.479919
vt 73.371376 24.573141
vt -42.389305 -5.218709
vt 59.647118 24.573130
vt 56.483685 71.299263
vt -42.389305 -18.942972
vt 36.987289 64.842964
vt 73.371376 1.210069
vt -12.048298 6.218713
vt -42.389305 15.163860
vt 73.371361 24.573175
vt 73.702850 71.299255
vt 73.371361 47.936241
vt -12.048298 -14.163860
vt 73.702850 47.936211
vt -42.389305 28.888130
vt 59.647102 24.573158
vt 64.580315 -27.886429
vt 59.647102 47.936241
vt -12.048298 -27.888126
vt 64.580315 -4.523381
vt 59.647118 1.210069
vt 56.483685 47.936211
vt -12.048298 19.942980
vt -29.267462 -52.211330
vt 43.131191 -50.459381
vt -35.103775 -52.211330
vt 11.405079 -74.764122
vt -42.389305 -52.211330
vt -11.957991 -74.784279
vt -72.730316 53.211334
vt -65.444778 53.211334
vt -59.608475 53.211334
vt 19.768120 -50.461082
vt -29.267462 -74.784279
vt 73.473969 -51.421227
vt 43.132961 -27.886429
vt 67.637665 -51.421227
vt -35.103775 -74.784279
vt 60.352135 -51.421227
vt -42.389305 -74.784279
vt 60.352135 -74.784279
vt -72.730316 75.784279
vt 67.637665 -74.784279
vt -65.444778 75.784279
vt -59.608475 75.784279
vt 73.473969 -74.784279
vt 19.769888 -27.888126
s 0
usemtl Material.001
f 23/44/1 24/46/1 14/26/1 12/22/1
f 22/43/1 23/44/1 12/22/1 11/20/1
f 11/20/1 12/22/1 17/33/1 18/35/1
f 12/22/1 14/26/1 15/29/1 17/33/1
f 21/40/2 7/13/2 13/24/2 10/18/2
f 8/14/2 21/40/2 10/18/2 9/17/2
f 24/45/3 8/15/3 9/16/3 14/27/3
f 7/11/4 22/41/4 11/19/4 13/23/4
f 19/37/2 16/30/2 92/201/2 91/200/2
f 15/28/3 20/38/3 90/198/3 89/196/3
f 22/42/5 7/12/5 79/169/5 81/175/5
f 14/27/3 9/16/3 20/38/3 15/28/3
f 9/17/2 10/18/2 19/37/2 20/39/2
f 10/18/2 13/24/2 16/30/2 19/37/2
f 29/56/2 26/51/2 7/13/2 21/40/2
f 30/58/2 29/56/2 21/40/2 8/14/2
f 25/47/3 30/57/3 8/15/3 24/45/3
f 16/30/2 13/24/2 82/178/2 84/184/2
f 35/66/4 33/62/4 28/53/4 26/49/4
f 36/70/3 31/60/3 30/57/3 25/47/3
f 31/59/2 32/61/2 29/56/2 30/58/2
f 32/61/2 35/67/2 26/51/2 29/56/2
f 27/52/1 25/48/1 24/46/1 23/44/1
f 28/55/1 27/52/1 23/44/1 22/43/1
f 40/78/1 33/63/1 75/159/1 78/166/1
f 39/76/1 37/72/1 36/69/1 34/65/1
f 42/81/2 41/80/2 32/61/2 31/59/2
f 40/78/1 39/76/1 34/65/1 33/63/1
f 33/63/1 34/65/1 27/52/1 28/55/1
f 34/65/1 36/69/1 25/48/1 27/52/1
f 45/90/6 48/93/6 41/80/6 42/81/6
f 48/93/6 71/150/6 38/74/6 41/80/6
f 72/154/3 45/89/3 42/82/3 37/71/3
f 71/151/4 56/116/4 40/77/4 38/73/4
f 41/80/2 38/74/2 35/67/2 32/61/2
f 37/71/3 42/82/3 31/60/3 36/70/3
f 74/158/7 65/137/7 54/109/7 50/97/7
f 65/137/7 73/156/7 52/103/7 54/109/7
f 47/92/8 64/135/8 43/83/8 69/146/8
f 61/125/4 55/111/4 51/100/4 49/94/4
f 56/114/8 58/119/8 47/92/8 66/138/8
f 66/138/8 47/92/8 69/146/8 72/152/8
f 59/121/9 61/126/9 49/95/9 44/88/9
f 49/96/10 51/101/10 58/118/10 44/86/10
f 72/154/3 74/157/3 50/98/3 45/89/3
f 59/121/9 44/88/9 46/91/9 63/132/9
f 55/112/8 57/117/8 58/119/8 51/102/8
f 63/132/9 46/91/9 70/149/9 53/106/9
f 52/104/10 71/150/10 48/93/10 54/110/10
f 43/84/3 53/107/3 70/148/3 69/147/3
f 66/139/11 72/153/11 37/72/11 39/76/11
f 58/119/8 57/117/8 64/135/8 47/92/8
f 67/140/3 68/143/3 63/131/3 64/134/3
f 2/3/9 3/5/9 61/126/9 59/121/9
f 1/1/4 4/6/4 62/128/4 60/122/4
f 4/7/8 6/10/8 55/112/8 62/129/8
f 3/5/9 1/2/9 60/123/9 61/126/9
f 2/3/9 59/121/9 63/132/9 68/144/9
f 6/10/8 5/8/8 57/117/8 55/112/8
f 54/110/10 48/93/10 45/90/10 50/99/10
f 57/117/8 5/8/8 67/141/8 64/135/8
f 56/115/11 66/139/11 39/76/11 40/78/11
f 5/9/12 2/4/12 68/145/12 67/142/12
f 64/136/12 63/133/12 53/108/12 43/85/12
f 69/147/3 70/148/3 74/157/3 72/154/3
f 60/124/10 62/130/10 55/113/10 61/127/10
f 44/87/4 58/120/4 56/116/4 73/155/4
f 73/155/4 56/116/4 71/151/4 52/105/4
f 44/88/9 73/156/9 65/137/9 46/91/9
f 46/91/9 65/137/9 74/158/9 70/149/9
f 77/163/4 78/167/4 75/160/4 76/162/4
f 35/67/2 38/74/2 77/164/2 76/161/2
f 38/75/7 40/79/7 78/168/7 77/165/7
f 33/64/5 35/68/5 76/162/5 75/160/5
f 82/179/4 83/181/4 85/187/4 84/185/4
f 80/172/4 86/190/4 81/176/4 79/170/4
f 11/20/1 18/35/1 85/188/1 83/182/1
f 26/50/7 28/54/7 86/191/7 80/173/7
f 28/55/1 22/43/1 81/177/1 86/192/1
f 13/25/7 11/21/7 83/183/7 82/180/7
f 7/13/2 26/51/2 80/174/2 79/171/2
f 18/34/5 16/31/5 84/186/5 85/189/5
f 87/193/13 88/195/13 94/207/13 93/203/13
f 91/200/14 92/201/14 98/214/14 97/213/14
f 18/35/1 17/33/1 88/195/1 87/193/1
f 20/39/2 19/37/2 91/200/2 90/199/2
f 17/33/1 15/29/1 89/197/1 88/195/1
f 16/32/4 18/36/4 87/194/4 92/202/4
f 93/204/5 94/206/5 97/212/5 98/215/5
f 94/206/5 95/208/5 96/210/5 97/212/5
f 88/195/13 89/197/13 95/209/13 94/207/13
f 92/202/4 87/194/4 93/205/4 98/216/4
f 90/199/14 91/200/14 97/213/14 96/211/14
