# Blender 3.5.0
# www.blender.org
mtllib ParaCaminar.mtl
o principal_y_zona_de_caminar-correr
v -10.000000 0.000000 10.000000
v 10.000000 0.000000 10.000000
v -10.000000 0.000000 -10.000000
v 10.000000 0.000000 -10.000000
v -10.000000 0.000000 -0.909091
v -10.000000 0.000000 0.909091
v 10.000000 0.000000 0.909091
v 10.000000 0.000000 -0.909091
v -10.000000 0.000000 9.090909
v 10.000000 0.000000 -9.090909
v -10.000000 0.000000 -9.090909
v 105.000000 0.000000 0.909091
v 105.000000 0.000000 -0.909091
v 105.000000 0.000000 -9.090909
v 118.897057 0.000000 -9.090909
v 118.897057 0.000000 9.090909
v 118.897057 0.000000 0.909091
v 118.897057 0.000000 -0.909091
v 10.000000 20.000000 -9.090909
v 10.000000 20.000000 -10.000000
v 10.000000 20.000000 0.909091
v 10.000000 20.000000 -0.909091
v 10.000000 20.000000 9.090909
v 105.000000 20.000000 -9.090909
v 105.000000 20.000000 0.909091
v 105.000000 20.000000 -0.909091
v 118.897057 20.000000 -9.090909
v 118.897057 20.000000 0.909091
v 118.897057 20.000000 -0.909091
v 10.000000 0.000000 9.090909
v 105.000000 0.000000 9.090909
v 105.000000 20.000000 9.090909
v -10.000000 20.000000 -10.000000
v 10.000000 20.000000 10.000000
v 118.897057 20.000000 9.090909
v -10.000000 20.000000 10.000000
vn -0.0000 1.0000 -0.0000
vn -1.0000 -0.0000 -0.0000
vn -0.0000 -0.0000 1.0000
vn 1.0000 -0.0000 -0.0000
vn -0.0000 -0.0000 -1.0000
vt -10.741658 12.715576
vt 4.421544 10.081528
vt -10.741658 8.924775
vt 8.729274 -0.343174
vt 4.421544 6.290727
vt -6.950859 12.715576
vt 8.212347 6.290727
vt -6.950859 8.924775
vt 8.556963 3.447626
vt 8.212347 10.081528
vt -8.673948 12.715576
vt -9.018566 12.715576
vt -9.018566 8.924775
vt 8.212347 -11.715576
vt 8.901583 -4.133975
vt -8.673948 8.924775
vt 4.421544 6.290727
vt 8.556965 -4.133975
vt -10.569349 12.715576
vt -7.123168 8.924775
vt 0.630744 -11.715576
vt 8.729272 3.447626
vt -7.123168 12.715576
vt 8.212347 6.290727
vt -9.018566 -9.081528
vt 8.556965 -7.924775
vt -8.673948 -9.081528
vt 8.901583 -7.924775
vt 4.421544 -11.715576
vt -7.123168 -9.081528
vt 0.630743 6.290727
vt -7.123168 -11.715576
vt 8.212347 -11.715576
vt 0.630743 8.924775
vt -10.569349 -11.715576
vt 11.658528 -11.715576
vt -3.160057 -11.715576
vt -9.018566 -11.715576
vt 10.107745 -11.715576
vt -8.673948 -11.715576
vt 9.763128 -11.715576
vt -3.160057 -11.715576
vt 8.729272 7.238427
vt 8.556963 7.238427
vt 4.421544 10.081528
vt 4.421544 -11.715576
vt 8.212343 10.081528
vt 8.901583 -0.343174
vt 0.630744 6.290727
vt 8.556963 10.081528
vt 8.556963 -0.343174
vt 8.556965 3.447626
vt -6.950859 8.924775
vt -3.160058 6.290727
vt 4.421544 6.290727
vt 8.556965 -4.133975
vt 8.212347 -7.924775
vt 8.901583 -4.133975
vt 0.630744 -11.715576
vt 8.556963 -7.924775
vt 8.212347 -7.924775
vt -3.160058 8.924775
vt 10.107745 -7.924775
vt 9.763128 -7.924775
vt -10.569349 8.924775
vt 8.556965 -0.343174
vt -3.160057 8.924775
vt -10.569349 -9.081528
vt -3.160057 -9.081528
vt -6.950859 -9.081528
vt 4.421544 6.290727
vt 8.729274 3.447626
vt 0.630744 6.290727
vt 11.658528 -7.924775
vt -6.950859 -11.715576
vt 0.630744 10.081528
s 0
usemtl Material
f 11/23/1 10/20/1 4/8/1 3/6/1
f 30/65/1 7/13/1 6/12/1 9/19/1
f 6/12/1 7/13/1 8/16/1 5/11/1
f 8/16/1 10/20/1 11/23/1 5/11/1
f 1/1/1 2/3/1 30/65/1 9/19/1
f 7/13/1 30/65/1 31/68/1 12/25/1
f 30/66/2 2/4/2 34/72/2 23/52/2
f 7/14/3 12/24/3 25/55/3 21/46/3
f 13/27/1 18/40/1 15/32/1 14/30/1
f 13/27/1 12/25/1 17/38/1 18/40/1
f 12/25/1 31/68/1 16/35/1 17/38/1
f 12/26/4 13/28/4 26/58/4 25/56/4
f 13/29/5 8/17/5 22/49/5 26/59/5
f 22/50/1 21/47/1 25/57/1 26/60/1
f 15/33/2 18/41/2 29/64/2 27/61/2
f 8/18/2 7/15/2 21/48/2 22/51/2
f 18/41/2 17/39/2 28/63/2 29/64/2
f 10/21/3 14/31/3 24/54/3 19/42/3
f 17/39/2 16/36/2 35/74/2 28/63/2
f 14/31/3 15/34/3 27/62/3 24/54/3
f 4/9/2 10/22/2 19/43/2 20/44/2
f 31/69/5 30/67/5 23/53/5 32/70/5
f 2/5/5 1/2/5 36/76/5 34/73/5
f 3/7/3 4/10/3 20/45/3 33/71/3
f 16/37/5 31/69/5 32/70/5 35/75/5
