# Blender 3.5.0
# www.blender.org
mtllib Principal.mtl
o Main
v -10.000000 0.000000 10.000000
v -10.000000 0.000000 -10.000000
v -10.000000 0.000000 -0.909091
v -10.000000 0.000000 9.090909
v -30.000000 0.000000 10.000000
v -30.000000 0.000000 -10.000000
v -30.000000 0.000000 -0.909091
v -30.000000 0.000000 9.090909
v -60.000000 0.000000 10.000000
v -60.000000 0.000000 -10.000000
v -60.000000 0.000000 -0.909091
v -60.000000 0.000000 9.090909
v -110.000000 0.000000 -10.000000
v -110.000000 0.000000 -20.000000
v -30.000000 0.000000 -30.000000
v -60.000000 0.000000 -30.000000
v -60.000000 -1.000000 -30.000000
v -60.000000 0.000000 -28.775511
v -110.000000 0.000000 -28.775511
v -30.000000 0.000000 -28.775511
v -105.238091 0.000000 9.090909
v -105.238091 0.000000 -10.000000
v -105.238091 0.000000 -28.775511
v -105.238091 0.000000 -0.909091
v -105.238091 0.000000 10.000000
v -105.238091 20.000000 10.000000
v -109.238091 0.000000 -10.000000
v -109.238091 0.000000 -20.000000
v -109.238091 0.000000 -28.775511
v -110.000000 20.000000 -10.000000
v -110.000000 20.000000 -20.000000
v -110.000000 20.000000 -28.775511
v -10.000000 20.000000 10.000000
v -30.000000 20.000000 10.000000
v -60.000000 20.000000 10.000000
v -71.875000 0.000000 -10.000000
v -71.875000 0.000000 9.090909
v -71.875000 0.000000 -28.775511
v -71.875000 0.000000 10.000000
v -71.875000 0.000000 -0.909091
v -71.875000 20.000000 10.000000
v -73.125000 0.000000 10.000000
v -73.125000 0.000000 -0.909091
v -73.125000 0.000000 -10.000000
v -73.125000 0.000000 -28.775511
v -73.125000 20.000000 10.000000
v -73.125000 0.000000 9.090909
v -10.000000 20.000000 -10.000000
v -30.000000 20.000000 -10.000000
v -30.000000 20.000000 -30.000000
v -60.000000 20.000000 -30.000000
v -30.000000 20.000000 -28.775511
vn -0.0000 1.0000 -0.0000
vn 1.0000 -0.0000 -0.0000
vn -0.0000 -0.0000 -1.0000
vn -1.0000 -0.0000 -0.0000
vn -0.0000 -0.0000 1.0000
vt 0.399999 10.686287
vt 4.474516 -9.686287
vt -3.674516 10.686287
vt 8.549030 0.500000
vt -1.822464 10.686287
vt 0.214794 10.686287
vt 0.399999 6.611772
vt 4.474516 -5.611773
vt -3.674516 6.611772
vt 8.549030 0.500000
vt 4.474516 0.500000
vt -1.822464 6.611772
vt 0.214794 6.611772
vt 0.399999 0.500000
vt 4.474516 0.500000
vt -3.674515 0.500000
vt -1.822464 0.500000
vt 0.214794 0.500000
vt -3.674515 -9.686287
vt 4.474516 4.574514
vt -5.711772 -9.686287
vt 6.511772 4.574514
vt -7.749031 6.611772
vt 8.549030 -3.574515
vt -7.749031 0.500000
vt 8.549030 -9.686287
vt -7.499570 0.500000
vt -7.499569 -9.686287
vt 8.299570 4.574514
vt -7.499570 6.611772
vt 8.549030 -3.325055
vt 0.214794 -8.716164
vt -3.674515 -8.716164
vt -7.499570 -8.716164
vt -1.822463 -8.716164
vt 4.474514 9.716164
vt 0.399999 -8.716164
vt 0.400000 9.716164
vt -3.674515 -9.531067
vt -5.711772 -9.531067
vt -7.499569 -9.531067
vt 4.474514 8.649029
vt 6.511772 8.649029
vt 8.299569 8.649029
vt 0.400001 -9.686287
vt 0.400001 -5.611773
vt 0.400001 0.500000
vt -3.674515 -1.919243
vt 0.214794 -1.919243
vt -7.499570 -1.919243
vt 4.474516 2.919243
vt 0.399999 -1.919243
vt -1.822463 -1.919243
vt 0.400001 2.919243
vt 4.474516 3.173900
vt 0.399999 -2.173900
vt -1.822463 -2.173900
vt -3.674515 -2.173900
vt -7.499570 -2.173900
vt 0.400001 3.173900
vt 0.214794 -2.173900
vt 8.549028 4.574516
vt 4.474516 0.500000
vt 4.474514 4.574514
vt 4.474516 -3.574515
vt 4.474516 -9.686287
vt 4.474516 -3.325055
s 0
usemtl Material
f 3/5/1 2/3/1 6/9/1 7/12/1
f 3/5/1 7/12/1 8/13/1 4/6/1
f 1/1/1 4/6/1 8/13/1 5/7/1
f 5/7/1 8/13/1 12/18/1 9/14/1
f 7/12/1 6/9/1 10/16/1 11/17/1
f 27/39/1 28/40/1 14/21/1 13/19/1
f 6/9/1 20/30/1 18/27/1 10/16/1
f 18/27/1 20/30/1 15/23/1 16/25/1
f 10/16/1 36/48/1 40/53/1 11/17/1
f 28/40/1 29/41/1 19/28/1 14/21/1
f 23/34/1 29/41/1 28/40/1 27/39/1 22/33/1
f 19/29/2 32/44/2 31/43/2 14/22/2
f 13/20/2 14/22/2 31/43/2 30/42/2
f 5/8/3 34/46/3 33/45/3 1/2/3
f 9/15/3 35/47/3 34/46/3 5/8/3
f 12/18/1 37/49/1 39/52/1 9/14/1
f 25/36/3 26/38/3 46/60/3 42/55/3
f 43/57/1 40/53/1 36/48/1 44/58/1
f 45/59/1 44/58/1 36/48/1 38/50/1
f 18/27/1 38/50/1 36/48/1 10/16/1
f 40/53/1 37/49/1 12/18/1 11/17/1
f 7/12/1 11/17/1 12/18/1 8/13/1
f 39/51/3 41/54/3 35/47/3 9/15/3
f 47/61/1 43/57/1 24/35/1 21/32/1
f 47/61/1 21/32/1 25/37/1 42/56/1
f 45/59/1 23/34/1 22/33/1 44/58/1
f 44/58/1 22/33/1 24/35/1 43/57/1
f 41/54/3 39/51/3 42/55/3 46/60/3
f 42/56/1 39/52/1 37/49/1 47/61/1
f 43/57/1 47/61/1 37/49/1 40/53/1
f 20/31/4 6/10/4 49/63/4 52/67/4
f 16/26/5 15/24/5 50/65/5 51/66/5
f 15/24/4 20/31/4 52/67/4 50/65/4
f 6/11/5 2/4/5 48/62/5 49/64/5
l 16 17
