# Blender 3.5.0
# www.blender.org
mtllib Rampas.mtl
o Plane
v -110.000000 3.445161 -10.150822
v -94.459885 0.000000 -10.150822
v -110.000000 3.445161 -14.150822
v -110.000000 12.193453 -24.221973
v -110.000000 12.193453 -28.221973
v -99.768478 0.000000 -28.221973
v -110.000000 6.726994 -15.081106
v -110.000000 6.726994 -19.081106
v -95.573914 0.000000 -19.081106
v -110.000000 9.689913 -19.810791
v -110.000000 9.689913 -23.810791
v -110.000000 0.000000 -10.150822
v -110.000000 0.000000 -14.150822
v -94.459885 0.000000 -14.150822
v -110.000000 0.000000 -24.221973
v -99.768478 0.000000 -24.221975
v -110.000000 0.000000 -28.221973
v -110.000000 0.000000 -15.081106
v -95.573914 0.000000 -15.081108
v -110.000000 0.000000 -19.081106
v -110.000000 0.000000 -19.810791
v -97.371857 0.000000 -19.810793
v -110.000000 0.000000 -23.810791
v -97.371857 0.000000 -23.810793
vn 0.2164 0.9763 -0.0000
vn 0.7660 0.6428 -0.0000
vn 0.4226 0.9063 -0.0000
vn 0.6088 0.7934 -0.0000
vn -0.0000 -1.0000 -0.0000
vn -1.0000 -0.0000 -0.0000
vn -0.0000 -0.0000 1.0000
vn -0.0000 -0.0000 -1.0000
vt -2.996710 13.562055
vt 7.185050 -7.305313
vt 15.284132 15.979805
vt -2.996710 2.778491
vt -5.858460 13.896469
vt 12.819336 4.861826
vt -0.134962 13.562055
vt 7.185050 -10.167062
vt 12.819334 4.861826
vt 2.726787 2.778489
vt 1.461552 -6.256153
vt -1.400197 -14.979805
vt -0.134961 2.778491
vt -1.400197 -6.256153
vt -8.720209 -14.979805
vt -0.134961 13.562055
vt 1.461552 -14.979805
vt -8.720211 -3.591886
vt 9.957582 5.064078
vt 10.046799 -10.167062
vt -14.327667 -3.591886
vt 12.819334 5.064078
vt 7.185050 -10.167062
vt 5.144841 4.064806
vt 12.819332 -6.256155
vt 5.144842 4.064805
vt 9.957582 -6.256153
vt -5.858460 2.778491
vt 7.185052 -8.047279
vt 5.144841 2.778491
vt 4.323302 -8.047279
vt -8.720209 2.778491
vt -5.858460 2.778489
vt 9.649845 -7.305313
vt 12.819336 15.979805
vt -2.996710 2.778489
vt 9.649845 -10.167062
vt 15.284132 4.861826
vt -0.134960 2.778491
vt -2.996710 13.896469
vt 15.284132 -6.256153
vt 4.323300 -7.659791
vt 1.461552 -14.979805
vt -1.400197 -6.256153
vt 2.726787 13.562054
vt 4.323300 -14.979803
vt -8.720209 -6.256153
vt 1.461552 -7.659791
vt -1.400197 -14.979805
vt -14.327667 -8.297102
vt 8.006588 14.385763
vt 10.046799 -14.979805
vt -9.514925 -3.591886
vt 9.957582 -6.256155
vt 8.006590 4.064806
vt -9.514923 6.729074
vt 5.144838 14.385763
vt 7.185050 -14.979805
vt 9.957582 4.064806
vt 12.819332 14.098722
vt 7.185052 -14.979805
vt -1.787686 2.778491
vt -5.858460 14.098722
vt 12.819332 5.064080
vt -1.787685 -6.256153
vt 9.957582 14.098722
vt 4.323302 -14.979805
vt -1.787684 2.778491
vt -8.720209 14.098725
vt 9.957582 5.064078
vt -1.787684 -6.256153
s 0
usemtl Material
f 1/1/1 2/4/1 14/39/1 3/7/1
f 4/10/2 16/45/2 6/16/2 5/13/2
f 7/19/3 19/54/3 9/25/3 8/22/3
f 10/28/4 22/63/4 24/69/4 11/32/4
f 12/33/5 13/36/5 14/40/5 2/5/5
f 15/42/5 17/48/5 6/17/5 16/46/5
f 18/51/5 20/57/5 9/26/5 19/55/5
f 21/60/5 23/66/5 24/70/5 22/64/5
f 5/14/6 17/49/6 15/43/6 4/11/6
f 11/31/6 23/67/6 21/61/6 10/29/6
f 4/12/7 15/44/7 16/47/7
f 10/30/7 21/62/7 22/65/7
f 6/18/8 17/50/8 5/15/8
f 3/8/6 13/37/6 12/34/6 1/2/6
f 24/71/8 23/68/8 11/32/8
f 8/23/6 20/58/6 18/52/6 7/20/6
f 1/3/7 12/35/7 2/6/7
f 7/21/7 18/53/7 19/56/7
f 14/41/8 13/38/8 3/9/8
f 9/27/8 20/59/8 8/24/8
