# Blender 3.5.0
# www.blender.org
mtllib Cuevas.mtl
o Cube.009
v 1078.605225 185.899292 343.150146
v 1088.714966 204.023224 350.746368
v 1099.759644 205.513168 357.834412
v 1109.562500 204.023224 366.411224
v 1105.559937 185.899292 363.403717
v 1092.082520 183.227203 353.276794
v 1073.352173 195.952271 369.071808
v 1085.677124 195.952271 380.603760
v 1072.349487 185.141327 367.882629
v 1082.027710 185.141327 376.937958
v 1079.966064 196.930450 374.402039
v 1077.188599 184.075851 372.410278
v 1034.068115 183.888412 405.278870
v 1037.763184 184.997299 411.219238
v 1038.860596 192.518448 412.983429
v 1036.354736 193.136749 408.194153
v 1033.144897 192.518448 403.794525
v 1030.373047 184.997299 399.338562
v 676.361816 67.880295 138.162888
v 676.283630 67.880280 111.327209
v 676.378235 53.543110 140.295532
v 660.674561 36.515839 124.732018
v 676.322876 68.886452 124.745033
v 676.267334 53.543102 109.194572
v 694.835876 68.321365 138.162888
v 694.757690 68.321350 111.327209
v 694.852295 55.739780 138.528641
v 710.560059 36.515839 124.732018
v 694.796936 69.327515 124.745033
v 694.741394 55.739769 110.961472
v 737.326172 68.321365 138.162888
v 737.248047 68.321350 111.327209
v 737.342590 55.470348 137.351349
v 737.287170 38.593628 124.721146
v 737.287231 69.327515 124.745033
v 673.588989 38.602272 143.138245
v 673.516541 38.602272 106.325783
v 697.718018 38.903885 143.138245
v 697.645569 38.903885 106.325783
v 670.827698 17.733032 124.732018
v 700.406921 17.733032 124.732018
v 678.485229 18.970165 135.645844
v 678.442261 18.970165 113.818192
v 692.792358 19.149006 135.645844
v 692.749390 19.149006 113.818192
v 670.851868 9.593286 124.732018
v 700.431091 9.593286 124.732018
v 678.509399 10.830419 135.645844
v 678.466431 10.830419 113.818192
v 692.816528 11.009259 135.645844
v 692.773560 11.009259 113.818192
v 659.176208 1.454725 124.732002
v 712.151428 1.454725 124.732002
v 672.890564 3.670382 144.278244
v 672.813599 3.670382 105.185768
v 698.514038 3.990679 144.278244
v 698.437134 3.990679 105.185768
v 657.689575 -10.972099 124.731995
v 713.711426 -10.972099 124.731995
v 672.192688 -8.629022 145.402344
v 672.111267 -8.629022 104.061668
v 699.289734 -8.290304 145.402344
v 699.208374 -8.290304 104.061668
v 664.054810 -19.996553 124.731995
v 707.376526 -19.996553 124.731995
v 675.270081 -18.184650 140.716385
v 675.207092 -18.184650 108.747627
v 696.224304 -17.922720 140.716385
v 696.161316 -17.922720 108.747627
v 737.287170 38.646923 116.206848
v 737.231689 55.470341 112.138756
v 737.287170 38.638660 132.789185
v 633.340393 67.880249 111.327209
v 633.340454 68.886452 124.745033
v 633.340515 67.880272 138.162888
v 633.340515 48.153969 142.035797
v 633.336609 41.247475 124.721146
v 633.340332 48.153965 107.454315
v 633.340393 39.040398 106.450531
v 633.340515 39.040398 142.991745
v 737.326172 68.321365 138.162888
v 737.248047 68.321350 111.327209
v 737.342590 55.470348 137.351349
v 737.287170 38.593628 124.721146
v 737.287231 69.327515 124.745033
v 737.287170 38.646923 116.206848
v 737.231689 55.470341 112.138756
v 737.287170 38.638660 132.789185
v 762.410461 56.557709 135.210831
v 762.353027 56.557312 114.621986
v 762.428711 47.865883 134.819168
v 762.381836 39.109245 124.939896
v 762.381836 57.332047 124.915924
v 762.381836 39.450611 118.251251
v 762.334900 47.865871 115.012718
v 762.381836 39.421204 131.277969
v 808.393066 57.113934 134.474686
v 808.326904 57.113922 115.357185
v 808.406982 49.527420 134.343384
v 790.062561 22.041967 147.492401
v 808.360107 61.777908 124.915924
v 808.360107 40.846798 118.251251
v 808.313110 50.384205 112.089348
v 808.360107 40.827988 131.277969
v 844.518799 55.887840 133.462372
v 844.452637 55.887836 116.356590
v 844.532715 48.099632 135.620148
v 790.062561 22.041967 101.737457
v 844.485840 57.332047 124.909470
v 844.485718 39.336246 119.504395
v 844.438843 47.291847 117.260201
v 844.485718 39.316906 130.074402
v 865.162109 56.247143 133.305450
v 865.095947 56.247444 116.529251
v 865.176025 48.849018 134.863953
v 790.062561 22.041967 125.230576
v 865.129028 59.801964 124.917801
v 865.129028 40.312489 117.885612
v 865.082092 49.877880 111.376740
v 865.129028 40.286327 131.629150
v 894.484863 56.904228 136.038605
v 894.418701 56.904217 113.797035
v 894.498779 49.134914 138.796906
v 894.451904 39.109245 124.942299
v 894.451904 57.332047 124.917801
v 894.451904 39.487911 117.885612
v 894.404907 47.878010 114.971443
v 894.451904 39.455254 131.629150
v 928.968506 56.904228 136.038605
v 928.902466 56.904217 113.797035
v 928.982483 48.022137 135.365997
v 928.935547 39.109245 124.942299
v 928.935547 57.332047 124.917801
v 928.935547 39.487911 117.885612
v 928.888550 48.022121 114.469658
v 928.935547 39.455254 131.629150
v 775.753052 32.565510 125.125023
v 775.753052 32.815334 107.733536
v 775.753052 32.809231 141.605011
v 808.360107 32.832664 107.733536
v 808.360107 32.831779 141.605011
v 844.485718 32.585571 110.991890
v 844.485718 32.572632 138.475601
v 865.129028 32.816170 106.782806
v 865.129028 32.809273 142.518143
v 901.723938 31.730738 125.131294
v 901.723938 32.089817 106.782806
v 901.723938 32.079468 142.518143
v 808.360107 12.189495 125.230576
v 808.360107 12.189495 101.737457
v 808.360107 12.189495 147.492401
v 844.485718 12.189495 125.201546
v 844.485718 12.189495 106.138969
v 844.485718 12.189495 143.265045
v 865.129028 12.189495 125.239052
v 865.129028 12.189495 100.453178
v 865.129028 12.189495 148.725891
v 929.873901 19.226976 125.239052
v 929.873901 19.226976 100.453178
v 929.873901 19.226976 148.725891
v 517.498474 68.621208 134.036514
v 517.496887 49.732292 133.214340
v 517.462708 68.621208 115.843239
v 517.464355 49.732292 116.665421
v 517.505981 56.811218 137.841965
v 517.455261 56.811218 112.037796
v 517.480652 70.378357 124.939865
v 517.480652 48.699661 124.939873
v 538.540222 69.479118 134.063782
v 538.538269 47.212040 133.239136
v 538.495544 69.492279 115.815971
v 538.497620 47.212040 116.640617
v 538.549622 55.998489 137.880646
v 538.486206 56.000721 111.999123
v 538.517944 70.942696 124.939865
v 538.517944 45.920750 124.939880
v 565.332520 67.805855 135.207565
v 565.329529 28.342007 137.213165
v 565.266357 67.805847 114.672188
v 565.269409 28.342007 112.666603
v 565.346436 46.651711 139.502930
v 565.252563 46.651711 110.376846
v 565.299561 69.671494 124.939865
v 565.299561 25.616821 124.939880
v 585.467529 63.505165 135.207565
v 578.231628 24.823267 137.213165
v 585.401428 63.505154 114.672188
v 578.171448 24.823267 112.666603
v 585.481445 42.351028 139.502930
v 585.387573 42.351028 110.376846
v 585.434570 65.370811 124.939865
v 578.201599 22.098082 124.939880
v 603.061218 64.912140 138.432663
v 620.261047 23.454865 137.213165
v 602.995056 64.912132 111.447090
v 620.200806 23.454865 112.666603
v 603.075134 42.559227 144.077209
v 603.028259 44.786690 124.939896
v 603.028320 65.370811 124.939865
v 602.981323 42.559227 105.802582
v 623.163269 21.120657 124.939880
v 609.420959 30.740950 124.939888
v 633.340393 67.880249 111.327209
v 633.340454 68.886452 124.745033
v 633.340515 67.880272 138.162888
v 633.340515 48.153969 142.035797
v 633.336609 41.247475 124.721146
v 633.340332 48.153965 107.454315
v 633.340393 39.040398 106.450531
v 633.340515 39.040398 142.991745
v 928.968506 56.904228 136.038605
v 928.902466 56.904217 113.797035
v 928.982483 48.022137 135.365997
v 928.935547 39.109245 124.942299
v 928.935547 57.332047 124.917801
v 928.935547 39.487911 117.885612
v 928.888550 48.022121 114.469658
v 928.935547 39.455254 131.629150
v 945.657349 65.544891 136.038605
v 945.600159 65.484528 113.797035
v 951.566101 58.183342 135.365997
v 958.069946 49.361103 124.942299
v 943.933472 66.079437 124.917801
v 958.069946 49.458000 117.885612
v 951.484741 58.110840 114.469658
v 958.069946 49.450405 131.629150
v 946.317200 88.394043 136.755600
v 946.407593 87.267181 112.388268
v 957.363770 84.544220 137.072983
v 973.449524 77.882072 126.212227
v 940.162598 88.727409 123.408287
v 967.753662 78.650467 120.432159
v 958.140320 86.509018 112.211342
v 969.070129 79.158455 131.687836
v 954.737000 153.328049 141.477661
v 940.661133 155.397247 122.391487
v 963.997559 152.520874 137.423538
v 964.907959 153.554855 116.589706
v 942.904419 154.500061 137.045349
v 956.212036 155.513626 110.141998
v 946.643311 155.247467 114.112839
v 968.203918 153.025146 125.729668
v 970.858459 119.290321 127.315811
v 970.008911 120.139771 121.641998
v 959.738403 124.398918 136.356598
v 964.795654 120.346809 114.210846
v 949.419617 122.333130 112.813408
v 947.096313 124.619560 138.678711
v 939.687439 125.009163 121.766357
v 938.126770 125.271431 133.412247
v 978.785706 197.283905 135.496323
v 961.872375 197.259155 149.940445
v 978.263916 203.195038 135.921036
v 970.347534 213.464844 142.702499
v 970.328979 195.460114 142.718353
v 964.968018 212.364929 147.269257
v 962.394043 203.154205 149.515747
v 975.445435 212.364929 138.375092
v 967.985413 193.125122 122.773506
v 951.066345 193.133362 137.210724
v 963.648865 197.449280 118.704056
v 951.493225 205.988892 120.491623
v 960.622986 191.772049 131.284515
v 946.113464 204.889038 125.058342
v 947.770935 197.455399 132.289322
v 956.590881 204.889038 116.164261
v 968.104980 177.844406 121.806381
v 949.469849 178.856155 137.506927
v 961.198120 182.756805 113.179512
v 942.508362 189.125565 107.945015
v 961.912537 175.838455 135.136169
v 941.788025 187.830933 116.027885
v 941.742188 181.039825 128.676804
v 949.516907 187.562225 107.740143
v 967.264465 197.259155 182.962250
v 989.428345 197.259155 207.979324
v 994.669800 197.259155 209.055649
v 1004.333496 197.259155 201.208908
v 1008.810547 197.259155 200.817490
v 1049.541626 197.259155 249.816833
v 1051.207031 197.259155 258.351440
v 1042.307739 197.259155 267.665833
v 1044.109497 197.259155 273.934479
v 1069.301636 199.931244 297.844574
v 1058.223389 197.259155 228.762024
v 1058.102051 197.259155 224.390289
v 1069.894043 197.259155 209.871094
v 1070.367554 197.259155 203.750778
v 1050.664185 197.259155 182.115814
v 1046.950928 197.259155 183.369446
v 1037.439941 197.259155 191.388580
v 1033.420654 197.259155 191.691803
v 981.678223 218.055176 170.192368
v 1007.036133 218.055176 198.814575
v 1008.810547 218.055176 200.817490
v 1054.510254 218.055176 255.425018
v 1078.766724 218.055176 289.458862
v 1056.000000 218.055176 226.252563
v 1035.037598 218.055176 193.516907
v 1033.420654 218.055176 191.691803
v 999.995667 218.055176 153.964005
v 1014.633911 218.987061 189.771866
v 1063.056641 219.545120 247.368896
v 1087.920898 219.545120 280.055359
v 1098.285400 218.055176 272.166290
v 1058.223389 218.055176 228.762024
v 1052.251465 219.421097 233.492310
v 1049.541626 218.055176 249.816833
v 1019.622192 219.545120 195.402191
v 991.194458 220.165176 162.894806
v 963.957336 169.166946 185.892258
v 1036.732178 169.166946 266.170288
v 1063.056641 162.597382 247.368896
v 1040.865967 169.166946 272.875549
v 1065.554077 169.166946 301.164612
v 1113.811768 169.166946 258.410706
v 1073.561768 169.166946 212.933350
v 1071.530762 169.166946 205.570679
v 1019.622192 162.597382 195.402191
v 1048.545654 169.166946 181.447464
v 1014.633911 162.039322 189.771866
v 989.458008 169.166946 213.494278
v 1012.467773 169.166946 142.914429
v 986.780029 187.159897 210.325653
v 964.616089 187.159897 185.308594
v 1049.135742 187.159897 181.433746
v 1050.882568 187.159897 181.922256
v 1010.701660 187.159897 144.479095
v 1044.126587 187.159897 182.206940
v 1037.403320 187.159897 260.570831
v 995.568726 187.159897 212.549133
v 1070.367554 187.159897 203.750778
v 1046.397949 187.159897 183.452271
v 993.077942 187.159897 211.180817
v 990.255920 187.159897 212.966202
v 1043.005981 187.159897 274.912109
v 1039.659180 187.159897 270.012177
v 1041.496460 187.159897 266.954651
v 1072.206421 187.159897 216.373596
v 1111.613159 187.159897 260.358612
v 1072.297485 187.159897 207.741837
v 1070.555786 187.159897 213.356873
v 1065.554077 187.159897 301.164612
v 1052.251465 162.473358 233.492310
v 991.194458 163.217438 162.894806
v 999.995667 197.259155 153.964005
v 988.536560 196.389420 159.894745
v 961.872375 197.259155 149.940445
v 964.968018 212.364929 147.269257
v 975.445435 212.364929 138.375092
v 970.347534 213.464844 142.702499
v 978.785706 197.283905 135.496323
v 970.328979 195.460114 142.718353
v 1094.537964 199.931244 275.486389
v 1087.920898 162.597382 280.055359
v 1081.919678 197.259155 286.665466
v 962.394043 203.154205 149.515747
v 978.263916 203.195038 135.921036
v 1078.605225 185.899292 343.150146
v 1088.714966 204.023224 350.746368
v 1099.759644 205.513168 357.834412
v 1109.562500 204.023224 366.411224
v 1105.559937 185.899292 363.403717
v 1092.082520 183.227203 353.276794
v 1082.848633 192.915268 316.806580
v 1099.695801 190.243179 317.403534
v 1108.599854 212.529144 316.750488
v 1095.486084 211.039200 317.254395
v 1116.543335 192.915268 318.000702
v 1121.546875 211.039200 318.178040
v 1093.425049 193.751160 301.418671
v 1089.743652 214.547180 302.740784
v 1112.533447 214.547180 294.556335
v 1078.692383 196.423248 306.709747
v 1100.877686 216.037140 297.787109
v 1108.157959 196.423248 296.127716
v 1083.344238 189.407288 329.362549
v 1106.796997 209.021149 336.676636
v 1113.668945 189.407288 340.086365
v 1098.506348 186.735199 334.724335
v 1094.717773 207.531219 333.384552
v 1118.171875 207.531219 341.678802
vn 0.6486 0.5908 0.4799
vn 0.5452 -0.7947 0.2668
vn 0.8106 -0.5856 -0.0081
vn 0.8437 0.4288 0.3230
vn 0.0010 0.9998 -0.0222
vn 0.5729 0.7342 -0.3644
vn 0.4133 0.6813 0.6042
vn 0.4044 -0.8352 0.3727
vn 0.7097 -0.6987 0.0906
vn 0.9470 0.3207 -0.0193
vn 0.1322 -0.9789 -0.1558
vn 0.5702 -0.7336 -0.3698
vn 0.0209 0.9994 -0.0288
vn 0.8592 0.3730 0.3502
vn 0.4959 0.3911 0.7753
vn 0.5740 -0.8179 0.0397
vn 0.4303 -0.8549 0.2898
vn 0.1948 -0.9467 -0.2565
vn -0.0000 -1.0000 -0.0000
vn -0.0057 -0.7414 0.6710
vn -0.0087 -0.7255 0.6882
vn 0.0119 -0.9999 -0.0000
vn -0.0057 -0.7415 -0.6710
vn -0.0086 -0.7255 -0.6882
vn -0.0094 -0.1635 -0.9865
vn -0.0219 -0.1679 -0.9856
vn -0.0095 -0.1651 0.9862
vn -0.0219 -0.1689 0.9854
vn -0.0102 -0.6968 -0.7172
vn -0.0102 -0.6968 0.7172
vn -0.0279 -0.1405 0.9897
vn 0.1862 0.2542 -0.9491
vn -0.0279 -0.1398 -0.9898
vn -0.2204 0.2092 -0.9527
vn -0.4037 0.9149 0.0005
vn -0.9682 0.2502 0.0014
vn -0.4325 0.2316 -0.8714
vn -0.0095 -0.6728 -0.7398
vn -0.1058 0.0728 -0.9917
vn -0.2193 0.2079 0.9533
vn -0.0178 0.9998 0.0003
vn -0.0000 -1.0000 -0.0001
vn -0.0095 -0.6746 0.7381
vn -0.1019 0.0619 0.9929
vn -0.1343 0.8343 -0.5347
vn 0.1867 0.2537 0.9491
vn -0.4315 0.2312 0.8720
vn 0.0547 0.9985 -0.0000
vn 0.4638 0.8859 -0.0007
vn 0.0005 0.6914 0.7224
vn 0.0005 0.6927 -0.7212
vn 0.4320 0.2315 0.8716
vn 0.4107 -0.5191 0.7496
vn -0.4061 -0.5200 0.7514
vn 0.9668 0.2556 -0.0014
vn 0.4311 0.2311 -0.8722
vn 0.4100 -0.5185 -0.7504
vn 0.8194 -0.5732 -0.0014
vn -0.8150 -0.5795 0.0014
vn -0.4233 -0.4789 0.7691
vn -0.8972 -0.4416 0.0012
vn -0.4068 -0.5206 -0.7506
vn -0.4243 -0.4792 -0.7683
vn 0.4272 -0.4705 -0.7721
vn 0.4282 -0.4708 0.7713
vn 0.8976 -0.4407 -0.0012
vn 0.9718 0.2357 -0.0011
vn 0.4538 0.1851 0.8717
vn -0.4545 0.1785 0.8727
vn -0.9721 0.2347 0.0011
vn -0.2566 0.7695 0.5849
vn -0.5637 0.8260 0.0009
vn 0.4526 0.1850 -0.8723
vn -0.4558 0.1786 -0.8720
vn -0.2571 0.7696 -0.5845
vn 0.2498 0.7739 -0.5820
vn 0.2503 0.7740 0.5816
vn 0.5626 0.8267 -0.0009
vn -0.1314 0.8257 0.5486
vn -0.0833 0.1457 0.9858
vn -0.0523 0.7800 0.6236
vn 0.1592 0.7600 0.6301
vn -0.0289 0.1764 0.9839
vn -0.3863 -0.6693 -0.6346
vn -0.4313 -0.9022 0.0016
vn -0.2018 -0.9794 0.0006
vn -0.1637 -0.5583 -0.8133
vn -0.3920 -0.6625 0.6383
vn -0.1517 -0.6064 0.7806
vn -0.0270 0.9996 0.0007
vn 0.2190 0.9757 0.0004
vn -0.0379 0.7941 -0.6066
vn 0.1595 0.7435 -0.6494
vn -0.0668 0.1575 -0.9853
vn -0.0363 0.2041 -0.9783
vn -0.0146 -0.9999 0.0001
vn -0.0131 -0.6196 -0.7848
vn -0.0266 -0.6638 0.7474
vn 0.5255 0.8508 -0.0001
vn 0.5968 0.0565 0.8004
vn -0.0034 0.1761 -0.9844
vn -0.0125 -0.2418 -0.9702
vn -0.0287 -0.2193 0.9752
vn -0.0281 0.1340 0.9906
vn 0.0487 -0.2182 -0.9747
vn -0.3965 -0.0523 -0.9166
vn -0.2425 -0.7606 -0.6023
vn 0.0861 -0.5801 -0.8100
vn 0.0342 0.1519 0.9878
vn 0.0119 -0.6724 0.7401
vn 0.5935 0.0612 -0.8025
vn -0.0074 -1.0000 -0.0000
vn -0.0092 -0.6605 -0.7508
vn -0.4000 -0.1203 0.9086
vn 0.0606 -0.2316 0.9709
vn 0.0893 -0.5846 0.8064
vn -0.2410 -0.7634 0.5993
vn 0.0004 0.1448 -0.9895
vn 0.0207 -0.2385 -0.9709
vn 0.0380 -0.2443 0.9690
vn 0.0576 0.0863 0.9946
vn 0.0406 -0.7191 -0.6937
vn 0.0431 0.1162 -0.9923
vn 0.0499 -0.7243 0.6876
vn -0.9314 0.3641 0.0008
vn -0.5749 -0.8182 0.0001
vn 0.0223 -0.9998 -0.0002
vn -0.0562 -0.5808 -0.8121
vn 0.0238 0.1563 -0.9874
vn -0.0104 0.1846 0.9828
vn 0.0135 -0.7288 -0.6846
vn -0.0108 -0.6892 0.7245
vn -0.0578 -0.5856 0.8086
vn -0.0106 -0.9999 -0.0001
vn -0.0000 1.0000 0.0010
vn 0.0036 0.8068 0.5909
vn -0.0337 -0.7361 -0.6761
vn 0.0051 -0.6566 0.7542
vn -0.0195 0.8562 -0.5162
vn -0.0450 0.2167 -0.9752
vn 0.0066 0.2279 0.9737
vn 0.0582 0.5797 0.8127
vn -0.8006 0.1345 0.5839
vn 0.0457 -0.5731 0.8182
vn 0.0501 0.6604 0.7493
vn -0.9876 0.1573 0.0002
vn 0.5373 0.8434 -0.0000
vn 0.4065 0.4153 0.8138
vn 0.1557 0.6224 0.7671
vn 0.0442 -0.5678 -0.8220
vn 0.0544 0.5826 -0.8109
vn 0.0483 0.6598 -0.7499
vn -0.8015 0.1346 -0.5827
vn 0.4059 0.4186 -0.8124
vn 0.1571 0.6244 -0.7651
vn 0.2445 0.9697 -0.0000
vn -0.0000 1.0000 -0.0000
vn -0.0541 0.9985 -0.0000
vn 0.0231 0.1081 0.9939
vn 0.0901 0.8165 0.5702
vn 0.2914 0.7114 0.6396
vn 0.0621 0.0413 0.9972
vn 0.0230 0.1081 -0.9939
vn 0.0620 0.0411 -0.9972
vn 0.2913 0.7107 -0.6403
vn 0.0901 0.8169 -0.5697
vn 0.0204 -0.7417 -0.6704
vn 0.0341 -0.9994 -0.0002
vn -0.0086 -1.0000 -0.0003
vn -0.0041 -0.7494 -0.6622
vn 0.1250 0.9922 -0.0001
vn 0.3821 0.9241 -0.0009
vn 0.0206 -0.7412 0.6710
vn -0.0040 -0.7496 0.6619
vn -0.0904 -0.7251 0.6827
vn -0.1293 -0.9916 0.0002
vn 0.4285 0.9035 -0.0010
vn 0.3306 0.6494 0.6848
vn 0.0651 -0.0017 0.9979
vn 0.0649 -0.0020 -0.9979
vn 0.3300 0.6488 -0.6857
vn -0.0905 -0.7253 -0.6824
vn -0.0815 -0.9967 0.0002
vn 0.0093 -0.7250 -0.6887
vn 0.0800 0.0111 -0.9967
vn 0.1195 0.7106 -0.6933
vn 0.1436 0.9896 -0.0003
vn 0.0091 -0.7248 0.6889
vn 0.1198 0.7109 0.6930
vn 0.0799 0.0111 0.9967
vn -0.0799 0.1062 -0.9911
vn -0.7882 0.3224 -0.5241
vn 0.0777 -0.9970 -0.0003
vn 0.1137 -0.7345 -0.6690
vn -0.8879 0.4600 0.0019
vn 0.1181 -0.7356 0.6670
vn -0.7869 0.3225 0.5262
vn -0.0753 0.1079 0.9913
vn -0.8458 0.5335 0.0027
vn -0.7588 -0.6514 0.0018
vn -0.0113 -0.1720 0.9850
vn 0.0704 0.7396 0.6694
vn 0.0616 0.7451 -0.6641
vn 0.1173 0.9931 -0.0007
vn -0.0244 -0.1698 -0.9852
vn 0.0728 -0.7761 0.6264
vn 0.0652 -0.7787 -0.6239
vn 0.1063 -0.9943 0.0001
vn -0.0994 0.2490 -0.9634
vn 0.2639 -0.4737 -0.8402
vn 0.4033 -0.1764 -0.8979
vn -0.1770 0.1735 -0.9688
vn 0.2626 -0.4730 0.8410
vn -0.0923 0.2322 0.9683
vn -0.2230 0.1707 0.9598
vn 0.4016 -0.1583 0.9020
vn -0.2859 0.8036 0.5220
vn -0.3280 0.9447 0.0005
vn -0.6664 0.7454 0.0197
vn -0.5489 0.5695 0.6118
vn 0.4804 -0.8771 -0.0001
vn 0.8683 -0.4961 -0.0001
vn -0.2894 0.8103 -0.5095
vn -0.5307 0.5938 -0.6048
vn -0.6852 0.1510 0.7125
vn -0.1512 0.0401 0.9877
vn 0.4870 0.0707 -0.8705
vn -0.2651 0.0399 -0.9634
vn 0.6275 0.0376 0.7777
vn -0.9755 0.2011 0.0890
vn 0.9967 0.0742 -0.0334
vn -0.7500 0.1324 -0.6481
vn -0.9270 -0.0438 0.3725
vn -0.8987 -0.0427 -0.4365
vn -0.9955 -0.0482 -0.0815
vn -0.7955 -0.0330 0.6051
vn -0.4588 0.0389 -0.8877
vn -0.6270 -0.0293 -0.7785
vn 0.2543 0.0061 0.9671
vn -0.4956 0.0069 0.8685
vn -0.2183 0.0483 0.9747
vn 0.5664 0.0925 0.8189
vn 0.2627 0.0698 -0.9623
vn 0.0453 -0.0423 -0.9981
vn 0.8765 -0.0247 0.4807
vn 0.9723 -0.0035 0.2339
vn 0.9261 0.0145 -0.3769
vn 0.8077 -0.0710 -0.5853
vn -0.6883 -0.2682 0.6740
vn -0.6462 -0.2282 0.7282
vn -0.9210 0.1544 0.3577
vn -0.7258 0.5231 0.4467
vn 0.5598 0.5219 -0.6436
vn 0.5025 0.1287 -0.8549
vn 0.8456 -0.2262 -0.4835
vn 0.7776 -0.2507 -0.5766
vn 0.5757 -0.7863 -0.2245
vn 0.7908 -0.6090 -0.0613
vn 0.3584 -0.8455 0.3958
vn 0.1578 -0.9686 0.1921
vn -0.5324 0.5782 -0.6182
vn -0.1558 0.9708 -0.1824
vn -0.2063 -0.6383 0.7416
vn -0.3067 -0.7927 0.5269
vn 0.9079 -0.1088 -0.4048
vn 0.9718 -0.1843 0.1470
vn -0.6473 -0.0750 0.7585
vn -0.9948 -0.0635 0.0790
vn 0.2155 -0.1519 -0.9646
vn 0.6294 -0.2441 0.7377
vn -0.6479 -0.1292 -0.7507
vn -0.0748 -0.1775 0.9813
vn -0.1764 -0.3804 -0.9079
vn 0.2254 -0.8062 -0.5470
vn 0.4144 -0.7046 -0.5761
vn 0.4856 -0.4403 -0.7552
vn -0.9176 -0.3079 -0.2516
vn -0.8940 -0.4287 -0.1304
vn -0.5846 -0.7949 0.1622
vn 0.7620 -0.4336 -0.4811
vn 0.5555 -0.8004 -0.2253
vn 0.3292 -0.8613 -0.3871
vn 0.4468 -0.2011 -0.8717
vn 0.1821 -0.3258 0.9277
vn 0.4323 -0.1242 0.8931
vn -0.2303 -0.8004 0.5535
vn 0.4924 -0.4976 -0.7141
vn -0.1943 -0.3041 -0.9326
vn 0.9075 -0.3983 0.1337
vn 0.9323 -0.3222 0.1644
vn -0.8460 -0.3762 0.3778
vn -0.7763 -0.4481 0.4434
vn -0.6572 -0.6415 0.3958
vn 0.9386 -0.2934 -0.1816
vn 0.4607 -0.8602 -0.2187
vn -0.3388 -0.3417 0.8766
vn -0.3308 -0.1878 0.9248
vn -0.4839 -0.4099 0.7732
vn -0.3867 -0.6812 0.6216
vn -0.4622 -0.6679 0.5834
vn 0.6128 -0.6826 -0.3982
vn 0.7466 -0.4702 -0.4706
vn -0.9705 0.1515 0.1877
vn -0.6688 -0.5916 0.4503
vn 0.0047 -1.0000 0.0086
vn 0.0663 -0.9950 0.0748
vn 0.0072 -0.9994 0.0328
vn -0.0191 -0.9997 0.0151
vn -0.0065 -0.9999 0.0110
vn -0.0433 -0.9972 -0.0607
vn 0.9944 -0.1053 -0.0023
vn 0.6287 -0.2024 -0.7508
vn 0.5647 0.5851 -0.5821
vn 0.8479 0.5301 0.0013
vn -0.4492 -0.0109 0.8934
vn 0.2703 -0.0353 0.9621
vn -0.5439 0.6075 0.5788
vn -0.4676 -0.5218 0.7135
vn -0.1053 -0.3919 0.9140
vn -0.1179 0.4754 0.8718
vn 0.4503 -0.5952 -0.6655
vn 0.6692 -0.5811 -0.4631
vn 0.7027 0.5880 -0.4006
vn -0.8645 -0.0275 0.5020
vn -0.7302 0.5938 0.3380
vn 0.2591 -0.2233 0.9397
vn 0.0068 -0.1632 -0.9866
vn -0.2351 -0.2651 -0.9351
vn 0.9716 -0.1391 -0.1916
vn 0.8018 -0.1375 -0.5816
vn 0.6937 0.6027 -0.3944
vn 0.9413 -0.3359 0.0352
vn -0.8913 -0.4509 -0.0474
vn -0.6868 -0.5833 0.4337
vn -0.7067 0.6362 0.3095
vn -0.8868 0.4622 0.0037
vn -0.9337 -0.3525 -0.0632
vn -0.9927 -0.1158 0.0335
vn 0.1022 -0.0960 -0.9901
vn 0.0696 0.5077 -0.8587
vn -0.0251 0.9993 -0.0276
vn -0.0201 0.9997 -0.0115
vn 0.4144 0.7663 0.4909
vn -0.0168 0.9999 0.0012
vn -0.0059 1.0000 0.0008
vn -0.4272 0.7583 -0.4924
vn 0.4151 0.7420 0.5264
vn -0.3199 -0.6941 0.6449
vn -0.5954 -0.1192 0.7945
vn -0.4711 0.6508 0.5953
vn -0.0152 0.9998 0.0114
vn 0.1562 -0.9742 0.1627
vn 0.5894 -0.7978 -0.1270
vn 0.7181 0.6401 -0.2731
vn 0.8105 -0.5152 -0.2788
vn -0.4136 0.8126 -0.4106
vn -0.0745 0.9821 0.1730
vn 0.8569 0.4497 0.2520
vn 0.7484 0.5482 0.3733
vn -0.1141 0.9829 0.1446
vn 0.5201 -0.8501 -0.0818
vn 0.0422 -0.9865 -0.1583
vn 0.0520 -0.9880 -0.1451
vn 0.5267 -0.8499 0.0143
vn -0.7947 -0.5435 -0.2703
vn -0.7007 0.7114 -0.0540
vn -0.7125 0.6884 -0.1359
vn -0.8396 -0.4102 -0.3562
vn -0.0659 -0.9867 -0.1485
vn -0.7768 -0.5494 0.3077
vn -0.8538 -0.5200 0.0266
vn -0.0168 -0.9860 -0.1658
vn 0.8046 0.4505 -0.3869
vn 0.3363 -0.8452 -0.4154
vn 0.4483 -0.8522 -0.2697
vn 0.8886 0.4555 -0.0548
vn -0.5771 0.7030 0.4156
vn 0.0488 0.9805 0.1903
vn -0.0254 0.9787 0.2036
vn -0.7031 0.6865 0.1854
vt 1.050204 2.515861
vt 3.201326 -12.293419
vt 9.670940 -13.822927
vt 0.055050 0.032747
vt 0.054674 0.032921
vt 15.264473 -13.822927
vt 0.054277 0.033021
vt 2.207661 2.888539
vt 9.670951 -12.462963
vt 1.627905 2.705293
vt 8.696513 -6.278199
vt 0.054827 0.031991
vt 13.901668 -5.057772
vt 0.054310 0.032115
vt 1.644991 1.828336
vt 5.454587 -5.851310
vt 2.113354 1.925732
vt 10.290155 -4.317173
vt 0.054574 0.032078
vt 1.879098 1.877694
vt 1.956138 -0.052988
vt 3.201326 12.320960
vt 12.899717 12.649286
vt 2.207661 -0.066433
vt 3.789728 14.423423
vt 15.264473 12.316314
vt 0.054277 0.030336
vt 6.165949 14.791973
vt 0.054447 0.030356
vt 6.165949 13.119296
vt 9.670951 10.094576
vt 0.054617 0.030344
vt 5.780835 11.478716
vt 6.908926 10.139577
vt 1.704195 -0.039291
vt 3.291809 10.139577
vt 0.050710 0.028081
vt -33.999908 29.815880
vt 0.051778 0.028088
vt 9.225322 19.169559
vt -39.866798 29.776806
vt 20.317169 16.640541
vt -44.612011 27.248455
vt -2.454969 3.217950
vt 0.051226 0.028097
vt 14.919519 19.077803
vt -33.894749 34.716637
vt 0.050709 0.028580
vt 0.051777 0.028588
vt 9.125151 24.068954
vt -38.935993 34.695297
vt -44.647594 37.379356
vt 3.235677 1.724962
vt 20.359861 26.767252
vt 0.051224 0.028596
vt 14.085411 24.009295
vt -33.934322 45.987076
vt 0.050710 0.029727
vt 0.051778 0.029735
vt 9.172642 35.334740
vt -38.998806 45.974960
vt 3.234213 0.769973
vt 0.051226 0.029743
vt -44.010162 29.798540
vt -1.781121 3.657322
vt -3.127057 3.657322
vt 19.287561 19.125149
vt -43.966183 34.699013
vt 2.569909 2.175759
vt 19.247801 24.023939
vt 3.903221 2.175759
vt -48.429680 29.293148
vt 24.087801 18.663517
vt -48.450783 35.300194
vt 24.113110 24.668079
vt -48.072819 30.805195
vt 23.477304 20.136749
vt -48.046741 33.710899
vt 23.453732 23.041439
vt -50.081001 29.290590
vt 25.718098 18.651924
vt -27.847012 21.883383
vt -50.102089 35.297630
vt 25.743418 24.656473
vt -22.930580 25.302275
vt -49.724133 30.802645
vt -27.849813 24.598709
vt 25.107603 20.125143
vt -25.308414 21.008163
vt -49.698055 33.708351
vt -25.471992 26.257812
vt 25.084028 23.029844
vt -22.930580 22.667248
vt -19.805286 19.036530
vt -29.779070 20.287542
vt -14.795122 29.792709
vt -20.973919 26.410639
vt -14.795122 19.034273
vt -19.805286 29.790546
vt -29.784073 25.150600
vt -15.443760 27.086948
vt -20.909775 21.670416
vt -25.232529 18.720024
vt -25.525475 28.121964
vt -15.508736 21.883146
vt -20.973919 21.691395
vt -20.973923 26.872395
vt -12.274096 30.097166
vt -17.316278 18.720024
vt -17.316278 30.092512
vt -12.274096 18.720011
vt -12.960033 27.235777
vt -18.484282 21.505375
vt -13.028750 21.732727
vt -18.552122 27.006516
vt 3.836538 2.418713
vt -10.443305 28.806341
vt -15.508739 20.001488
vt -15.508739 28.795834
vt 2.570557 3.301324
vt -10.443305 20.008383
vt 3.836538 3.117306
vt -10.973742 26.593634
vt 3.182915 2.175759
vt -16.411957 22.155403
vt 3.224817 3.545203
vt -11.026882 22.338100
vt 2.569910 2.601810
vt -16.464418 26.409437
vt 19.524345 35.334740
vt 3.537515 0.767039
vt 14.209948 35.290726
vt -44.111271 45.987076
vt 2.946800 0.768304
vt 0.051777 0.026929
vt 9.177321 7.783693
vt 0.051224 0.026936
vt 0.050709 0.026919
vt -33.959831 18.404591
vt -41.715622 18.338827
vt -2.457217 2.229597
vt 16.656443 7.653873
vt -3.112805 2.226080
vt 18.840450 7.673882
vt -43.787315 18.353359
vt -1.801647 2.223574
vt 0.059200 0.036206
vt -29.347572 18.720024
vt 0.058141 0.036206
vt 29.094368 -45.030685
vt -24.484512 18.694164
vt 0.195803 -3.260718
vt 0.058697 0.036212
vt 39.487766 -44.994568
vt -0.107571 -3.261102
vt 34.045017 -45.087166
vt 0.483325 -3.260685
vt -20.151577 18.701281
vt 0.059718 0.035063
vt -28.309553 7.467996
vt 0.057644 0.035060
vt 27.676928 -34.154907
vt -24.550907 7.472706
vt 0.203013 -2.363532
vt 0.058708 0.035068
vt -0.036046 -2.366406
vt 39.447277 -33.796860
vt 19.921652 -45.087166
vt 34.004524 -33.889473
vt 0.429523 -2.365958
vt -20.217972 7.479805
vt 0.059175 0.033592
vt -29.606499 -6.907476
vt 29.135630 -19.422979
vt 0.058215 0.033592
vt 47.846062 -45.018829
vt -24.404095 -6.943145
vt -12.715758 -1.264483
vt 1.006427 -1.197016
vt 0.058757 0.033606
vt 39.395279 -19.418270
vt 19.816149 -30.689457
vt 33.072632 -19.717442
vt 44.305359 -45.087166
vt -20.303230 -6.929322
vt -29.784073 -18.225750
vt 0.059135 0.032437
vt 29.230898 -8.093552
vt 0.058276 0.032437
vt -24.293144 -18.269749
vt 48.834644 -33.713539
vt 42.989216 36.441170
vt -0.623585 -1.196949
vt 0.058732 0.032443
vt 39.487766 -8.089510
vt 19.251665 -19.376961
vt 33.930252 -8.209023
vt 44.009117 -33.762115
vt -20.472929 -18.247818
vt -28.917622 -24.721331
vt 0.059557 0.031777
vt 28.081837 -1.902139
vt 0.057867 0.031776
vt 48.451576 -27.238789
vt -24.436811 -24.736134
vt 0.213364 -1.197281
vt 0.058758 0.031787
vt 39.292191 -1.674217
vt 19.826410 -12.912662
vt 32.884621 -1.993338
vt 44.715946 -27.304119
vt -20.378525 -24.721081
vt 0.059279 0.030840
vt -29.595293 -33.892799
vt 0.058162 0.030840
vt 28.825790 7.450362
vt 51.102089 -18.090826
vt -23.943062 -33.941444
vt 17.047159 -3.730453
vt 3.711759 -2.032669
vt 0.058747 0.030846
vt 19.759132 -3.730453
vt 3.963506 -2.032669
vt 39.259026 7.495816
vt 33.476059 7.323311
vt -20.432901 -33.910576
vt 14.477321 -3.730453
vt 3.473230 -2.032669
vt 44.857162 -18.117580
vt 0.059289 0.029737
vt -29.659237 -44.699638
vt 0.058172 0.029737
vt 28.786793 18.234295
vt 47.637794 -7.231644
vt -24.800007 -44.725372
vt 3.711759 -3.261102
vt 0.058757 0.029743
vt 3.963506 -3.261102
vt 39.220028 18.279766
vt 33.742226 18.178947
vt 3.473230 -3.261102
vt 45.023235 -7.314186
vt 0.209598 -1.830602
vt 24.463497 -40.780800
vt -0.410365 -1.834987
vt 45.619980 40.698875
vt -16.491781 3.250238
vt 0.797060 -1.834894
vt 45.583019 30.501797
vt 24.388678 -30.570185
vt -16.552250 -6.968475
vt 45.194798 19.125443
vt 23.053564 -19.257696
vt -16.886297 -18.282207
vt 45.619980 12.771648
vt 24.623795 -12.793394
vt -16.579584 -24.761597
vt 17.528057 -1.325035
vt 45.366306 1.332173
vt 24.579609 -1.325059
vt -16.432217 -36.231125
vt 10.846087 -1.325059
vt 0.213358 -0.456902
vt 39.997810 30.784893
vt -0.623415 -0.456802
vt 1.006315 -0.456822
vt -9.736526 -7.013080
vt 0.212338 0.829841
vt 39.487762 19.380842
vt -0.466607 0.829850
vt 0.855706 0.829846
vt -10.164272 -18.324116
vt 0.213677 1.565094
vt 40.070332 13.062795
vt -0.669113 1.565096
vt -9.736526 -24.806999
vt 1.050203 1.565092
vt 0.213678 3.884676
vt 18.151419 7.653873
vt 42.118828 -7.231656
vt 27.676928 7.653873
vt -0.669113 3.884676
vt -12.008840 -45.087166
vt 1.050203 3.884678
vt 9.125151 7.653873
vt 0.053850 0.033982
vt -1.800312 -23.248594
vt -4.900964 -22.898029
vt 2.728552 0.767039
vt 0.053511 0.033983
vt -13.343813 11.234415
vt -16.655083 11.147488
vt 3.328731 0.767039
vt -3.364781 -22.958607
vt -15.598377 11.089766
vt 0.053680 0.033983
vt 3.028651 0.761364
vt 0.053998 0.033380
vt 1.519354 -17.516348
vt -4.462928 -16.839966
vt 2.722999 0.004257
vt 0.053344 0.033382
vt -10.846709 5.255109
vt 3.331324 0.004577
vt -17.235348 5.087377
vt -1.499073 -16.956854
vt -15.196587 4.976026
vt 0.053669 0.033382
vt 3.027166 -0.010279
vt 0.054146 0.032612
vt 4.457376 -10.127285
vt 2.590011 -1.169566
vt -8.081059 -8.683447
vt 0.053179 0.032615
vt -8.764325 -2.344782
vt 3.460873 -1.169153
vt -22.289875 -2.719690
vt -2.314512 -9.022549
vt -17.746664 -2.836835
vt 0.053658 0.032615
vt 3.025451 -1.210163
vt 0.054148 0.032032
vt 3.685702 -4.383194
vt -8.764325 -4.980072
vt 2.581405 -1.647630
vt 0.053182 0.032035
vt -9.617017 -8.010128
vt 3.467746 -1.647281
vt -23.044800 -6.356394
vt -3.086185 -3.278446
vt -18.599350 -8.502169
vt 0.053661 0.032035
vt 3.024579 -1.668306
vt 3.941317 0.524182
vt 0.054148 0.031526
vt -8.492305 6.783800
vt 2.569909 -3.151981
vt 5.300322 13.027784
vt -9.334917 -12.928467
vt 0.053181 0.031529
vt 3.473230 -3.151623
vt -22.744930 -18.117392
vt 5.282441 21.640793
vt 10.217993 10.818621
vt 1.061058 2.888538
vt -2.830571 1.628941
vt 10.217993 17.570366
vt 1.050202 3.574799
vt 0.053660 0.031529
vt 10.190144 24.248592
vt 1.057748 4.261103
vt -18.317253 -13.420507
vt 3.021358 -3.261102
vt 4.457378 17.309278
vt 8.361222 17.414036
vt -8.764325 -22.876530
vt 0.053179 0.030506
vt 0.053658 0.030507
vt 4.457376 10.431664
vt 0.054146 0.030505
vt -1.085768 11.295853
vt 2.137233 3.582535
vt -15.923391 -23.248594
vt -17.431684 -23.179188
vt 2.146491 4.238067
vt 2.146491 2.927002
vt -3.182000 11.393413
vt -1.715818 -43.014370
vt 23.045561 -25.262194
vt -13.758302 44.008053
vt 23.044897 -32.113152
vt -1.868001 -46.665615
vt 3.724938 -2.032669
vt 23.256475 -28.587120
vt 3.473230 -2.028240
vt -14.328429 51.747757
vt -13.956297 47.658733
vt 3.963431 -2.028532
vt -1.929585 -50.747757
vt 28.364227 -25.225794
vt -6.793062 -41.506126
vt 7.915169 42.628860
vt 28.364227 -32.077763
vt -18.794043 42.453541
vt 1.097479 42.682781
vt -8.736934 -44.588146
vt 3.724727 -0.932415
vt 15.412890 -50.676643
vt 28.033207 -28.555862
vt 4.573648 41.754631
vt 3.473319 -0.931278
vt -23.110914 48.949844
vt 13.257372 -50.601601
vt -20.769276 45.519398
vt 3.962955 -0.931278
vt 17.455442 -50.747757
vt -10.790052 -48.048069
vt 8.082687 36.898258
vt -6.754148 -35.771557
vt 0.608250 37.258579
vt -18.719461 37.009575
vt -10.234622 -37.169960
vt -27.816236 40.107910
vt 15.368982 -41.901493
vt 4.245838 36.331005
vt -4.438049 -35.362747
vt 13.889046 -41.628174
vt -25.778666 39.883541
vt -22.321707 37.483936
vt -13.758302 -38.793415
vt 17.268850 -41.584793
vt -9.335850 -13.501404
vt -5.773994 26.153763
vt 6.914381 15.038476
vt 0.550591 -26.404255
vt 19.962698 -16.745571
vt -11.184494 -13.915001
vt -9.409638 26.237434
vt 21.835808 23.406967
vt 13.882774 -16.163130
vt -23.320040 14.496705
vt 15.122659 23.915489
vt -21.911892 -25.527966
vt -4.998542 -13.789879
vt 10.960919 14.929908
vt -2.533187 26.764978
vt 5.304805 -25.817644
vt -20.873083 14.960100
vt -18.352186 -27.093317
vt -17.078621 15.186500
vt 3.367704 15.194865
vt -1.482232 -26.488934
vt -16.711721 -26.719601
vt 15.475274 -16.468372
vt 18.781429 23.728546
vt -13.609157 -26.408255
vt 16.296486 -29.117710
vt -25.933933 27.054493
vt 14.614221 -28.798500
vt 19.656170 -27.684195
vt -10.380460 -24.890516
vt -23.969145 26.971619
vt 0.567358 26.850969
vt -19.179457 26.596945
vt -6.554867 -24.968735
vt 3.718100 26.048717
vt -16.618912 26.062933
vt 7.354423 25.951765
vt -3.629802 -24.937943
vt -26.048994 -43.163635
vt 3.473258 -0.930016
vt -8.261148 44.302151
vt 3.473230 -0.127832
vt -25.742376 -46.789543
vt 0.052029 0.035840
vt 3.488655 -0.528851
vt 0.052251 0.035841
vt 10.146478 -50.747757
vt -8.241484 47.949917
vt 10.960919 -46.690022
vt 0.051818 0.035839
vt -24.817799 -50.747757
vt 4.085953 -0.931278
vt -22.177666 -41.880657
vt 17.564342 40.294128
vt 4.085953 -0.129503
vt -4.618893 42.759670
vt -20.505316 -45.016998
vt 0.052029 0.036789
vt 2.511602 -48.321808
vt -16.723282 -48.293617
vt 4.038852 -0.530259
vt 20.489414 39.267159
vt -7.427495 41.917362
vt 0.052251 0.036790
vt 4.138017 -48.306744
vt 6.300714 -44.827560
vt -3.314250 45.826855
vt 0.051818 0.036788
vt -18.062532 -48.441429
vt -22.430445 -36.184235
vt 17.055593 34.581997
vt -4.385458 37.324875
vt 14.812571 36.192593
vt -19.820499 -37.739113
vt -0.920604 -39.533249
vt -13.758302 -39.619770
vt -8.188040 36.535465
vt 21.405945 33.791767
vt 1.589212 -39.308022
vt -1.715796 37.811329
vt 5.480326 -36.883266
vt -15.904739 -39.346516
vt 23.366470 34.509205
vt -0.771373 2.223573
vt -20.877356 20.135771
vt -20.836170 8.753995
vt -21.020496 7.370684
vt -11.171148 33.849903
vt 28.945679 -45.074963
vt 35.174301 8.758455
vt -7.670072 31.456205
vt 29.162691 -44.249527
vt 33.936722 7.856411
vt 29.150259 -22.514412
vt 34.400837 -13.888603
vt 28.902884 -19.858057
vt 6.790951 33.015690
vt 35.876514 -16.460051
vt 10.165617 35.779594
vt 2.076752 -16.384314
vt 2.238301 -18.455288
vt 6.790945 11.075183
vt 2.569909 -2.685601
vt 1.139606 -30.177250
vt 33.839977 -15.422640
vt 37.234119 -43.958069
vt 33.936737 -16.184353
vt 38.181557 -45.108444
vt 47.118008 -4.319399
vt 26.211418 26.925392
vt 41.871990 -7.842525
vt 40.571877 -8.660225
vt 27.096691 26.959448
vt 36.527344 26.073099
vt -11.171144 16.617140
vt -10.048819 16.055815
vt -6.299901 14.062295
vt 21.740469 -43.700527
vt 21.824661 -42.553848
vt 11.375404 9.405884
vt 0.057665 0.028047
vt -29.006966 20.472870
vt 36.151020 -45.109173
vt -28.959869 7.450881
vt -10.671811 24.912479
vt 0.057905 0.029358
vt 36.155441 -44.197937
vt 0.057922 0.029450
vt 10.165617 26.611864
vt -5.931898 -15.684566
vt 36.155457 -19.911293
vt 0.058299 0.031902
vt 0.058409 0.033354
vt -5.699820 -29.941385
vt 43.922703 2.087171
vt 26.792223 -16.536270
vt 26.729860 19.208387
vt 0.058868 0.031060
vt -8.652552 7.287342
vt 38.390430 18.284075
vt 28.902876 -43.519802
vt 0.058833 0.029706
vt 28.902876 -42.734158
vt 0.058817 0.029623
vt 28.902876 -26.494545
vt 0.058502 0.027895
vt 0.058296 0.029225
vt 0.058702 0.031815
vt 0.058854 0.033238
vt 26.211418 3.697612
vt 0.059300 0.033192
vt 26.759548 -15.456559
vt 0.058889 0.031175
vt 0.058630 0.031207
vt 36.143013 -22.462820
vt 0.058252 0.031645
vt 0.058345 0.029482
vt 0.058085 0.028000
vt -11.171148 20.182842
vt -0.669113 -3.249651
vt 13.796199 35.988831
vt 11.713414 -14.722095
vt -0.722749 0.610078
vt -1.892767 0.727697
vt 11.787892 -17.396641
vt -0.676231 0.886633
vt 11.779077 -30.189098
vt -0.669113 2.223574
vt -3.703489 9.374238
vt 44.601025 38.515915
vt -3.011729 2.219475
vt -3.703501 31.379179
vt 47.118008 -15.938522
vt 44.601025 18.952610
vt -3.010433 0.057172
vt 46.080925 -16.536270
vt 27.575747 36.508823
vt -3.127057 -0.188580
vt -1.954872 -1.686441
vt 38.390430 35.472702
vt 11.787892 -45.109173
vt -6.299901 24.912474
vt -3.082793 -1.374233
vt -1.954010 -1.954514
vt -7.670072 43.067310
vt 11.787892 9.369611
vt -11.171148 7.406879
vt -0.700084 -1.910456
vt 11.825969 -27.945236
vt -3.023901 -3.261102
vt 13.796199 13.886185
vt -17.231583 8.725533
vt -17.272760 20.107328
vt 19.925922 35.706142
vt 37.497124 29.417023
vt -9.315548 19.564413
vt 36.900448 29.498354
vt -9.647484 19.703859
vt 18.012026 -27.835791
vt 6.790951 26.575609
vt 19.925919 14.708318
vt 18.012026 -44.075447
vt 6.790951 9.369611
vt 5.417426 -13.409047
vt 40.199608 -13.975053
vt 5.429052 8.291167
vt 40.237106 7.765317
vt 27.501740 30.374050
vt -8.289093 19.024071
vt 17.989094 -44.959381
vt 5.487262 9.179857
vt 40.571861 8.675737
vt -9.950885 37.199158
vt -17.276545 7.287342
vt -10.879532 37.827866
vt 5.721032 -18.455225
vt 8.893249 39.192974
vt 5.681140 -16.432882
vt 5.481295 -15.988184
vt 7.996985 38.481209
vt 40.571861 -16.536270
vt 38.390430 19.278151
vt 43.308353 -43.963104
vt 38.399811 38.341724
vt 43.560612 -23.805460
vt 2.434325 30.372011
vt 26.264547 30.457275
vt 42.902607 -11.308550
vt 38.410458 18.284075
vt 43.560612 -45.109173
vt 44.360256 -10.364347
vt 5.729025 -30.251244
vt 2.434335 9.369611
vt -1.930573 0.102340
vt -1.957123 -3.222707
vt 11.787892 23.816559
vt 11.375404 26.611864
vt 23.366470 19.596016
vt 21.824661 -26.314209
vt -0.771376 3.781803
vt 23.001152 23.909336
vt -0.886911 3.335833
vt -1.781121 2.856916
vt -21.967346 30.186035
vt 0.057565 0.027067
vt -27.287693 30.182371
vt 27.176992 -16.536270
vt 0.058036 0.026991
vt 0.057810 0.027027
vt 21.928288 -16.920958
vt -1.765738 3.659529
vt -1.775831 3.258195
vt 36.155457 -23.800875
vt 6.790945 22.582617
vt 32.267845 3.160214
vt 1.499347 -3.261102
vt -1.788339 2.186885
vt -5.931898 19.874176
vt 5.879432 16.829552
vt 2.025732 -2.957139
vt -23.989065 30.160656
vt 23.957863 -16.887539
vt 2.569909 -0.965507
vt -0.837801 39.733429
vt 0.057565 0.035371
vt -0.837801 33.206215
vt 0.057770 0.035781
vt -13.320137 31.655003
vt 0.057903 0.036214
vt -19.267473 30.186035
vt 1.751854 -0.066435
vt 2.173729 -0.504011
vt 3.626558 -38.102974
vt 2.229870 -1.887720
vt 1.644832 -1.723351
vt 0.058790 0.034711
vt -3.013464 -40.917343
vt 0.058387 0.034490
vt 33.936737 16.791565
vt 1.050203 -1.596137
vt -19.112789 43.725403
vt 27.815207 18.284075
vt 0.059146 0.034989
vt -13.320141 46.087299
vt 1.740863 -2.340771
vt 0.058487 0.033951
vt -4.497033 -35.807556
vt 27.054914 11.669459
vt 0.059312 0.034119
vt 2.304982 -2.289152
vt 2.242687 -34.518303
vt 0.058911 0.034004
vt 33.143890 10.654469
vt 1.181551 -2.430007
vt -4.836313 38.041256
vt 5.268430 -41.590946
vt 2.304005 -1.428957
vt 0.058369 0.035275
vt 1.307544 -0.835240
vt -19.359375 37.737240
vt 1.815045 -1.116592
vt -5.931898 31.379166
vt -1.177354 -45.109173
vt 0.058065 0.034960
vt 0.058613 0.035631
vt -13.489375 39.652657
s 1
usemtl Material.001
f 9/16/1 7/11/2 17/31/3 18/34/4
f 10/18/7 8/13/8 15/26/9 14/23/10
f 7/12/2 11/19/11 16/29/12 17/32/3
f 11/19/11 8/14/8 15/27/9 16/29/12
f 1/2/14 2/3/16 7/11/2 9/16/1
f 5/9/15 4/6/17 8/13/8 10/18/7
f 3/5/18 4/7/17 8/14/8 11/19/11
f 2/4/16 3/5/18 11/19/11 7/12/2
f 14/25/10 13/22/6 18/36/4 17/33/3 16/30/12 15/28/9
f 74/137/19 73/135/20 20/39/21 23/45/22
f 75/138/23 74/137/19 23/45/22 19/37/24
f 76/140/25 75/139/23 19/38/24 21/41/26
f 73/136/20 78/142/27 24/46/28 20/40/21
f 19/37/24 23/45/22 29/55/22 25/48/29
f 23/45/22 20/39/21 26/49/30 29/55/22
f 20/40/21 24/46/28 30/56/31 26/50/30
f 36/64/32 21/41/26 27/51/33 38/68/34
f 21/41/26 19/38/24 25/47/29 27/51/33
f 38/68/34 28/52/35 41/74/36 44/78/37
f 27/51/33 25/47/29 31/57/38 33/61/39
f 25/48/29 29/55/22 35/63/42 31/58/38
f 29/55/22 26/49/30 32/59/43 35/63/42
f 26/50/30 30/56/31 71/132/44 32/60/43
f 38/68/34 27/51/33 33/61/39
f 30/56/31 39/70/40 71/132/44
f 72/133/45 38/68/34 33/61/39
f 24/46/28 37/67/46 39/70/40 30/56/31
f 28/54/35 39/70/40 45/79/47 41/75/36
f 76/140/25 21/41/26 36/64/32 80/145/51
f 45/79/47 43/77/52 49/88/53 51/92/54
f 40/72/55 42/76/56 48/86/57 46/80/58
f 37/67/46 22/42/49 40/73/55 43/77/52
f 39/70/40 37/67/46 43/77/52 45/79/47
f 22/43/49 36/64/32 42/76/56 40/72/55
f 36/64/32 38/68/34 44/78/37 42/76/56
f 47/85/59 51/93/54 57/106/60 53/97/61
f 48/87/57 50/91/62 56/104/63 54/100/64
f 43/77/52 40/73/55 46/81/58 49/88/53
f 44/78/37 41/74/36 47/83/59 50/90/62
f 42/76/56 44/78/37 50/90/62 48/86/57
f 41/75/36 45/79/47 51/92/54 47/84/59
f 55/102/65 52/94/66 58/109/67 61/113/68
f 57/107/60 55/102/65 61/113/68 63/115/69
f 46/82/58 48/87/57 54/100/64 52/95/66
f 51/93/54 49/89/53 55/103/65 57/106/60
f 49/89/53 46/82/58 52/95/66 55/103/65
f 50/91/62 47/85/59 53/97/61 56/104/63
f 59/110/70 63/115/69 69/129/71 65/119/72
f 60/112/73 62/114/74 68/127/75 66/123/76
f 56/105/63 53/98/61 59/111/70 62/114/74
f 54/101/64 56/105/63 62/114/74 60/112/73
f 53/99/61 57/107/60 63/115/69 59/110/70
f 52/96/66 54/101/64 60/112/73 58/108/67
f 58/108/67 60/112/73 66/123/76 64/117/78
f 63/115/69 61/113/68 67/125/77 69/129/71
f 61/113/68 58/109/67 64/118/78 67/125/77
f 62/114/74 59/111/70 65/121/72 68/127/75
f 71/132/44 39/70/40 70/130/79
f 24/46/28 78/142/27 79/144/50 37/67/46
f 87/156/80 86/154/81 94/167/82 95/169/83
f 81/147/84 85/153/85 93/165/86 89/159/87
f 85/153/85 82/149/88 90/161/89 93/165/86
f 82/150/88 87/156/80 95/169/83 90/162/89
f 83/151/94 81/148/84 89/160/87 91/163/95
f 88/158/92 83/151/94 91/163/95 96/171/93
f 89/159/87 93/165/86 101/180/96 97/172/97
f 93/165/86 90/161/89 98/175/98 101/180/96
f 96/171/93 91/163/95 99/177/101 104/185/102
f 95/169/83 94/167/82 102/181/103 103/183/104
f 91/163/95 89/160/87 97/173/97 99/177/101
f 90/162/89 95/169/83 103/183/104 98/174/98
f 120/212/105 128/226/106 148/261/107 145/257/108
f 98/174/98 103/183/104 111/197/109 106/188/110
f 97/172/97 101/180/96 109/194/112 105/187/113
f 101/180/96 98/175/98 106/189/110 109/194/112
f 126/222/114 118/209/115 144/256/116 147/260/117
f 104/184/102 99/176/101 107/191/118 112/198/119
f 103/183/104 102/181/103 110/195/120 111/197/109
f 99/177/101 97/173/97 105/186/113 107/190/118
f 111/197/109 110/195/120 118/208/115 119/210/121
f 107/190/118 105/186/113 113/200/122 115/205/123
f 106/188/110 111/197/109 119/210/121 114/202/124
f 124/219/125 126/222/114 147/260/117 146/258/126
f 105/187/113 109/194/112 117/207/127 113/201/122
f 109/194/112 106/189/110 114/203/124 117/207/127
f 96/171/93 104/185/102 141/251/128 139/247/111
f 112/198/119 107/191/118 115/204/123 120/211/105
f 128/227/106 124/219/125 146/258/126 148/262/107
f 120/211/105 115/204/123 123/217/129 128/229/106
f 119/210/121 118/208/115 126/224/114 127/225/130
f 115/205/123 113/200/122 121/214/131 123/218/129
f 114/202/124 119/210/121 127/225/130 122/216/132
f 102/182/103 94/168/82 138/244/100 140/250/133
f 113/201/122 117/207/127 125/221/134 121/213/131
f 117/207/127 114/203/124 122/215/132 125/221/134
f 121/213/131 125/221/134 133/237/42 129/230/137
f 125/221/134 122/215/132 130/232/138 133/237/42
f 128/229/106 123/217/129 131/234/140 136/242/139
f 127/225/130 126/224/114 134/239/136 135/240/141
f 123/218/129 121/214/131 129/231/137 131/235/140
f 122/216/132 127/225/130 135/240/141 130/233/138
f 147/259/117 144/255/116 156/274/142 159/280/143
f 144/255/116 142/252/144 153/269/145 156/274/142
f 146/258/126 147/260/117 159/281/143 158/279/146
f 142/252/144 140/249/133 150/264/149 153/269/145
f 140/249/133 138/246/100 108/192/148 150/264/149
f 143/254/150 145/257/108 157/276/151 154/272/152
f 145/257/108 148/261/107 160/283/153 157/276/151
f 118/209/115 110/196/120 142/253/144 144/256/116
f 112/199/119 120/212/105 145/257/108 143/254/150
f 104/185/102 112/199/119 143/254/150 141/251/128
f 110/196/120 102/182/103 140/250/133 142/253/144
f 139/247/111 141/251/128 151/267/155 100/178/154
f 141/251/128 143/254/150 154/272/152 151/267/155
f 148/262/107 146/258/126 158/279/146 160/285/153
f 166/295/159 164/292/160 172/305/161 174/307/162
f 165/294/163 173/306/164 170/300/165 162/288/166
f 161/286/167 167/296/168 175/308/169 169/298/170
f 161/287/167 169/299/170 173/306/164 165/294/163
f 167/296/168 163/290/173 171/302/174 175/308/169
f 163/291/173 166/295/159 174/307/162 171/303/174
f 175/308/169 171/302/174 179/314/175 183/320/176
f 171/303/174 174/307/162 182/319/179 179/315/175
f 174/307/162 172/305/161 180/317/178 182/319/179
f 170/300/165 173/306/164 181/318/180 178/313/181
f 169/298/170 175/308/169 183/320/176 177/310/182
f 173/306/164 169/299/170 177/311/182 181/318/180
f 177/310/182 183/320/176 191/332/183 185/322/184
f 181/318/180 177/311/182 185/323/184 189/330/185
f 183/320/176 179/314/175 187/326/188 191/332/183
f 179/315/175 182/319/179 190/331/190 187/327/188
f 182/319/179 180/317/178 188/329/189 190/331/190
f 178/313/181 181/318/180 189/330/185 186/324/186
f 186/324/186 189/330/185 197/346/191 194/336/192
f 185/322/184 191/332/183 199/349/193 193/335/194
f 189/330/185 185/323/184 193/334/194 197/346/191
f 191/332/183 187/326/188 195/340/196 199/349/193
f 187/327/188 190/331/190 200/352/198 195/339/196
f 190/331/190 188/329/189 196/342/197 200/352/198
f 194/338/192 197/344/191 198/347/199 202/355/200 201/354/195
f 202/355/200 198/347/199 200/350/198 196/343/197 201/354/195
f 208/363/201 200/352/198 209/364/202
f 197/346/191 206/361/205 210/367/203
f 195/339/196 200/352/198 208/363/201 203/356/206
f 197/346/191 193/334/194 205/359/207 206/361/205
f 193/335/194 199/349/193 204/358/208 205/360/207
f 199/349/193 195/340/196 203/357/206 204/358/208
f 213/372/209 211/368/210 219/381/211 221/386/212
f 212/370/213 217/377/214 225/394/215 220/384/216
f 211/369/210 215/374/221 223/389/222 219/380/211
f 215/374/221 212/371/213 220/383/216 223/389/222
f 218/379/223 213/372/209 221/386/212 226/397/224
f 217/377/214 216/376/217 224/392/220 225/394/215
f 225/394/215 224/392/220 232/408/225 233/409/226
f 221/386/212 219/381/211 227/399/227 229/402/228
f 220/384/216 225/394/215 233/409/226 228/401/229
f 224/393/220 222/388/219 230/404/230 232/407/225
f 219/382/211 223/390/222 231/405/231 227/398/227
f 223/390/222 220/385/216 228/400/229 231/405/231
f 222/388/219 226/396/224 234/411/232 230/404/230
f 226/397/224 221/386/212 229/402/228 234/410/232
f 244/439/233 243/437/234 242/434/235 238/420/236
f 243/437/234 245/440/237 237/416/238 242/434/235
f 247/444/239 246/442/240 240/428/241 241/430/242
f 245/441/237 248/445/243 235/412/244 237/417/238
f 249/446/245 247/443/239 241/431/242 236/414/246
f 246/442/240 244/438/233 238/421/236 240/428/241
f 248/445/243 250/449/247 239/424/248 235/412/244
f 250/448/247 249/446/245 236/414/246 239/425/248
f 231/405/231 228/400/229 249/446/245 250/448/247
f 227/399/227 231/406/231 250/449/247 248/445/243
f 232/408/225 230/403/230 244/438/233 246/442/240
f 228/401/229 233/409/226 247/444/239 249/447/245
f 229/402/228 227/399/227 248/445/243 245/441/237
f 233/409/226 232/408/225 246/442/240 247/444/239
f 234/410/232 229/402/228 245/441/237 243/436/234
f 230/404/230 234/411/232 243/437/234 244/439/233
f 253/454/249 261/468/250 259/464/251 251/450/252
f 252/452/253 260/467/254 265/478/255 257/459/256
f 256/457/257 264/475/258 262/469/259 254/455/260
f 254/455/260 262/469/259 266/479/263 258/461/264
f 258/462/264 266/480/263 261/468/250 253/454/249
f 257/460/256 265/477/255 264/476/258 256/458/257
f 265/477/255 273/492/265 272/490/266 264/476/258
f 261/468/250 269/485/267 267/481/268 259/464/251
f 260/467/254 268/483/269 273/491/265 265/478/255
f 264/476/258 272/490/266 270/486/270 262/470/259
f 259/465/251 267/482/268 271/489/271 263/473/261
f 263/474/261 271/488/271 268/483/269 260/467/254
f 262/471/259 270/487/270 274/493/272 266/480/263
f 266/480/263 274/493/272 269/485/267 261/468/250
f 271/488/271 237/418/238 235/413/244 268/483/269
f 267/482/268 242/435/235 237/419/238 271/489/271
f 272/490/266 236/415/246 241/432/242 270/486/270
f 268/483/269 235/413/244 239/426/248 273/491/265
f 269/484/267 238/422/236 242/435/235 267/482/268
f 273/492/265 239/427/248 236/415/246 272/490/266
f 274/493/272 240/429/241 238/423/236 269/485/267
f 270/487/270 241/433/242 240/429/241 274/493/272
f 278/500/273 294/534/274 295/538/275 279/503/276
f 287/522/277 286/520/278 298/546/279
f 283/512/280 296/541/281 297/545/282 284/515/283
f 291/528/284 290/527/285 299/550/286
f 276/497/287 294/535/274 277/498/288
f 281/508/289 296/540/281 282/510/290
f 288/523/291 287/522/277 298/546/279
f 286/518/278 285/516/292 306/563/293 298/547/279
f 275/496/294 293/533/295 294/535/274 276/497/287
f 290/527/285 289/526/296 299/550/286
f 346/650/297 292/530/298 300/554/299 301/556/300
f 279/503/276 295/538/275 308/566/301 280/505/302
f 289/525/296 288/524/291 298/548/279 299/551/286
f 292/530/298 291/529/284 299/552/286 300/554/299
f 277/499/288 294/536/274 278/502/273
f 282/511/290 296/541/281 283/512/280
f 280/505/302 308/566/301 296/542/281 281/507/289
f 285/516/292 354/666/303 305/561/304 306/563/293
f 300/555/299 302/558/305 310/569/306 301/557/300
f 294/537/274 293/532/295 310/569/306 302/558/305
f 295/539/275 294/537/274 302/558/305 309/568/307
f 299/553/286 309/568/307 302/558/305 300/555/299
f 298/549/279 307/565/308 309/568/307 299/553/286
f 308/567/301 295/539/275 309/568/307 307/565/308
f 298/549/279 306/564/293 303/559/309 307/565/308
f 307/565/308 303/559/309 296/543/281 308/567/301
f 297/544/282 296/543/281 303/559/309 304/560/310
f 304/560/310 303/559/309 306/564/293 305/562/304
f 325/604/311 324/603/312 322/598/313 311/570/314
f 327/608/315 326/606/316 320/591/317
f 329/613/318 328/610/319 323/600/320 320/592/317
f 331/617/321 330/615/322 312/573/323 322/597/313
f 332/619/324 327/608/315 320/591/317 318/588/325
f 333/621/326 329/613/318 320/592/317
f 335/626/327 334/624/328 322/596/313
f 337/629/329 336/627/330 314/576/331
f 330/615/322 338/630/332 312/573/323
f 340/635/333 339/633/334 317/585/335 316/581/336
f 334/622/328 331/617/321 322/597/313
f 342/642/337 341/639/338 318/587/325 317/584/335
f 336/627/330 343/643/339 315/578/340 314/576/331
f 326/607/316 333/620/326 320/593/317
f 324/603/312 335/625/327 322/598/313
f 338/630/332 337/629/329 314/576/331 312/573/323
f 341/638/338 332/619/324 318/588/325
f 339/633/334 342/640/337 317/585/335
f 285/517/292 286/519/278 342/641/337 339/634/334
f 287/521/277 288/524/291 332/619/324 341/638/338
f 281/508/289 282/510/290 337/628/329 338/631/332
f 276/497/287 277/498/288 335/625/327 324/603/312
f 290/527/285 291/528/284 333/620/326 326/607/316
f 283/512/280 284/515/283 343/643/339 336/627/330
f 286/520/278 287/522/277 341/639/338 342/642/337
f 278/501/273 279/504/276 331/618/321 334/623/328
f 354/664/303 285/517/292 339/634/334 340/636/333
f 280/506/302 281/509/289 338/632/332 330/616/322
f 282/511/290 283/512/280 336/627/330 337/629/329
f 277/499/288 278/502/273 334/624/328 335/626/327
f 291/529/284 292/530/298 329/613/318 333/621/326
f 288/524/291 289/525/296 327/608/315 332/619/324
f 279/504/276 280/506/302 330/616/322 331/618/321
f 292/531/298 346/648/297 328/611/319 329/614/318
f 289/526/296 290/527/285 326/607/316 327/609/315
f 275/496/294 276/497/287 324/603/312 325/604/311
f 328/612/319 346/649/297 347/652/347
f 325/605/311 347/652/347 275/494/294
f 325/605/311 311/572/314 345/647/343 347/652/347
f 328/612/319 347/652/347 345/647/343 323/602/320
f 346/650/297 301/556/300 350/658/348 358/673/349 352/661/350
f 301/557/300 310/569/306 351/660/352 350/659/348
f 310/569/306 293/532/295 349/656/353 351/660/352
f 293/533/295 275/496/294 348/655/354 357/672/355 349/657/353
f 315/580/340 343/644/339 355/669/346
f 343/644/339 284/513/283 356/670/356 354/665/303 355/669/346
f 354/665/303 340/637/333 316/583/336 355/669/346
f 381/715/361 378/709/362 361/678/363 360/676/364
f 382/717/365 379/711/366 363/681/367 362/679/368
f 377/706/358 381/713/361 360/677/364 359/675/359
f 378/709/362 382/716/365 362/680/368 361/678/363
f 375/703/369 373/700/370 370/694/371 367/687/372
f 374/702/373 372/698/374 368/688/375 365/684/376
f 373/699/370 376/704/377 369/690/380 370/693/371
f 372/697/374 375/703/369 367/687/372 368/689/375
f 297/544/282 304/560/310 375/703/369 372/697/374
f 305/561/304 354/666/303 376/704/377 373/699/370
f 284/515/283 297/545/282 372/698/374 374/702/373
f 304/560/310 305/562/304 373/700/370 375/703/369
f 367/687/372 370/694/371 382/716/365 378/709/362
f 365/684/376 368/688/375 381/714/361 377/707/358
f 370/695/371 369/692/380 379/711/366 382/717/365
f 368/689/375 367/687/372 378/709/362 381/715/361
usemtl SueloCueva
f 12/20/5 9/15/1 18/35/4 13/21/6
f 10/17/7 12/20/5 13/21/6 14/24/10
f 6/10/13 1/1/14 9/15/1 12/20/5
f 5/8/15 6/10/13 12/20/5 10/17/7
f 39/71/40 28/53/35 34/62/41
f 28/53/35 38/69/34 34/62/41
f 77/141/48 22/44/49 37/66/46
f 79/143/50 77/141/48 37/66/46
f 77/141/48 80/146/51 36/65/32
f 67/124/77 64/116/78 65/120/72 69/128/71
f 64/116/78 66/122/76 68/126/75 65/120/72
f 34/62/41 38/69/34 72/134/45
f 34/62/41 70/131/79 39/71/40
f 22/44/49 77/141/48 36/65/32
f 86/155/81 84/152/90 92/164/91 94/166/82
f 84/152/90 88/157/92 96/170/93 92/164/91
f 94/166/82 92/164/91 137/243/99 138/245/100
f 92/164/91 96/170/93 139/248/111 137/243/99
f 126/223/114 124/220/125 132/236/135 134/238/136
f 124/220/125 128/228/106 136/241/139 132/236/135
f 138/245/100 137/243/99 116/206/147 108/193/148
f 116/206/147 100/179/154 151/266/155 149/263/156
f 108/193/148 116/206/147 149/263/156 150/265/149
f 150/265/149 149/263/156 152/268/157 153/270/145
f 149/263/156 151/266/155 154/271/152 152/268/157
f 153/270/145 152/268/157 155/273/158 156/275/142
f 152/268/157 154/271/152 157/277/151 155/273/158
f 155/273/158 157/277/151 160/284/153 158/278/146
f 156/275/142 155/273/158 158/278/146 159/282/143
f 137/243/99 139/248/111 100/179/154 116/206/147
f 168/297/171 162/289/166 170/301/165 176/309/172
f 164/293/160 168/297/171 176/309/172 172/304/161
f 172/304/161 176/309/172 184/321/177 180/316/178
f 176/309/172 170/301/165 178/312/181 184/321/177
f 184/321/177 178/312/181 186/325/186 192/333/187
f 180/316/178 184/321/177 192/333/187 188/328/189
f 192/333/187 186/325/186 194/337/192 201/353/195
f 188/328/189 192/333/187 201/353/195 196/341/197
f 198/348/199 197/345/191 210/366/203 207/362/204
f 200/351/198 198/348/199 207/362/204 209/365/202
f 216/375/217 214/373/218 222/387/219 224/391/220
f 214/373/218 218/378/223 226/395/224 222/387/219
f 251/451/252 259/463/251 263/472/261 255/456/262
f 255/456/262 263/472/261 260/466/254 252/453/253
f 322/599/313 319/590/341 321/595/342
f 321/595/342 345/646/343 311/571/314 322/599/313
f 320/594/317 321/595/342 319/590/341
f 320/594/317 323/601/320 345/646/343 321/595/342
f 319/590/341 344/645/344 318/589/325 320/594/317
f 318/589/325 344/645/344 313/575/345 317/586/335
f 313/575/345 344/645/344 312/574/323 314/577/331
f 312/574/323 344/645/344 319/590/341 322/599/313
f 314/577/331 315/579/340 355/668/346 313/575/345
f 355/668/346 316/582/336 317/586/335 313/575/345
f 347/653/347 346/651/297 352/662/350 353/663/351
f 275/495/294 347/653/347 353/663/351 348/654/354
f 380/712/357 377/708/358 359/674/359 364/683/360
f 379/710/366 380/712/357 364/683/360 363/682/367
f 376/705/377 371/696/378 366/686/379 369/691/380
f 371/696/378 374/701/373 365/685/376 366/686/379
f 356/671/356 284/514/283 374/701/373 371/696/378
f 354/667/303 356/671/356 371/696/378 376/705/377
f 369/691/380 366/686/379 380/712/357 379/710/366
f 366/686/379 365/685/376 377/708/358 380/712/357
