# Blender 3.5.0
# www.blender.org
mtllib prv1o-6.mtl
o Cube.004
v 676.361816 67.880295 138.162888
v 676.283630 67.880280 111.327209
v 676.378235 53.543110 140.295532
v 660.674561 36.515839 124.732018
v 676.322876 68.886452 124.745033
v 676.267334 53.543102 109.194572
v 694.835876 68.321365 138.162888
v 694.757690 68.321350 111.327209
v 694.852295 55.739780 138.528641
v 710.560059 36.515839 124.732018
v 694.796936 69.327515 124.745033
v 694.741394 55.739769 110.961472
v 737.326172 68.321365 138.162888
v 737.248047 68.321350 111.327209
v 737.342590 55.470348 137.351349
v 737.287170 38.593628 124.721146
v 737.287231 69.327515 124.745033
v 673.588989 38.602272 143.138245
v 673.516541 38.602272 106.325783
v 697.718018 38.903885 143.138245
v 697.645569 38.903885 106.325783
v 670.827698 17.733032 124.732018
v 700.406921 17.733032 124.732018
v 678.485229 18.970165 135.645844
v 678.442261 18.970165 113.818192
v 692.792358 19.149006 135.645844
v 692.749390 19.149006 113.818192
v 670.851868 9.593286 124.732018
v 700.431091 9.593286 124.732018
v 678.509399 10.830419 135.645844
v 678.466431 10.830419 113.818192
v 692.816528 11.009259 135.645844
v 692.773560 11.009259 113.818192
v 659.176208 1.454725 124.732002
v 712.151428 1.454725 124.732002
v 672.890564 3.670382 144.278244
v 672.813599 3.670382 105.185768
v 698.514038 3.990679 144.278244
v 698.437134 3.990679 105.185768
v 657.689575 -10.972099 124.731995
v 713.711426 -10.972099 124.731995
v 672.192688 -8.629022 145.402344
v 672.111267 -8.629022 104.061668
v 699.289734 -8.290304 145.402344
v 699.208374 -8.290304 104.061668
v 664.054810 -19.996553 124.731995
v 707.376526 -19.996553 124.731995
v 675.270081 -18.184650 140.716385
v 675.207092 -18.184650 108.747627
v 696.224304 -17.922720 140.716385
v 696.161316 -17.922720 108.747627
v 737.287170 38.646923 116.206848
v 737.231689 55.470341 112.138756
v 737.287170 38.638660 132.789185
v 633.340393 67.880249 111.327209
v 633.340454 68.886452 124.745033
v 633.340515 67.880272 138.162888
v 633.340515 48.153969 142.035797
v 633.336609 41.247475 124.721146
v 633.340332 48.153965 107.454315
v 633.340393 39.040398 106.450531
v 633.340515 39.040398 142.991745
vn -0.0000 -0.9972 0.0748
vn -0.0000 -0.9972 -0.0748
vn -0.0090 -0.1736 -0.9848
vn -0.0091 -0.1736 0.9848
vn 0.0238 -0.9969 -0.0748
vn 0.0238 -0.9969 0.0747
vn -0.0410 -0.0923 0.9949
vn -0.0270 -0.2283 -0.9732
vn -0.0410 -0.0924 -0.9949
vn -0.7290 0.3941 -0.5597
vn -0.0138 0.0175 -0.9998
vn -0.0762 0.9806 0.1807
vn -0.0138 0.0175 0.9998
vn -0.0284 -0.2685 -0.9629
vn -0.0763 0.9806 -0.1805
vn -0.0284 -0.2699 0.9625
vn -0.2431 0.2545 -0.9360
vn -0.0269 -0.2299 0.9728
vn -0.7278 0.3934 0.5617
vn 0.1661 0.9602 0.2247
vn 0.0105 0.9927 -0.1199
vn -0.0097 -0.1549 -0.9879
vn 0.0104 0.9927 0.1199
vn -0.0000 -0.0000 1.0000
vn 0.8185 0.0024 -0.5745
vn 0.7316 0.3955 0.5553
vn -0.0044 0.3556 0.9346
vn 0.7304 0.3948 -0.5573
vn -0.0044 0.3556 -0.9346
vn -0.5473 -0.7881 0.2817
vn 0.0097 -0.7727 -0.6347
vn 0.8200 0.0024 0.5724
vn -0.8203 -0.0024 -0.5720
vn -0.0000 -0.0000 -1.0000
vn -0.8187 -0.0024 0.5741
vn 0.8213 -0.0983 0.5619
vn 0.0011 -0.0911 0.9958
vn 0.5465 -0.7840 -0.2946
vn 0.0097 -0.7728 0.6346
vn 0.5468 -0.7845 0.2926
vn -0.5476 -0.7886 -0.2797
vn -0.6866 0.4820 0.5443
vn -0.0055 0.4389 -0.8985
vn -0.8220 -0.1032 -0.5601
vn 0.0011 -0.0911 -0.9958
vn -0.8205 -0.1030 0.5623
vn 0.8198 -0.0981 -0.5641
vn -0.0040 0.9927 0.1207
vn -0.0040 0.9927 -0.1207
vn 0.6887 0.4858 -0.5383
vn -0.0055 0.4389 0.8985
vn 0.6897 0.4865 0.5363
vn -0.6876 0.4827 -0.5424
vn -0.2341 0.2278 0.9452
vn 0.0052 1.0000 -0.0056
vn 0.0049 1.0000 0.0063
vn -0.0098 -0.1578 0.9874
vn 0.1662 0.9600 -0.2255
vt 38.138031 34.566124
vt -33.999908 29.815880
vt 27.676933 34.489052
vt 9.225322 19.169559
vt -39.866798 29.776806
vt 20.317169 16.640541
vt -44.612011 27.248455
vt -4.143503 21.065145
vt 33.089474 34.409943
vt 14.919519 19.077803
vt -33.894749 34.716637
vt 38.148769 29.671272
vt 27.687672 29.594200
vt 9.125151 24.068954
vt -38.935993 34.695297
vt -44.647594 37.379356
vt 5.213424 27.109106
vt 20.359861 26.767252
vt 33.100204 29.515099
vt 14.085411 24.009295
vt -33.934322 45.987076
vt 38.138161 18.435928
vt 27.677076 18.358852
vt 9.172642 35.334740
vt -38.998806 45.974960
vt 5.196389 18.461069
vt 33.089596 18.279753
vt -44.010162 29.798540
vt -7.886787 18.455948
vt -0.409220 18.457800
vt 19.287561 19.125149
vt -43.966183 34.699013
vt 1.479794 29.732914
vt 19.247801 24.023939
vt 8.957364 29.732914
vt -48.429680 29.293148
vt 24.087801 18.663517
vt -48.450783 35.300194
vt 24.113110 24.668079
vt -48.072819 30.805195
vt 23.477304 20.136749
vt -48.046741 33.710899
vt 23.453732 23.041439
vt -50.081001 29.290590
vt 25.718098 18.651924
vt -27.847012 21.883383
vt -50.102089 35.297630
vt 25.743418 24.656473
vt -22.930580 25.302275
vt -49.724133 30.802645
vt -27.849813 24.598709
vt 25.107603 20.125143
vt -25.308414 21.008163
vt -49.698055 33.708351
vt -25.471992 26.257812
vt 25.084028 23.029844
vt -22.930580 22.667248
vt -19.805286 19.036530
vt -29.779070 20.287542
vt -14.795122 29.792709
vt -20.973919 26.410639
vt -14.795122 19.034273
vt -19.805286 29.790546
vt -29.784073 25.150600
vt -15.443760 27.086948
vt -20.909775 21.670416
vt -25.232529 18.720024
vt -25.525475 28.121964
vt -15.508736 21.883146
vt -20.973919 21.691395
vt -20.973923 26.872395
vt -12.274096 30.097166
vt -17.316278 18.720024
vt -17.316278 30.092512
vt -12.274096 18.720011
vt -12.960033 27.235777
vt -18.484282 21.505375
vt -13.028750 21.732727
vt -18.552122 27.006516
vt -29.773048 34.533203
vt -10.443305 28.806341
vt -15.508739 20.001488
vt -15.508739 28.795834
vt -22.577785 29.469524
vt -10.443305 20.008383
vt -29.784073 30.570684
vt -10.973742 26.593634
vt -26.057302 35.888489
vt -16.411957 22.155403
vt -26.304569 28.121964
vt -11.026882 22.338100
vt -22.577785 33.439774
vt -16.464418 26.409437
vt 19.524345 35.334740
vt 7.809845 18.455927
vt 14.209948 35.290726
vt -44.111271 45.987076
vt 2.719901 18.465933
vt 27.687656 45.844170
vt 9.177321 7.783693
vt 33.100189 45.775414
vt 38.148769 45.941872
vt -33.959831 18.404591
vt -41.715622 18.338827
vt -4.128362 29.869713
vt 16.656443 7.653873
vt 1.479794 29.850420
vt 18.840450 7.673882
vt -43.787315 18.353359
vt -9.736524 29.869713
s 0
usemtl Material.001
f 56/101/1 55/99/1 2/3/1 5/9/1
f 57/102/2 56/101/2 5/9/2 1/1/2
f 58/104/3 57/103/3 1/2/3 3/5/3
f 55/100/4 60/106/4 6/10/4 2/4/4
f 1/1/5 5/9/5 11/19/5 7/12/5
f 5/9/6 2/3/6 8/13/6 11/19/6
f 2/4/7 6/10/7 12/20/7 8/14/7
f 18/28/8 3/5/8 9/15/8 20/32/8
f 3/5/9 1/2/9 7/11/9 9/15/9
f 20/32/10 10/16/10 23/38/10 26/42/10
f 9/15/11 7/11/11 13/21/11 15/25/11
f 21/35/12 10/17/12 16/26/12
f 7/12/2 11/19/2 17/27/2 13/22/2
f 11/19/1 8/13/1 14/23/1 17/27/1
f 8/14/13 12/20/13 53/96/13 14/24/13
f 20/32/14 9/15/14 15/25/14
f 10/17/15 20/33/15 16/26/15
f 12/20/16 21/34/16 53/96/16
f 54/97/17 20/32/17 15/25/17
f 6/10/18 19/31/18 21/34/18 12/20/18
f 10/18/19 21/34/19 27/43/19 23/39/19
f 59/105/20 4/8/20 19/30/20
f 61/107/21 59/105/21 19/30/21
f 58/104/22 3/5/22 18/28/22 62/109/22
f 59/105/23 62/110/23 18/29/23
f 27/43/24 25/41/24 31/52/24 33/56/24
f 22/36/25 24/40/25 30/50/25 28/44/25
f 19/31/26 4/6/26 22/37/26 25/41/26
f 21/34/27 19/31/27 25/41/27 27/43/27
f 4/7/28 18/28/28 24/40/28 22/36/28
f 18/28/29 20/32/29 26/42/29 24/40/29
f 29/49/30 33/57/30 39/70/30 35/61/30
f 30/51/31 32/55/31 38/68/31 36/64/31
f 25/41/32 22/37/32 28/45/32 31/52/32
f 26/42/33 23/38/33 29/47/33 32/54/33
f 24/40/34 26/42/34 32/54/34 30/50/34
f 23/39/35 27/43/35 33/56/35 29/48/35
f 37/66/36 34/58/36 40/73/36 43/77/36
f 39/71/37 37/66/37 43/77/37 45/79/37
f 28/46/38 30/51/38 36/64/38 34/59/38
f 33/57/39 31/53/39 37/67/39 39/70/39
f 31/53/40 28/46/40 34/59/40 37/67/40
f 32/55/41 29/49/41 35/61/41 38/68/41
f 41/74/42 45/79/42 51/93/42 47/83/42
f 42/76/43 44/78/43 50/91/43 48/87/43
f 38/69/44 35/62/44 41/75/44 44/78/44
f 36/65/45 38/69/45 44/78/45 42/76/45
f 35/63/46 39/71/46 45/79/46 41/74/46
f 34/60/47 36/65/47 42/76/47 40/72/47
f 49/88/48 46/80/48 47/84/48 51/92/48
f 46/80/49 48/86/49 50/90/49 47/84/49
f 40/72/50 42/76/50 48/87/50 46/81/50
f 45/79/51 43/77/51 49/89/51 51/93/51
f 43/77/52 40/73/52 46/82/52 49/89/52
f 44/78/53 41/75/53 47/85/53 50/91/53
f 53/96/54 21/34/54 52/94/54
f 16/26/55 20/33/55 54/98/55
f 16/26/56 52/95/56 21/35/56
f 6/10/57 60/106/57 61/108/57 19/31/57
f 4/8/58 59/105/58 18/29/58
