# Blender 3.5.0
# www.blender.org
mtllib prv1o-5.mtl
o Cube.006
v 517.498474 68.621208 134.036514
v 517.496887 49.732292 133.214340
v 517.462708 68.621208 115.843239
v 517.464355 49.732292 116.665421
v 517.505981 56.811218 137.841965
v 517.455261 56.811218 112.037796
v 517.480652 70.378357 124.939865
v 517.480652 48.699661 124.939873
v 538.540222 69.479118 134.063782
v 538.538269 47.212040 133.239136
v 538.495544 69.492279 115.815971
v 538.497620 47.212040 116.640617
v 538.549622 55.998489 137.880646
v 538.486206 56.000721 111.999123
v 538.517944 70.942696 124.939865
v 538.517944 45.920750 124.939880
v 565.332520 67.805855 135.207565
v 565.329529 28.342007 137.213165
v 565.266357 67.805847 114.672188
v 565.269409 28.342007 112.666603
v 565.346436 46.651711 139.502930
v 565.252563 46.651711 110.376846
v 565.299561 69.671494 124.939865
v 565.299561 25.616821 124.939880
v 585.467529 63.505165 135.207565
v 578.231628 24.823267 137.213165
v 585.401428 63.505154 114.672188
v 578.171448 24.823267 112.666603
v 585.481445 42.351028 139.502930
v 585.387573 42.351028 110.376846
v 585.434570 65.370811 124.939865
v 578.201599 22.098082 124.939880
v 603.061218 64.912140 138.432663
v 620.261047 23.454865 137.213165
v 602.995056 64.912132 111.447090
v 620.200806 23.454865 112.666603
v 603.075134 42.559227 144.077209
v 603.028259 44.786690 124.939896
v 603.028320 65.370811 124.939865
v 602.981323 42.559227 105.802582
v 623.163269 21.120657 124.939880
v 609.420959 30.740950 124.939888
v 633.340393 67.880249 111.327209
v 633.340454 68.886452 124.745033
v 633.340515 67.880272 138.162888
v 633.340515 48.153969 142.035797
v 633.336609 41.247475 124.721146
v 633.340332 48.153965 107.454315
v 633.340393 39.040398 106.450531
v 633.340515 39.040398 142.991745
vn 0.0412 0.5040 0.8627
vn 0.0412 0.5040 -0.8627
vn 0.0334 -0.9842 -0.1740
vn 0.0018 -0.2886 -0.9575
vn 0.1238 0.9827 -0.1381
vn 0.0337 -0.9843 0.1732
vn 0.1239 0.9827 0.1375
vn 0.0019 -0.2885 0.9575
vn -0.0508 -0.9844 0.1685
vn 0.5908 0.7921 0.1532
vn 0.0033 -0.2280 0.9737
vn 0.2260 0.2416 0.9437
vn 0.2256 0.2412 -0.9439
vn -0.0505 -0.9843 -0.1689
vn 0.0034 -0.2280 -0.9736
vn 0.5905 0.7918 -0.1560
vn -0.2057 -0.9630 -0.1743
vn -0.0425 -0.1988 -0.9791
vn 0.2572 0.9432 -0.2101
vn -0.2056 -0.9627 0.1756
vn 0.2573 0.9435 0.2089
vn -0.0425 -0.1988 0.9791
vn 0.0286 0.1210 0.9922
vn 0.0286 0.1210 -0.9922
vn 0.0789 0.2618 -0.9619
vn 0.0487 -0.9941 -0.0974
vn 0.2207 -0.2171 -0.9509
vn 0.0264 0.9797 -0.1988
vn 0.0486 -0.9941 0.0971
vn 0.0264 0.9797 0.1987
vn 0.2207 -0.2174 0.9508
vn 0.0789 0.2619 0.9619
vn -0.7562 -0.6492 0.0816
vn -0.7565 -0.6494 -0.0779
vn -0.0339 -0.1094 0.9934
vn 0.1174 0.9862 0.1167
vn -0.0477 -0.1042 -0.9934
vn 0.1156 0.9864 -0.1171
vn 0.0065 -0.2206 0.9753
vn -0.0060 -0.2206 -0.9753
vn 0.1058 -0.9929 -0.0542
vn 0.1064 -0.9929 0.0539
vt 7.379292 -23.236990
vt -1.800312 -23.248594
vt -4.900964 -22.898029
vt 19.775818 -23.242680
vt 10.697927 -23.248594
vt -13.343813 11.234415
vt -16.655083 11.147488
vt 16.755421 -23.248594
vt -3.364781 -22.958607
vt -15.598377 11.089766
vt 9.049333 -23.246906
vt 18.265581 -23.223307
vt 5.935628 -17.341484
vt 1.519354 -17.516348
vt -4.462928 -16.839966
vt 21.179323 -17.285637
vt 12.338482 -17.363888
vt -10.846709 5.255109
vt 15.351889 -17.297043
vt -17.235348 5.087377
vt -1.499073 -16.956854
vt -15.196587 4.976026
vt 9.157751 -17.360638
vt 18.265522 -17.248260
vt 4.486749 -9.821847
vt 4.457376 -10.127285
vt 22.573524 -9.164999
vt -8.081059 -8.683447
vt 13.955540 -9.854977
vt -8.764325 -2.344782
vt 13.955679 -9.181876
vt -22.289875 -2.719690
vt -2.314512 -9.022549
vt -17.746664 -2.836835
vt 9.264815 -9.855188
vt 18.264439 -9.082531
vt 4.457374 -4.136762
vt 3.685702 -4.383194
vt -8.764325 -4.980072
vt 22.573380 -5.440035
vt 13.926157 -4.169890
vt -9.617017 -8.010128
vt 13.955540 -5.456911
vt -23.044800 -6.356394
vt -3.086185 -3.278446
vt -18.599350 -8.502169
vt 9.235443 -4.170103
vt 18.264294 -5.357556
vt 3.941317 0.524182
vt 4.467095 0.817168
vt -8.492305 6.783800
vt 22.573524 6.357656
vt 5.300322 13.027784
vt -9.334917 -12.928467
vt 13.935879 0.784039
vt 13.955679 6.340789
vt -22.744930 -18.117392
vt 5.282441 21.640793
vt 10.217993 10.818621
vt 14.098574 7.246995
vt -2.830571 1.628941
vt 10.217993 17.570366
vt 13.955540 13.965517
vt 9.245163 0.783816
vt 10.190144 24.248592
vt 14.072335 20.684507
vt -18.317253 -13.420507
vt 18.264475 7.246995
vt 4.457378 17.309278
vt 8.361222 17.414036
vt -8.764325 -22.876530
vt 13.955540 10.804090
vt 9.264802 10.794529
vt 4.457376 10.431664
vt 4.486717 10.818625
vt -1.085768 11.295853
vt 23.981438 13.965394
vt -15.923391 -23.248594
vt -17.431684 -23.179188
vt 24.036034 19.004566
vt 24.036020 8.926425
vt -3.182000 11.393413
s 0
usemtl Material.001
f 6/10/1 4/7/1 12/20/1 14/22/1
f 5/9/2 13/21/2 10/15/2 2/3/2
f 1/1/3 7/11/3 15/23/3 9/13/3
f 1/2/4 9/14/4 13/21/4 5/9/4
f 8/12/5 2/4/5 10/16/5 16/24/5
f 7/11/6 3/5/6 11/17/6 15/23/6
f 4/8/7 8/12/7 16/24/7 12/19/7
f 3/6/8 6/10/8 14/22/8 11/18/8
f 15/23/9 11/17/9 19/29/9 23/35/9
f 12/19/10 16/24/10 24/36/10 20/31/10
f 11/18/11 14/22/11 22/34/11 19/30/11
f 14/22/12 12/20/12 20/32/12 22/34/12
f 10/15/13 13/21/13 21/33/13 18/28/13
f 9/13/14 15/23/14 23/35/14 17/25/14
f 13/21/15 9/14/15 17/26/15 21/33/15
f 16/24/16 10/16/16 18/27/16 24/36/16
f 17/25/17 23/35/17 31/47/17 25/37/17
f 21/33/18 17/26/18 25/38/18 29/45/18
f 24/36/19 18/27/19 26/40/19 32/48/19
f 23/35/20 19/29/20 27/41/20 31/47/20
f 20/31/21 24/36/21 32/48/21 28/43/21
f 19/30/22 22/34/22 30/46/22 27/42/22
f 22/34/23 20/32/23 28/44/23 30/46/23
f 18/28/24 21/33/24 29/45/24 26/39/24
f 26/39/25 29/45/25 37/61/25 34/51/25
f 25/37/26 31/47/26 39/64/26 33/50/26
f 29/45/27 25/38/27 33/49/27 37/61/27
f 32/48/28 26/40/28 34/52/28 41/68/28
f 31/47/29 27/41/29 35/55/29 39/64/29
f 28/43/30 32/48/30 41/68/30 36/56/30
f 27/42/31 30/46/31 40/67/31 35/54/31
f 30/46/32 28/44/32 36/57/32 40/67/32
f 34/53/33 37/59/33 38/62/33 42/70/33 41/69/33
f 42/70/34 38/62/34 40/65/34 36/58/34 41/69/34
f 48/78/35 40/67/35 49/79/35
f 38/63/36 37/60/36 50/81/36 47/77/36
f 37/61/37 46/76/37 50/82/37
f 40/66/38 38/63/38 47/77/38 49/80/38
f 35/54/39 40/67/39 48/78/39 43/71/39
f 37/61/40 33/49/40 45/74/40 46/76/40
f 33/50/41 39/64/41 44/73/41 45/75/41
f 39/64/42 35/55/42 43/72/42 44/73/42
