# Blender 3.5.0
# www.blender.org
mtllib prv1o-7.mtl
o Cube.005
v 737.326172 68.321365 138.162888
v 737.248047 68.321350 111.327209
v 737.342590 55.470348 137.351349
v 737.287170 38.593628 124.721146
v 737.287231 69.327515 124.745033
v 737.287170 38.646923 116.206848
v 737.231689 55.470341 112.138756
v 737.287170 38.638660 132.789185
v 762.410461 56.557709 135.210831
v 762.353027 56.557312 114.621986
v 762.428711 47.865883 134.819168
v 762.381836 39.109245 124.939896
v 762.381836 57.332047 124.915924
v 762.381836 39.450611 118.251251
v 762.334900 47.865871 115.012718
v 762.381836 39.421204 131.277969
v 808.393066 57.113934 134.474686
v 808.326904 57.113922 115.357185
v 808.406982 49.527420 134.343384
v 790.062561 22.041967 147.492401
v 808.360107 61.777908 124.915924
v 808.360107 40.846798 118.251251
v 808.313110 50.384205 112.089348
v 808.360107 40.827988 131.277969
v 844.518799 55.887840 133.462372
v 844.452637 55.887836 116.356590
v 844.532715 48.099632 135.620148
v 790.062561 22.041967 101.737457
v 844.485840 57.332047 124.909470
v 844.485718 39.336246 119.504395
v 844.438843 47.291847 117.260201
v 844.485718 39.316906 130.074402
v 865.162109 56.247143 133.305450
v 865.095947 56.247444 116.529251
v 865.176025 48.849018 134.863953
v 790.062561 22.041967 125.230576
v 865.129028 59.801964 124.917801
v 865.129028 40.312489 117.885612
v 865.082092 49.877880 111.376740
v 865.129028 40.286327 131.629150
v 894.484863 56.904228 136.038605
v 894.418701 56.904217 113.797035
v 894.498779 49.134914 138.796906
v 894.451904 39.109245 124.942299
v 894.451904 57.332047 124.917801
v 894.451904 39.487911 117.885612
v 894.404907 47.878010 114.971443
v 894.451904 39.455254 131.629150
v 928.968506 56.904228 136.038605
v 928.902466 56.904217 113.797035
v 928.982483 48.022137 135.365997
v 928.935547 39.109245 124.942299
v 928.935547 57.332047 124.917801
v 928.935547 39.487911 117.885612
v 928.888550 48.022121 114.469658
v 928.935547 39.455254 131.629150
v 775.753052 32.565510 125.125023
v 775.753052 32.815334 107.733536
v 775.753052 32.809231 141.605011
v 808.360107 32.832664 107.733536
v 808.360107 32.831779 141.605011
v 844.485718 32.585571 110.991890
v 844.485718 32.572632 138.475601
v 865.129028 32.816170 106.782806
v 865.129028 32.809273 142.518143
v 901.723938 31.730738 125.131294
v 901.723938 32.089817 106.782806
v 901.723938 32.079468 142.518143
v 808.360107 12.189495 125.230576
v 808.360107 12.189495 101.737457
v 808.360107 12.189495 147.492401
v 844.485718 12.189495 125.201546
v 844.485718 12.189495 106.138969
v 844.485718 12.189495 143.265045
v 865.129028 12.189495 125.239052
v 865.129028 12.189495 100.453178
v 865.129028 12.189495 148.725891
v 929.873901 19.226976 125.239052
v 929.873901 19.226976 100.453178
v 929.873901 19.226976 148.725891
vn -0.0564 0.2774 0.9591
vn -0.4300 -0.9004 -0.0664
vn -0.4307 -0.8999 0.0688
vn -0.1006 0.0556 0.9934
vn -0.0274 0.9993 0.0259
vn -0.0265 0.9993 -0.0248
vn -0.0873 0.0554 -0.9946
vn -0.0352 0.3052 -0.9516
vn 0.0503 -0.9632 -0.2640
vn 0.0503 -0.9633 0.2637
vn 0.4487 0.8934 0.0219
vn -0.0168 0.3596 -0.9330
vn 0.0084 0.4639 0.8858
vn -0.0139 0.0321 -0.9994
vn 0.0295 -0.1834 0.9826
vn -0.0196 -0.8290 -0.5589
vn -0.0931 -0.1516 0.9840
vn 0.4482 0.8937 -0.0218
vn -0.0787 -0.9447 -0.3183
vn -0.0785 -0.9445 0.3188
vn -0.0196 -0.8333 0.5525
vn 0.0189 0.4417 -0.8970
vn -0.0525 0.4323 0.9002
vn -0.0012 -0.1307 -0.9914
vn 0.1230 0.4440 0.8875
vn -0.0151 -0.2377 -0.9712
vn 0.1508 -0.2703 0.9509
vn -0.7199 -0.6937 -0.0201
vn 0.0646 -0.9570 -0.2827
vn 0.0644 -0.9572 0.2822
vn 0.0148 -0.8118 -0.5837
vn -0.0015 0.4517 -0.8922
vn -0.7195 -0.6942 0.0200
vn 0.0627 0.4941 -0.8671
vn -0.0319 0.4643 0.8851
vn 0.1130 -0.2718 -0.9557
vn -0.0200 -0.2501 0.9680
vn 0.0147 -0.8161 0.5777
vn -0.0210 -0.9796 -0.1999
vn -0.0210 -0.9796 0.2000
vn -0.0000 0.9986 0.0536
vn -0.0000 -0.9993 -0.0384
vn -0.0000 -0.9993 0.0384
vn -0.0000 0.9987 -0.0517
vn -0.0344 0.5128 -0.8578
vn 0.0061 0.3503 0.9366
vn -0.0513 -0.1242 -0.9909
vn 0.0070 0.1026 0.9947
vn 0.0210 -0.3380 0.9409
vn 0.2266 -0.2562 0.9397
vn -0.4115 -0.9114 -0.0076
vn 0.5976 0.8018 0.0049
vn -0.1028 -0.2542 0.9617
vn -0.0744 -0.3850 0.9199
vn 0.2184 -0.2528 -0.9425
vn 0.0207 -0.3324 -0.9429
vn 0.1060 -0.8045 0.5844
vn 0.1034 -0.8006 -0.5902
vn -0.0563 -0.7846 -0.6175
vn -0.0574 -0.7888 0.6120
vn 0.4741 0.8805 -0.0000
vn -0.0000 1.0000 -0.0000
vn -0.1081 0.9941 -0.0000
vn -0.0732 -0.3792 -0.9224
vn -0.0990 -0.2506 -0.9630
vn -0.4114 -0.9114 0.0078
vn 0.5976 0.8018 -0.0050
vt -45.025230 -45.027214
vt -29.347572 18.720024
vt -34.654179 -45.028297
vt 29.094368 -45.030685
vt -24.484512 18.694164
vt -0.168787 -45.087166
vt -40.101730 -45.087166
vt 39.487766 -44.994568
vt -2.782252 -45.087166
vt 34.045017 -45.087166
vt 2.307701 -45.087166
vt -20.151577 18.701281
vt -50.102089 -33.825584
vt -28.309553 7.467996
vt -29.784073 -33.805122
vt 27.676928 -34.154907
vt -24.550907 7.472706
vt -0.168787 -33.867981
vt -40.205105 -33.874748
vt -2.782252 -33.867981
vt 39.447277 -33.796860
vt 19.921652 -45.087166
vt 34.004524 -33.889473
vt 2.307701 -33.867981
vt -20.217972 7.479805
vt -44.778267 -19.416397
vt -29.606499 -6.907476
vt 29.135630 -19.422979
vt -35.373383 -19.419310
vt 47.846062 -45.018829
vt -24.404095 -6.943145
vt -12.715758 -1.264483
vt 8.643193 -25.331638
vt -40.681427 -19.555195
vt 39.395279 -19.418270
vt 19.816149 -30.689457
vt 33.072632 -19.717442
vt 44.305359 -45.087166
vt -20.303230 -6.929322
vt -29.784073 -18.225750
vt -44.384552 -8.103157
vt 29.230898 -8.093552
vt -35.969334 -8.107932
vt -24.293144 -18.269749
vt 48.834644 -33.713539
vt 42.989216 36.441170
vt -9.234714 -25.331638
vt -40.438969 -8.164936
vt 39.487766 -8.089510
vt 19.251665 -19.376961
vt 33.930252 -8.209023
vt 44.009117 -33.762115
vt -20.472929 -18.247818
vt -28.917622 -24.721331
vt -48.518425 -1.646670
vt 28.081837 -1.902139
vt -31.962856 -1.636057
vt 48.451576 -27.238789
vt -24.436811 -24.736134
vt -0.055210 -25.331638
vt -40.693546 -1.744043
vt 39.292191 -1.674217
vt 19.826410 -12.912662
vt 32.884621 -1.993338
vt 44.715946 -27.304119
vt -20.378525 -24.721081
vt -45.796173 7.540719
vt -29.595293 -33.892799
vt -34.854431 7.540696
vt 28.825790 7.450362
vt 51.102089 -18.090826
vt -23.943062 -33.941444
vt 17.047159 -3.730453
vt 42.244701 -18.077412
vt -40.587326 7.481308
vt 19.759132 -3.730453
vt 39.487762 -18.035032
vt 39.259026 7.495816
vt 33.476059 7.323311
vt -20.432901 -33.910576
vt 14.477321 -3.730453
vt 44.857162 -18.117580
vt -45.895714 18.338827
vt -29.659237 -44.699638
vt -34.953991 18.338827
vt 28.786793 18.234295
vt 47.637794 -7.231644
vt -24.800007 -44.725372
vt 42.410770 -7.274045
vt -40.686886 18.279444
vt 39.653824 -7.231644
vt 39.220028 18.279766
vt 33.742226 18.178947
vt 45.023235 -7.314186
vt -0.096449 -29.742029
vt 24.463497 -40.780800
vt -6.891858 -29.742029
vt 45.619980 40.698875
vt -16.491781 3.250238
vt 6.342804 -29.742029
vt 45.583019 30.501797
vt 24.388678 -30.570185
vt -16.552250 -6.968475
vt 45.194798 19.125443
vt 23.053564 -19.257696
vt -16.886297 -18.282207
vt 45.619980 12.771648
vt 24.623795 -12.793394
vt -16.579584 -24.761597
vt 17.528057 -1.325035
vt 45.366306 1.332173
vt 24.579609 -1.325059
vt -16.432217 -36.231125
vt 10.846087 -1.325059
vt -0.055210 -19.665333
vt 39.997810 30.784893
vt -9.234714 -19.665333
vt 8.643187 -19.665333
vt -9.736526 -7.013080
vt -0.066553 -8.346167
vt 39.487762 19.380842
vt -7.514907 -8.346167
vt 6.991427 -8.346167
vt -10.164272 -18.324116
vt -0.051900 -1.878088
vt 40.070332 13.062795
vt -9.736524 -1.878088
vt -9.736526 -24.806999
vt 9.125151 -1.878088
vt -0.051904 18.455936
vt 18.151419 7.653873
vt 42.118828 -7.231656
vt 27.676928 7.653873
vt -9.736524 18.455936
vt -12.008840 -45.087166
vt 9.125151 18.455936
vt 9.125151 7.653873
s 0
usemtl Material.001
f 7/10/1 6/8/1 14/21/1 15/23/1
f 1/1/2 5/7/2 13/19/2 9/13/2
f 5/7/3 2/3/3 10/15/3 13/19/3
f 2/4/4 7/10/4 15/23/4 10/16/4
f 6/9/5 4/6/5 12/18/5 14/20/5
f 4/6/6 8/11/6 16/24/6 12/18/6
f 3/5/7 1/2/7 9/14/7 11/17/7
f 8/12/8 3/5/8 11/17/8 16/25/8
f 9/13/9 13/19/9 21/34/9 17/26/9
f 13/19/10 10/15/10 18/29/10 21/34/10
f 14/20/11 12/18/11 57/95/11 58/97/11
f 16/25/12 11/17/12 19/31/12 24/39/12
f 15/23/13 14/21/13 22/35/13 23/37/13
f 11/17/14 9/14/14 17/27/14 19/31/14
f 10/16/15 15/23/15 23/37/15 18/28/15
f 40/66/16 48/80/16 68/113/16 65/109/16
f 18/28/17 23/37/17 31/51/17 26/42/17
f 12/18/18 16/24/18 59/100/18 57/95/18
f 17/26/19 21/34/19 29/48/19 25/41/19
f 21/34/20 18/29/20 26/43/20 29/48/20
f 46/76/21 38/63/21 64/108/21 67/112/21
f 24/38/22 19/30/22 27/45/22 32/52/22
f 23/37/23 22/35/23 30/49/23 31/51/23
f 19/31/24 17/27/24 25/40/24 27/44/24
f 31/51/25 30/49/25 38/62/25 39/64/25
f 27/44/26 25/40/26 33/54/26 35/59/26
f 26/42/27 31/51/27 39/64/27 34/56/27
f 44/73/28 46/76/28 67/112/28 66/110/28
f 25/41/29 29/48/29 37/61/29 33/55/29
f 29/48/30 26/43/30 34/57/30 37/61/30
f 16/25/31 24/39/31 61/103/31 59/99/31
f 32/52/32 27/45/32 35/58/32 40/65/32
f 48/81/33 44/73/33 66/110/33 68/114/33
f 40/65/34 35/58/34 43/71/34 48/82/34
f 39/64/35 38/62/35 46/78/35 47/79/35
f 35/59/36 33/54/36 41/68/36 43/72/36
f 34/56/37 39/64/37 47/79/37 42/70/37
f 22/36/38 14/22/38 58/96/38 60/102/38
f 33/55/39 37/61/39 45/75/39 41/67/39
f 37/61/40 34/57/40 42/69/40 45/75/40
f 46/77/41 44/74/41 52/89/41 54/91/41
f 41/67/42 45/75/42 53/90/42 49/83/42
f 45/75/43 42/69/43 50/85/43 53/90/43
f 44/74/44 48/82/44 56/94/44 52/89/44
f 48/82/45 43/71/45 51/87/45 56/94/45
f 47/79/46 46/78/46 54/92/46 55/93/46
f 43/72/47 41/68/47 49/84/47 51/88/47
f 42/70/48 47/79/48 55/93/48 50/86/48
f 67/111/49 64/107/49 76/126/49 79/132/49
f 64/107/50 62/104/50 73/121/50 76/126/50
f 66/110/51 67/112/51 79/133/51 78/131/51
f 58/97/52 57/95/52 36/60/52 28/47/52
f 62/104/53 60/101/53 70/116/53 73/121/53
f 60/101/54 58/98/54 28/46/54 70/116/54
f 63/106/55 65/109/55 77/128/55 74/124/55
f 65/109/56 68/113/56 80/135/56 77/128/56
f 38/63/57 30/50/57 62/105/57 64/108/57
f 32/53/58 40/66/58 65/109/58 63/106/58
f 24/39/59 32/53/59 63/106/59 61/103/59
f 30/50/60 22/36/60 60/102/60 62/105/60
f 36/60/61 20/33/61 71/118/61 69/115/61
f 28/47/61 36/60/61 69/115/61 70/117/61
f 70/117/62 69/115/62 72/120/62 73/122/62
f 69/115/62 71/118/62 74/123/62 72/120/62
f 73/122/62 72/120/62 75/125/62 76/127/62
f 72/120/62 74/123/62 77/129/62 75/125/62
f 75/125/63 77/129/63 80/136/63 78/130/63
f 76/127/63 75/125/63 78/130/63 79/134/63
f 59/99/64 61/103/64 71/119/64 20/32/64
f 61/103/65 63/106/65 74/124/65 71/119/65
f 68/114/66 66/110/66 78/131/66 80/137/66
f 57/95/67 59/100/67 20/33/67 36/60/67
