# Blender 3.5.0
# www.blender.org
mtllib prv1i-4.mtl
o Cube.003
v 320.005402 67.134239 86.577148
v 320.005402 49.732288 86.577148
v 320.037903 67.134239 164.393173
v 320.037903 49.732288 164.393173
v 347.574310 67.134239 164.393173
v 320.005402 49.732288 116.778824
v 320.005402 67.134239 116.778824
v 320.037903 49.732288 133.327728
v 320.037903 67.134239 133.327728
v 347.541809 49.732288 86.577148
v 347.541809 67.134239 86.577148
v 347.574310 49.732288 164.393173
v 347.574310 49.732288 133.327728
v 347.541809 49.732288 116.778824
v 496.139587 67.134239 164.308258
v 496.107056 49.732288 86.492226
v 496.107056 67.134239 86.492226
v 496.139587 49.732288 164.308258
v 320.037903 58.433266 133.327728
v 496.139587 49.732288 133.242813
v 320.005402 58.433266 86.577148
v 496.107056 49.732288 116.693901
v 347.541809 23.458900 86.577148
v 347.574310 23.458900 164.393173
v 347.574310 23.458900 133.327728
v 347.541809 23.458900 116.778824
v 496.107056 23.458900 86.492226
v 496.139587 23.458900 164.308258
v 496.139587 23.458900 133.242813
v 496.107056 23.458900 116.693901
v 479.924316 67.134239 164.318878
v 463.709076 67.134239 164.329498
v 428.650452 67.134239 164.340118
v 412.435211 67.134239 164.350723
v 380.004761 67.134239 164.371948
v 363.789551 67.134239 164.382568
v 363.757050 49.732288 86.566536
v 379.972290 49.732288 86.555923
v 412.402771 49.732288 86.534691
v 428.617981 49.732288 86.524078
v 463.676605 49.732288 86.513458
v 479.891846 49.732288 86.502838
v 479.891785 67.134239 86.502838
v 463.676575 67.134239 86.513451
v 428.617950 67.134239 86.524063
v 412.402710 67.134239 86.534683
v 379.972260 67.134239 86.555916
v 363.757019 67.134239 86.566528
v 479.924316 49.732288 164.318878
v 463.709076 49.732288 164.329498
v 428.650452 49.732288 164.340118
v 412.435211 49.732288 164.350723
v 380.004761 49.732288 164.371948
v 363.789551 49.732288 164.382568
v 363.757050 23.458900 86.566536
v 379.972290 23.458900 86.555923
v 412.402771 23.458900 86.534691
v 428.617981 23.458900 86.524078
v 463.676605 23.458900 86.513458
v 479.891846 23.458900 86.502838
v 479.924316 23.458900 164.318878
v 463.709076 23.458900 164.329498
v 428.650452 23.458900 164.340118
v 412.435211 23.458900 164.350723
v 380.004761 23.458900 164.371948
v 363.789551 23.458900 164.382568
v 363.757050 23.458900 116.768211
v 379.972290 23.458900 116.757599
v 412.402771 23.458900 116.736366
v 428.617981 23.458900 116.725754
v 460.800690 23.458900 119.148193
v 482.767731 23.458900 119.133797
v 363.789551 23.458900 133.317108
v 380.004791 23.458900 133.306488
v 409.559357 23.458900 130.401337
v 431.526398 23.458900 130.386993
v 463.709106 23.458900 133.264038
v 479.924316 23.458900 133.253418
v 320.005402 67.134239 103.071106
v 320.037903 49.732288 149.598679
v 320.037903 67.134239 149.598679
v 320.005402 49.732288 103.071106
v 347.574310 49.732288 149.598679
v 347.541809 49.732288 103.071106
v 496.107056 67.134239 102.986183
v 496.139587 49.732288 149.513763
v 496.107056 49.732288 102.986183
v 496.139587 67.134239 149.513763
v 347.574310 23.458900 149.598679
v 347.541809 23.458900 103.071106
v 496.139587 23.458900 149.513763
v 496.107056 23.458900 102.986183
v 363.789551 23.458900 149.588074
v 380.004761 23.458900 149.577454
v 409.559265 23.458900 152.443863
v 431.526398 23.458900 152.429535
v 463.709106 23.458900 149.535004
v 479.924316 23.458900 149.524384
v 363.757050 23.458900 103.060493
v 379.972290 23.458900 103.049881
v 412.402771 23.458900 103.028648
v 428.617981 23.458900 103.018036
v 460.800690 23.458900 100.578125
v 482.767731 23.458900 100.563751
v 363.757050 49.732288 116.768211
v 379.972290 49.732288 116.757599
v 363.789551 49.732288 133.317108
v 380.004791 49.732288 133.306488
v 363.789551 49.732288 149.588074
v 380.004761 49.732288 149.577454
v 363.757050 49.732288 103.060493
v 379.972290 49.732288 103.049881
v 409.559357 44.966148 130.401337
v 431.526398 44.966148 130.386993
v 409.559265 44.966148 152.443863
v 431.526398 44.966148 152.429535
v 460.800690 44.966148 119.148193
v 482.767731 44.966148 119.133797
v 460.800690 44.966148 100.578125
v 482.767731 44.966148 100.563751
v 332.440948 67.134239 164.393173
v 332.408417 49.732288 86.577148
v 332.408417 67.134239 86.577148
v 332.440948 49.732288 133.327728
v 332.408417 49.732288 116.778824
v 332.440948 49.732288 164.393173
v 332.440948 67.134239 133.327728
v 332.408417 67.134239 116.778824
v 332.408417 49.732288 103.071106
v 332.440948 49.732288 149.598679
v 332.408417 67.134239 103.071106
v 332.440948 67.134239 149.598679
v 347.574310 81.332153 164.393173
v 347.541809 81.332153 86.577148
v 347.574310 81.332153 133.327728
v 347.541809 81.332153 116.778824
v 496.139587 81.332153 164.308258
v 496.107056 81.332153 86.492226
v 496.139587 81.332153 133.242813
v 496.107056 81.332153 116.693901
v 479.924316 81.332153 164.318878
v 463.709076 81.332153 164.329498
v 428.650452 81.332153 164.340118
v 412.435211 81.332153 164.350723
v 380.004761 81.332153 164.371948
v 363.789551 81.332153 164.382568
v 363.789551 81.332153 133.317108
v 380.004791 81.332153 133.306488
v 409.559387 81.332153 130.401367
v 431.526428 81.332153 130.386978
v 463.709106 81.332153 133.264038
v 479.924316 81.332153 133.253418
v 479.891785 81.332153 86.502838
v 463.676575 81.332153 86.513451
v 428.617950 81.332153 86.524063
v 412.402710 81.332153 86.534683
v 379.972260 81.332153 86.555916
v 363.757019 81.332153 86.566528
v 482.767700 81.332153 119.133804
v 460.800659 81.332153 119.148178
v 428.617950 81.332153 116.725739
v 412.402710 81.332153 116.736359
v 379.972260 81.332153 116.757591
v 363.757019 81.332153 116.768204
v 347.541809 81.332153 103.071106
v 347.574310 81.332153 149.598679
v 496.107056 81.332153 102.986183
v 496.139587 81.332153 149.513763
v 363.757019 81.332153 103.060486
v 379.972260 81.332153 103.049873
v 412.402710 81.332153 103.028641
v 428.617950 81.332153 103.018021
v 460.800659 81.332153 100.578110
v 482.767700 81.332153 100.563736
v 363.789551 81.332153 149.588058
v 380.004791 81.332153 149.577438
v 409.559326 81.332153 152.443893
v 431.526367 81.332153 152.429504
v 463.709106 81.332153 149.534988
v 479.924316 81.332153 149.524368
v 332.440948 81.332153 164.393173
v 332.408417 81.332153 86.577148
v 332.440948 81.332153 133.327728
v 332.408417 81.332153 116.778824
v 332.408417 81.332153 103.071106
v 332.440948 81.332153 149.598679
v 508.949219 68.621201 134.053314
v 508.947632 49.732288 133.231140
v 508.913452 68.621201 115.860046
v 508.915100 49.732288 116.682228
v 508.915100 67.134239 102.974510
v 508.947632 49.732288 149.502090
v 508.915100 49.732288 102.974510
v 508.947632 67.134239 149.502090
v 508.947632 81.332153 133.231140
v 508.915100 81.332153 116.682228
v 508.915100 81.332153 102.974510
v 508.947632 81.332153 149.502090
v 320.005402 58.433266 116.778824
v 320.037903 58.433266 164.393173
v 347.541809 58.433266 86.577148
v 347.574310 58.433266 164.393173
v 496.107056 58.433266 86.492226
v 496.139587 58.433266 164.308258
v 363.757019 58.433266 86.566528
v 379.972290 58.433266 86.555923
v 412.402740 58.433266 86.534683
v 428.617981 58.433266 86.524071
v 463.676575 58.433266 86.513458
v 479.891785 58.433266 86.502838
v 363.789551 58.433266 164.382568
v 380.004761 58.433266 164.371948
v 412.435211 58.433266 164.350723
v 428.650452 58.433266 164.340118
v 463.709076 58.433266 164.329498
v 479.924316 58.433266 164.318878
v 496.139587 58.433266 149.513763
v 496.107056 58.433266 102.986183
v 320.005402 58.433266 103.071106
v 320.037903 58.433266 149.598679
v 332.440948 58.433266 164.393173
v 332.408417 58.433266 86.577148
v 508.956726 56.811214 137.858765
v 508.906006 56.811214 112.054604
v 508.947632 58.433266 149.502090
v 508.915100 58.433266 102.974510
v 320.021667 49.732288 125.053276
v 320.021667 67.134239 125.053276
v 347.558044 49.732288 125.053276
v 496.123352 49.732288 124.968353
v 347.558044 23.458900 125.053276
v 496.123352 23.458900 124.968353
v 363.773315 23.458900 125.042664
v 379.988525 23.458900 125.032043
v 412.419006 23.458900 125.010818
v 428.634247 23.458900 125.000206
v 463.692871 23.458900 124.989586
v 479.908081 23.458900 124.978966
v 363.773315 49.732288 125.042664
v 379.988525 49.732288 125.032043
v 332.424683 49.732288 125.053276
v 332.424683 67.134239 125.053276
v 347.558044 81.332153 125.053276
v 496.123352 81.332153 124.968353
v 363.773285 81.332153 125.042656
v 379.988525 81.332153 125.032043
v 412.419006 81.332153 125.010811
v 428.634216 81.332153 125.000198
v 463.692841 81.332153 124.989578
v 479.908020 81.332153 124.978966
v 332.424683 81.332153 125.053276
v 508.931396 70.378349 124.956673
v 508.931396 49.385971 124.956680
v 508.931396 81.332153 124.956680
v 517.498474 68.621208 134.036514
v 517.496887 49.732292 133.214340
v 517.462708 68.621208 115.843239
v 517.464355 49.732292 116.665421
v 517.505981 56.811218 137.841965
v 517.455261 56.811218 112.037796
v 517.480652 70.378357 124.939865
v 517.480652 48.699661 124.939873
vn -0.0000 -0.0000 1.0000
vn 1.0000 -0.0000 -0.0000
vn -0.0000 1.0000 -0.0000
vn -0.0000 -0.0000 -1.0000
vn -0.0007 -0.0000 -1.0000
vn 0.0007 -0.0000 1.0000
vn -1.0000 -0.0000 -0.0000
vn 0.0009 -0.0000 1.0000
vn -1.0000 -0.0000 0.0020
vn 1.0000 -0.0000 -0.0020
vn 0.0003 -0.0000 1.0000
vn -0.0003 -0.0000 -1.0000
vn 0.0135 0.9997 -0.0209
vn -0.0000 -1.0000 -0.0000
vn -0.0009 -0.0000 -1.0000
vn -0.0016 0.5472 -0.8370
vn -1.0000 0.0001 -0.0001
vn -1.0000 -0.0001 -0.0001
vn -1.0000 -0.0004 -0.0004
vn -1.0000 0.0005 -0.0005
vn -1.0000 -0.0007 -0.0004
vn -1.0000 0.0007 -0.0004
vn -0.0019 -0.3067 -0.9518
vn 0.0016 0.5472 0.8370
vn 0.0401 0.9958 0.0829
vn 0.0135 0.9997 0.0209
vn -0.0004 -0.9819 -0.1897
vn 0.0019 -0.3067 0.9518
vn 0.0398 0.9958 -0.0830
vn 0.0004 -0.9819 0.1897
vt -12.519318 23.665150
vt 24.567343 8.138874
vt -22.194857 23.447845
vt 9.883187 8.138878
vt -18.742109 23.447845
vt 21.114698 8.138874
vt -12.515224 8.225567
vt 13.084991 -26.801701
vt 20.313154 17.370680
vt 9.887276 23.578461
vt 23.765902 17.370680
vt 9.632349 -26.801701
vt 13.084970 -21.338165
vt -18.742109 17.455490
vt 9.887276 14.131235
vt -12.515224 17.672794
vt -22.194857 17.455490
vt 23.765902 23.534416
vt 9.883067 17.414726
vt 20.313154 23.534416
vt -12.519431 14.389298
vt 21.114719 2.675337
vt 9.887276 23.578465
vt 4.419661 8.142607
vt 24.567364 2.675337
vt 4.423745 23.582191
vt 9.887276 8.138878
vt 9.632325 -21.338165
vt 9.887276 14.302616
vt 4.419537 17.418457
vt 9.887276 17.586109
vt 4.423745 14.134962
vt 13.084972 8.138878
vt -8.204727 18.119528
vt 21.114719 -26.801701
vt -4.751985 2.679946
vt -8.204727 2.679946
vt 24.567360 -26.801701
vt -4.751985 18.119528
vt 9.632325 8.138878
vt 22.039528 23.534416
vt 24.550686 14.142142
vt -4.751985 11.955793
vt 22.841021 8.138874
vt -20.468483 23.447845
vt -4.751985 8.672299
vt 24.553885 10.858643
vt 15.901937 2.675344
vt -11.020045 -26.798414
vt 15.100218 23.578465
vt 15.100218 8.138878
vt 4.419540 -26.800434
vt 4.419540 -21.338165
vt -1.744196 -26.797050
vt 15.100218 14.302616
vt -5.027688 -26.801701
vt 15.100218 17.586109
vt -11.020732 2.678575
vt 15.901930 -26.801695
vt 0.460956 2.679946
vt 4.419543 8.138878
vt 0.460956 18.119528
vt 4.418854 2.676568
vt -1.744885 2.679946
vt 0.460956 11.955793
vt 0.460956 8.672299
vt -5.028376 2.675294
vt 13.084970 4.921585
vt 13.084966 1.704293
vt 13.084978 -5.251737
vt 13.084978 -8.469026
vt 13.084976 -14.903588
vt 13.084972 -18.120878
vt 21.114719 -0.541951
vt 21.114719 -3.759238
vt 21.114712 -10.193815
vt 21.114706 -13.411096
vt 21.114719 -20.367126
vt 21.114719 -23.584414
vt 24.567360 -23.584400
vt 24.567364 -20.367121
vt 24.567352 -13.411089
vt 24.567356 -10.193802
vt 24.567360 -3.759232
vt 24.567360 -0.541944
vt 9.632325 4.921585
vt 9.632323 1.704293
vt 9.632336 -5.251737
vt 9.632336 -8.469026
vt 9.632330 -14.903588
vt 9.632330 -18.120878
vt 15.901935 -0.541944
vt -11.020386 -23.581131
vt 15.901930 -3.759232
vt -11.020727 -20.363853
vt 15.901924 -10.193809
vt -11.021413 -13.929286
vt 15.901921 -13.411089
vt -11.021754 -10.712004
vt 15.901935 -20.367121
vt -11.020045 -3.755993
vt 15.901935 -23.584406
vt -11.020391 -0.538700
vt 4.419540 4.921585
vt 4.419199 -0.540722
vt 4.419537 1.704293
vt 4.419540 -3.758016
vt 4.417832 -10.714026
vt 4.419553 -5.251737
vt 4.418170 -13.931314
vt 4.419551 -8.469026
vt 4.418858 -20.365873
vt 4.419547 -14.903588
vt 4.419543 -18.120878
vt 4.419202 -23.583147
vt 20.313154 10.858643
vt -5.028029 -23.584419
vt -5.028371 -20.367138
vt -14.980337 14.735718
vt -5.029057 -13.932568
vt -5.029398 -10.715297
vt 27.450409 22.583471
vt -2.395945 26.851538
vt -4.545259 -4.330144
vt 20.081396 23.534416
vt -2.395947 22.493021
vt -4.545725 0.028349
vt 20.313154 14.142134
vt -1.744540 -23.579769
vt -14.980337 11.452228
vt -1.744885 -20.362490
vt 1.871335 18.119528
vt -26.463045 22.535919
vt -2.318081 -14.498216
vt -2.318536 -10.139719
vt -26.463045 26.894428
vt -2.395948 22.493017
vt -1.744199 -3.754625
vt -1.744542 -0.537343
vt -12.517082 20.392563
vt -22.194857 20.175257
vt 23.765902 20.306074
vt 9.885270 20.643064
vt -12.517228 11.160961
vt 20.313154 20.306074
vt -18.742109 20.175257
vt 9.885425 11.411468
vt 9.887276 11.074274
vt 4.421747 20.646799
vt 9.887276 20.305874
vt 4.421893 11.415195
vt -8.204727 5.952534
vt 27.095146 10.955827
vt 24.553885 17.370480
vt -4.751985 15.184136
vt 1.871338 24.389130
vt 27.095146 14.408470
vt 24.551189 8.138878
vt -4.751985 5.952534
vt -8.204727 15.184136
vt 1.871338 20.936483
vt 1.484144 -26.798826
vt 15.100218 11.074274
vt -7.747455 -26.800211
vt 15.100218 20.305874
vt 0.460956 15.184136
vt 1.483457 2.678177
vt -7.748144 2.676785
vt 0.460956 5.952534
vt 26.983181 22.583464
vt 20.313154 17.370480
vt 1.483804 -23.581541
vt 23.765902 22.583466
vt 1.483460 -20.364262
vt -14.980337 8.223882
vt 2.055407 -14.500632
vt 1.871335 22.493017
vt -6.663230 26.851551
vt 2.054952 -10.142117
vt -6.663232 22.493021
vt -2.395948 18.119526
vt 1.484144 -3.756392
vt 1.483801 -0.539118
vt -7.747797 -23.582930
vt -18.742109 22.668272
vt 20.313154 8.138878
vt -7.748139 -20.365641
vt -15.524823 22.668272
vt -14.980337 17.455486
vt -7.748824 -13.931079
vt -7.749165 -10.713801
vt -8.229771 -4.328127
vt 23.765902 22.583471
vt -11.021754 22.495867
vt 23.765902 23.534416
vt -8.230234 0.030372
vt -11.021751 26.854380
vt 18.320692 20.090248
vt 15.100211 10.858643
vt -20.193274 14.735718
vt 15.103415 20.091326
vt 15.100211 14.142134
vt 18.317493 23.373739
vt 15.100211 23.374817
vt -20.193274 11.452228
vt 26.983181 17.370680
vt 15.100211 17.370480
vt 18.320692 26.602083
vt 23.765902 17.370680
vt 15.103415 26.603159
vt -20.193274 8.223882
vt 18.318003 17.370480
vt -18.742109 17.455486
vt 15.100211 8.138878
vt 15.100722 17.371561
vt -15.524823 17.455486
vt -20.193274 17.455486
vt -2.395947 18.119528
vt -11.021739 22.493015
vt -22.195892 22.535919
vt -6.663232 22.495861
vt -22.195889 26.894428
vt -6.663232 22.493017
vt -2.395947 22.493017
vt -11.021756 18.119526
vt -2.396072 26.851551
vt -6.663232 18.122372
vt -2.396075 22.493021
vt -6.663232 18.119526
vt -18.742109 27.029184
vt 27.450409 26.850756
vt 1.871212 26.851538
vt 20.081396 27.801701
vt -18.742105 22.670689
vt 1.871208 22.493021
vt -15.057603 27.026777
vt 23.765902 26.850750
vt -6.754596 22.495867
vt 23.765902 27.801701
vt -15.057603 22.668280
vt -6.754596 26.854380
vt 3.277984 2.679949
vt -14.976129 8.223885
vt 13.084978 -24.340796
vt 7.422295 8.140556
vt 21.114712 5.677974
vt 3.277984 18.119532
vt -14.980215 23.663469
vt 24.567352 5.677974
vt 7.422168 17.416405
vt 7.426382 14.132914
vt 7.426376 23.580141
vt 9.632339 -24.340796
vt -14.980337 14.387625
vt 3.277984 8.843684
vt 3.277984 12.127177
vt -14.976124 17.671114
vt 7.424531 11.413147
vt 7.424378 20.644749
vt 3.277984 14.846945
vt -14.977981 20.390882
vt 3.277984 5.615342
vt -14.978132 11.159283
vt 15.901911 -21.338171
vt -11.021754 5.219985
vt 27.384308 2.675337
vt -26.461336 5.217968
vt -17.185486 5.216600
vt -20.468981 5.221248
vt 15.901917 8.138874
vt -11.021756 18.119528
vt -11.022439 -24.257061
vt 27.384304 -26.801701
vt -26.462023 -24.259071
vt -11.021756 2.679946
vt -17.186174 -24.260441
vt -20.469669 -24.255787
vt 15.901911 4.921579
vt -11.022096 -21.039766
vt 15.901911 1.704286
vt -11.021754 -17.822477
vt 15.901924 -5.251744
vt -11.023458 -10.866450
vt 15.901924 -8.469031
vt -11.023119 -7.649162
vt 15.901917 -14.903594
vt -11.022434 -1.214592
vt 15.901917 -18.120884
vt -11.022093 2.002689
vt -17.185833 1.999310
vt -17.186174 -1.217977
vt -17.759369 -7.082260
vt -17.759834 -11.440769
vt -17.185490 -17.825863
vt -17.185835 -21.043146
vt 27.384308 -23.584400
vt -26.461685 -21.041777
vt 27.384308 -20.367121
vt -26.461340 -17.824495
vt 27.384295 -13.411089
vt -26.463045 -10.868466
vt 27.384298 -10.193802
vt -26.462706 -7.651178
vt 27.384304 -3.759232
vt -26.462019 -1.216609
vt 27.384308 -0.541944
vt -26.461679 2.000677
vt -19.987019 -21.608843
vt -19.986553 -17.250332
vt -20.470695 -10.865179
vt -20.470350 -7.647890
vt -20.469669 -1.213321
vt -20.469324 2.003968
vt -23.188749 5.219760
vt -13.957150 5.218373
vt 27.095146 8.138881
vt -11.021756 5.952534
vt -23.189436 -24.257280
vt -11.021756 15.184136
vt -13.957834 -24.258671
vt 1.871338 18.119539
vt -23.189093 2.002477
vt -23.189432 -1.214810
vt -23.190121 -7.649385
vt -23.190464 -10.866674
vt -23.671064 -17.252350
vt -23.671528 -21.610861
vt -13.957493 2.001085
vt -13.957834 -1.216203
vt -13.385882 -7.079850
vt -13.386348 -11.438359
vt -13.957153 -17.824093
vt -13.957496 -21.041378
vt 0.460956 2.679949
vt 15.901924 -24.340803
vt -11.023398 8.222609
vt 0.460956 18.119532
vt 27.384295 5.677974
vt -26.462980 8.220596
vt -17.187136 8.219232
vt 0.460956 8.843684
vt 0.460956 12.127177
vt -20.470627 8.223885
vt 0.460956 14.846945
vt -23.190393 8.222397
vt 0.460956 5.615342
vt -13.958794 8.221004
vt -23.941048 14.390278
vt 20.018143 24.863428
vt -22.194853 27.057600
vt 20.018143 21.117016
vt -20.193274 14.227144
vt 22.009430 14.142340
vt -23.941048 10.780519
vt 18.321873 21.117016
vt -22.194853 23.447845
vt -20.193274 10.943649
vt 18.321873 17.370604
vt 22.012632 10.858849
vt -23.646021 8.223885
vt 24.553885 10.955832
vt 22.012629 17.370680
vt -20.193274 17.455486
vt 4.412599 24.389122
vt 24.553885 14.408476
vt 22.009930 8.139080
vt -20.193274 8.223885
vt -23.646021 17.455486
vt 4.412599 20.936478
vt -26.463045 14.227144
vt -17.187098 -26.801701
vt -20.470592 -26.797050
vt -26.463045 10.943649
vt 24.553885 8.138887
vt -26.463045 8.223885
vt -23.190357 -26.798540
vt -13.958758 -26.799934
vt -26.463045 17.455486
vt 4.412599 18.119532
vt -20.468483 17.455490
vt 11.358671 -26.801701
vt 22.039532 17.370680
vt 22.841047 2.675337
vt 11.358648 -21.338165
vt -6.478357 2.679946
vt 22.841038 -26.801701
vt -6.478357 18.119528
vt 11.358648 8.138878
vt 22.841042 -0.541944
vt 22.841038 -3.759238
vt 22.841034 -10.193809
vt 22.841034 -13.411096
vt 22.841047 -20.367121
vt 22.841042 -23.584400
vt 11.358648 -18.120878
vt 11.358652 -14.903588
vt 11.358656 -8.469026
vt 11.358658 -5.251737
vt 11.358645 1.704293
vt 11.358645 4.921585
vt -6.478357 15.184136
vt 1.871338 22.662804
vt 27.095146 12.682145
vt -6.478357 5.952534
vt -20.468483 20.175257
vt 22.039528 20.306074
vt 11.358663 -24.340796
vt 22.841034 5.677974
vt -21.597815 15.145317
vt 20.016962 22.514462
vt -21.597815 10.025478
vt 18.320692 18.768051
vt -21.919647 17.455486
vt 4.412599 22.662800
vt -21.919647 8.223885
vt 24.553885 12.682154
vt 9.885169 15.772981
vt -12.517329 16.031048
vt 9.887276 15.944363
vt 4.421653 15.776711
vt 24.552279 12.500391
vt -4.751985 10.314045
vt -3.385941 -26.799381
vt 15.100218 15.944363
vt -3.386629 2.677625
vt 0.460956 10.314045
vt 20.313154 12.500391
vt -3.386282 -23.582094
vt -14.980337 13.093973
vt -3.386628 -20.364813
vt -3.387310 -13.930249
vt -3.387651 -10.712967
vt -3.385944 -3.756944
vt -3.386287 -0.539668
vt 18.319094 21.731993
vt 15.100211 12.500391
vt -20.193274 13.093973
vt 15.101815 21.733072
vt 7.424284 15.774660
vt -14.978230 16.029369
vt 3.277984 10.485432
vt -18.827236 5.218929
vt -18.827923 -24.258121
vt -18.827576 2.001641
vt -18.827919 -1.215647
vt -18.828606 -7.650228
vt -18.828945 -10.867509
vt -18.827240 -17.823538
vt -18.827579 -21.040815
vt -18.828880 8.221561
vt 0.460956 10.485432
vt -24.289688 12.585397
vt -22.194839 25.252722
vt 22.010902 12.500594
vt -18.828846 -26.799381
vt -26.463045 12.585400
vt 18.321873 24.863548
vt -20.498585 27.057600
vt 18.321873 21.117136
vt 20.313154 14.140691
vt 20.018143 21.116890
vt -20.498585 23.447840
vt 20.018143 17.370480
vt 20.316366 10.857191
vt 18.320698 22.514582
vt 20.016966 18.767929
vt -20.498571 25.252718
vt 20.314377 12.498940
s 0
usemtl Material.001
f 222/408/1 122/246/1 10/22/1 201/383/1
f 131/260/2 123/247/2 182/337/2 185/344/2
f 126/252/3 12/26/3 83/149/3 130/259/3
f 221/407/4 202/384/4 12/28/4 126/253/4
f 241/439/3 124/250/3 13/30/3 229/420/3
f 216/400/5 31/68/5 15/33/5 204/388/5
f 210/394/6 42/79/6 16/35/6 203/386/6
f 122/245/3 2/4/3 82/147/3 129/258/3
f 218/404/7 85/152/7 17/37/7 203/385/7
f 167/316/8 85/153/8 191/361/8 197/374/8
f 49/86/5 18/40/5 28/61/5 61/104/5
f 230/422/9 22/46/9 30/66/9 232/426/9
f 121/242/2 132/262/2 186/346/2 181/334/2
f 104/196/3 72/127/3 30/67/3 92/168/3
f 238/434/3 78/139/3 29/64/3 232/425/3
f 60/103/3 104/196/3 92/168/3 27/58/3
f 84/150/2 14/31/2 26/57/2 90/165/2
f 86/155/7 20/43/7 29/65/7 91/166/7
f 37/74/6 10/22/6 23/48/6 55/92/6
f 229/419/10 13/29/10 25/55/10 231/424/10
f 18/39/7 86/155/7 91/166/7 28/62/7
f 16/35/6 42/79/6 60/102/6 27/59/6
f 42/79/6 41/78/6 59/100/6 60/102/6
f 41/78/11 40/77/11 58/98/11 59/100/11
f 40/77/6 39/76/6 57/96/6 58/98/6
f 74/131/3 94/174/3 95/176/3 75/134/3
f 38/75/6 37/74/6 55/92/6 56/94/6
f 83/148/2 12/27/2 24/51/2 89/163/2
f 89/162/3 24/52/3 66/115/3 93/172/3
f 94/174/3 65/112/3 64/110/3 95/176/3
f 95/176/3 64/110/3 63/108/3 96/179/3
f 96/179/3 63/108/3 62/107/3 97/182/3
f 231/423/3 25/54/3 73/129/3 233/428/3
f 93/170/6 94/173/6 110/209/6 109/206/6
f 55/93/3 99/184/3 100/187/3 56/95/3
f 235/431/3 75/134/3 76/135/3 236/432/3
f 236/432/3 76/135/3 77/138/3 237/433/3
f 237/433/3 77/138/3 78/139/3 238/434/3
f 90/164/3 26/56/3 67/117/3 99/184/3
f 233/427/9 73/128/9 107/202/9 239/436/9
f 101/190/3 69/120/3 70/121/3 102/191/3
f 102/191/3 70/121/3 71/124/3 103/192/3
f 72/125/2 104/195/2 120/239/2 118/233/2
f 12/28/5 54/91/5 66/114/5 24/53/5
f 54/91/5 53/90/5 65/113/5 66/114/5
f 206/390/6 207/391/6 46/83/6 47/84/6
f 52/89/5 51/88/5 63/109/5 64/111/5
f 51/88/12 50/87/12 62/106/12 63/109/12
f 50/87/5 49/86/5 61/104/5 62/106/5
f 201/383/6 10/22/6 37/74/6 205/389/6
f 205/389/6 37/74/6 38/75/6 206/390/6
f 213/397/5 52/89/5 53/90/5 212/396/5
f 207/391/6 39/76/6 40/77/6 208/392/6
f 208/392/11 40/77/11 41/78/11 209/393/11
f 209/393/6 41/78/6 42/79/6 210/394/6
f 202/384/5 5/13/5 36/73/5 211/395/5
f 211/395/5 36/73/5 35/72/5 212/396/5
f 93/172/3 66/115/3 65/112/3 94/174/3
f 213/397/5 34/71/5 33/70/5 214/398/5
f 214/398/12 33/70/12 32/69/12 215/399/12
f 215/399/5 32/69/5 31/68/5 216/400/5
f 38/75/6 56/94/6 57/96/6 39/76/6
f 31/68/5 32/69/5 142/280/5 141/278/5
f 242/441/10 128/256/10 184/342/10 251/451/10
f 123/249/1 11/25/1 134/266/1 182/338/1
f 48/85/6 47/84/6 157/304/6 158/306/6
f 15/33/5 31/68/5 141/278/5 137/270/5
f 5/13/4 121/244/4 181/335/4 133/264/4
f 34/71/5 35/72/5 145/286/5 144/284/5
f 218/403/8 87/157/8 193/365/8 226/416/8
f 46/83/6 45/82/6 155/300/6 156/302/6
f 45/82/11 44/81/11 154/298/11 155/300/11
f 59/101/3 103/192/3 104/196/3 60/103/3
f 36/73/5 5/13/5 133/264/5 146/288/5
f 44/81/6 43/80/6 153/296/6 154/298/6
f 230/421/13 20/42/13 188/353/13 253/454/13
f 43/80/6 17/38/6 138/273/6 153/296/6
f 35/72/5 36/73/5 146/288/5 145/286/5
f 11/25/6 48/85/6 158/306/6 134/266/6
f 128/256/2 131/260/2 185/344/2 184/342/2
f 58/99/3 102/191/3 103/192/3 59/101/3
f 57/97/3 101/190/3 102/191/3 58/99/3
f 56/95/3 100/187/3 101/190/3 57/97/3
f 52/89/5 64/111/5 65/113/5 53/90/5
f 47/84/6 46/83/6 156/302/6 157/304/6
f 23/49/3 90/164/3 99/184/3 55/93/3
f 97/182/3 62/107/3 61/105/3 98/183/3
f 77/138/3 97/182/3 98/183/3 78/139/3
f 76/135/3 96/179/3 97/182/3 77/138/3
f 75/132/7 95/177/7 115/224/7 113/218/7
f 234/430/3 235/431/3 69/120/3 68/118/3
f 68/118/3 69/120/3 101/190/3 100/187/3
f 73/128/7 93/171/7 109/207/7 107/202/7
f 25/54/3 89/162/3 93/172/3 73/129/3
f 13/29/2 83/148/2 89/163/2 25/55/2
f 10/23/2 84/150/2 90/165/2 23/50/2
f 98/183/3 61/105/3 28/63/3 91/167/3
f 78/139/3 98/183/3 91/167/3 29/64/3
f 87/159/7 16/36/7 27/60/7 92/169/7
f 22/46/7 87/159/7 92/169/7 30/66/7
f 247/446/14 149/292/14 148/291/14 246/445/14
f 168/320/14 139/276/14 195/371/14 198/377/14
f 217/402/15 88/161/15 194/369/15 225/414/15
f 87/158/3 22/47/3 190/359/3 193/366/3
f 132/262/2 127/255/2 183/341/2 186/346/2
f 33/70/5 34/71/5 144/284/5 143/282/5
f 125/251/3 14/32/3 84/151/3 129/258/3
f 4/10/3 126/252/3 130/259/3 80/143/3
f 199/380/2 6/14/2 82/146/2 219/405/2
f 124/250/3 130/259/3 83/149/3 13/30/3
f 220/406/2 200/382/2 4/11/2 80/142/2
f 19/41/2 220/406/2 80/142/2 8/18/2
f 128/257/14 7/16/14 79/140/14 131/261/14
f 88/160/7 15/34/7 137/271/7 168/319/7
f 127/254/14 132/263/14 81/144/14 9/21/14
f 10/24/3 122/245/3 129/258/3 84/151/3
f 239/435/3 107/203/3 108/204/3 240/438/3
f 111/212/3 105/198/3 106/201/3 112/215/3
f 107/203/3 109/208/3 110/210/3 108/204/3
f 100/188/5 99/185/5 111/213/5 112/216/5
f 68/119/2 100/189/2 112/217/2 106/200/2
f 94/175/2 74/130/2 108/205/2 110/211/2
f 99/186/7 67/116/7 105/199/7 111/214/7
f 234/429/10 68/119/10 106/200/10 240/437/10
f 113/219/3 115/225/3 116/227/3 114/221/3
f 76/136/5 75/133/5 113/220/5 114/222/5
f 95/178/6 96/180/6 116/228/6 115/226/6
f 96/181/2 76/137/2 114/223/2 116/229/2
f 119/236/3 117/230/3 118/234/3 120/240/3
f 103/193/7 71/122/7 117/231/7 119/237/7
f 71/123/6 72/126/6 118/235/6 117/232/6
f 104/197/5 103/194/5 119/238/5 120/241/5
f 217/401/7 204/387/7 15/34/7 88/160/7
f 32/69/12 33/70/12 143/282/12 142/280/12
f 1/1/14 123/248/14 131/261/14 79/140/14
f 8/19/3 80/143/3 130/259/3 124/250/3
f 219/405/2 82/146/2 2/5/2 21/45/2
f 6/15/3 125/251/3 129/258/3 82/147/3
f 227/417/3 8/19/3 124/250/3 241/439/3
f 200/381/4 221/407/4 126/253/4 4/12/4
f 228/418/14 7/16/14 128/257/14 242/440/14
f 121/243/14 3/7/14 81/144/14 132/263/14
f 142/281/14 179/332/14 180/333/14 141/279/14
f 21/44/1 2/6/1 122/246/1 222/408/1
f 251/450/14 184/343/14 136/269/14 243/442/14
f 180/333/14 152/295/14 139/276/14 168/320/14
f 141/279/14 180/333/14 168/320/14 137/272/14
f 250/449/14 159/308/14 140/277/14 244/443/14
f 243/442/14 136/269/14 164/313/14 245/444/14
f 245/444/14 164/313/14 163/312/14 246/445/14
f 163/312/14 170/323/14 171/324/14 162/311/14
f 247/446/14 162/311/14 161/310/14 248/447/14
f 248/447/14 161/310/14 160/309/14 249/448/14
f 249/448/14 160/309/14 159/308/14 250/449/14
f 174/327/14 153/297/14 138/274/14 167/318/14
f 165/314/14 134/267/14 158/307/14 169/322/14
f 170/323/14 157/305/14 156/303/14 171/324/14
f 171/324/14 156/303/14 155/301/14 172/325/14
f 172/325/14 155/301/14 154/299/14 173/326/14
f 166/315/14 135/268/14 147/290/14 175/328/14
f 175/328/14 147/290/14 148/291/14 176/329/14
f 177/330/14 149/292/14 150/293/14 178/331/14
f 178/331/14 150/293/14 151/294/14 179/332/14
f 179/332/14 151/294/14 152/295/14 180/333/14
f 143/283/14 178/331/14 179/332/14 142/281/14
f 144/285/14 177/330/14 178/331/14 143/283/14
f 145/287/14 176/329/14 177/330/14 144/285/14
f 169/322/14 158/307/14 157/305/14 170/323/14
f 17/37/7 85/152/7 167/317/7 138/275/7
f 133/265/14 166/315/14 175/328/14 146/289/14
f 173/326/14 154/299/14 153/297/14 174/327/14
f 160/309/14 173/326/14 174/327/14 159/308/14
f 161/310/14 172/325/14 173/326/14 160/309/14
f 162/311/14 171/324/14 172/325/14 161/310/14
f 146/289/14 175/328/14 176/329/14 145/287/14
f 148/291/14 149/292/14 177/330/14 176/329/14
f 164/313/14 169/322/14 170/323/14 163/312/14
f 136/269/14 165/314/14 169/322/14 164/313/14
f 159/308/14 174/327/14 167/318/14 140/277/14
f 185/345/14 182/339/14 134/267/14 165/314/14
f 135/268/14 166/315/14 186/347/14 183/340/14
f 133/265/14 181/336/14 186/347/14 166/315/14
f 136/269/14 184/343/14 185/345/14 165/314/14
f 188/351/16 223/410/16 259/465/16 256/459/16
f 252/452/9 187/348/9 195/370/9 254/456/9
f 191/360/17 189/354/17 196/373/17 197/375/17
f 187/348/18 194/368/18 198/378/18 195/370/18
f 223/409/19 225/413/19 194/368/19 187/348/19
f 224/411/20 189/354/20 191/360/20 226/415/20
f 20/42/3 86/154/3 192/362/3 188/353/3
f 140/277/14 167/318/14 197/376/14 196/372/14
f 88/161/15 168/321/15 198/379/15 194/369/15
f 244/443/14 140/277/14 196/372/14 254/455/14
f 190/357/21 224/411/21 226/415/21 193/367/21
f 188/352/22 192/363/22 225/413/22 223/409/22
f 223/410/23 187/349/23 255/457/23 259/465/23
f 1/2/1 21/44/1 222/408/1 123/249/1
f 3/8/4 121/244/4 221/407/4 200/381/4
f 79/141/2 219/405/2 21/45/2 1/3/2
f 86/155/7 18/39/7 204/387/7 217/401/7
f 9/20/2 81/145/2 220/406/2 19/41/2
f 81/145/2 3/9/2 200/382/2 220/406/2
f 7/17/2 199/380/2 219/405/2 79/141/2
f 86/156/15 217/402/15 225/414/15 192/364/15
f 85/153/8 218/403/8 226/416/8 191/361/8
f 50/87/5 215/399/5 216/400/5 49/86/5
f 51/88/12 214/398/12 215/399/12 50/87/12
f 52/89/5 213/397/5 214/398/5 51/88/5
f 54/91/5 211/395/5 212/396/5 53/90/5
f 12/28/5 202/384/5 211/395/5 54/91/5
f 44/81/6 209/393/6 210/394/6 43/80/6
f 45/82/11 208/392/11 209/393/11 44/81/11
f 46/83/6 207/391/6 208/392/6 45/82/6
f 34/71/5 213/397/5 212/396/5 35/72/5
f 48/85/6 205/389/6 206/390/6 47/84/6
f 11/25/6 201/383/6 205/389/6 48/85/6
f 38/75/6 39/76/6 207/391/6 206/390/6
f 87/159/7 218/404/7 203/385/7 16/36/7
f 43/80/6 210/394/6 203/386/6 17/38/6
f 49/86/5 216/400/5 204/388/5 18/40/5
f 121/244/4 5/13/4 202/384/4 221/407/4
f 123/249/1 222/408/1 201/383/1 11/25/1
f 224/412/24 190/358/24 258/463/24 260/466/24
f 139/276/14 244/443/14 254/455/14 195/371/14
f 189/354/9 252/452/9 254/456/9 196/373/9
f 190/359/25 253/454/25 262/468/25 258/464/25
f 151/294/14 249/448/14 250/449/14 152/295/14
f 150/293/14 248/447/14 249/448/14 151/294/14
f 149/292/14 247/446/14 248/447/14 150/293/14
f 147/290/14 245/444/14 246/445/14 148/291/14
f 135/268/14 243/442/14 245/444/14 147/290/14
f 152/295/14 250/449/14 244/443/14 139/276/14
f 183/340/14 251/450/14 243/442/14 135/268/14
f 9/21/14 228/418/14 242/440/14 127/254/14
f 6/15/3 227/417/3 241/439/3 125/251/3
f 74/130/10 234/429/10 240/437/10 108/205/10
f 105/198/3 239/435/3 240/438/3 106/201/3
f 162/311/14 247/446/14 246/445/14 163/312/14
f 74/131/3 75/134/3 235/431/3 234/430/3
f 22/47/26 230/421/26 253/454/26 190/359/26
f 127/255/10 242/441/10 251/451/10 183/341/10
f 67/116/9 233/427/9 239/436/9 105/199/9
f 71/124/3 237/433/3 238/434/3 72/127/3
f 70/121/3 236/432/3 237/433/3 71/124/3
f 69/120/3 235/431/3 236/432/3 70/121/3
f 26/56/3 231/423/3 233/428/3 67/117/3
f 14/31/10 229/419/10 231/424/10 26/57/10
f 72/127/3 238/434/3 232/425/3 30/67/3
f 20/43/9 230/422/9 232/426/9 29/65/9
f 125/251/3 241/439/3 229/420/3 14/32/3
f 187/350/27 252/453/27 261/467/27 255/458/27
f 189/355/28 224/412/28 260/466/28 257/461/28
f 253/454/29 188/353/29 256/460/29 262/468/29
f 252/453/30 189/356/30 257/462/30 261/467/30
