# Blender 3.5.0
# www.blender.org
mtllib Mazmorra-p1.mtl.mtl
o Cube
v -2.600587 -0.022985 2.600587
v -2.600587 4.814509 2.600587
v -2.600587 -0.022985 -2.600587
v -2.600587 4.814509 -2.600587
v 2.600587 -0.022985 2.600587
v 2.600587 4.814509 2.600587
v 2.600587 -0.022985 -2.600587
v 2.600587 4.814509 -2.600587
v 0.500000 -0.022985 -2.600587
v 0.500000 4.814509 -2.600587
v 0.500000 -0.022985 2.600587
v 0.500000 4.814509 2.600587
v -0.450294 -0.022985 -2.600587
v -0.450294 4.814509 2.600587
v -0.450294 4.814509 -2.600587
v -0.450294 -0.022985 2.600587
v -2.600587 1.886492 2.600587
v -2.600587 1.886492 -2.600587
v 2.600587 1.886492 -2.600587
v 0.500000 1.886492 2.600587
v 0.500000 1.886492 -2.600587
v -0.450294 1.886492 -2.600587
v -0.450294 1.886492 2.600587
v 2.799413 -0.022985 2.964299
v 2.799413 4.814509 2.964299
v 8.000587 -0.022985 2.964299
v 8.000587 4.814509 2.964299
v 2.799413 1.886492 2.964299
v 8.000587 1.886492 2.964299
v -8.000587 4.814509 2.964299
v -2.799413 4.814509 2.964299
v -4.900000 -0.022985 2.964299
v -4.900000 4.814509 2.964299
v -5.850294 4.814509 2.964299
v -2.799413 1.886492 2.964299
v -4.900000 1.886492 2.964299
v -5.850294 1.886492 2.964299
v -8.199413 4.814509 2.964299
v -8.199413 1.886492 2.964299
v -18.800587 4.814509 2.964299
v -13.599413 4.814509 2.964299
v -18.800587 1.886492 2.964299
v -13.599413 1.886492 2.964299
v 24.402536 -0.022985 2.964299
v 24.402536 4.814509 2.964299
v 27.503124 -0.022985 2.964299
v 27.503124 4.814509 2.964299
v 26.552830 4.814509 2.964299
v 26.552830 -0.022985 2.964299
v 24.402536 1.886492 2.964299
v 27.503124 1.886492 2.964299
v 26.552830 1.886492 2.964299
v 29.802538 -0.022985 2.964299
v 29.802538 4.814509 2.964299
v 35.003712 -0.022985 2.964299
v 35.003712 4.814509 2.964299
v 32.903126 -0.022985 2.964299
v 32.903126 4.814509 2.964299
v 31.952831 4.814509 2.964299
v 31.952831 -0.022985 2.964299
v 29.802538 1.886492 2.964299
v 35.003712 1.886492 2.964299
v 32.903126 1.886492 2.964299
v 31.952831 1.886492 2.964299
v 19.002537 -0.022985 2.964299
v 19.002537 4.814509 2.964299
v 19.002537 1.886492 2.964299
v 24.203712 1.886492 2.964299
v 13.602537 -0.022985 2.964299
v 13.602537 4.814509 2.964299
v 13.602537 1.886492 2.964299
v 8.202538 -0.022985 2.600587
v 8.202538 4.814509 2.600587
v 8.202538 -0.022985 -2.600587
v 8.202538 4.814509 -2.600587
v 13.403711 -0.022985 2.600587
v 13.403711 4.814509 2.600587
v 13.403711 -0.022985 -2.600587
v 13.403711 4.814509 -2.600587
v 11.303123 -0.022985 -2.600587
v 11.303123 4.814509 -2.600587
v 11.303123 -0.022985 2.600587
v 11.303123 4.814509 2.600587
v 10.352831 -0.022985 -2.600587
v 10.352831 4.814509 -2.600587
v 10.352831 -0.022985 2.600587
v 8.202538 1.886492 2.600587
v 8.202538 1.886492 -2.600587
v 13.403711 1.886492 -2.600587
v 13.403711 1.886492 2.600587
v 11.303123 1.886492 -2.600587
v 10.352831 1.886492 -2.600587
v 10.352831 1.886492 2.600587
v 18.828560 4.814509 11.754696
v 18.828560 1.886492 11.754696
v 13.428559 4.814509 11.754695
v 10.377676 -0.022985 11.754696
v 10.327972 4.814509 11.754695
v 13.428559 1.886492 11.754695
v 10.327972 1.886492 11.754695
v 11.278266 1.886492 11.754695
v 19.027386 4.814509 11.754696
v 24.228561 1.886492 11.754696
v 29.628557 -0.022985 12.140451
v 29.628557 4.814509 12.140451
v 29.628557 -0.022985 17.341625
v 29.628557 4.814509 17.341625
v 24.427387 4.814509 12.140450
v 24.427387 -0.022985 17.341625
v 24.427387 4.814509 17.341625
v 26.527973 -0.022985 17.341625
v 26.527973 4.814509 17.341625
v 27.478268 -0.022985 17.341625
v 27.478268 4.814509 12.140450
v 27.478268 4.814509 17.341625
v 29.628557 1.886492 12.140451
v 29.628557 1.886492 17.341625
v 24.427387 1.886492 17.341625
v 24.427387 1.886492 12.140450
v 26.527973 1.886492 12.140450
v 26.527973 1.886492 17.341625
v 27.478268 1.886492 17.341625
v 35.028561 -0.022985 12.140451
v 35.028561 4.814509 12.140451
v 35.028561 -0.022985 17.341625
v 35.028561 4.814509 17.341625
v 29.827383 -0.022985 12.140451
v 29.827383 4.814509 12.140451
v 29.827383 -0.022985 17.341625
v 29.827383 4.814509 17.341625
v 31.927975 -0.022985 17.341625
v 31.927975 4.814509 17.341625
v 31.927975 4.814509 12.140451
v 32.878265 -0.022985 17.341625
v 32.878265 4.814509 17.341625
v 35.028561 1.886492 17.341625
v 29.827383 1.886492 17.341625
v 31.927975 1.886492 17.341625
v 32.878265 1.886492 17.341625
v 32.878265 1.886492 12.140451
v -8.174566 -0.022985 11.754694
v -8.174566 4.814509 11.754694
v -13.375742 -0.022985 11.754694
v -13.375742 4.814509 11.754694
v -8.174566 1.886492 11.754694
v -13.375742 1.886492 11.754694
v -18.775738 -0.022985 11.754693
v -18.775738 1.886492 11.754693
v -2.774565 -0.022985 12.140449
v -2.774565 4.814509 12.140449
v -2.774565 -0.022985 17.341623
v -2.774565 4.814509 17.341623
v -7.975739 -0.022985 12.140448
v -7.975739 4.814509 12.140448
v -7.975739 -0.022985 17.341621
v -7.975739 4.814509 17.341621
v -5.875153 -0.022985 17.341621
v -5.875153 4.814509 17.341621
v -5.875153 -0.022985 12.140448
v 2.600587 1.886492 2.600587
v -4.924858 -0.022985 17.341621
v -4.924858 4.814509 17.341621
v -4.924858 -0.022985 12.140448
v -2.774565 1.886492 17.341623
v -7.975739 1.886492 17.341621
v -5.875153 1.886492 12.140448
v -5.875153 1.886492 17.341621
v -4.924858 1.886492 17.341621
v -4.924858 1.886492 12.140448
v -2.575739 -0.022985 11.754694
v -0.475153 -0.022985 11.754694
v -0.475153 4.814509 11.754694
v 0.524849 4.814509 11.754696
v 0.475142 -0.022985 11.754694
v 2.625435 1.886492 11.754694
v -2.575739 1.886492 11.754694
v -0.475153 1.886492 11.754694
v 0.475142 1.886492 11.754694
v 8.025434 1.886492 11.754695
v 2.824261 1.886492 11.754694
v 24.427382 -0.022985 12.140451
v 27.478268 -0.022985 12.140450
v 26.527973 -0.022985 12.140450
v 32.878265 -0.022985 12.140451
v 31.927975 -0.022985 12.140451
v 8.025434 -0.022985 11.754695
v 24.203712 -0.022985 2.964300
v 29.628557 -0.022985 11.754696
v 29.628557 4.814509 11.754696
v 26.527973 4.814509 11.754695
v 29.628557 1.886492 11.754696
v 26.527973 1.886492 11.754695
v 27.478268 1.886492 11.754695
v 35.028561 -0.022985 11.754696
v 35.028561 4.814509 11.754696
v 35.028561 1.886492 11.754696
v 29.827383 1.886492 11.754696
v 31.927975 1.886492 11.754696
v 32.878265 1.886492 11.754696
v -2.774565 -0.022985 11.754693
v -2.774565 4.814509 11.754693
v -5.875153 -0.022985 11.754692
v -5.875153 4.814509 11.754692
v -4.924858 4.814509 11.754692
v -4.924858 -0.022985 11.754692
v -2.774565 1.886492 11.754693
v -5.875153 1.886492 11.754692
v -4.924858 1.886492 11.754692
v 26.527973 -0.022985 11.754695
v 32.878265 -0.022985 11.754696
v -2.600587 4.814509 2.964299
v 2.600587 4.814509 2.964299
v 0.500000 4.814509 2.964299
v -0.450294 4.814509 2.964299
v -0.450294 -0.022985 2.964299
v 2.600587 1.886492 2.964299
v 0.500000 1.886492 2.964299
v -0.450294 1.886492 2.964299
v 8.202538 -0.022985 2.964299
v 8.202538 4.814509 2.964299
v 13.403711 -0.022985 2.964299
v 11.303123 -0.022985 2.964299
v 11.303123 4.814509 2.964299
v 10.352831 4.814509 2.964299
v 10.352831 -0.022985 2.964299
v 8.202538 1.886492 2.964299
v 13.403711 1.886492 2.964299
v 11.303123 1.886492 2.964299
v 10.352831 1.886492 2.964299
v -13.574568 -0.022985 11.754694
v -13.574568 1.886492 11.754694
v -7.975739 -0.022985 11.754692
v -7.975739 1.886492 11.754692
v 19.027386 1.886492 11.754696
v 13.627385 1.886492 11.754695
v 8.227385 1.886492 11.754695
v 24.427387 4.814509 11.754696
v 24.427387 1.886492 11.754696
v 29.827383 -0.022985 11.754696
v 29.827383 4.814509 11.754696
v 29.603712 -0.022985 2.964299
v 29.603712 4.814509 2.964299
v 29.603712 1.886492 2.964299
v 24.203711 4.814509 2.964299
v 18.803711 -0.022985 2.964299
v 18.803711 4.814509 2.964299
v 18.803711 1.886492 2.964299
v 13.403711 4.814509 2.964299
v -2.600587 1.886492 2.964299
v -8.000587 1.886492 2.964299
v -13.400587 4.814509 2.964299
v -13.400587 1.886492 2.964299
v -8.199415 -0.022985 2.964300
v -13.400591 -0.022985 2.964300
v -18.800587 -0.022985 2.964299
v -13.599417 -0.022985 2.964300
v 2.824260 -0.022985 11.754695
v 2.625434 -0.022985 11.754695
v 24.427382 -0.022985 11.754696
v 19.027382 -0.022985 11.754696
v 13.627382 -0.022985 11.754696
v 24.228558 -0.022985 11.754696
v 18.828556 -0.022985 11.754696
v 27.478268 -0.022985 11.754695
v 31.927975 -0.022985 11.754696
v 8.227383 -0.022985 11.754696
v 13.428556 -0.022985 11.754696
v 11.278266 -0.022985 11.754695
v -2.600588 -0.022985 2.964301
v 0.500000 -0.022985 2.964299
v -2.799414 -0.022985 2.964300
v -5.850294 -0.022985 2.964299
v -8.000587 -0.022985 2.964299
v 2.600585 -0.022985 2.964302
v 2.824262 4.814509 11.754696
v 8.025436 4.814509 11.754696
v -7.975739 4.814509 11.754696
v -18.775738 4.814509 11.754696
v -13.574564 4.814509 11.754696
v 27.478268 4.814509 11.754695
v 32.878265 4.814509 11.754696
v 31.927975 4.814509 11.754696
v 13.627386 4.814509 11.754696
v -2.575738 4.814509 11.754696
v 2.625436 4.814509 11.754696
v 8.227386 4.814509 11.754696
v 11.278266 4.814509 11.754695
v 24.228559 4.814509 11.754696
v -4.924858 4.814509 12.140448
v -2.774565 1.886492 12.140449
v -5.875153 4.814509 12.140448
v -7.975739 1.886492 12.140448
v 10.352831 4.814509 2.600587
v 11.303123 1.886492 2.600587
v 32.878265 4.814509 12.140451
v 31.927975 1.886492 12.140451
v 29.827383 1.886492 12.140451
v 35.028561 1.886492 12.140451
v 27.478268 1.886492 12.140450
v 26.527973 4.814509 12.140450
vn 1.0000 -0.0000 -0.0000
vn -0.0000 -0.0000 1.0000
vn -1.0000 -0.0000 -0.0000
vn -0.0000 1.0000 -0.0000
vn -0.0000 -1.0000 -0.0000
vn -0.0000 -0.0000 -1.0000
vn 1.0000 -0.0000 -0.0028
vt -0.078446 -0.516932
vt 4.147662 -1.943985
vt 4.147662 -8.198200
vt 2.208695 -1.943985
vt 0.982666 0.988679
vt 2.208695 -8.198200
vt -0.365967 -0.516932
vt 4.147662 -6.113460
vt 4.147662 0.140754
vt 2.208695 0.140754
vt 0.982666 0.988592
vt 2.208694 -6.113460
vt -0.078446 -0.229411
vt 2.208695 0.140754
vt 4.147662 -10.282937
vt 0.269727 0.140754
vt 0.982753 0.988679
vt 2.208695 -10.282937
vt -0.365967 -0.229411
vt 2.208695 -1.943984
vt 4.147662 -4.028722
vt 2.208694 -4.028722
vt 0.269727 -1.943984
vt 0.982753 0.988592
vt -0.365967 -0.345531
vt 4.147662 -4.870681
vt 2.208694 -4.870681
vt 0.982718 0.988592
vt -0.078446 -0.345531
vt 3.573758 0.140754
vt 4.147662 -9.440978
vt 0.982718 0.988679
vt 2.208695 -9.440978
vt -0.365967 -0.398064
vt 4.147662 -5.251578
vt 0.982702 0.988679
vt 2.208695 -9.060081
vt 2.208694 -5.251578
vt 0.982702 0.988592
vt -0.078446 -0.398064
vt 3.573758 0.140753
vt 4.147662 -9.060081
vt 3.382304 -1.943985
vt 3.382304 -8.198200
vt 3.382304 -6.113460
vt 3.382304 0.140754
vt 1.443337 -1.943984
vt 3.382304 -4.028722
vt 0.982827 0.989147
vt 3.573758 0.906111
vt 3.382304 -9.440978
vt 3.382304 -4.870681
vt 3.382304 -5.251578
vt 0.982827 0.989131
vt 3.573758 0.906111
vt 3.382304 -9.060081
vt -1.669241 -1.625211
vt -0.058340 -0.218420
vt -3.608208 -1.625211
vt 0.982433 0.988958
vt -1.669241 0.459527
vt -0.058340 0.069101
vt -3.608208 0.459527
vt 0.982433 0.988871
vt -2.434599 -1.625211
vt -2.434599 0.459527
vt -3.608208 -5.954073
vt 0.982433 0.989139
vt -3.608208 -3.869336
vt 0.982433 0.989052
vt -1.669241 -4.711295
vt -0.058340 -0.644044
vt -3.608208 -4.711295
vt 0.982433 0.989087
vt -3.608208 -5.092193
vt 0.982433 0.989103
vt -2.434599 -3.869336
vt -2.434599 -4.711295
vt -2.434599 -5.092193
vt -3.608208 -6.033768
vt 0.982433 0.989142
vt -2.434598 -6.033768
vt -3.608208 -10.282937
vt 0.982433 0.989320
vt -1.669240 -6.759563
vt -3.608208 -8.198200
vt 0.982433 0.989233
vt -2.434598 -10.282937
vt -0.495631 -6.759563
vt -2.434598 -8.198200
vt -1.669241 7.033766
vt -0.058340 0.975802
vt -3.608208 7.033766
vt 0.982433 0.988596
vt -1.669241 8.276546
vt -0.058340 1.147203
vt -3.608208 8.276546
vt 0.982433 0.988544
vt -3.608208 7.895649
vt 0.982433 0.988560
vt -1.669241 7.895649
vt -0.058340 1.094671
vt -2.434599 7.033766
vt -2.434599 8.276546
vt -2.434599 7.895649
vt -1.669241 9.198199
vt -0.058340 1.274315
vt -3.608208 9.198199
vt 0.982433 0.988506
vt -1.669241 11.282937
vt -0.058340 1.561836
vt -3.608208 11.282937
vt 0.982433 0.988418
vt -1.669241 10.440978
vt -0.058340 1.445715
vt -3.608208 10.440978
vt 0.982433 0.988454
vt -3.608208 10.060081
vt 0.982433 0.988470
vt -1.669241 10.060081
vt -0.058340 1.393183
vt -2.434599 9.198199
vt -2.434599 11.282937
vt -2.434599 10.440978
vt -2.434599 10.060081
vt -1.669241 4.869336
vt -0.058340 0.677290
vt -3.608208 4.869336
vt 0.982433 0.988687
vt -2.434599 4.869336
vt -2.434599 6.954073
vt -1.669241 2.704905
vt -0.058340 0.378778
vt -3.608208 2.704905
vt 0.982433 0.988777
vt -2.434599 2.704905
vt -0.078446 0.080265
vt 0.269727 -2.590084
vt 6.086630 0.140753
vt -1.669241 -2.590084
vt 0.982666 0.988767
vt 4.147662 0.140753
vt -0.365967 0.080265
vt 6.086630 -4.028722
vt 0.269727 -0.505346
vt -1.669241 -0.505346
vt 0.982666 0.988679
vt 4.147662 -4.028722
vt -0.078446 0.367787
vt 4.147662 -6.113460
vt 6.086630 -1.943985
vt 2.208694 -6.113460
vt 0.982753 0.988767
vt 4.147662 -1.943985
vt -0.365967 0.367787
vt 4.147662 -8.198199
vt 6.086630 -1.943985
vt 4.147662 -1.943985
vt 2.208694 -8.198199
vt 0.982753 0.988679
vt -0.365967 0.251666
vt 6.086630 -2.785944
vt 4.147662 -2.785944
vt 0.982718 0.988679
vt 3.282191 0.140754
vt -0.078446 0.251666
vt 6.086630 -1.102025
vt 0.982718 0.988767
vt 4.147662 -1.102025
vt -0.365967 0.199133
vt 6.086630 -3.166840
vt 4.147662 -3.166840
vt 0.982702 0.988679
vt 3.282190 0.140753
vt -0.078446 0.199133
vt 6.086630 -0.721129
vt -0.495631 -2.590084
vt 5.321271 0.140753
vt 5.321271 -4.028722
vt -0.495631 -0.505346
vt 3.382304 -8.198199
vt 5.321271 -1.943985
vt 3.382304 -6.113460
vt 5.321271 -1.943985
vt 5.321271 -2.785944
vt 5.321271 -3.166840
vt 3.282190 0.906111
vt 0.982833 0.989131
vt 5.321271 -0.721129
vt -5.547175 -3.789643
vt 0.982581 0.988689
vt -4.373566 -3.789643
vt -5.547175 -1.625211
vt 0.982581 0.988780
vt -3.608208 -0.402354
vt 0.427594 0.200507
vt -5.547175 -0.382432
vt 0.982581 0.988832
vt -4.373566 -1.625211
vt -4.373566 -0.382432
vt -4.373566 -0.763329
vt -5.547175 -3.869336
vt 0.982581 0.988686
vt -4.373566 -5.954075
vt 0.448918 1.264697
vt 2.208695 -4.028722
vt 0.269727 -2.590084
vt 0.269727 -4.028722
vt 0.982753 0.988767
vt -1.669240 -2.590084
vt 0.736439 1.264697
vt 2.208694 0.140753
vt 2.208694 -1.943984
vt 0.269727 -1.943984
vt 0.982753 0.988854
vt 0.269727 0.140753
vt 0.269728 -6.113460
vt 0.982666 0.988767
vt -1.669240 -4.674820
vt 0.736439 0.977177
vt 2.208695 -8.198198
vt 2.208694 2.225489
vt 0.269727 2.225489
vt 0.269728 -8.198198
vt 0.982666 0.988854
vt 0.736439 1.093297
vt 2.208694 1.383531
vt 0.269727 1.383531
vt 0.982701 0.988854
vt 0.736439 1.145829
vt 2.208694 1.002634
vt 0.982717 0.988767
vt -1.669240 -3.451964
vt 0.269727 1.002634
vt 0.982717 0.988854
vt 1.443337 -4.028722
vt -0.495631 -2.590084
vt 1.443337 0.140753
vt 1.443337 -1.943984
vt 1.443337 -8.198198
vt 1.443337 2.225489
vt 1.443337 -6.113460
vt -0.495631 -4.674820
vt 2.363314 0.906111
vt 0.982815 0.989115
vt -0.495631 -3.832862
vt 1.443337 1.383531
vt 1.443337 1.002634
vt 0.448918 1.563210
vt 4.147662 -4.028722
vt 0.269727 -4.674822
vt 2.208694 -4.028722
vt 0.982753 0.988505
vt -1.669240 -4.674822
vt 0.736440 1.563210
vt 2.208694 -10.282937
vt 4.147662 -1.943985
vt 2.208694 -1.943985
vt 0.982666 0.988505
vt 0.269727 -10.282937
vt 0.448918 1.275688
vt 0.269727 1.579392
vt 0.269727 -6.759563
vt -1.669241 1.579392
vt 0.982753 0.988418
vt -1.669240 -6.759563
vt 0.736440 1.275688
vt 0.269727 -0.505346
vt 2.208694 -8.198198
vt 0.269727 -8.198198
vt -1.669241 -0.505346
vt 0.982666 0.988418
vt 0.736440 1.391809
vt 2.208694 -9.040158
vt 0.269727 -9.040158
vt 0.982666 0.988453
vt 0.982753 0.988453
vt -1.669240 -5.917603
vt 0.736440 1.444341
vt 2.208694 -9.421054
vt 0.269727 -9.421054
vt 0.982666 0.988469
vt 1.443337 -10.282937
vt 3.382304 -1.943985
vt -0.495631 -0.505346
vt 1.443337 -8.198198
vt 1.443337 -9.040158
vt 1.443337 -9.421054
vt 2.672551 0.906111
vt 0.982815 0.989147
vt -0.495631 -5.536705
vt -3.608208 7.033768
vt 0.427594 -0.825062
vt -5.547175 7.033768
vt 0.982581 0.989142
vt -3.608208 9.118506
vt 0.427594 -1.112583
vt -5.547175 9.118506
vt 0.982581 0.989229
vt -4.373566 7.033768
vt -4.373566 9.118506
vt -3.608209 11.282935
vt 0.427594 -1.411095
vt 0.269727 -10.282935
vt -4.373566 11.282935
vt -0.495631 -10.282935
vt 0.448918 -0.526549
vt 2.208695 -6.113460
vt 6.086630 -6.113461
vt 0.269727 -6.113460
vt 0.982753 0.988505
vt 4.147663 -6.113461
vt 0.736440 -0.526549
vt 6.086630 -6.113460
vt 2.208694 -4.028722
vt 0.269727 -4.028722
vt 0.982753 0.988592
vt 4.147663 -6.113460
vt 0.448918 -0.814071
vt 6.086630 -8.198199
vt 0.982666 0.988505
vt 4.147663 -8.198199
vt 0.736440 -0.814071
vt 6.086630 -10.282937
vt 6.086630 -4.028722
vt 4.147663 -4.028722
vt 4.147663 -10.282937
vt 0.982666 0.988592
vt 0.736440 -0.697950
vt 6.086630 -4.870681
vt 4.147663 -4.870681
vt 0.982701 0.988592
vt 0.448918 -0.697950
vt 2.208695 0.140754
vt 6.086630 -7.356240
vt 1.443337 0.140754
vt 3.382304 -10.282937
vt 0.736440 -0.645418
vt 6.086630 -5.251578
vt 4.147663 -5.251578
vt 0.982717 0.988592
vt 3.136408 0.140753
vt 0.448918 -0.645418
vt 6.086630 -6.975342
vt 5.321271 -6.113460
vt 1.443337 -4.028722
vt 5.321271 -10.282937
vt 5.321271 -4.028722
vt 0.982821 0.989115
vt 2.208695 0.906111
vt 5.321271 -7.356240
vt 5.321271 -4.870681
vt 5.321271 -5.251578
vt 0.982821 0.989131
vt 3.136408 0.906111
vt 5.321271 -6.975342
vt -3.608208 4.789642
vt 0.427594 -0.515558
vt -3.608208 3.947685
vt 0.427594 -0.399438
vt -5.547175 3.947685
vt 0.982581 0.989013
vt -5.547175 3.546863
vt 0.982581 0.988996
vt -3.608208 3.566787
vt 0.427594 -0.346905
vt -4.373566 2.704905
vt -4.373566 4.789642
vt -4.373566 3.947685
vt -4.373566 3.566787
vt -4.373566 0.540473
vt -4.373566 2.625211
vt 0.448918 0.977176
vt 2.208695 -6.113460
vt 0.269727 -4.674822
vt 0.448918 1.145829
vt 2.981789 0.140753
vt 0.269727 -3.451964
vt 2.363314 0.140753
vt 0.448918 1.093297
vt 0.269727 -3.832862
vt 0.448918 1.444341
vt 2.672551 0.140753
vt 0.269727 -5.536705
vt 0.448918 1.391809
vt 2.672551 0.140754
vt 0.269727 -5.917603
vt -3.608208 0.540473
vt 0.427594 0.070475
vt -1.669241 6.954073
vt -0.058340 0.964811
vt -3.608208 -8.118505
vt 0.427593 1.264697
vt -5.547175 -8.118505
vt 0.982581 0.988509
vt -5.547175 -6.875727
vt 0.982581 0.988560
vt -4.373566 -8.118505
vt 2.517932 0.906111
vt 0.982821 0.989115
vt -4.373566 -6.875727
vt 0.982821 0.989131
vt -4.373566 -7.256625
vt 2.827170 0.906111
vt -3.608208 -10.282937
vt 0.427593 1.563210
vt -5.547175 -10.282937
vt 0.982581 0.988418
vt -4.373566 -10.282937
vt -4.373566 -8.198198
vt -4.373566 -9.040158
vt 2.827169 0.906111
vt 0.982821 0.989131
vt -4.373566 -9.421054
vt 2.517932 0.906111
vt 0.982821 0.989147
vt -3.608208 4.869336
vt 0.427594 -0.526549
vt -5.547175 4.869336
vt 0.982581 0.989051
vt -3.608208 6.112116
vt 2.363314 0.140754
vt 0.427594 -0.697950
vt -5.547175 6.112116
vt 0.982581 0.989103
vt -5.547175 5.731218
vt 0.982581 0.989088
vt -3.608208 5.731218
vt 2.981789 0.140753
vt 0.427594 -0.645418
vt -4.373566 4.869336
vt 0.982828 0.989115
vt -4.373566 6.112116
vt 2.363314 0.906111
vt 0.982828 0.989131
vt -4.373566 5.731218
vt 2.981789 0.906111
vt 2.517932 0.140753
vt -3.608208 -6.875727
vt 0.427593 1.093297
vt -3.608208 -9.421054
vt 2.517932 0.140753
vt 0.427593 1.444341
vt -3.608208 -3.789643
vt 0.982433 0.989049
vt -3.608208 -1.704905
vt 0.982433 0.988961
vt -3.608208 -2.546863
vt 0.982433 0.988997
vt -3.608208 -2.927761
vt 0.982433 0.989013
vt -1.669241 -2.927761
vt 3.427974 0.140753
vt -0.058340 -0.398064
vt -2.434599 -1.704905
vt 0.982821 0.989147
vt -2.434599 -2.546863
vt 3.719541 0.906111
vt 0.982821 0.989131
vt -2.434599 -2.927761
vt 3.427974 0.906111
vt -1.669241 0.540473
vt -0.058340 0.080265
vt -3.608208 0.540473
vt 0.982433 0.988868
vt -1.669241 2.625211
vt -0.058340 0.367786
vt -1.669241 1.783251
vt 3.427974 0.140754
vt -0.058340 0.251666
vt -3.608208 1.783251
vt 0.982433 0.988816
vt -3.608208 1.402355
vt 0.982433 0.988832
vt -1.669241 1.402355
vt 3.136407 0.140753
vt -0.058340 0.199133
vt -2.434599 0.540473
vt -2.434599 2.625211
vt -2.434599 1.783251
vt 3.427974 0.906111
vt 0.982827 0.989147
vt -2.434599 1.402355
vt 3.136407 0.906111
vt 0.982827 0.989131
vt -3.608208 9.198202
vt 0.427594 -1.123574
vt -4.373566 9.198202
vt -3.608208 6.954073
vt 0.427594 -0.814071
vt -4.373566 6.954073
vt -4.373566 -3.869336
vt -4.373566 -1.704905
vt -4.373566 0.459528
vt -5.547175 -6.033769
vt 0.982581 0.988596
vt -4.373566 -6.033769
vt -3.608208 -8.198198
vt 0.427593 1.275688
vt -5.547175 -8.198198
vt 0.982581 0.988505
vt -1.669241 9.118505
vt -0.058340 1.263324
vt -3.608208 9.118505
vt 0.982433 0.988509
vt -2.434599 9.118505
vt -3.608208 6.954073
vt 0.982433 0.988599
vt -1.669241 4.789642
vt -0.058340 0.666299
vt -3.608208 4.789642
vt 0.982433 0.988690
vt -2.434599 4.789642
vt -3.608208 2.625211
vt 0.982433 0.988780
vt -2.434599 -3.789643
vt -2.434598 -5.954073
vt -3.608208 -8.118505
vt 0.982433 0.989230
vt -2.434598 -8.118505
vt -1.669240 -6.033769
vt -0.058339 -0.826436
vt -1.669240 -8.118507
vt -0.058339 -1.113957
vt -1.669240 -10.282937
vt -0.058339 -1.412469
vt 0.269727 -6.759563
vt -1.669240 -8.198200
vt -0.058339 -1.124948
vt -3.608208 2.625212
vt 0.427594 -0.217046
vt -3.608208 2.704905
vt 0.427594 -0.228037
vt -3.608208 -6.033766
vt 0.427594 0.977176
vt -3.608208 -3.869335
vt 0.427594 0.678663
vt -3.608208 -1.704903
vt 0.427594 0.380151
vt -3.608208 -5.954073
vt 0.427594 0.966185
vt -3.608208 -3.789642
vt 0.427594 0.667672
vt -3.608208 -7.256625
vt 2.827170 0.140753
vt 0.427593 1.145829
vt -3.608208 -9.040158
vt 2.827169 0.140754
vt 0.427593 1.391809
vt -3.608208 0.459528
vt 0.427594 0.081639
vt -3.608208 -1.625209
vt 0.427594 0.369160
vt -3.608208 -0.763329
vt 0.427594 0.250292
vt -1.669241 -3.789643
vt -0.058339 -0.516932
vt -1.669241 -2.546863
vt 3.719541 0.140754
vt -0.058340 -0.345531
vt -1.669241 -3.869337
vt -0.058340 -0.527923
vt -1.669240 -5.092193
vt -0.058340 -0.696576
vt -1.669240 -5.954073
vt -0.058340 -0.815444
vt -1.669241 -1.704905
vt -0.058339 -0.229411
vt -5.547175 2.625211
vt 0.982581 0.988958
vt -5.547175 0.540473
vt 0.982581 0.988871
vt -5.547175 6.954073
vt 0.982581 0.989139
vt -5.547175 11.282935
vt 0.982581 0.989320
vt -1.669240 -10.282937
vt -5.547175 9.198199
vt 0.982581 0.989232
vt -5.547175 -7.256625
vt 0.982581 0.988545
vt -5.547175 -9.421054
vt 0.982581 0.988454
vt -5.547175 -9.040158
vt 0.982581 0.988470
vt -5.547175 -1.704905
vt 0.982581 0.988777
vt -5.547175 4.789642
vt 0.982581 0.989048
vt -5.547175 2.704905
vt 0.982581 0.988961
vt -5.547175 0.459526
vt 0.982581 0.988867
vt -5.547175 -0.763329
vt 0.982581 0.988816
vt -5.547175 -5.954073
vt 0.982581 0.988599
vt 0.982717 0.988505
vt 4.147663 -6.975342
vt 1.443337 -6.113460
vt 5.321271 -6.113461
vt 0.982701 0.988505
vt 4.147663 -7.356240
vt 5.321271 -8.198199
vt 0.982702 0.988767
vt 4.147662 -0.721129
vt 3.282191 0.906111
vt 0.982833 0.989147
vt 5.321271 -1.102025
vt 0.982753 0.988469
vt -1.669240 -5.536705
vt 2.672551 0.906111
vt 0.982815 0.989131
vt -0.495631 -5.917603
vt -0.495631 1.579392
vt -0.495631 -6.759563
vt 3.382304 -4.028722
vt -0.495631 -4.674822
vt 0.982815 0.989131
vt 2.981789 0.906111
vt -0.495631 -3.451964
vt 0.982701 0.988767
vt -1.669240 -3.832862
s 0
usemtl Material.002
f 17/43/1 18/46/1 4/10/1 2/4/1
f 21/52/2 19/48/2 8/22/2 10/27/2
f 19/47/3 160/336/3 6/16/3 8/23/3
f 15/39/5 14/36/5 2/5/5 4/11/5
f 8/24/5 6/17/5 12/32/5 10/28/5
f 22/53/2 21/52/2 10/27/2 15/38/2
f 18/45/2 22/53/2 15/38/2 4/12/2
f 10/28/5 12/32/5 14/36/5 15/39/5
f 3/8/2 13/35/2 22/53/2 18/45/2
f 13/35/2 9/26/2 21/52/2 22/53/2
f 7/20/3 5/14/3 160/336/3 19/47/3
f 9/26/2 7/21/2 19/48/2 21/52/2
f 1/2/1 3/9/1 18/46/1 17/43/1
f 27/63/2 25/59/2 28/65/2 29/66/2
f 26/61/2 29/66/2 28/65/2 24/57/2
f 37/79/2 34/75/2 30/67/2 250/517/2
f 35/77/2 31/69/2 33/73/2 36/78/2
f 36/78/2 33/73/2 34/75/2 37/79/2
f 271/561/2 35/77/2 36/78/2 32/71/2
f 272/563/2 37/79/2 250/517/2 273/565/2
f 38/80/2 251/518/2 252/520/2 39/82/2
f 253/521/2 39/82/2 252/520/2 254/523/2
f 41/86/2 40/83/2 42/88/2 43/90/2
f 256/528/2 43/90/2 42/88/2 255/525/2
f 52/105/2 48/99/2 45/93/2 50/103/2
f 243/506/2 242/504/2 47/97/2 51/104/2
f 51/104/2 47/97/2 48/99/2 52/105/2
f 241/502/2 243/506/2 51/104/2 46/95/2
f 49/101/2 52/105/2 50/103/2 44/91/2
f 64/125/2 59/118/2 54/108/2 61/122/2
f 62/123/2 56/112/2 58/116/2 63/124/2
f 63/124/2 58/116/2 59/118/2 64/125/2
f 55/110/2 62/123/2 63/124/2 57/114/2
f 60/120/2 64/125/2 61/122/2 53/106/2
f 244/507/2 66/128/2 67/130/2 68/131/2
f 187/390/2 68/131/2 67/130/2 65/126/2
f 246/511/2 70/134/2 71/136/2 247/513/2
f 245/509/2 247/513/2 71/136/2 69/132/2
f 87/177/1 88/180/1 75/146/1 73/140/1
f 91/185/2 89/182/2 79/158/2 81/163/2
f 89/181/3 90/183/3 77/152/3 79/159/3
f 85/173/5 293/605/5 73/141/5 75/147/5
f 79/160/5 77/153/5 83/168/5 81/164/5
f 92/186/2 91/185/2 81/163/2 85/172/2
f 88/179/2 92/186/2 85/172/2 75/148/2
f 81/164/5 83/168/5 293/605/5 85/173/5
f 23/54/5 20/49/5 217/456/5 218/459/5
f 74/144/2 84/171/2 92/186/2 88/179/2
f 84/171/2 80/162/2 91/185/2 92/186/2
f 78/156/3 76/150/3 90/183/3 89/181/3
f 80/162/2 78/157/2 89/182/2 91/185/2
f 72/138/1 74/145/1 88/180/1 87/177/1
f 283/586/6 94/190/6 95/192/6 235/493/6
f 261/538/6 235/493/6 95/192/6 263/542/6
f 101/201/6 287/594/6 96/193/6 99/199/6
f 236/494/6 286/592/6 98/197/6 100/200/6
f 100/200/6 98/197/6 287/594/6 101/201/6
f 266/550/6 236/494/6 100/200/6 97/195/6
f 268/554/6 101/201/6 99/199/6 267/552/6
f 102/202/6 288/596/6 103/204/6 234/492/6
f 260/536/6 234/492/6 103/204/6 262/540/6
f 116/236/3 117/239/3 107/214/3 105/208/3
f 121/247/6 118/241/6 110/223/6 112/228/6
f 118/240/1 119/242/1 108/217/1 110/224/1
f 120/244/1 183/379/1 209/438/1 192/399/1
f 115/235/5 114/232/5 105/209/5 107/215/5
f 110/225/5 108/218/5 300/622/5 112/229/5
f 122/248/6 121/247/6 112/228/6 115/234/6
f 117/238/6 122/248/6 115/234/6 107/216/6
f 112/229/5 300/622/5 114/232/5 115/235/5
f 106/212/6 113/231/6 122/248/6 117/238/6
f 113/231/6 111/227/6 121/247/6 122/248/6
f 109/221/1 181/374/1 119/242/1 118/240/1
f 111/227/6 109/222/6 118/241/6 121/247/6
f 104/206/3 106/213/3 117/239/3 116/236/3
f 298/617/3 136/284/3 126/258/3 124/252/3
f 138/287/6 137/286/6 130/270/6 132/275/6
f 137/285/1 297/615/1 128/264/1 130/271/1
f 135/282/5 295/610/5 124/253/5 126/259/5
f 130/272/5 128/265/5 133/277/5 132/276/5
f 139/288/6 138/287/6 132/275/6 135/281/6
f 136/283/6 139/288/6 135/281/6 126/260/6
f 132/276/5 133/277/5 295/610/5 135/282/5
f 125/256/6 134/280/6 139/288/6 136/283/6
f 134/280/6 131/274/6 138/287/6 139/288/6
f 129/268/1 127/262/1 297/615/1 137/285/1
f 131/274/6 129/269/6 137/286/6 138/287/6
f 123/250/3 125/257/3 136/284/3 298/617/3
f 144/298/6 142/294/6 145/300/6 146/301/6
f 143/296/6 146/301/6 145/300/6 141/292/6
f 278/575/6 279/578/6 231/488/6 148/305/6
f 147/302/6 148/305/6 231/488/6 230/486/6
f 290/600/3 164/346/3 152/316/3 150/310/3
f 167/352/6 165/348/6 156/326/6 158/331/6
f 165/347/1 292/604/1 154/322/1 156/327/1
f 169/354/5 166/349/5 207/432/5 208/435/5
f 162/341/5 289/598/5 150/311/5 152/317/5
f 156/328/5 154/321/5 291/602/5 158/332/5
f 168/353/6 167/352/6 158/331/6 162/340/6
f 164/345/6 168/353/6 162/340/6 152/318/6
f 158/332/5 291/602/5 289/598/5 162/341/5
f 151/314/6 161/339/6 168/353/6 164/345/6
f 161/339/6 157/330/6 167/352/6 168/353/6
f 299/619/5 120/245/5 192/400/5 193/402/5
f 155/324/1 153/320/1 292/604/1 165/347/1
f 157/330/6 155/325/6 165/348/6 167/352/6
f 149/308/3 151/315/3 164/346/3 290/600/3
f 178/370/6 173/363/6 285/590/6 175/367/6
f 176/368/6 284/588/6 172/361/6 177/369/6
f 177/369/6 172/361/6 173/363/6 178/370/6
f 170/357/6 176/368/6 177/369/6 171/359/6
f 174/365/6 178/370/6 175/367/6 258/532/6
f 275/569/6 276/571/6 179/371/6 180/372/6
f 257/530/6 180/372/6 179/371/6 186/388/6
f 268/554/6 97/195/6 100/200/6 101/201/6
f 174/365/6 171/359/6 177/369/6 178/370/6
f 272/563/2 32/71/2 36/78/2 37/79/2
f 49/101/2 46/95/2 51/104/2 52/105/2
f 60/120/2 57/114/2 63/124/2 64/125/2
f 193/403/6 280/580/6 189/394/6 191/398/6
f 238/497/6 237/495/6 190/396/6 192/401/6
f 192/401/6 190/396/6 280/580/6 193/403/6
f 259/534/6 238/497/6 192/401/6 209/439/6
f 264/544/6 193/403/6 191/398/6 188/392/6
f 199/414/6 281/582/6 195/407/6 196/409/6
f 197/410/6 240/500/6 282/584/6 198/411/6
f 198/411/6 282/584/6 281/582/6 199/414/6
f 239/498/6 197/410/6 198/411/6 265/547/6
f 210/441/6 199/414/6 196/409/6 194/405/6
f 208/436/6 204/426/6 201/419/6 206/431/6
f 233/491/6 277/573/6 203/424/6 207/433/6
f 207/433/6 203/424/6 204/426/6 208/436/6
f 232/489/6 233/491/6 207/433/6 202/421/6
f 205/428/6 208/436/6 206/431/6 200/417/6
f 163/342/3 169/355/3 208/437/3 205/429/3
f 182/377/3 299/620/3 193/404/3 264/545/3
f 296/612/1 185/386/1 265/548/1 198/412/1
f 184/383/3 140/289/3 199/415/3 210/442/3
f 166/350/1 159/334/1 202/422/1 207/434/1
f 140/290/5 296/613/5 198/413/5 199/416/5
f 218/460/2 214/450/2 211/444/2 249/516/2
f 216/455/2 212/446/2 213/448/2 217/457/2
f 217/457/2 213/448/2 214/450/2 218/460/2
f 274/567/2 216/455/2 217/457/2 270/558/2
f 215/452/2 218/460/2 249/516/2 269/556/2
f 229/483/2 224/473/2 220/464/2 226/478/2
f 227/479/2 248/514/2 223/471/2 228/480/2
f 228/480/2 223/471/2 224/473/2 229/483/2
f 221/466/2 227/479/2 228/480/2 222/468/2
f 225/475/2 229/483/2 226/478/2 219/462/2
f 294/607/3 82/165/3 222/469/3 228/481/3
f 86/174/1 93/187/1 229/484/1 225/476/1
f 20/50/3 11/30/3 270/559/3 217/458/3
f 93/188/5 294/608/5 228/482/5 229/485/5
f 16/41/1 23/55/1 218/461/1 215/453/1
f 144/298/6 146/301/6 231/488/6 279/578/6
f 146/301/6 143/296/6 230/486/6 231/488/6
f 141/292/6 145/300/6 233/491/6 232/489/6
f 145/300/6 142/294/6 277/573/6 233/491/6
f 206/431/6 176/368/6 170/357/6 200/417/6
f 201/419/6 284/588/6 176/368/6 206/431/6
f 258/532/6 175/367/6 180/372/6 257/530/6
f 175/367/6 285/590/6 275/569/6 180/372/6
f 186/388/6 179/371/6 236/494/6 266/550/6
f 263/542/6 95/192/6 234/492/6 260/536/6
f 95/192/6 94/190/6 102/202/6 234/492/6
f 99/199/6 96/193/6 283/586/6 235/493/6
f 179/371/6 276/571/6 286/592/6 236/494/6
f 267/552/6 99/199/6 235/493/6 261/538/6
f 103/204/6 288/596/6 237/495/6 238/497/6
f 191/398/6 197/410/6 239/498/6 188/392/6
f 189/394/6 240/500/6 197/410/6 191/398/6
f 262/540/6 103/204/6 238/497/6 259/534/6
f 53/106/2 61/122/2 243/506/2 241/502/2
f 61/122/2 54/108/2 242/504/2 243/506/2
f 50/103/2 45/93/2 244/507/2 68/131/2
f 65/126/2 67/130/2 247/513/2 245/509/2
f 67/130/2 66/128/2 246/511/2 247/513/2
f 44/91/2 50/103/2 68/131/2 187/390/2
f 69/132/2 71/136/2 227/479/2 221/466/2
f 71/136/2 70/134/2 248/514/2 227/479/2
f 38/80/2 39/82/2 250/517/2 30/67/2
f 39/82/2 253/521/2 273/565/2 250/517/2
f 41/86/2 43/90/2 252/520/2 251/518/2
f 43/90/2 256/528/2 254/523/2 252/520/2
f 35/77/2 271/561/2 269/556/2 249/516/2
f 31/69/2 35/77/2 249/516/2 211/444/2
f 27/63/2 29/66/2 226/478/2 220/464/2
f 29/66/2 26/61/2 219/462/2 226/478/2
f 216/455/2 28/65/2 25/59/2 212/446/2
f 274/567/2 24/57/2 28/65/2 216/455/2
f 41/87/5 251/519/5 144/299/5 279/579/5
f 214/451/5 213/449/5 173/364/5 172/362/5
f 38/81/5 30/68/5 277/574/5 142/295/5
f 25/60/5 27/64/5 276/572/5 275/570/5
f 31/70/5 211/445/5 284/589/5 201/420/5
f 242/505/5 54/109/5 240/501/5 189/395/5
f 251/519/5 38/81/5 142/295/5 144/299/5
f 40/84/5 41/87/5 279/579/5 278/576/5
f 27/64/5 220/465/5 286/593/5 276/572/5
f 244/508/5 45/94/5 237/496/5 288/597/5
f 30/68/5 34/76/5 203/425/5 277/574/5
f 47/98/5 242/505/5 189/395/5 280/581/5
f 33/74/5 31/70/5 201/420/5 204/427/5
f 45/94/5 48/100/5 190/397/5 237/496/5
f 25/60/5 275/570/5 285/591/5 212/447/5
f 246/512/5 66/129/5 102/203/5 94/191/5
f 54/109/5 59/119/5 282/585/5 240/501/5
f 66/129/5 244/508/5 288/597/5 102/203/5
f 248/515/5 70/135/5 283/587/5 96/194/5
f 34/76/5 33/74/5 204/427/5 203/425/5
f 224/474/5 98/198/5 286/593/5 220/465/5
f 58/117/5 56/113/5 195/408/5 281/583/5
f 70/135/5 246/512/5 94/191/5 283/587/5
f 48/100/5 47/98/5 280/581/5 190/397/5
f 214/451/5 172/362/5 284/589/5 211/445/5
f 248/515/5 96/194/5 287/595/5 223/472/5
f 213/449/5 212/447/5 285/591/5 173/364/5
f 59/119/5 58/117/5 281/583/5 282/585/5
f 223/472/5 287/595/5 98/198/5 224/474/5
f 42/89/7 40/85/7 278/577/7 148/306/7 147/304/7 255/527/7
f 153/320/2 159/335/2 166/351/2 292/604/2
f 166/351/2 291/603/2 154/322/2 292/604/2
f 169/356/2 289/599/2 291/603/2 166/351/2
f 149/309/2 290/601/2 169/356/2 163/344/2
f 289/599/2 169/356/2 290/601/2 150/312/2
f 296/614/2 297/616/2 127/263/2 185/387/2
f 128/266/2 297/616/2 296/614/2 133/278/2
f 133/278/2 296/614/2 140/291/2 295/611/2
f 295/611/2 140/291/2 298/618/2 124/254/2
f 123/251/2 298/618/2 140/291/2 184/384/2
f 104/207/2 116/237/2 299/621/2 182/378/2
f 105/210/2 114/233/2 299/621/2 116/237/2
f 300/623/2 120/246/2 299/621/2 114/233/2
f 108/219/2 119/243/2 120/246/2 300/623/2
f 181/375/2 183/381/2 120/246/2 119/243/2
f 2/6/6 14/37/6 23/56/6 17/44/6
f 1/3/6 17/44/6 23/56/6 16/42/6
f 14/37/6 12/33/6 20/51/6 23/56/6
f 6/18/6 160/337/6 20/51/6 12/33/6
f 5/15/6 11/31/6 20/51/6 160/337/6
f 73/142/6 293/606/6 93/189/6 87/178/6
f 72/139/6 87/178/6 93/189/6 86/176/6
f 83/169/6 294/609/6 93/189/6 293/606/6
f 77/154/6 90/184/6 294/609/6 83/169/6
f 90/184/6 76/151/6 82/167/6 294/609/6
usemtl Material
f 9/25/4 11/29/4 5/13/4 7/19/4
f 13/34/4 16/40/4 11/29/4 9/25/4
f 3/7/4 1/1/4 16/40/4 13/34/4
f 16/40/4 215/454/4 270/560/4 11/29/4
f 80/161/4 82/166/4 76/149/4 78/155/4
f 84/170/4 86/175/4 82/166/4 80/161/4
f 74/143/4 72/137/4 86/175/4 84/170/4
f 111/226/4 183/380/4 181/373/4 109/220/4
f 113/230/4 182/376/4 183/380/4 111/226/4
f 106/211/4 104/205/4 182/376/4 113/230/4
f 182/376/4 264/546/4 209/440/4 183/380/4
f 131/273/4 185/385/4 127/261/4 129/267/4
f 134/279/4 184/382/4 185/385/4 131/273/4
f 125/255/4 123/249/4 184/382/4 134/279/4
f 157/329/4 159/333/4 153/319/4 155/323/4
f 161/338/4 163/343/4 159/333/4 157/329/4
f 151/313/4 149/307/4 163/343/4 161/338/4
f 184/382/4 210/443/4 265/549/4 185/385/4
f 163/343/4 205/430/4 202/423/4 159/333/4
f 86/175/4 225/477/4 222/470/4 82/166/4
f 230/487/4 143/297/4 254/524/4 256/529/4
f 147/303/4 230/487/4 256/529/4 255/526/4
f 143/297/4 141/293/4 253/522/4 254/524/4
f 141/293/4 232/490/4 273/566/4 253/522/4
f 274/568/4 258/533/4 257/531/4 24/58/4
f 219/463/4 26/62/4 186/389/4 266/551/4
f 26/62/4 24/58/4 257/531/4 186/389/4
f 69/133/4 221/467/4 267/553/4 261/539/4
f 44/92/4 187/391/4 262/541/4 259/535/4
f 187/391/4 65/127/4 260/537/4 262/541/4
f 65/127/4 245/510/4 263/543/4 260/537/4
f 245/510/4 69/133/4 261/539/4 263/543/4
f 46/96/4 49/102/4 209/440/4 264/546/4
f 60/121/4 53/107/4 239/499/4 265/549/4
f 49/102/4 44/92/4 259/535/4 209/440/4
f 57/115/4 60/121/4 265/549/4 210/443/4
f 55/111/4 57/115/4 210/443/4 194/406/4
f 53/107/4 241/503/4 188/393/4 239/499/4
f 241/503/4 46/96/4 264/546/4 188/393/4
f 225/477/4 219/463/4 266/551/4 97/196/4
f 225/477/4 97/196/4 268/555/4 222/470/4
f 221/467/4 222/470/4 268/555/4 267/553/4
f 232/490/4 202/423/4 272/564/4 273/566/4
f 205/430/4 200/418/4 271/562/4 32/72/4
f 205/430/4 32/72/4 272/564/4 202/423/4
f 171/360/4 174/366/4 270/560/4 215/454/4
f 170/358/4 171/360/4 215/454/4 269/557/4
f 170/358/4 269/557/4 271/562/4 200/418/4
f 174/366/4 258/533/4 274/568/4 270/560/4
