# Blender 3.5.0
# www.blender.org
mtllib Mazmorra-p2.mtl.mtl
o Cube.002
v 65.800575 49.732288 117.191956
v 48.070957 49.732288 117.226776
v 65.769516 49.732288 100.061935
v 48.039898 49.732288 100.096756
v 65.800575 67.134239 117.191956
v 48.070957 67.134239 117.226776
v 65.769516 67.134239 100.061935
v 48.039898 67.134239 100.096756
v 65.833076 49.732288 133.740860
v 48.103458 49.732288 133.775681
v 65.833076 67.134239 133.740860
v 48.103458 67.134239 133.775681
v 84.567383 49.732288 117.191956
v 144.962357 49.732288 117.073341
v 84.567383 67.134239 117.191956
v 84.599884 49.732288 133.740860
v 84.599884 67.134239 133.740860
v 144.962357 67.134239 117.073341
v 144.994858 49.732288 133.622253
v 144.994858 67.134239 133.622253
v 84.567383 40.519493 117.191956
v 144.962357 40.519493 117.073341
v 84.599884 40.519493 133.740860
v 144.994858 40.519493 133.622253
v 176.354080 49.732288 117.038162
v 176.354080 67.134239 117.038162
v 176.386581 49.732288 133.587067
v 176.386581 67.134239 133.587067
v 220.711975 49.732288 116.951042
v 220.711975 67.134239 116.951042
v 220.744476 49.732288 133.499954
v 220.744476 67.134239 133.499954
v 176.354080 21.977604 117.038162
v 176.386581 21.977604 133.587067
v 220.711975 21.977604 116.951042
v 220.744476 21.977604 133.499954
v 252.274323 49.732288 116.911842
v 252.274323 67.134239 116.911842
v 252.306824 49.732288 133.460754
v 252.306824 67.134239 133.460754
v 299.703125 49.732288 116.818695
v 299.703125 67.134239 116.818695
v 299.735626 49.732288 133.367599
v 299.735626 67.134239 133.367599
v 252.274323 21.977604 116.911842
v 252.306824 21.977604 133.460754
v 299.703125 21.977604 116.818695
v 299.735626 21.977604 133.367599
v 320.005402 67.134239 116.778824
v 320.037903 67.134239 133.327728
v 35.003712 4.814509 2.964299
v 35.003712 -0.022985 2.964299
v 35.028561 -0.022985 11.754696
v 35.028561 4.814509 11.754696
v 65.682434 4.814509 55.720921
v 65.682434 14.772343 55.720921
v 65.712799 14.772343 71.188721
v 65.712799 9.243538 71.188721
v 47.983192 4.814509 71.223541
v 47.983192 9.243538 71.223541
v 65.712799 4.814509 71.188721
v 47.983192 14.772343 71.223541
v 48.003647 14.772343 81.638519
v 65.733261 4.814509 81.603699
v 48.003647 9.243538 81.638519
v 48.003647 4.814509 81.638519
v 65.733261 9.243538 81.603699
v 65.733261 14.772343 81.603699
v 65.682426 9.243538 55.720921
v 47.952816 4.814509 55.755741
v 47.952816 9.243538 55.755741
v 47.952816 14.772343 55.755741
v 47.932362 14.772343 45.340759
v 65.661972 4.814509 45.305939
v 47.932362 9.243538 45.340759
v 47.932362 4.814509 45.340759
v 65.661972 9.243538 45.305939
v 65.661972 14.772343 45.305939
v 65.631599 14.772343 29.838144
v 65.631599 9.243538 29.838144
v 47.901985 4.814509 29.872961
v 47.901985 9.243538 29.872961
v 65.631599 4.814509 29.838144
v 47.901985 14.772343 29.872961
v 47.892467 14.772343 25.026386
v 65.622086 4.814509 24.991570
v 47.892467 9.243538 25.026386
v 47.892467 4.814509 25.026386
v 65.622086 9.243538 24.991570
v 65.622086 14.772343 24.991570
v 41.443634 14.772343 11.754696
v 44.626324 4.814509 2.964299
v 65.588326 14.772343 11.719879
v 44.626324 9.243538 2.964299
v 44.651173 9.243538 11.754696
v 65.588326 9.243538 11.719879
v 44.626324 -0.022985 2.964299
v 65.563477 14.772343 2.929482
v 44.651173 -0.022985 11.754696
v 65.563477 4.814509 2.929482
v 41.418785 14.772343 2.964299
v 65.563477 9.243538 2.929482
v 41.443634 -0.022985 11.754696
v 47.858711 4.814509 11.754696
v 41.443634 4.814509 11.754696
v 44.651173 4.814509 11.754696
v 41.418785 4.814509 2.964299
v 41.418785 -0.022985 2.964299
v 41.418785 9.243538 2.964299
v 41.443634 9.243538 11.754696
v 47.833862 9.243538 2.964299
v 47.858711 9.243538 11.754696
v 35.028561 9.243538 11.754696
v 35.003712 9.243538 2.964299
v 44.651173 14.772343 11.754696
v 44.626324 14.772343 2.964299
v 65.588326 4.814509 11.719879
v 47.858711 14.772343 11.754696
v 47.833862 4.814509 2.964299
v 47.833862 14.772343 2.964299
v 47.901985 -8.252684 29.872961
v 65.631599 -8.252684 29.838144
v 65.622086 -8.252684 24.991570
v 47.892467 -8.252684 25.026386
v 65.682434 -8.252685 55.720921
v 65.661972 -8.252685 45.305939
v 47.952816 -8.252685 55.755741
v 65.712799 -8.252685 71.188721
v 47.983192 -8.252685 71.223541
v 65.733261 -8.252685 81.603699
v 48.003647 -8.252685 81.638519
v 47.932362 -8.252685 45.340759
v 48.039898 4.814509 100.096756
v 48.039898 9.243538 100.096756
v 48.039898 14.772343 100.096756
v 65.769516 14.772343 100.061935
v 65.769516 9.243538 100.061935
v 65.769516 4.814509 100.061935
v 48.070957 4.814509 117.226776
v 48.070957 9.243538 117.226776
v 48.070957 14.772343 117.226776
v 65.800575 14.772343 117.191956
v 65.800575 9.243538 117.191956
v 65.800575 4.814509 117.191956
v 320.005402 67.134239 86.577148
v 320.005402 49.732288 86.577148
v 320.037903 67.134239 164.393173
v 320.037903 49.732288 164.393173
v 347.574310 67.134239 164.393173
v 320.005402 49.732288 116.778824
v 320.037903 49.732288 133.327728
v 347.541809 49.732288 86.577148
v 347.541809 67.134239 86.577148
v 347.574310 49.732288 164.393173
v 347.574310 49.732288 133.327728
v 347.541809 49.732288 116.778824
v 496.139587 67.134239 164.308258
v 496.107056 49.732288 86.492226
v 496.107056 67.134239 86.492226
v 496.139587 49.732288 164.308258
v 320.037903 58.433266 133.327728
v 496.139587 49.732288 133.242813
v 320.005402 58.433266 86.577148
v 496.107056 49.732288 116.693901
v 347.541809 23.842197 86.577148
v 347.574310 23.842197 164.393173
v 347.574310 23.842197 133.327728
v 347.541809 23.842197 116.778824
v 496.107056 23.842197 86.492226
v 496.139587 23.842197 164.308258
v 496.139587 23.842197 133.242813
v 496.107056 23.842197 116.693901
v 479.924316 67.134239 164.318878
v 463.709076 67.134239 164.329498
v 428.650452 67.134239 164.340118
v 412.435211 67.134239 164.350723
v 380.004761 67.134239 164.371948
v 363.789551 67.134239 164.382568
v 363.757050 49.732288 86.566536
v 379.972290 49.732288 86.555923
v 412.402771 49.732288 86.534691
v 428.617981 49.732288 86.524078
v 463.676605 49.732288 86.513458
v 479.891846 49.732288 86.502838
v 479.891785 67.134239 86.502838
v 463.676575 67.134239 86.513451
v 428.617950 67.134239 86.524063
v 412.402710 67.134239 86.534683
v 379.972260 67.134239 86.555916
v 363.757019 67.134239 86.566528
v 479.924316 49.732288 164.318878
v 463.709076 49.732288 164.329498
v 428.650452 49.732288 164.340118
v 412.435211 49.732288 164.350723
v 380.004761 49.732288 164.371948
v 363.789551 49.732288 164.382568
v 363.757050 23.842197 86.566536
v 379.972290 23.842197 86.555923
v 412.402771 23.842197 86.534691
v 428.617981 23.842197 86.524078
v 463.676605 23.842197 86.513458
v 479.891846 23.842197 86.502838
v 479.924316 23.842197 164.318878
v 463.709076 23.842197 164.329498
v 428.650452 23.842197 164.340118
v 412.435211 23.842197 164.350723
v 380.004761 23.842197 164.371948
v 363.789551 23.842197 164.382568
v 363.757050 23.842197 116.768211
v 379.972290 23.842197 116.757599
v 412.402771 23.842197 116.736366
v 428.617981 23.842197 116.725754
v 460.800690 23.842197 119.148193
v 482.767731 23.842197 119.133797
v 363.789551 23.842197 133.317108
v 380.004791 23.842197 133.306488
v 409.559357 23.842197 130.401337
v 431.526398 23.842197 130.386993
v 463.709106 23.842197 133.264038
v 479.924316 23.842197 133.253418
v 320.005402 67.134239 103.071106
v 320.037903 49.732288 149.598679
v 320.037903 67.134239 149.598679
v 320.005402 49.732288 103.071106
v 347.574310 49.732288 149.598679
v 347.541809 49.732288 103.071106
v 496.107056 67.134239 102.986183
v 496.139587 49.732288 149.513763
v 496.107056 49.732288 102.986183
v 496.139587 67.134239 149.513763
v 347.574310 23.842197 149.598679
v 347.541809 23.842197 103.071106
v 496.139587 23.842197 149.513763
v 496.107056 23.842197 102.986183
v 363.789551 23.842197 149.588074
v 380.004761 23.842197 149.577454
v 409.559265 23.842197 152.443863
v 431.526398 23.842197 152.429535
v 463.709106 23.842197 149.535004
v 479.924316 23.842197 149.524384
v 363.757050 23.842197 103.060493
v 379.972290 23.842197 103.049881
v 412.402771 23.842197 103.028648
v 428.617981 23.842197 103.018036
v 460.800690 23.842197 100.578125
v 482.767731 23.842197 100.563751
v 363.757050 49.732288 116.768211
v 379.972290 49.732288 116.757599
v 363.789551 49.732288 133.317108
v 380.004791 49.732288 133.306488
v 363.789551 49.732288 149.588074
v 380.004761 49.732288 149.577454
v 363.757050 49.732288 103.060493
v 379.972290 49.732288 103.049881
v 409.559357 44.966148 130.401337
v 431.526398 44.966148 130.386993
v 409.559265 44.966148 152.443863
v 431.526398 44.966148 152.429535
v 460.800690 41.292732 119.148193
v 482.767731 41.292732 119.133797
v 460.800690 41.292732 100.578125
v 482.767731 41.292732 100.563751
v 332.440948 67.134239 164.393173
v 332.408417 49.732288 86.577148
v 332.408417 67.134239 86.577148
v 332.440948 49.732288 133.327728
v 332.408417 49.732288 116.778824
v 332.440948 49.732288 164.393173
v 332.440948 67.134239 133.327728
v 332.408417 67.134239 116.778824
v 332.408417 49.732288 103.071106
v 332.440948 49.732288 149.598679
v 332.408417 67.134239 103.071106
v 332.440948 67.134239 149.598679
v 347.574310 81.332153 164.393173
v 347.541809 81.332153 86.577148
v 347.574310 81.332153 133.327728
v 347.541809 81.332153 116.778824
v 496.139587 81.332153 164.308258
v 496.107056 81.332153 86.492226
v 496.139587 81.332153 133.242813
v 496.107056 81.332153 116.693901
v 479.924316 81.332153 164.318878
v 463.709076 81.332153 164.329498
v 428.650452 81.332153 164.340118
v 412.435211 81.332153 164.350723
v 380.004761 81.332153 164.371948
v 363.789551 81.332153 164.382568
v 363.789551 81.332153 133.317108
v 380.004791 81.332153 133.306488
v 409.559387 81.332153 130.401367
v 431.526428 81.332153 130.386978
v 463.709106 81.332153 133.264038
v 479.924316 81.332153 133.253418
v 479.891785 81.332153 86.502838
v 463.676575 81.332153 86.513451
v 428.617950 81.332153 86.524063
v 412.402710 81.332153 86.534683
v 379.972260 81.332153 86.555916
v 363.757019 81.332153 86.566528
v 482.767700 81.332153 119.133804
v 460.800659 81.332153 119.148178
v 428.617950 81.332153 116.725739
v 412.402710 81.332153 116.736359
v 379.972260 81.332153 116.757591
v 363.757019 81.332153 116.768204
v 347.541809 81.332153 103.071106
v 347.574310 81.332153 149.598679
v 496.107056 81.332153 102.986183
v 496.139587 81.332153 149.513763
v 363.757019 81.332153 103.060486
v 379.972260 81.332153 103.049873
v 412.402710 81.332153 103.028641
v 428.617950 81.332153 103.018021
v 460.800659 81.332153 100.578110
v 482.767700 81.332153 100.563736
v 363.789551 81.332153 149.588058
v 380.004791 81.332153 149.577438
v 409.559326 81.332153 152.443893
v 431.526367 81.332153 152.429504
v 463.709106 81.332153 149.534988
v 479.924316 81.332153 149.524368
v 332.440948 81.332153 164.393173
v 332.408417 81.332153 86.577148
v 332.440948 81.332153 133.327728
v 332.408417 81.332153 116.778824
v 332.408417 81.332153 103.071106
v 332.440948 81.332153 149.598679
v 508.949219 68.621201 134.053314
v 508.947632 49.732288 133.231140
v 508.913452 68.621201 115.860046
v 508.915100 49.732288 116.682228
v 508.915100 67.134239 102.974510
v 508.947632 49.732288 149.502090
v 508.915100 49.732288 102.974510
v 508.947632 67.134239 149.502090
v 508.947632 81.332153 133.231140
v 508.915100 81.332153 116.682228
v 508.915100 81.332153 102.974510
v 508.947632 81.332153 149.502090
v 320.005402 58.433266 116.778824
v 320.037903 58.433266 164.393173
v 347.541809 58.433266 86.577148
v 347.574310 58.433266 164.393173
v 496.107056 58.433266 86.492226
v 496.139587 58.433266 164.308258
v 363.757019 58.433266 86.566528
v 379.972290 58.433266 86.555923
v 412.402740 58.433266 86.534683
v 428.617981 58.433266 86.524071
v 463.676575 58.433266 86.513458
v 479.891785 58.433266 86.502838
v 363.789551 58.433266 164.382568
v 380.004761 58.433266 164.371948
v 412.435211 58.433266 164.350723
v 428.650452 58.433266 164.340118
v 463.709076 58.433266 164.329498
v 479.924316 58.433266 164.318878
v 496.139587 58.433266 149.513763
v 496.107056 58.433266 102.986183
v 320.005402 58.433266 103.071106
v 320.037903 58.433266 149.598679
v 332.440948 58.433266 164.393173
v 332.408417 58.433266 86.577148
v 508.956726 56.811214 137.858765
v 508.906006 56.811214 112.054604
v 508.947632 58.433266 149.502090
v 508.915100 58.433266 102.974510
v 320.021667 49.732288 125.053276
v 320.021667 67.134239 125.053276
v 347.558044 49.732288 125.053276
v 496.123352 49.732288 124.968353
v 347.558044 23.842197 125.053276
v 496.123352 23.842197 124.968353
v 363.773315 23.842197 125.042664
v 379.988525 23.842197 125.032043
v 412.419006 23.842197 125.010818
v 428.634247 23.842197 125.000206
v 463.692871 23.842197 124.989586
v 479.908081 23.842197 124.978966
v 363.773315 49.732288 125.042664
v 379.988525 49.732288 125.032043
v 332.424683 49.732288 125.053276
v 332.424683 67.134239 125.053276
v 347.558044 81.332153 125.053276
v 496.123352 81.332153 124.968353
v 363.773285 81.332153 125.042656
v 379.988525 81.332153 125.032043
v 412.419006 81.332153 125.010811
v 428.634216 81.332153 125.000198
v 463.692841 81.332153 124.989578
v 479.908020 81.332153 124.978966
v 332.424683 81.332153 125.053276
v 508.931396 70.378349 124.956673
v 508.931396 49.385971 124.956680
v 508.931396 81.332153 124.956680
v 517.498474 68.621208 134.036514
v 517.496887 49.732292 133.214340
v 517.462708 68.621208 115.843239
v 517.464355 49.732292 116.665421
v 517.505981 56.811218 137.841965
v 517.455261 56.811218 112.037796
v 517.480652 70.378357 124.939865
v 517.480652 48.699661 124.939873
vn 1.0000 -0.0000 -0.0018
vn -1.0000 -0.0000 0.0018
vn 0.0020 -0.0000 1.0000
vn -0.0020 -0.0000 -1.0000
vn -0.0000 -1.0000 -0.0000
vn -0.0000 1.0000 -0.0000
vn 1.0000 -0.0000 -0.0020
vn -0.0000 -0.0000 -1.0000
vn -0.0000 -0.0000 1.0000
vn -1.0000 -0.0000 0.0020
vn 0.0011 -0.0000 1.0000
vn -0.0011 -0.0000 -1.0000
vn 0.0012 -0.0000 1.0000
vn -0.0012 -0.0000 -1.0000
vn -1.0000 -0.0000 0.0025
vn -1.0000 -0.0000 0.0028
vn 1.0000 -0.0000 -0.0025
vn 1.0000 -0.0000 -0.0028
vn 1.0000 -0.0000 -0.0000
vn -0.0007 -0.0000 -1.0000
vn 0.0007 -0.0000 1.0000
vn -1.0000 -0.0000 -0.0000
vn 0.0009 -0.0000 1.0000
vn 0.0003 -0.0000 1.0000
vn -0.0003 -0.0000 -1.0000
vn 0.0135 0.9997 -0.0209
vn -0.0009 -0.0000 -1.0000
vn -0.0016 0.5472 -0.8370
vn -1.0000 0.0001 -0.0001
vn -1.0000 -0.0001 -0.0001
vn -1.0000 -0.0004 -0.0004
vn -1.0000 0.0005 -0.0005
vn -1.0000 -0.0007 -0.0004
vn -1.0000 0.0007 -0.0004
vn -0.0019 -0.3067 -0.9518
vn 0.0016 0.5472 0.8370
vn 0.0401 0.9958 0.0829
vn 0.0135 0.9997 0.0209
vn -0.0004 -0.9819 -0.1897
vn 0.0019 -0.3067 0.9518
vn 0.0398 0.9958 -0.0830
vn 0.0004 -0.9819 0.1897
vt 6.599967 46.961914
vt 34.334221 -3.506639
vt 15.688482 32.253242
vt 2.986656 1.317960
vt 12.405711 46.961945
vt 2.987683 0.302052
vt 34.040031 -13.777948
vt 47.607967 -39.540825
vt 36.995987 1.431011
vt 36.900162 -18.603405
vt 41.802219 -39.540855
vt 39.350246 -6.210660
vt 1.946592 1.980930
vt 21.386890 32.253227
vt 38.942089 -10.872422
vt 1.946591 1.980919
vt 47.607967 -33.842430
vt 42.012012 -1.273009
vt 1.946592 1.980915
vt 41.802208 -15.697880
vt 41.802219 -33.842453
vt 1.946592 1.980912
vt -45.832733 32.253227
vt 3.934910 1.318918
vt -45.832741 38.058975
vt 3.935935 0.303009
vt 31.276928 -9.116181
vt 1.946588 1.980938
vt -51.531136 32.253242
vt -51.531143 38.058990
vt 36.178982 -6.210654
vt 1.946589 1.980926
vt 42.012005 36.392868
vt 2.987682 2.393298
vt 15.688450 26.107864
vt 4.883163 -1.984512
vt 45.028828 30.973755
vt 15.688468 6.330904
vt 21.386850 26.107849
vt 1.946595 1.980963
vt 42.012005 30.973755
vt 3.935935 2.394256
vt -45.832771 26.107849
vt 1.946584 1.980965
vt -51.531174 26.107870
vt 21.386873 6.330884
vt 1.946594 1.981205
vt 3.934911 -1.985312
vt 45.028828 36.392868
vt -45.832756 6.330892
vt -51.531162 6.330909
vt 1.946585 1.981205
vt 45.028828 36.392868
vt 2.986655 -0.323421
vt 12.671649 26.107876
vt 2.986655 -3.784060
vt 48.045643 30.973755
vt 12.671667 6.330909
vt 45.028828 30.973755
vt 2.038401 -0.323421
vt -42.815971 26.107838
vt 2.038401 -3.784060
vt -42.815956 6.330879
vt 48.045643 36.392868
vt 4.883163 -3.783259
vt 52.531166 -24.753883
vt 15.688450 -3.948637
vt 21.386854 -3.948656
vt 1.946589 1.981264
vt 3.934911 -3.784060
vt -45.832779 -3.948649
vt 47.112064 -24.753883
vt -51.531185 -3.948630
vt 1.946589 1.981264
vt 42.991619 45.497169
vt 15.688468 -18.474092
vt 3.054387 2.394256
vt 1.946588 1.981331
vt 21.386873 -18.474110
vt 48.410728 45.497169
vt 4.002641 2.394941
vt -45.832767 -18.474100
vt 1.946589 1.981331
vt -51.531162 -18.474081
vt 3.934909 -1.242347
vt 52.531185 -33.842430
vt 6.599967 -3.948612
vt -36.744289 -3.948680
vt 2.986655 -1.242347
vt 47.112064 -33.842430
vt 3.934909 -3.784060
vt 6.599979 -18.474066
vt 42.991619 36.408623
vt -36.744278 -18.474134
vt 2.986655 -3.784060
vt 48.410728 36.408623
vt 3.054387 4.202781
vt 15.688457 -28.809500
vt 17.824831 51.105637
vt 1.946587 1.981385
vt 21.386854 -28.809517
vt 4.002641 4.203465
vt -45.832779 -28.809517
vt 12.405711 51.105637
vt 1.946589 1.981386
vt -51.531185 -28.809490
vt 15.688468 -44.340553
vt 0.901794 31.002304
vt 4.950895 3.557580
vt 21.386877 -44.340576
vt 1.946586 1.981455
vt 6.320912 31.002304
vt 4.002642 3.557580
vt -45.832767 -44.340576
vt -51.531166 -44.340546
vt 1.946587 1.981457
vt 6.599967 -28.809471
vt 2.038402 -0.323419
vt 17.824831 42.017090
vt 2.986656 -0.323420
vt -36.744293 -28.809542
vt 12.405711 42.017090
vt 6.599987 -44.340530
vt 2.038403 2.394256
vt 0.901794 21.913755
vt 2.986656 2.394256
vt 6.320912 21.913755
vt -36.744278 -44.340599
vt 21.386881 -50.988754
vt 1.946586 1.981475
vt 1.946747 1.980575
vt 42.012005 3.962025
vt -51.531162 -50.988747
vt 1.946587 1.981483
vt 42.012005 3.962025
vt 1.946742 1.980573
vt 48.696152 -14.746769
vt 6.551531 9.556001
vt 47.112072 -14.746765
vt 3.935935 1.561459
vt 4.439624 1.562883
vt 41.802219 -6.348587
vt 41.802219 -7.932660
vt 6.551531 6.677493
vt 4.821217 -1.984512
vt 29.944798 51.978210
vt 30.938646 21.191706
vt 33.808945 19.644398
vt 1.946597 1.980723
vt 1.946597 1.980759
vt 31.405464 15.185870
vt 29.811806 16.044975
vt 3.934910 -0.968603
vt 29.067856 -34.236610
vt 38.502701 51.978210
vt 30.315498 -33.497116
vt 3.934911 -1.984511
vt 28.535164 16.733185
vt 38.502701 46.172470
vt 31.872936 -32.573997
vt 1.946591 1.980759
vt 1.946590 1.980783
vt 30.133991 -29.640135
vt 26.916815 13.731112
vt 25.665836 51.978210
vt 2.038479 2.394256
vt 28.576557 -30.563257
vt 25.665836 46.172470
vt 27.328915 -31.302755
vt 3.054387 2.394330
vt 28.193462 13.042904
vt 1.946598 1.980783
vt 29.787113 12.183800
vt 32.215298 20.503498
vt 4.821216 -0.968603
vt 29.944798 46.172470
vt 31.650454 -38.593834
vt 32.898094 -37.854332
vt 1.946592 1.980723
vt 34.455536 -36.931213
vt 1.946592 1.980700
vt 36.194489 -39.865074
vt 4.002640 3.557580
vt 34.223751 46.172470
vt 32.556995 24.193779
vt 34.637043 -40.788200
vt 4.002640 4.573489
vt 34.223751 51.978210
vt 33.389404 -41.527695
vt 33.833637 23.505568
vt 1.946597 1.980701
vt 35.427292 22.646469
vt 37.830776 27.104996
vt 1.946597 1.980667
vt 36.237122 27.964098
vt 4.888947 4.573489
vt 35.972000 -45.884918
vt 51.391006 -14.746769
vt 37.219639 -45.145416
vt 4.888947 3.557580
vt 34.960476 28.652294
vt 51.391006 -8.941022
vt 38.777077 -44.222290
vt 1.946594 1.980664
vt 1.946594 1.980649
vt 39.586292 -45.587563
vt 1.659196 3.342218
vt 35.713562 30.049301
vt 47.270565 45.497169
vt 38.028843 -46.510681
vt 0.643287 3.342807
vt 36.781212 -47.250168
vt 47.270565 51.302917
vt 36.990208 29.361095
vt 38.583858 28.501995
vt 1.946596 1.980654
vt 43.902897 -11.193439
vt 1.946597 1.980596
vt 3.519794 43.375198
vt 19.623755 32.253235
vt 0.459354 4.607436
vt 48.696129 -17.897789
vt 1.946597 1.980632
vt 40.646103 32.327507
vt 50.146454 -17.897795
vt 44.953236 -9.382992
vt 39.052448 33.186600
vt 3.935935 2.112835
vt 47.112057 -17.897781
vt 21.207842 32.253235
vt 51.956909 -24.753883
vt 1.946597 1.980625
vt 42.012012 34.861298
vt 4.439624 2.114259
vt 21.207842 35.131752
vt 44.953236 -6.348596
vt 48.696129 -24.753872
vt 39.141712 36.408600
vt 1.659053 4.606380
vt 51.956909 -16.847458
vt 1.946597 1.980590
vt 3.519794 46.253716
vt 50.146454 -24.753872
vt 40.418358 35.720406
vt 4.439624 1.930467
vt 43.902897 -6.348593
vt 46.003578 -7.932675
vt 38.997139 -50.988754
vt 0.643287 4.103277
vt 43.902897 -7.932669
vt 19.623755 35.131752
vt 44.953236 -7.932673
vt 0.459496 4.103745
vt 48.696129 -16.847450
vt 47.112057 -16.847445
vt 3.935935 1.929043
vt 1.946596 1.980578
vt 50.146454 -16.847450
vt 5.330258 46.253716
vt 1.946596 1.980586
vt 43.902897 -9.382990
vt 5.330258 43.375198
vt 50.146446 -18.948130
vt 46.003578 -9.382995
vt 40.244778 -50.249260
vt 1.946595 1.980571
vt 41.802219 -9.382979
vt 5.101202 6.677493
vt 1.946595 1.980561
vt 50.146465 -14.746775
vt 5.101202 9.556001
vt 44.953236 -11.193440
vt 1.946597 1.980604
vt 1.946596 1.980595
vt 51.956894 -17.897795
vt 37.775803 33.874809
vt 1.659196 4.102688
vt 46.003578 -11.193443
vt 41.802208 -49.326149
vt 1.946595 1.980615
vt 0.643145 4.606969
vt 48.696129 -18.948130
vt 1.946597 1.980601
vt 51.956894 -18.948133
vt 32.291027 -48.066689
vt 1.986189 2.707693
vt 47.112057 -14.746752
vt 1.986189 3.723602
vt 31.193928 30.682762
vt 47.112057 -8.941004
vt 1.708481 3.723602
vt 31.947016 32.079762
vt 42.991619 45.497185
vt 33.100239 -49.431946
vt 1.708481 2.707693
vt 42.991619 51.302933
vt 25.665836 51.978233
vt 1.986189 1.691785
vt 27.172091 23.222166
vt 1.389410 1.691784
vt 29.944798 46.172478
vt 28.790445 26.224239
vt 25.665836 46.172478
vt 1.986189 0.675876
vt 27.969486 -40.775604
vt 24.768608 18.763641
vt 1.389410 2.707693
vt 34.223755 46.172478
vt 1.389410 1.691785
vt 25.386887 -36.418381
vt 34.223755 51.978233
vt 23.150265 15.761570
vt 1.986189 2.707693
vt 21.386881 51.978233
vt 1.986189 1.691785
vt 23.647945 -33.484528
vt 21.386890 46.172478
vt 1.389410 0.675876
vt 29.944798 51.978226
vt 29.708435 -43.709465
vt 24.247015 -26.103138
vt 3.054311 3.451988
vt 25.494659 -25.363644
vt 41.802219 -50.988754
vt 1.946591 1.980833
vt 27.052097 -24.440519
vt 47.607967 -50.988739
vt 1.946596 1.980834
vt 26.918957 6.863297
vt 25.325304 7.722394
vt 24.048660 8.410604
vt 2.038402 3.451915
vt 21.386881 -21.277676
vt 12.405720 32.253262
vt 3.054387 4.433540
vt 12.405720 33.703583
vt 22.634523 -20.538179
vt 12.405720 35.514030
vt 24.191967 -19.615057
vt 6.599967 35.514008
vt 24.257189 1.925650
vt 6.599967 33.703560
vt 22.663544 2.784747
vt 21.386890 3.472956
vt 6.599967 32.253235
vt 2.038478 4.433466
vt 1.946754 1.980576
vt 1.950759 6.677485
vt 42.012005 13.851858
vt 2.037223 -3.784060
vt 47.710449 13.851858
vt -3.747647 6.677485
vt 1.946734 1.980572
vt -19.721395 -50.988754
vt 42.012005 -6.210657
vt 2.038402 0.674799
vt 47.710461 -6.210657
vt -25.419796 -50.988754
vt -19.721373 -41.971695
vt 15.688482 -50.988747
vt 4.950895 2.394256
vt 47.710449 3.962025
vt 2.038402 -2.053504
vt 4.002642 2.394256
vt -45.832752 -50.988754
vt 47.710449 3.962025
vt 2.037187 -1.105251
vt -3.747665 -2.339586
vt -15.072017 32.159122
vt 0.459385 -3.782981
vt 1.950734 -2.339586
vt 0.460566 0.675876
vt -15.072016 6.677493
vt -25.419773 -41.971695
vt -15.072017 16.850170
vt 0.459354 -1.104174
vt -15.072017 22.269285
vt 0.460568 -2.052428
vt -19.721373 6.677485
vt -32.095024 32.159122
vt -3.747662 -50.988747
vt -26.396587 6.677493
vt -32.095024 6.677493
vt 1.950740 -50.988747
vt -26.396587 32.159122
vt -25.419773 6.677485
vt 44.861233 3.962025
vt 3.248504 42.066963
vt -26.396587 21.986439
vt -0.898445 6.677485
vt 44.861233 13.851858
vt -26.396587 16.567327
vt 3.253795 36.647842
vt -15.072153 -2.339596
vt -3.999506 -3.783111
vt -3.747451 32.159122
vt -3.747448 6.677493
vt 0.459354 -3.783692
vt -36.744267 -41.971710
vt -1.320696 -3.782718
vt -3.747448 16.850170
vt -2.268949 -3.784060
vt -3.747451 22.269285
vt -3.999705 4.729679
vt -15.072149 -50.988754
vt -15.072017 6.677493
vt -36.744267 6.677461
vt -15.072017 32.159122
vt 0.459153 4.729102
vt -1.320898 4.730074
vt -15.072017 21.986439
vt -15.072017 16.567327
vt -2.269150 4.728729
vt -19.721371 1.367633
vt -19.721371 -3.942211
vt -19.721382 -15.422505
vt -19.721378 -20.732344
vt -19.721378 -31.352030
vt -19.721378 -36.661858
vt -3.747665 -7.649417
vt -3.747662 -12.959272
vt -3.747659 -23.578953
vt -3.747656 -28.888788
vt -3.747665 -40.369072
vt -3.747665 -45.678925
vt 1.950740 -45.678894
vt 1.950734 -40.369064
vt 1.950747 -28.888779
vt 1.950747 -23.578934
vt 1.950740 -12.959263
vt 1.950740 -7.649408
vt -25.419773 1.367633
vt -25.419771 -3.942211
vt -25.419783 -15.422505
vt -25.419783 -20.732344
vt -25.419781 -31.352030
vt -25.419773 -36.661858
vt -15.072153 -7.649427
vt -3.999605 -2.853977
vt -15.072149 -12.959279
vt -3.999703 -1.924843
vt -15.072149 -23.578964
vt -3.999902 -0.066575
vt -15.072144 -28.888794
vt -4.000000 0.862555
vt -15.072153 -40.369087
vt -3.999507 2.871413
vt -15.072153 -45.678925
vt -3.999607 3.800548
vt -36.744263 1.367614
vt 0.459253 3.799965
vt -36.744263 -3.942230
vt 0.459353 2.870830
vt 0.458859 0.861972
vt -36.744278 -15.422525
vt 0.458957 -0.067159
vt -36.744267 -20.732367
vt 0.459155 -1.925427
vt -36.744267 -31.352051
vt -36.744267 -36.661880
vt 0.459255 -2.854559
vt -25.419708 36.647842
vt -2.269048 -2.854926
vt -2.269147 -1.925792
vt -14.095140 42.906319
vt -2.269345 -0.067524
vt -2.269444 0.861607
vt 48.092960 13.851854
vt -44.337856 46.619888
vt -2.129628 2.705598
vt 42.012005 22.412806
vt -51.531185 46.619896
vt -2.129763 3.964309
vt -25.419708 42.066956
vt -1.320796 -2.853585
vt -14.095140 37.487206
vt -1.320896 -1.924450
vt 21.386890 36.408615
vt 35.798283 46.172409
vt -1.486433 -0.230880
vt -1.486565 1.027830
vt 42.991619 46.172401
vt 19.623762 32.253235
vt -1.320700 2.871807
vt -1.320798 3.800941
vt 1.946751 1.980576
vt 42.012005 8.450753
vt 47.710449 -1.366057
vt 2.037825 -0.172927
vt 1.946737 1.980572
vt 42.012005 -1.366057
vt 47.710449 8.450753
vt 2.037867 -2.838955
vt -15.072017 11.522094
vt 0.459987 -0.171849
vt -15.072017 26.758011
vt 0.460031 -2.837878
vt -32.095024 12.078599
vt 47.607967 -45.290359
vt 3.253795 47.395035
vt -26.396587 27.314522
vt 51.904552 -6.210649
vt 47.607967 -50.988754
vt 3.249347 32.159122
vt -26.396587 12.078599
vt -32.095024 27.314522
vt 51.904552 -0.512251
vt -0.388371 -3.783229
vt -3.747448 11.522094
vt -3.054401 -3.783629
vt -3.747451 26.758011
vt -15.072017 27.314522
vt -0.388571 4.729564
vt -3.054601 4.729160
vt -15.072017 12.078599
vt 47.112057 -22.517941
vt -25.419708 47.395035
vt -0.388470 -2.854095
vt 41.802219 -22.517937
vt -0.388570 -1.924964
vt -14.095140 32.159122
vt -0.223396 -0.231578
vt 28.604929 36.408615
vt 35.798267 46.172401
vt -0.223527 1.027137
vt 28.604918 46.172401
vt 12.405720 32.253235
vt -0.388374 2.871295
vt -0.388473 3.800429
vt -3.054500 -2.854496
vt 41.802219 -11.193443
vt -25.419708 32.159122
vt -3.054599 -1.925362
vt 47.112057 -11.193446
vt -14.095140 47.395050
vt -3.054797 -0.067092
vt -3.054896 0.862037
vt -3.193692 2.706182
vt 42.012005 13.851854
vt -44.337856 46.619888
vt 48.092949 22.412806
vt -3.193826 3.964894
vt -37.144527 46.619888
vt 1.389411 1.461328
vt -36.744278 36.647842
vt -25.419708 42.906319
vt 0.460277 1.461640
vt -36.744278 42.066956
vt 1.388489 2.409579
vt 0.459354 2.409891
vt -25.419708 37.487206
vt 47.112057 -33.842430
vt -36.744278 47.395035
vt 1.389409 3.341905
vt 41.802219 -33.842430
vt 0.460279 3.342217
vt -25.419708 32.159122
vt 1.388634 0.675875
vt 41.802219 -22.517933
vt -36.744278 32.159122
vt 0.459499 0.676187
vt 47.112057 -22.517937
vt -25.419708 47.395050
vt 21.386890 46.172455
vt 2.986660 0.301226
vt 35.798283 36.408623
vt 4.245373 0.302051
vt 42.991619 36.408615
vt 19.623762 42.017090
vt 28.604929 46.172470
vt 2.986656 -0.961810
vt 35.798267 36.408615
vt 4.245373 -0.960987
vt 28.604918 36.408623
vt 12.405720 42.017090
vt 3.935935 1.561460
vt 48.092960 22.412806
vt -44.337856 38.059006
vt 42.012005 30.973755
vt 3.935936 0.302749
vt -51.531185 38.059006
vt 5.000000 1.560764
vt 42.012005 22.412806
vt -44.337856 38.059006
vt 48.092949 30.973755
vt 5.000000 0.302053
vt -37.144527 38.058990
vt 0.901794 6.677485
vt 1.946730 1.980573
vt -19.721384 -46.927261
vt 1.326531 -3.783575
vt -3.747656 2.615993
vt 0.901794 32.159111
vt 1.946757 1.980580
vt 1.950747 2.615993
vt 1.326492 -1.104766
vt 1.327709 -2.053019
vt 1.327709 0.675283
vt -25.419790 -46.927261
vt 1.946741 1.980578
vt 0.901794 16.850166
vt 0.901794 22.269285
vt 1.946746 1.980579
vt 1.327174 -2.838470
vt 1.327129 -0.172442
vt 0.901794 26.758007
vt 1.946751 1.980580
vt 0.901794 11.522089
vt 1.946736 1.980576
vt -15.072158 -41.971680
vt 1.946726 1.980581
vt 6.599955 -2.339577
vt 1.946757 1.980589
vt 1.946737 1.980588
vt 1.946744 1.980590
vt -15.072158 6.677493
vt -36.744278 32.159122
vt 1.946699 1.980673
vt 6.599955 -50.988747
vt 1.946738 1.980683
vt -36.744278 6.677493
vt 5.095924 12.005910
vt 1.946715 1.980676
vt 1.946723 1.980679
vt 5.101202 17.425022
vt -15.072158 1.367639
vt 1.946698 1.980667
vt -15.072158 -3.942198
vt 1.946698 1.980656
vt -15.072166 -15.422495
vt 1.946700 1.980630
vt -15.072164 -20.732336
vt 1.946704 1.980617
vt -15.072164 -31.352020
vt 1.946714 1.980595
vt -15.072163 -36.661858
vt 1.946720 1.980587
vt 1.946735 1.980595
vt 1.946732 1.980604
vt 1.946729 1.980623
vt 1.946725 1.980638
vt 1.946718 1.980658
vt 1.946717 1.980668
vt 6.599955 -45.678886
vt 1.946742 1.980677
vt 6.599955 -40.369057
vt 1.946747 1.980668
vt 6.599967 -28.888763
vt 1.946757 1.980643
vt 6.599961 -23.578922
vt 1.946760 1.980631
vt 6.599955 -12.959249
vt 1.946761 1.980607
vt 6.599955 -7.649400
vt 1.946759 1.980597
vt 1.946724 1.980671
vt 1.946728 1.980659
vt 1.946735 1.980638
vt 1.946737 1.980627
vt 1.946742 1.980606
vt 1.946743 1.980597
vt 1.946750 1.980590
vt 1.946731 1.980585
vt 47.607967 -40.641144
vt -36.744278 12.078599
vt 1.946730 1.980682
vt 5.096755 21.913752
vt 5.101202 6.677827
vt -36.744278 27.314522
vt 1.946706 1.980677
vt 51.904552 4.136964
vt 1.946750 1.980598
vt 1.946750 1.980607
vt 1.946747 1.980629
vt 1.946745 1.980640
vt 1.946739 1.980662
vt 1.946734 1.980675
vt 1.946727 1.980592
vt 1.946723 1.980600
vt 1.946713 1.980618
vt 1.946709 1.980634
vt 1.946708 1.980657
vt 1.946707 1.980667
vt -3.747451 6.677485
vt -15.072170 -46.927246
vt 1.946731 1.980578
vt -3.747451 32.159111
vt 6.599967 2.616005
vt 1.946755 1.980585
vt 1.946739 1.980582
vt -3.747451 16.850166
vt -3.747451 22.269285
vt 1.946745 1.980584
vt -3.747451 26.758007
vt 1.946750 1.980584
vt -3.747451 11.522089
vt 1.946734 1.980580
vt -9.932814 42.336189
vt 6.320924 43.375076
vt 17.824831 47.974670
vt 6.320924 37.188751
vt -3.747451 42.066963
vt -0.944934 42.067307
vt -9.932814 36.378609
vt 3.521375 37.188751
vt 17.824831 42.017090
vt -3.747451 36.647842
vt 3.521375 31.002438
vt -0.939649 36.648178
vt -9.445891 32.159122
vt 51.802090 -45.290359
vt -0.939659 47.395378
vt -3.747451 47.395035
vt 47.710434 -6.210654
vt 51.802090 -50.988754
vt -0.944106 32.159454
vt -3.747451 32.159122
vt -9.445891 47.395035
vt 47.710434 -0.512251
vt -14.095140 42.066963
vt 0.901794 12.005573
vt 0.907079 17.424686
vt -14.095140 36.647842
vt 51.802090 -40.641144
vt -14.095140 32.159122
vt 0.902631 21.913416
vt 0.907079 6.677493
vt -14.095140 47.395035
vt 47.710434 4.136964
vt 44.861233 3.962025
vt -22.570597 -50.988754
vt 44.861233 -6.210657
vt -0.898461 -2.339586
vt -22.570574 -41.971695
vt -29.245804 6.677493
vt -0.898458 -50.988747
vt -29.245810 32.159122
vt -22.570574 6.677485
vt -0.898461 -7.649408
vt -0.898458 -12.959272
vt -0.898455 -23.578941
vt -0.898455 -28.888788
vt -0.898461 -40.369064
vt -0.898461 -45.678894
vt -22.570576 -36.661858
vt -22.570576 -31.352030
vt -22.570580 -20.732344
vt -22.570583 -15.422505
vt -22.570572 -3.942211
vt -22.570572 1.367633
vt -29.245804 27.314522
vt 51.904552 -3.361449
vt 47.607967 -48.139557
vt -29.245804 12.078599
vt 44.861233 8.450753
vt 44.861233 -1.366057
vt -22.570585 -46.927261
vt -0.898455 2.615993
vt -6.065516 43.582321
vt 6.319343 39.512428
vt -6.065516 35.132477
vt 3.519794 33.326103
vt -6.596671 47.395035
vt 47.710434 -3.361452
vt -6.596671 32.159122
vt 51.802090 -48.139557
vt 2.037793 -1.579378
vt 1.946744 1.980574
vt -15.072017 19.559729
vt 0.459961 -1.578300
vt 3.251147 39.357399
vt -26.396587 19.276882
vt -1.794822 -3.783389
vt -3.747448 19.559729
vt -1.795023 4.729403
vt -15.072017 19.276882
vt -25.419708 39.357399
vt -1.794922 -2.854254
vt -14.095140 40.196770
vt -1.795021 -1.925123
vt -1.795218 -0.066853
vt -1.795318 0.862279
vt -1.794825 2.871136
vt -1.794925 3.800268
vt 1.388949 1.935453
vt -36.744278 39.357399
vt -25.419708 40.196770
vt 0.459818 1.935764
vt 1.327101 -1.578892
vt 1.946743 1.980578
vt 0.901794 19.559729
vt 1.946741 1.980589
vt 5.098553 14.715471
vt 1.946719 1.980677
vt 1.946739 1.980596
vt 1.946737 1.980605
vt 1.946732 1.980625
vt 1.946729 1.980636
vt 1.946724 1.980659
vt 1.946721 1.980669
vt 1.946742 1.980583
vt -3.747451 19.559729
vt -10.508207 39.357399
vt 17.824848 44.995872
vt -0.944326 39.357735
vt 0.904430 14.715137
vt -14.095140 39.357399
vt 3.521382 43.375198
vt 20.624376 47.974670
vt 3.521382 37.188873
vt -3.744015 42.064575
vt 6.320912 37.188629
vt 20.624376 42.017090
vt 6.320912 31.002304
vt -3.738758 36.645454
vt 3.519806 39.512550
vt 6.319331 33.325981
vt 20.624392 44.995872
vt -3.747451 39.355003
s 0
usemtl Material.002
f 135/326/1 4/10/1 2/7/1 141/339/1
f 136/329/2 142/341/2 1/2/2 3/9/2
f 135/324/3 136/327/3 3/8/3 4/11/3
f 141/338/4 2/5/4 1/1/4 142/340/4
f 2/7/1 4/10/1 8/20/1 6/15/1
f 4/11/3 3/8/3 7/17/3 8/21/3
f 11/28/5 5/13/5 15/40/5 17/44/5
f 3/9/2 1/2/2 5/12/2 7/18/2
f 5/13/5 6/16/5 8/22/5 7/19/5
f 9/23/4 10/25/4 12/30/4 11/29/4
f 2/7/7 6/15/7 12/31/7 10/27/7
f 6/16/5 5/13/5 11/28/5 12/32/5
f 13/33/7 16/41/7 23/59/7 21/53/7
f 9/23/8 11/29/8 17/45/8 16/43/8
f 5/14/9 1/3/9 13/35/9 15/39/9
f 15/39/3 13/35/3 14/38/3 18/46/3
f 17/44/5 15/40/5 18/47/5 20/52/5
f 16/43/4 17/45/4 20/51/4 19/50/4
f 16/43/4 19/50/4 24/63/4 23/61/4
f 19/49/10 14/37/10 22/57/10 24/64/10
f 14/38/3 13/35/3 21/55/3 22/58/3
f 26/68/3 25/67/3 29/76/3 30/79/3
f 18/46/11 14/38/11 25/67/11 26/68/11
f 19/50/12 20/51/12 28/73/12 27/71/12
f 20/52/5 18/47/5 26/69/5 28/74/5
f 32/83/5 30/78/5 38/100/5 40/105/5
f 27/71/4 31/82/4 36/94/4 34/88/4
f 27/71/4 28/73/4 32/84/4 31/82/4
f 28/74/5 26/69/5 30/78/5 32/83/5
f 25/66/7 27/72/7 34/90/7 33/86/7
f 29/76/3 25/67/3 33/87/3 35/92/3
f 31/80/10 29/75/10 35/93/10 36/96/10
f 40/105/5 38/100/5 42/111/5 44/116/5
f 30/79/13 29/76/13 37/98/13 38/101/13
f 31/82/14 32/84/14 40/106/14 39/103/14
f 42/110/3 41/107/3 150/360/3 49/129/3
f 38/101/3 37/98/3 41/107/3 42/110/3
f 41/107/3 37/98/3 45/117/3 47/123/3
f 39/103/4 40/106/4 44/115/4 43/114/4
f 43/112/10 41/108/10 47/125/10 48/127/10
f 39/103/4 43/114/4 48/128/4 46/121/4
f 37/99/7 39/104/7 46/122/7 45/119/7
f 43/114/4 44/115/4 50/133/4 151/365/4
f 44/116/5 42/111/5 49/130/5 50/134/5
f 71/178/7 72/180/7 62/160/7 60/156/7
f 70/177/7 71/178/7 60/156/7 59/154/7
f 59/154/7 60/156/7 65/167/7 66/169/7
f 60/156/7 62/160/7 63/163/7 65/167/7
f 69/174/10 55/147/10 61/158/10 58/152/10
f 56/148/10 69/174/10 58/152/10 57/151/10
f 72/179/5 56/149/5 57/150/5 62/161/5
f 67/171/10 64/164/10 138/331/10 137/330/10
f 63/162/5 68/172/5 136/328/5 135/325/5
f 70/176/4 55/146/4 125/297/4 127/303/4
f 62/161/5 57/150/5 68/172/5 63/162/5
f 57/151/10 58/152/10 67/171/10 68/173/10
f 58/152/10 61/158/10 64/164/10 67/171/10
f 77/190/10 74/185/10 55/147/10 69/174/10
f 78/192/10 77/190/10 69/174/10 56/148/10
f 73/181/5 78/191/5 56/149/5 72/179/5
f 64/164/10 61/158/10 128/306/10 130/312/10
f 84/204/5 79/194/5 78/191/5 73/181/5
f 79/193/10 80/195/10 77/190/10 78/192/10
f 80/195/10 83/201/10 74/185/10 77/190/10
f 75/186/7 73/182/7 72/180/7 71/178/7
f 76/189/7 75/186/7 71/178/7 70/177/7
f 88/212/7 81/197/7 121/285/7 124/294/7
f 87/210/7 85/206/7 84/203/7 82/199/7
f 90/215/10 89/214/10 80/195/10 79/193/10
f 88/212/7 87/210/7 82/199/7 81/197/7
f 81/197/7 82/199/7 75/186/7 76/189/7
f 82/199/7 84/203/7 73/182/7 75/186/7
f 93/224/15 96/227/15 89/214/15 90/215/15
f 96/227/15 117/276/15 86/208/15 89/214/15
f 118/280/5 93/223/5 90/216/5 85/205/5
f 89/214/10 86/208/10 83/201/10 80/195/10
f 85/205/5 90/216/5 79/194/5 84/204/5
f 120/284/3 111/263/3 102/243/3 98/231/3
f 111/263/3 119/282/3 100/237/3 102/243/3
f 95/226/8 110/261/8 91/217/8 115/272/8
f 104/247/8 106/252/8 95/226/8 112/264/8
f 112/264/8 95/226/8 115/272/8 118/278/8
f 107/254/9 108/255/9 97/229/9 92/222/9
f 97/230/16 99/235/16 106/251/16 92/220/16
f 118/280/5 120/283/5 98/232/5 93/223/5
f 107/254/9 92/222/9 94/225/9 109/258/9
f 103/246/8 105/250/8 106/252/8 99/236/8
f 109/258/9 94/225/9 116/275/9 101/240/9
f 100/238/16 117/276/16 96/227/16 102/244/16
f 91/218/5 101/241/5 116/274/5 115/273/5
f 112/265/17 118/279/17 85/206/17 87/210/17
f 106/252/8 105/250/8 110/261/8 95/226/8
f 113/266/5 114/269/5 109/257/5 110/260/5
f 51/137/9 52/139/9 108/255/9 107/254/9
f 51/137/9 107/254/9 109/258/9 114/270/9
f 53/142/8 54/143/8 105/250/8 103/246/8
f 102/244/16 96/227/16 93/224/16 98/233/16
f 105/250/8 54/143/8 113/267/8 110/261/8
f 104/248/17 112/265/17 87/210/17 88/212/17
f 54/144/18 51/138/18 114/271/18 113/268/18
f 110/262/18 109/259/18 101/242/18 91/219/18
f 115/273/5 116/274/5 120/283/5 118/280/5
f 92/222/9 119/282/9 111/263/9 94/225/9
f 94/225/9 111/263/9 120/284/9 116/275/9
f 83/201/10 86/208/10 123/292/10 122/289/10
f 86/209/3 88/213/3 124/296/3 123/293/3
f 81/198/4 83/202/4 122/290/4 121/287/4
f 59/154/7 66/169/7 131/316/7 129/310/7
f 74/184/3 76/188/3 132/319/3 126/301/3
f 76/189/7 70/177/7 127/305/7 132/320/7
f 61/159/3 59/155/3 129/311/3 128/308/3
f 55/147/10 74/185/10 126/302/10 125/299/10
f 66/168/4 64/165/4 130/314/4 131/317/4
f 133/321/1 134/323/1 140/337/1 139/333/1
f 137/330/2 138/331/2 144/344/2 143/343/2
f 66/169/7 65/167/7 134/323/7 133/321/7
f 68/173/10 67/171/10 137/330/10 136/329/10
f 65/167/7 63/163/7 135/326/7 134/323/7
f 139/334/4 140/336/4 143/342/4 144/345/4
f 140/336/4 141/338/4 142/340/4 143/342/4
f 134/323/1 135/326/1 141/339/1 140/337/1
f 136/329/2 137/330/2 143/343/2 142/341/2
f 364/758/9 264/592/9 152/368/9 343/733/9
f 273/606/19 265/593/19 324/687/19 327/694/19
f 363/757/8 344/734/8 154/374/8 268/599/8
f 358/750/20 173/414/20 157/379/20 346/738/20
f 352/744/21 184/425/21 158/381/21 345/736/21
f 360/754/22 227/498/22 159/383/22 345/735/22
f 309/664/23 227/499/23 333/711/23 339/724/23
f 191/432/20 160/386/20 170/407/20 203/450/20
f 372/772/10 164/392/10 172/412/10 374/776/10
f 263/588/19 274/608/19 328/696/19 323/684/19
f 226/496/19 156/377/19 168/403/19 232/511/19
f 228/501/22 162/389/22 171/411/22 233/512/22
f 179/420/21 152/368/21 165/394/21 197/438/21
f 371/769/7 155/375/7 167/401/7 373/774/7
f 160/385/22 228/501/22 233/512/22 170/408/22
f 158/381/21 184/425/21 202/448/21 169/405/21
f 184/425/21 183/424/21 201/446/21 202/448/21
f 183/424/24 182/423/24 200/444/24 201/446/24
f 182/423/21 181/422/21 199/442/21 200/444/21
f 180/421/21 179/420/21 197/438/21 198/440/21
f 225/494/19 154/373/19 166/397/19 231/509/19
f 235/516/21 236/519/21 252/555/21 251/552/21
f 375/777/10 215/474/10 249/548/10 381/786/10
f 214/471/19 246/541/19 262/585/19 260/579/19
f 154/374/20 196/437/20 208/460/20 166/399/20
f 196/437/20 195/436/20 207/459/20 208/460/20
f 348/740/21 349/741/21 188/429/21 189/430/21
f 194/435/20 193/434/20 205/455/20 206/457/20
f 193/434/25 192/433/25 204/452/25 205/455/25
f 192/433/20 191/432/20 203/450/20 204/452/20
f 343/733/21 152/368/21 179/420/21 347/739/21
f 347/739/21 179/420/21 180/421/21 348/740/21
f 355/747/20 194/435/20 195/436/20 354/746/20
f 349/741/21 181/422/21 182/423/21 350/742/21
f 350/742/24 182/423/24 183/424/24 351/743/24
f 351/743/21 183/424/21 184/425/21 352/744/21
f 344/734/20 149/359/20 178/419/20 353/745/20
f 353/745/20 178/419/20 177/418/20 354/746/20
f 355/747/20 176/417/20 175/416/20 356/748/20
f 356/748/25 175/416/25 174/415/25 357/749/25
f 357/749/20 174/415/20 173/414/20 358/750/20
f 180/421/21 198/440/21 199/442/21 181/422/21
f 173/414/20 174/415/20 284/628/20 283/626/20
f 384/791/7 270/602/7 326/692/7 393/802/7
f 265/595/9 153/371/9 276/612/9 324/688/9
f 190/431/21 189/430/21 299/652/21 300/654/21
f 157/379/20 173/414/20 283/626/20 279/616/20
f 149/359/8 263/590/8 323/685/8 275/610/8
f 176/417/20 177/418/20 287/634/20 286/632/20
f 360/753/23 229/503/23 335/715/23 368/766/23
f 188/429/21 187/428/21 297/648/21 298/650/21
f 187/428/24 186/427/24 296/646/24 297/648/24
f 178/419/20 149/359/20 275/610/20 288/636/20
f 186/427/21 185/426/21 295/644/21 296/646/21
f 185/426/21 159/384/21 280/619/21 295/644/21
f 177/418/20 178/419/20 288/636/20 287/634/20
f 153/371/21 190/431/21 300/654/21 276/612/21
f 270/602/19 273/606/19 327/694/19 326/692/19
f 194/435/20 206/457/20 207/459/20 195/436/20
f 189/430/21 188/429/21 298/650/21 299/652/21
f 217/478/22 237/523/22 257/570/22 255/564/22
f 215/474/22 235/517/22 251/553/22 249/548/22
f 155/375/19 225/494/19 231/509/19 167/401/19
f 152/369/19 226/496/19 232/511/19 165/396/19
f 229/505/22 158/382/22 169/406/22 234/515/22
f 164/392/22 229/505/22 234/515/22 172/412/22
f 389/797/5 291/640/5 290/639/5 388/796/5
f 310/668/5 281/622/5 337/721/5 340/727/5
f 359/752/27 230/507/27 336/719/27 367/764/27
f 274/608/19 269/601/19 325/691/19 328/696/19
f 175/416/20 176/417/20 286/632/20 285/630/20
f 341/730/19 150/362/19 224/492/19 361/755/19
f 362/756/19 342/732/19 148/357/19 222/488/19
f 161/387/19 362/756/19 222/488/19 151/366/19
f 270/603/5 49/131/5 221/486/5 273/607/5
f 230/506/22 157/380/22 279/617/22 310/669/22
f 269/600/5 274/609/5 223/490/5 50/136/5
f 242/534/20 241/531/20 253/559/20 254/562/20
f 210/465/19 242/535/19 254/563/19 248/546/19
f 236/521/19 216/476/19 250/551/19 252/557/19
f 241/532/22 209/462/22 247/545/22 253/560/22
f 376/779/7 210/465/7 248/546/7 382/787/7
f 218/482/20 217/479/20 255/566/20 256/568/20
f 237/524/21 238/526/21 258/574/21 257/572/21
f 238/527/19 218/483/19 256/569/19 258/575/19
f 245/539/22 213/468/22 259/577/22 261/583/22
f 213/469/21 214/472/21 260/581/21 259/578/21
f 246/543/20 245/540/20 261/584/20 262/587/20
f 359/751/22 346/737/22 157/380/22 230/506/22
f 174/415/25 175/416/25 285/630/25 284/628/25
f 145/347/5 265/594/5 273/607/5 221/486/5
f 361/755/19 224/492/19 146/351/19 163/391/19
f 342/731/8 363/757/8 268/599/8 148/358/8
f 370/768/5 49/131/5 270/603/5 384/790/5
f 263/589/5 147/353/5 223/490/5 274/609/5
f 284/629/5 321/682/5 322/683/5 283/627/5
f 163/390/9 146/352/9 264/592/9 364/758/9
f 393/801/5 326/693/5 278/615/5 385/792/5
f 322/683/5 294/643/5 281/623/5 310/670/5
f 283/627/5 322/683/5 310/670/5 279/618/5
f 392/800/5 301/656/5 282/624/5 386/794/5
f 385/792/5 278/615/5 306/661/5 387/795/5
f 387/795/5 306/661/5 305/660/5 388/796/5
f 305/660/5 312/673/5 313/674/5 304/659/5
f 389/797/5 304/659/5 303/658/5 390/798/5
f 390/798/5 303/658/5 302/657/5 391/799/5
f 391/799/5 302/657/5 301/656/5 392/800/5
f 316/677/5 295/645/5 280/620/5 309/666/5
f 307/662/5 276/613/5 300/655/5 311/672/5
f 312/673/5 299/653/5 298/651/5 313/674/5
f 313/674/5 298/651/5 297/649/5 314/675/5
f 314/675/5 297/649/5 296/647/5 315/676/5
f 308/663/5 277/614/5 289/638/5 317/678/5
f 317/678/5 289/638/5 290/639/5 318/679/5
f 319/680/5 291/640/5 292/641/5 320/681/5
f 320/681/5 292/641/5 293/642/5 321/682/5
f 321/682/5 293/642/5 294/643/5 322/683/5
f 285/631/5 320/681/5 321/682/5 284/629/5
f 286/633/5 319/680/5 320/681/5 285/631/5
f 287/635/5 318/679/5 319/680/5 286/633/5
f 311/672/5 300/655/5 299/653/5 312/673/5
f 159/383/22 227/498/22 309/665/22 280/621/22
f 275/611/5 308/663/5 317/678/5 288/637/5
f 315/676/5 296/647/5 295/645/5 316/677/5
f 302/657/5 315/676/5 316/677/5 301/656/5
f 303/658/5 314/675/5 315/676/5 302/657/5
f 304/659/5 313/674/5 314/675/5 303/658/5
f 288/637/5 317/678/5 318/679/5 287/635/5
f 290/639/5 291/640/5 319/680/5 318/679/5
f 306/661/5 311/672/5 312/673/5 305/660/5
f 278/615/5 307/662/5 311/672/5 306/661/5
f 301/656/5 316/677/5 309/666/5 282/624/5
f 327/695/5 324/689/5 276/613/5 307/662/5
f 277/614/5 308/663/5 328/697/5 325/690/5
f 275/611/5 323/686/5 328/697/5 308/663/5
f 278/615/5 326/693/5 327/695/5 307/662/5
f 330/701/28 365/760/28 401/816/28 398/810/28
f 394/803/10 329/698/10 337/720/10 396/807/10
f 333/710/29 331/704/29 338/723/29 339/725/29
f 329/698/30 336/718/30 340/728/30 337/720/30
f 365/759/31 367/763/31 336/718/31 329/698/31
f 366/761/32 331/704/32 333/710/32 368/765/32
f 282/625/5 309/667/5 339/726/5 338/722/5
f 230/507/27 310/671/27 340/729/27 336/719/27
f 386/793/5 282/625/5 338/722/5 396/806/5
f 332/707/33 366/761/33 368/765/33 335/717/33
f 330/702/34 334/713/34 367/763/34 365/759/34
f 365/760/35 329/699/35 397/808/35 401/816/35
f 145/348/9 163/390/9 364/758/9 265/595/9
f 147/354/8 263/590/8 363/757/8 342/731/8
f 221/487/19 361/755/19 163/391/19 145/349/19
f 228/501/22 160/385/22 346/737/22 359/751/22
f 50/135/19 223/491/19 362/756/19 161/387/19
f 223/491/19 147/355/19 342/732/19 362/756/19
f 49/132/19 341/730/19 361/755/19 221/487/19
f 228/502/27 359/752/27 367/764/27 334/714/27
f 227/499/23 360/753/23 368/766/23 333/711/23
f 192/433/20 357/749/20 358/750/20 191/432/20
f 193/434/25 356/748/25 357/749/25 192/433/25
f 194/435/20 355/747/20 356/748/20 193/434/20
f 196/437/20 353/745/20 354/746/20 195/436/20
f 154/374/20 344/734/20 353/745/20 196/437/20
f 186/427/21 351/743/21 352/744/21 185/426/21
f 187/428/24 350/742/24 351/743/24 186/427/24
f 188/429/21 349/741/21 350/742/21 187/428/21
f 176/417/20 355/747/20 354/746/20 177/418/20
f 190/431/21 347/739/21 348/740/21 189/430/21
f 153/371/21 343/733/21 347/739/21 190/431/21
f 180/421/21 181/422/21 349/741/21 348/740/21
f 229/505/22 360/754/22 345/735/22 158/382/22
f 185/426/21 352/744/21 345/736/21 159/384/21
f 191/432/20 358/750/20 346/738/20 160/386/20
f 263/590/8 149/359/8 344/734/8 363/757/8
f 265/595/9 364/758/9 343/733/9 153/371/9
f 366/762/36 332/708/36 400/814/36 402/817/36
f 281/622/5 386/793/5 396/806/5 337/721/5
f 331/704/10 394/803/10 396/807/10 338/723/10
f 293/642/5 391/799/5 392/800/5 294/643/5
f 292/641/5 390/798/5 391/799/5 293/642/5
f 291/640/5 389/797/5 390/798/5 292/641/5
f 289/638/5 387/795/5 388/796/5 290/639/5
f 277/614/5 385/792/5 387/795/5 289/638/5
f 294/643/5 392/800/5 386/794/5 281/623/5
f 325/690/5 393/801/5 385/792/5 277/614/5
f 50/136/5 370/768/5 384/790/5 269/600/5
f 216/476/7 376/779/7 382/787/7 250/551/7
f 304/659/5 389/797/5 388/796/5 305/660/5
f 269/601/7 384/791/7 393/802/7 325/691/7
f 209/462/10 375/777/10 381/786/10 247/545/10
f 156/377/7 371/769/7 373/774/7 168/403/7
f 162/389/10 372/772/10 374/776/10 171/411/10
f 329/700/39 394/804/39 403/818/39 397/809/39
f 331/705/40 366/762/40 402/817/40 399/812/40
f 394/804/42 331/706/42 399/813/42 403/818/42
usemtl Material
f 1/4/6 2/6/6 10/26/6 9/24/6
f 14/36/6 19/48/6 27/70/6 25/65/6
f 1/4/6 9/24/6 16/42/6 13/34/6
f 21/54/6 23/60/6 24/62/6 22/56/6
f 33/85/6 34/89/6 36/95/6 35/91/6
f 29/77/6 31/81/6 39/102/6 37/97/6
f 45/118/6 46/120/6 48/126/6 47/124/6
f 41/109/6 43/113/6 151/364/6 150/361/6
f 55/145/6 70/175/6 59/153/6 61/157/6
f 83/200/6 81/196/6 76/187/6 74/183/6
f 117/277/6 104/249/6 88/211/6 86/207/6
f 108/256/6 103/245/6 99/234/6 97/228/6
f 52/140/6 53/141/6 103/245/6 108/256/6
f 92/221/6 106/253/6 104/249/6 119/281/6
f 119/281/6 104/249/6 117/277/6 100/239/6
f 123/291/6 124/295/6 121/286/6 122/288/6
f 128/307/6 129/309/6 131/315/6 130/313/6
f 126/300/6 132/318/6 127/304/6 125/298/6
f 64/166/6 66/170/6 133/322/6 138/332/6
f 138/332/6 133/322/6 139/335/6 144/346/6
f 268/598/6 154/372/6 225/495/6 272/605/6
f 383/789/6 266/596/6 155/376/6 371/770/6
f 264/591/6 146/350/6 224/493/6 271/604/6
f 246/542/6 214/473/6 172/413/6 234/514/6
f 380/784/6 220/485/6 171/410/6 374/775/6
f 202/449/6 246/542/6 234/514/6 169/404/6
f 216/477/6 236/520/6 237/522/6 217/480/6
f 231/508/6 166/398/6 208/461/6 235/518/6
f 236/520/6 207/458/6 206/456/6 237/522/6
f 237/522/6 206/456/6 205/454/6 238/525/6
f 238/525/6 205/454/6 204/453/6 239/528/6
f 373/773/6 167/400/6 215/475/6 375/778/6
f 197/439/6 241/530/6 242/533/6 198/441/6
f 377/781/6 217/480/6 218/481/6 378/782/6
f 378/782/6 218/481/6 219/484/6 379/783/6
f 379/783/6 219/484/6 220/485/6 380/784/6
f 232/510/6 168/402/6 209/463/6 241/530/6
f 243/536/6 211/466/6 212/467/6 244/537/6
f 244/537/6 212/467/6 213/470/6 245/538/6
f 235/518/6 208/461/6 207/458/6 236/520/6
f 201/447/6 245/538/6 246/542/6 202/449/6
f 372/771/26 162/388/26 330/703/26 395/805/26
f 200/445/6 244/537/6 245/538/6 201/447/6
f 199/443/6 243/536/6 244/537/6 200/445/6
f 198/441/6 242/533/6 243/536/6 199/443/6
f 165/395/6 232/510/6 241/530/6 197/439/6
f 239/528/6 204/453/6 203/451/6 240/529/6
f 219/484/6 239/528/6 240/529/6 220/485/6
f 218/481/6 238/525/6 239/528/6 219/484/6
f 376/780/6 377/781/6 211/466/6 210/464/6
f 210/464/6 211/466/6 243/536/6 242/533/6
f 167/400/6 231/508/6 235/518/6 215/475/6
f 240/529/6 203/451/6 170/409/6 233/513/6
f 220/485/6 240/529/6 233/513/6 171/410/6
f 229/504/6 164/393/6 332/709/6 335/716/6
f 267/597/6 156/378/6 226/497/6 271/604/6
f 148/356/6 268/598/6 272/605/6 222/489/6
f 266/596/6 272/605/6 225/495/6 155/376/6
f 152/370/6 264/591/6 271/604/6 226/497/6
f 381/785/6 249/549/6 250/550/6 382/788/6
f 253/558/6 247/544/6 248/547/6 254/561/6
f 249/549/6 251/554/6 252/556/6 250/550/6
f 255/565/6 257/571/6 258/573/6 256/567/6
f 261/582/6 259/576/6 260/580/6 262/586/6
f 151/367/6 222/489/6 272/605/6 266/596/6
f 150/363/6 267/597/6 271/604/6 224/493/6
f 369/767/6 151/367/6 266/596/6 383/789/6
f 162/388/6 228/500/6 334/712/6 330/703/6
f 332/709/37 395/805/37 404/819/37 400/815/37
f 150/363/6 369/767/6 383/789/6 267/597/6
f 247/544/6 381/785/6 382/788/6 248/547/6
f 216/477/6 217/480/6 377/781/6 376/780/6
f 164/393/38 372/771/38 395/805/38 332/709/38
f 213/470/6 379/783/6 380/784/6 214/473/6
f 212/467/6 378/782/6 379/783/6 213/470/6
f 211/466/6 377/781/6 378/782/6 212/467/6
f 168/402/6 373/773/6 375/778/6 209/463/6
f 214/473/6 380/784/6 374/775/6 172/413/6
f 267/597/6 383/789/6 371/770/6 156/378/6
f 395/805/41 330/703/41 398/811/41 404/819/41
