# Blender 3.5.0
# www.blender.org
mtllib prv1p-10.mtl
o Cube.009
v 1078.605225 185.899292 343.150146
v 1088.714966 204.023224 350.746368
v 1099.759644 205.513168 357.834412
v 1109.562500 204.023224 366.411224
v 1105.559937 185.899292 363.403717
v 1092.082520 183.227203 353.276794
v 1073.352173 195.952271 369.071808
v 1085.677124 195.952271 380.603760
v 1072.349487 185.141327 367.882629
v 1082.027710 185.141327 376.937958
v 1079.966064 196.930450 374.402039
v 1077.188599 184.075851 372.410278
v 1034.068115 183.888412 405.278870
v 1037.763184 184.997299 411.219238
v 1038.860596 192.518448 412.983429
v 1036.354736 193.136749 408.194153
v 1033.144897 192.518448 403.794525
v 1030.373047 184.997299 399.338562
vn 0.5976 -0.3458 0.7234
vn 0.0935 0.9872 0.1288
vn 0.5591 -0.3652 0.7443
vn 0.1197 -0.9919 0.0419
vn -0.0992 0.9873 -0.1242
vn -0.0169 -0.9912 -0.1313
vn 0.1465 0.9868 0.0686
vn -0.1026 0.9870 -0.1235
vn 0.8410 -0.4247 0.3352
vn 0.5219 -0.3204 0.7906
vn 0.1426 -0.9410 -0.3069
vn 0.2634 -0.9465 -0.1864
vn 0.8489 -0.0208 -0.5281
vt -14.264473 8.549264
vt 3.201326 -12.293419
vt 9.670940 -13.822927
vt -4.374499 -11.139666
vt -0.694649 -12.848726
vt 15.264473 -13.822927
vt 3.201326 -13.822927
vt -4.374499 11.741667
vt 9.670951 -12.462963
vt -9.323503 10.158014
vt 8.696513 -6.278199
vt -2.185741 -3.741210
vt 13.901668 -5.057772
vt 2.874073 -4.951083
vt -9.146829 2.584633
vt 5.454587 -5.851310
vt -5.146629 3.414200
vt 10.290155 -4.317173
vt 0.294283 -4.589682
vt -7.148290 3.004431
vt -6.528885 -13.693437
vt 3.201326 12.320960
vt 12.899717 12.649286
vt -4.374499 -13.822927
vt 3.789728 14.423423
vt 15.264473 12.316314
vt 3.201326 12.472745
vt 6.165949 14.791973
vt 1.537210 12.277522
vt 6.165949 13.119296
vt 9.670951 10.094576
vt -0.127885 12.397173
vt 5.780835 11.478716
vt 6.908926 10.139577
vt -8.679943 -13.574387
vt 3.291809 10.139577
s 0
usemtl Material.001
f 9/16/1 7/11/1 17/31/1 18/34/1
f 12/20/2 9/15/2 18/35/2 13/21/2
f 10/18/3 8/13/3 15/26/3 14/23/3
f 7/12/4 11/19/4 16/29/4 17/32/4
f 10/17/5 12/20/5 13/21/5 14/24/5
f 11/19/6 8/14/6 15/27/6 16/29/6
f 6/10/7 1/1/7 9/15/7 12/20/7
f 5/8/8 6/10/8 12/20/8 10/17/8
f 1/2/9 2/3/9 7/11/9 9/16/9
f 5/9/10 4/6/10 8/13/10 10/18/10
f 3/5/11 4/7/11 8/14/11 11/19/11
f 2/4/12 3/5/12 11/19/12 7/12/12
f 14/25/13 13/22/13 18/36/13 17/33/13 16/30/13 15/28/13
