# Blender 3.5.0
# www.blender.org
mtllib prv1o-8.mtl
o Cube.007
v 928.968506 56.904228 136.038605
v 928.902466 56.904217 113.797035
v 928.982483 48.022137 135.365997
v 928.935547 39.109245 124.942299
v 928.935547 57.332047 124.917801
v 928.935547 39.487911 117.885612
v 928.888550 48.022121 114.469658
v 928.935547 39.455254 131.629150
v 945.657349 65.544891 136.038605
v 945.600159 65.484528 113.797035
v 951.566101 58.183342 135.365997
v 958.069946 49.361103 124.942299
v 943.933472 66.079437 124.917801
v 958.069946 49.458000 117.885612
v 951.484741 58.110840 114.469658
v 958.069946 49.450405 131.629150
v 946.317200 88.394043 136.755600
v 946.407593 87.267181 112.388268
v 957.363770 84.544220 137.072983
v 973.449524 77.882072 126.212227
v 940.162598 88.727409 123.408287
v 967.753662 78.650467 120.432159
v 958.140320 86.509018 112.211342
v 969.070129 79.158455 131.687836
v 954.737000 153.328049 141.477661
v 940.661133 155.397247 122.391487
v 963.997559 152.520874 137.423538
v 964.907959 153.554855 116.589706
v 942.904419 154.500061 137.045349
v 956.212036 155.513626 110.141998
v 946.643311 155.247467 114.112839
v 968.203918 153.025146 125.729668
v 970.858459 119.290321 127.315811
v 970.008911 120.139771 121.641998
v 959.738403 124.398918 136.356598
v 964.795654 120.346809 114.210846
v 949.419617 122.333130 112.813408
v 947.096313 124.619560 138.678711
v 939.687439 125.009163 121.766357
v 938.126770 125.271431 133.412247
v 978.785706 197.283905 135.496323
v 961.872375 197.259155 149.940445
v 978.263916 203.195038 135.921036
v 970.347534 213.464844 142.702499
v 970.328979 195.460114 142.718353
v 964.968018 212.364929 147.269257
v 962.394043 203.154205 149.515747
v 975.445435 212.364929 138.375092
v 967.985413 193.125122 122.773506
v 951.066345 193.133362 137.210724
v 963.648865 197.449280 118.704056
v 951.493225 205.988892 120.491623
v 960.622986 191.772049 131.284515
v 946.113464 204.889038 125.058342
v 947.770935 197.455399 132.289322
v 956.590881 204.889038 116.164261
v 968.104980 177.844406 121.806381
v 949.469849 178.856155 137.506927
v 961.198120 182.756805 113.179512
v 942.508362 189.125565 107.945015
v 961.912537 175.838455 135.136169
v 941.788025 187.830933 116.027885
v 941.742188 181.039825 128.676804
v 949.516907 187.562225 107.740143
vn -0.0337 0.0703 -0.9970
vn -0.0335 0.0704 0.9970
vn -0.3277 0.9442 0.0318
vn 0.4797 -0.8742 -0.0757
vn 0.4783 -0.8749 0.0754
vn -0.3281 0.9442 -0.0307
vn -0.1362 0.3496 -0.9269
vn -0.1257 0.3242 0.9376
vn -0.4850 0.1333 0.8643
vn 0.0107 0.0478 -0.9988
vn 0.0052 0.0721 0.9974
vn -0.8499 0.3426 0.4002
vn 0.9508 0.0597 -0.3040
vn 0.9408 0.0843 0.3284
vn -0.8502 0.3931 -0.3503
vn -0.3573 0.1361 -0.9240
vn -0.9615 -0.0852 0.2611
vn -0.8024 0.0158 -0.5966
vn 0.1064 0.0581 0.9926
vn -0.2721 0.1219 -0.9545
vn 0.7389 0.0006 0.6738
vn -0.7093 -0.0480 0.7033
vn 0.4233 0.0099 -0.9060
vn 0.9952 -0.0940 -0.0281
vn 0.9458 0.0270 0.3237
vn 0.7739 0.1154 -0.6227
vn -0.7700 0.0233 0.6376
vn 0.3850 -0.0442 0.9218
vn -0.0810 0.0192 -0.9965
vn -0.3542 0.0144 0.9351
vn -0.5423 -0.0252 -0.8398
vn -0.9527 -0.0516 -0.2996
vn -0.7385 -0.1139 0.6646
vn 0.7755 -0.1143 -0.6209
vn 0.2729 -0.9578 0.0908
vn -0.2724 0.9588 -0.0803
vn -0.0359 0.9594 -0.2798
vn 0.0389 -0.9566 0.2889
vn -0.6399 -0.3770 0.6696
vn 0.7689 -0.3478 -0.5365
vn 0.9514 -0.2087 -0.2265
vn -0.7733 -0.0762 0.6294
vn 0.7478 -0.1151 -0.6539
vn 0.8106 -0.5058 0.2951
vn -0.8403 -0.0874 -0.5350
vn -0.3715 -0.1226 -0.9203
vn 0.1738 -0.5729 0.8010
vn -0.4990 -0.2170 0.8390
vn -0.3067 -0.1662 -0.9372
vn -0.9162 -0.0919 -0.3900
vn 0.9165 0.1140 0.3834
vn 0.5410 -0.1301 -0.8309
vn -0.8663 0.0067 0.4995
vn 0.9961 -0.0209 -0.0861
vn -0.5048 -0.0038 0.8632
vn 0.2531 0.1655 0.9532
vt -1.715818 -43.014370
vt 23.045561 -25.262194
vt -13.758302 44.008053
vt 23.044897 -32.113152
vt -1.868001 -46.665615
vt 25.220114 -41.421627
vt 23.256475 -28.587120
vt 23.044897 -41.430428
vt -14.328429 51.747757
vt -13.956297 47.658733
vt 27.281322 -41.413277
vt -1.929585 -50.747757
vt 28.364227 -25.225794
vt -6.793062 -41.506126
vt 7.915169 42.628860
vt 28.364227 -32.077763
vt -18.794043 42.453541
vt 1.097479 42.682781
vt -8.736934 -44.588146
vt 25.220114 -32.121498
vt 15.412890 -50.676643
vt 28.033207 -28.555862
vt 4.573648 41.754631
vt 23.044897 -32.130299
vt -23.110914 48.949844
vt 13.257372 -50.601601
vt -20.769276 45.519398
vt 27.281322 -32.113152
vt 17.455442 -50.747757
vt -10.790052 -48.048069
vt 8.082687 36.898258
vt -6.754148 -35.771557
vt 0.608250 37.258579
vt -18.719461 37.009575
vt -10.234622 -37.169960
vt -27.816236 40.107910
vt 15.368982 -41.901493
vt 4.245838 36.331005
vt -4.438049 -35.362747
vt 13.889046 -41.628174
vt -25.778666 39.883541
vt -22.321707 37.483936
vt -13.758302 -38.793415
vt 17.268850 -41.584793
vt -9.335850 -13.501404
vt -5.773994 26.153763
vt 6.914381 15.038476
vt 0.550591 -26.404255
vt 19.962698 -16.745571
vt -11.184494 -13.915001
vt -9.409638 26.237434
vt 21.835808 23.406967
vt 13.882774 -16.163130
vt -23.320040 14.496705
vt 15.122659 23.915489
vt -21.911892 -25.527966
vt -4.998542 -13.789879
vt 10.960919 14.929908
vt -2.533187 26.764978
vt 5.304805 -25.817644
vt -20.873083 14.960100
vt -18.352186 -27.093317
vt -17.078621 15.186500
vt 3.367704 15.194865
vt -1.482232 -26.488934
vt -16.711721 -26.719601
vt 15.475274 -16.468372
vt 18.781429 23.728546
vt -13.609157 -26.408255
vt 16.296486 -29.117710
vt -25.933933 27.054493
vt 14.614221 -28.798500
vt 19.656170 -27.684195
vt -10.380460 -24.890516
vt -23.969145 26.971619
vt 0.567358 26.850969
vt -19.179457 26.596945
vt -6.554867 -24.968735
vt 3.718100 26.048717
vt -16.618912 26.062933
vt 7.354423 25.951765
vt -3.629802 -24.937943
vt -26.048994 -43.163635
vt 28.364363 -18.369234
vt -8.261148 44.302151
vt 28.364363 -25.221014
vt -25.742376 -46.789543
vt 25.220087 -41.438820
vt 28.152521 -21.894444
vt 23.044897 -41.447571
vt 10.146478 -50.747757
vt -8.241484 47.949917
vt 10.960919 -46.690022
vt 27.281332 -41.430428
vt -24.817799 -50.747757
vt 23.045561 -18.375053
vt -22.177666 -41.880657
vt 17.564342 40.294128
vt 23.044897 -25.225794
vt -4.618893 42.759670
vt -20.505316 -45.016998
vt 25.220123 -50.738914
vt 2.511602 -48.321808
vt -16.723282 -48.293617
vt 23.375698 -21.898199
vt 20.489414 39.267159
vt -7.427495 41.917362
vt 23.044897 -50.747757
vt 4.138017 -48.306744
vt 6.300714 -44.827560
vt -3.314250 45.826855
vt 27.281332 -50.730583
vt -18.062532 -48.441429
vt -22.430445 -36.184235
vt 17.055593 34.581997
vt -4.385458 37.324875
vt 14.812571 36.192593
vt -19.820499 -37.739113
vt -0.920604 -39.533249
vt -13.758302 -39.619770
vt -8.188040 36.535465
vt 21.405945 33.791767
vt 1.589212 -39.308022
vt -1.715796 37.811329
vt 5.480326 -36.883266
vt -15.904739 -39.346516
s 0
usemtl Material.001
f 3/5/1 1/1/1 9/14/1 11/19/1
f 2/3/2 7/10/2 15/27/2 10/17/2
f 6/8/3 4/6/3 12/20/3 14/24/3
f 1/2/4 5/7/4 13/22/4 9/13/4
f 5/7/5 2/4/5 10/16/5 13/22/5
f 4/6/6 8/11/6 16/28/6 12/20/6
f 8/12/7 3/5/7 11/19/7 16/30/7
f 7/10/8 6/9/8 14/25/8 15/27/8
f 15/27/9 14/25/9 22/41/9 23/42/9
f 11/19/10 9/14/10 17/32/10 19/35/10
f 10/17/11 15/27/11 23/42/11 18/34/11
f 14/26/12 12/21/12 20/37/12 22/40/12
f 9/15/13 13/23/13 21/38/13 17/31/13
f 13/23/14 10/18/14 18/33/14 21/38/14
f 12/21/15 16/29/15 24/44/15 20/37/15
f 16/30/16 11/19/16 19/35/16 24/43/16
f 34/72/17 33/70/17 32/67/17 28/53/17
f 33/70/18 35/73/18 27/49/18 32/67/18
f 37/77/19 36/75/19 30/61/19 31/63/19
f 35/74/20 38/78/20 25/45/20 27/50/20
f 39/79/21 37/76/21 31/64/21 26/47/21
f 36/75/22 34/71/22 28/54/22 30/61/22
f 38/78/23 40/82/23 29/57/23 25/45/23
f 40/81/24 39/79/24 26/47/24 29/58/24
f 21/38/25 18/33/25 39/79/25 40/81/25
f 17/32/26 21/39/26 40/82/26 38/78/26
f 22/41/27 20/36/27 34/71/27 36/75/27
f 18/34/28 23/42/28 37/77/28 39/80/28
f 19/35/29 17/32/29 38/78/29 35/74/29
f 23/42/30 22/41/30 36/75/30 37/77/30
f 24/43/31 19/35/31 35/74/31 33/69/31
f 20/37/32 24/44/32 33/70/32 34/72/32
f 43/87/33 51/101/33 49/97/33 41/83/33
f 42/85/34 50/100/34 55/111/34 47/92/34
f 46/90/35 54/108/35 52/102/35 44/88/35
f 41/84/36 49/96/36 53/105/36 45/89/36
f 45/89/37 53/105/37 50/99/37 42/86/37
f 44/88/38 52/102/38 56/112/38 48/94/38
f 48/95/39 56/113/39 51/101/39 43/87/39
f 47/93/40 55/110/40 54/109/40 46/91/40
f 55/110/41 63/125/41 62/123/41 54/109/41
f 51/101/42 59/118/42 57/114/42 49/97/42
f 50/100/43 58/116/43 63/124/43 55/111/43
f 54/109/44 62/123/44 60/119/44 52/103/44
f 49/98/45 57/115/45 61/122/45 53/106/45
f 53/107/46 61/121/46 58/116/46 50/100/46
f 52/104/47 60/120/47 64/126/47 56/113/47
f 56/113/48 64/126/48 59/118/48 51/101/48
f 61/121/49 27/51/49 25/46/49 58/116/49
f 57/115/50 32/68/50 27/52/50 61/122/50
f 62/123/51 26/48/51 31/65/51 60/119/51
f 58/116/52 25/46/52 29/59/52 63/124/52
f 59/117/53 28/55/53 32/68/53 57/115/53
f 63/125/54 29/60/54 26/48/54 62/123/54
f 64/126/55 30/62/55 28/56/55 59/118/55
f 60/120/56 31/66/56 30/62/56 64/126/56
