# Blender 3.5.0
# www.blender.org
mtllib prv1p-9.mtl
o Cube.008
v 967.264465 197.259155 182.962250
v 989.428345 197.259155 207.979324
v 994.669800 197.259155 209.055649
v 1004.333496 197.259155 201.208908
v 1008.810547 197.259155 200.817490
v 1049.541626 197.259155 249.816833
v 1051.207031 197.259155 258.351440
v 1042.307739 197.259155 267.665833
v 1044.109497 197.259155 273.934479
v 1069.301636 199.931244 297.844574
v 1058.223389 197.259155 228.762024
v 1058.102051 197.259155 224.390289
v 1069.894043 197.259155 209.871094
v 1070.367554 197.259155 203.750778
v 1050.664185 197.259155 182.115814
v 1046.950928 197.259155 183.369446
v 1037.439941 197.259155 191.388580
v 1033.420654 197.259155 191.691803
v 981.678223 218.055176 170.192368
v 1007.036133 218.055176 198.814575
v 1008.810547 218.055176 200.817490
v 1054.510254 218.055176 255.425018
v 1078.766724 218.055176 289.458862
v 1056.000000 218.055176 226.252563
v 1035.037598 218.055176 193.516907
v 1033.420654 218.055176 191.691803
v 999.995667 218.055176 153.964005
v 1014.633911 218.987061 189.771866
v 1063.056641 219.545120 247.368896
v 1087.920898 219.545120 280.055359
v 1098.285400 218.055176 272.166290
v 1058.223389 218.055176 228.762024
v 1052.251465 219.421097 233.492310
v 1049.541626 218.055176 249.816833
v 1019.622192 219.545120 195.402191
v 991.194458 220.165176 162.894806
v 963.957336 169.166946 185.892258
v 1036.732178 169.166946 266.170288
v 1063.056641 162.597382 247.368896
v 1040.865967 169.166946 272.875549
v 1065.554077 169.166946 301.164612
v 1113.811768 169.166946 258.410706
v 1073.561768 169.166946 212.933350
v 1071.530762 169.166946 205.570679
v 1019.622192 162.597382 195.402191
v 1048.545654 169.166946 181.447464
v 1014.633911 162.039322 189.771866
v 989.458008 169.166946 213.494278
v 1012.467773 169.166946 142.914429
v 986.780029 187.159897 210.325653
v 964.616089 187.159897 185.308594
v 1049.135742 187.159897 181.433746
v 1050.882568 187.159897 181.922256
v 1010.701660 187.159897 144.479095
v 1044.126587 187.159897 182.206940
v 1037.403320 187.159897 260.570831
v 995.568726 187.159897 212.549133
v 1070.367554 187.159897 203.750778
v 1046.397949 187.159897 183.452271
v 993.077942 187.159897 211.180817
v 990.255920 187.159897 212.966202
v 1043.005981 187.159897 274.912109
v 1039.659180 187.159897 270.012177
v 1041.496460 187.159897 266.954651
v 1072.206421 187.159897 216.373596
v 1111.613159 187.159897 260.358612
v 1072.297485 187.159897 207.741837
v 1070.555786 187.159897 213.356873
v 1065.554077 187.159897 301.164612
v 1052.251465 162.473358 233.492310
v 991.194458 163.217438 162.894806
v 999.995667 197.259155 153.964005
v 988.536560 196.389420 159.894745
v 961.872375 197.259155 149.940445
v 964.968018 212.364929 147.269257
v 975.445435 212.364929 138.375092
v 970.347534 213.464844 142.702499
v 978.785706 197.283905 135.496323
v 970.328979 195.460114 142.718353
v 1094.537964 199.931244 275.486389
v 1087.920898 162.597382 280.055359
v 1081.919678 197.259155 286.665466
v 962.394043 203.154205 149.515747
v 978.263916 203.195038 135.921036
v 1078.605225 185.899292 343.150146
v 1088.714966 204.023224 350.746368
v 1099.759644 205.513168 357.834412
v 1109.562500 204.023224 366.411224
v 1105.559937 185.899292 363.403717
v 1092.082520 183.227203 353.276794
v 1082.848633 192.915268 316.806580
v 1099.695801 190.243179 317.403534
v 1108.599854 212.529144 316.750488
v 1095.486084 211.039200 317.254395
v 1116.543335 192.915268 318.000702
v 1121.546875 211.039200 318.178040
v 1093.425049 193.751160 301.418671
v 1089.743652 214.547180 302.740784
v 1112.533447 214.547180 294.556335
v 1078.692383 196.423248 306.709747
v 1100.877686 216.037140 297.787109
v 1108.157959 196.423248 296.127716
v 1083.344238 189.407288 329.362549
v 1106.796997 209.021149 336.676636
v 1113.668945 189.407288 340.086365
v 1098.506348 186.735199 334.724335
v 1094.717773 207.531219 333.384552
v 1118.171875 207.531219 341.678802
vn 0.2490 -0.0718 -0.9658
vn -0.7761 -0.0220 -0.6303
vn 0.5994 -0.6390 -0.4820
vn 0.6446 -0.0038 0.7645
vn 0.1723 -0.5158 -0.8392
vn 0.7229 -0.0176 0.6907
vn -0.8529 -0.5179 -0.0660
vn -0.9447 -0.0622 0.3219
vn 0.5492 -0.6794 -0.4866
vn 0.3081 -0.2688 0.9126
vn -0.7485 -0.0000 0.6631
vn 0.7690 -0.0000 -0.6392
vn -0.5480 -0.7292 0.4098
vn -0.2601 -0.0643 0.9634
vn -0.6303 -0.0075 -0.7763
vn 0.7775 -0.5878 -0.2235
vn 0.9007 -0.1013 -0.4225
vn -0.7585 0.1275 0.6390
vn -0.0933 -0.9936 0.0640
vn 0.0849 -0.9918 -0.0957
vn 0.1107 -0.9935 -0.0255
vn -0.0701 -0.9882 0.1361
vn -0.1091 -0.9907 0.0809
vn 0.0881 -0.9932 -0.0757
vn -0.1345 -0.9843 0.1144
vn 0.0964 -0.9927 -0.0718
vn 0.0968 -0.9927 -0.0713
vn -0.1049 -0.9904 0.0895
vn 0.7408 -0.0284 -0.6711
vn -0.2693 0.0096 0.9630
vn -0.7286 -0.1681 0.6640
vn 0.7245 -0.2531 -0.6411
vn -0.7335 0.0493 0.6779
vn -0.4751 -0.1533 0.8665
vn -0.5346 -0.0011 -0.8451
vn 0.8253 -0.0344 -0.5637
vn 0.8256 -0.1955 -0.5293
vn -0.7359 -0.1708 0.6552
vn 0.4712 -0.2051 -0.8578
vn -0.9977 -0.0637 0.0223
vn 0.7559 -0.0079 -0.6546
vn 0.5933 -0.0188 0.8047
vn 0.6041 -0.0501 -0.7953
vn 0.9676 -0.1088 -0.2276
vn -0.9002 -0.0142 0.4352
vn -0.8666 -0.1559 0.4741
vn -0.5288 -0.8392 0.1268
vn -0.9812 -0.1316 0.1413
vn 0.7510 -0.1062 0.6517
vn 0.3613 -0.3889 -0.8475
vn 0.6336 -0.0284 0.7732
vn 0.7042 -0.2726 -0.6556
vn -0.8057 -0.2397 -0.5416
vn 0.0875 -0.7765 -0.6240
vn -0.3576 -0.8758 0.3243
vn 0.5542 -0.8044 -0.2139
vn 0.8835 -0.2312 -0.4073
vn -0.6093 -0.0702 -0.7898
vn -0.1049 -0.7061 0.7003
vn -0.7426 -0.0144 0.6696
vn 0.3898 -0.8591 -0.3317
vn -0.4317 -0.8169 0.3825
vn 0.1382 -0.0875 0.9865
vn 0.7064 -0.3306 -0.6258
vn 0.1010 0.9773 -0.1864
vn 0.1467 0.9830 -0.1105
vn -0.1887 0.9795 0.0701
vn -0.1516 0.9761 0.1555
vn -0.1507 0.9791 0.1367
vn -0.1967 0.9739 0.1132
vn 0.1583 0.9800 -0.1208
vn 0.1448 0.9814 -0.1261
vn 0.1561 0.9796 -0.1269
vn -0.1548 0.9795 0.1290
vn 0.4561 -0.3025 0.8369
vn 0.7340 -0.0349 0.6782
vn 0.6826 0.0776 0.7266
vn 0.6333 0.0764 0.7701
vn -0.5954 -0.1192 0.7945
vn -0.0873 0.9936 0.0713
vn 0.0432 -0.9597 0.2776
vn 0.2534 -0.9657 0.0568
vn 0.0478 0.9980 -0.0410
vn 0.8105 -0.5152 -0.2788
vn -0.6864 -0.0000 -0.7273
vn -0.6684 0.0223 -0.7434
vn -0.6488 0.0158 -0.7608
vn 0.0567 0.9715 0.2303
vn 0.1786 -0.9769 -0.1175
vn -0.9246 0.2531 -0.2847
vn -0.2265 0.9704 0.0840
vn 0.8251 -0.5411 0.1626
vn -0.0345 -0.9861 -0.1625
vn -0.1276 -0.9855 -0.1122
vn 0.7305 -0.5204 -0.4422
vn -0.1293 0.9648 0.2289
vn -0.8922 0.2454 0.3791
vn 0.0674 -0.9707 -0.2305
vn 0.1905 0.9644 0.1833
vn 0.2365 0.9685 0.0785
vn -0.0083 -0.9767 -0.2145
vn -0.7928 0.2525 0.5546
vn -0.0518 0.9720 0.2294
vn 0.5353 -0.5278 -0.6595
vn -0.1640 -0.9846 -0.0610
vn -0.0760 -0.9829 -0.1679
vn 0.8342 -0.5374 -0.1235
vn -0.1904 0.9697 0.1530
vn -0.9620 0.2568 -0.0924
vn 0.1352 -0.9743 -0.1800
vn 0.1185 0.9660 0.2296
vt 23.366470 34.509205
vt -19.359375 30.186035
vt -20.877356 20.135771
vt -20.836170 8.753995
vt -21.020496 7.370684
vt -11.171148 33.849903
vt 28.945679 -45.074963
vt 35.174301 8.758455
vt -7.670072 31.456205
vt 29.162691 -44.249527
vt 33.936722 7.856411
vt 29.150259 -22.514412
vt 34.400837 -13.888603
vt 28.902884 -19.858057
vt 6.790951 33.015690
vt 35.876514 -16.460051
vt 10.165617 35.779594
vt 2.076752 -16.384314
vt 2.238301 -18.455288
vt 6.790945 11.075183
vt 26.211418 -10.753518
vt 1.139606 -30.177250
vt 33.839977 -15.422640
vt 37.234119 -43.958069
vt 33.936737 -16.184353
vt 38.181557 -45.108444
vt 47.118008 -4.319399
vt 26.211418 26.925392
vt 41.871990 -7.842525
vt 40.571877 -8.660225
vt 27.096691 26.959448
vt 36.527344 26.073099
vt -11.171144 16.617140
vt -10.048819 16.055815
vt -6.299901 14.062295
vt 21.740469 -43.700527
vt 21.824661 -42.553848
vt 11.375404 9.405884
vt -29.991730 34.896027
vt -29.006966 20.472870
vt 36.151020 -45.109173
vt -28.959869 7.450881
vt -10.671811 24.912479
vt -32.339005 22.055475
vt 36.155441 -44.197937
vt -32.503250 21.156912
vt 10.165617 26.611864
vt -5.931898 -15.684566
vt 36.155457 -19.911293
vt -36.201019 -2.866683
vt -37.274921 -17.091002
vt -5.699820 -29.941385
vt 43.922703 2.087171
vt 26.792223 -16.536270
vt 26.729860 19.208387
vt -41.770050 5.380328
vt -8.652552 7.287342
vt 38.390430 18.284075
vt 28.902876 -43.519802
vt -41.427036 18.642597
vt 28.902876 -42.734158
vt -41.277374 19.461397
vt 28.902876 -26.494545
vt -38.183361 36.386917
vt -36.168682 23.355837
vt -40.148338 -2.017520
vt -41.636425 -15.956388
vt 26.211418 3.697612
vt -46.003735 -15.502357
vt 26.759548 -15.456559
vt -41.975864 4.254508
vt -39.440586 3.943136
vt 36.143013 -22.462820
vt -35.741074 -0.350701
vt -36.645466 20.834501
vt -34.104626 35.357201
vt -11.171148 20.182842
vt -5.931898 -45.107769
vt 13.796199 35.988831
vt 11.713414 -14.722095
vt -6.448689 -8.161829
vt -17.299217 -6.903074
vt 11.787892 -17.396641
vt -5.994510 -5.515620
vt 11.779077 -30.189098
vt -5.931898 7.287342
vt -3.703489 9.374238
vt 44.601025 38.515915
vt -27.909819 7.285969
vt -3.703501 31.379179
vt 47.118008 -15.938522
vt 44.601025 18.952610
vt -27.866833 -13.423031
vt 46.080925 -16.536270
vt 27.575747 36.508823
vt -29.006966 -15.761553
vt -17.904558 -29.988461
vt 38.390430 35.472702
vt 11.787892 -45.109173
vt -6.299901 24.912474
vt -28.566147 -27.116119
vt -17.887806 -32.544479
vt -7.670072 43.067310
vt 11.787892 9.369611
vt -11.171148 7.406879
vt -6.231956 -32.296452
vt 11.825969 -27.945236
vt -28.024920 -45.109173
vt 13.796199 13.886185
vt -17.231583 8.725533
vt -17.272760 20.107328
vt 19.925922 35.706142
vt 37.497124 29.417023
vt -9.315548 19.564413
vt 36.900448 29.498354
vt -9.647484 19.703859
vt 18.012026 -27.835791
vt 6.790951 26.575609
vt 19.925919 14.708318
vt 18.012026 -44.075447
vt 6.790951 9.369611
vt 5.417426 -13.409047
vt 40.199608 -13.975053
vt 5.429052 8.291167
vt 40.237106 7.765317
vt 27.501740 30.374050
vt -8.289093 19.024071
vt 17.989094 -44.959381
vt 5.487262 9.179857
vt 40.571861 8.675737
vt -9.950885 37.199158
vt -17.276545 7.287342
vt -10.879532 37.827866
vt 5.721032 -18.455225
vt 8.893249 39.192974
vt 5.681140 -16.432882
vt 5.481295 -15.988184
vt 7.996985 38.481209
vt 40.571861 -16.536270
vt 38.390430 19.278151
vt 43.308353 -43.963104
vt 38.399811 38.341724
vt 43.560612 -23.805460
vt 2.434325 30.372011
vt 26.264547 30.457275
vt 42.902607 -11.308550
vt 38.410458 18.284075
vt 43.560612 -45.109173
vt 44.360256 -10.364347
vt 5.729025 -30.251244
vt 2.434335 9.369611
vt -17.661425 -12.886192
vt -17.972876 -44.723663
vt 11.787892 23.816559
vt 11.375404 26.611864
vt 23.366470 19.596016
vt 21.824661 -26.314209
vt -19.359375 45.092762
vt 23.001152 23.909336
vt -20.422874 40.809719
vt -29.006966 36.250706
vt -21.967346 30.186035
vt -29.006966 44.496094
vt -27.287693 30.182371
vt 27.176992 -16.536270
vt -33.624134 45.235550
vt -31.407185 44.884800
vt 21.928288 -16.920958
vt -28.869490 43.832184
vt -28.909143 40.008503
vt 36.155457 -23.800875
vt 6.790945 22.582617
vt 32.267845 3.160214
vt 16.278835 -16.536270
vt -16.290495 7.062149
vt -5.931898 19.874176
vt 5.879432 16.829552
vt 21.265524 -13.583349
vt -23.989065 30.160656
vt 23.957863 -16.887539
vt 26.211418 5.322365
vt -0.837801 39.733429
vt -29.006966 -36.847435
vt -0.837801 33.206215
vt -31.016100 -40.858898
vt -13.320137 31.655003
vt -32.321438 -45.109173
vt -19.267473 30.186035
vt 18.532352 13.886185
vt 22.392242 9.665786
vt 3.626558 -38.102974
vt 22.988544 -3.354459
vt 17.408659 -1.968910
vt -41.011295 -30.381042
vt -3.013464 -40.917343
vt -37.063145 -28.218079
vt 33.936737 16.791565
vt 11.787892 -0.706368
vt -19.112789 43.725403
vt 27.815207 18.284075
vt -44.490803 -33.102299
vt -13.320141 46.087299
vt 18.420002 -7.807096
vt -38.039719 -22.938313
vt -4.497033 -35.807556
vt 27.054914 11.669459
vt -46.118008 -24.586151
vt 23.682915 -7.084951
vt 2.242687 -34.518303
vt -42.194557 -23.452541
vt 33.143890 10.654469
vt 13.116257 -8.652281
vt -4.836313 38.041256
vt 5.268430 -41.590946
vt 23.682915 0.952994
vt -36.884392 -35.903774
vt 14.242971 6.558969
vt -19.359375 37.737240
vt 18.983389 3.817477
vt -5.931898 31.379166
vt -1.177354 -45.109173
vt -33.905712 -32.816559
vt -39.276798 -39.389519
vt -13.489375 39.652657
s 0
usemtl Material.001
f 4/7/1 20/41/1 21/45/1 5/10/1
f 13/29/2 12/27/2 24/53/2
f 9/19/3 22/48/3 23/52/3 10/22/3
f 17/35/4 16/34/4 25/57/4
f 2/4/5 20/42/5 3/5/5
f 7/15/6 22/47/6 8/17/6
f 14/30/7 13/29/7 24/53/7
f 12/25/8 11/23/8 32/70/8 24/54/8
f 1/3/9 19/40/9 20/42/9 2/4/9
f 16/34/10 15/33/10 25/57/10
f 72/157/11 18/37/11 26/61/11 27/63/11
f 5/10/12 21/45/12 34/73/12 6/12/12
f 15/32/13 14/31/13 24/55/13 25/58/13
f 18/37/14 17/36/14 25/59/14 26/61/14
f 3/6/15 20/43/15 4/9/15
f 8/18/16 22/48/16 9/19/16
f 6/12/17 34/73/17 22/49/17 7/14/17
f 11/23/18 80/173/18 31/68/18 32/70/18
f 26/62/19 28/65/19 36/76/19 27/64/19
f 20/44/20 19/39/20 36/76/20 28/65/20
f 21/46/21 20/44/21 28/65/21 35/75/21
f 25/60/22 35/75/22 28/65/22 26/62/22
f 24/56/23 33/72/23 35/75/23 25/60/23
f 34/74/24 21/46/24 35/75/24 33/72/24
f 24/56/25 32/71/25 29/66/25 33/72/25
f 33/72/26 29/66/26 22/50/26 34/74/26
f 23/51/27 22/50/27 29/66/27 30/67/27
f 30/67/28 29/66/28 32/71/28 31/69/28
f 51/111/29 50/110/29 48/105/29 37/77/29
f 53/115/30 52/113/30 46/98/30
f 55/120/31 54/117/31 49/107/31 46/99/31
f 57/124/32 56/122/32 38/80/32 48/104/32
f 58/126/33 53/115/33 46/98/33 44/95/33
f 59/128/34 55/120/34 46/99/34
f 61/133/35 60/131/35 48/103/35
f 63/136/36 62/134/36 40/83/36
f 56/122/37 64/137/37 38/80/37
f 66/142/38 65/140/38 43/92/38 42/88/38
f 60/129/39 57/124/39 48/104/39
f 68/149/40 67/146/40 44/94/40 43/91/40
f 62/134/41 69/150/41 41/85/41 40/83/41
f 52/114/42 59/127/42 46/100/42
f 50/110/43 61/132/43 48/105/43
f 64/137/44 63/136/44 40/83/44 38/80/44
f 67/145/45 58/126/45 44/95/45
f 65/140/46 68/147/46 43/92/46
f 11/24/47 12/26/47 68/148/47 65/141/47
f 13/28/48 14/31/48 58/126/48 67/145/48
f 7/15/49 8/17/49 63/135/49 64/138/49
f 2/4/50 3/5/50 61/132/50 50/110/50
f 16/34/51 17/35/51 59/127/51 52/114/51
f 9/19/52 10/22/52 69/150/52 62/134/52
f 12/27/53 13/29/53 67/146/53 68/149/53
f 4/8/54 5/11/54 57/125/54 60/130/54
f 80/171/55 11/24/55 65/141/55 66/143/55
f 6/13/56 7/16/56 64/139/56 56/123/56
f 8/18/57 9/19/57 62/134/57 63/136/57
f 3/6/58 4/9/58 60/131/58 61/133/58
f 17/36/59 18/37/59 55/120/59 59/128/59
f 14/31/60 15/32/60 53/115/60 58/126/60
f 5/11/61 6/13/61 56/123/61 57/125/61
f 18/38/62 72/155/62 54/118/62 55/121/62
f 15/33/63 16/34/63 52/114/63 53/116/63
f 1/3/64 2/4/64 50/110/64 51/111/64
f 48/106/65 45/97/65 47/102/65
f 47/102/66 71/153/66 37/78/66 48/106/66
f 46/101/67 47/102/67 45/97/67
f 46/101/68 49/108/68 71/153/68 47/102/68
f 45/97/69 70/152/69 44/96/69 46/101/69
f 44/96/70 70/152/70 39/82/70 43/93/70
f 39/82/71 70/152/71 38/81/71 40/84/71
f 38/81/72 70/152/72 45/97/72 48/106/72
f 40/84/73 41/86/73 81/175/73 39/82/73
f 81/175/74 42/89/74 43/93/74 39/82/74
f 54/119/75 72/156/75 73/159/75
f 51/112/76 73/159/76 1/1/76
f 51/112/77 37/79/77 71/154/77 73/159/77
f 54/119/78 73/159/78 71/154/78 49/109/78
f 72/157/79 27/63/79 76/165/79 84/180/79 78/168/79
f 73/160/80 72/158/80 78/169/80 79/170/80
f 27/64/81 36/76/81 77/167/81 76/166/81
f 36/76/82 19/39/82 75/163/82 77/167/82
f 1/2/83 73/160/83 79/170/83 74/161/83
f 19/40/84 1/3/84 74/162/84 83/179/84 75/164/84
f 41/87/85 69/151/85 81/176/85
f 69/151/86 10/20/86 82/177/86 80/172/86 81/176/86
f 80/172/87 66/144/87 42/90/87 81/176/87
f 106/219/88 103/215/88 85/181/88 90/190/88
f 107/222/89 104/216/89 87/185/89 86/183/89
f 108/224/90 105/218/90 89/188/90 88/186/90
f 105/217/91 106/219/91 90/190/91 89/189/91
f 103/213/92 107/220/92 86/184/92 85/182/92
f 104/216/93 108/223/93 88/187/93 87/185/93
f 101/210/94 99/207/94 96/201/94 93/194/94
f 100/209/95 98/205/95 94/195/95 91/191/95
f 102/212/96 97/203/96 92/193/96 95/198/96
f 99/206/97 102/211/97 95/197/97 96/200/97
f 98/204/98 101/210/98 93/194/98 94/196/98
f 97/203/99 100/208/99 91/192/99 92/193/99
f 82/178/100 10/21/100 100/208/100 97/203/100
f 23/51/101 30/67/101 101/210/101 98/204/101
f 31/68/102 80/173/102 102/211/102 99/206/102
f 80/174/103 82/178/103 97/203/103 102/212/103
f 10/22/104 23/52/104 98/205/104 100/209/104
f 30/67/105 31/69/105 99/207/105 101/210/105
f 93/194/106 96/201/106 108/223/106 104/216/106
f 91/191/107 94/195/107 107/221/107 103/214/107
f 95/198/108 92/193/108 106/219/108 105/217/108
f 96/202/109 95/199/109 105/218/109 108/224/109
f 94/196/110 93/194/110 104/216/110 107/222/110
f 92/193/111 91/192/111 103/215/111 106/219/111
